<?xml version="1.0" encoding="UTF-8" standalone="no"?>
<!-- Created with Inkscape (http://www.inkscape.org/) -->

<svg
   version="1.1"
   id="svg2"
   width="377.94666"
   height="31.653334"
   viewBox="0 0 377.94666 31.653334"
   sodipodi:docname="DreamHack_Logo_RGB_WHITE.eps"
   xmlns:inkscape="http://www.inkscape.org/namespaces/inkscape"
   xmlns:sodipodi="http://sodipodi.sourceforge.net/DTD/sodipodi-0.dtd"
   xmlns="http://www.w3.org/2000/svg"
   xmlns:svg="http://www.w3.org/2000/svg">
  <defs
     id="defs6" />
  <sodipodi:namedview
     id="namedview4"
     pagecolor="#ffffff"
     bordercolor="#000000"
     borderopacity="0.25"
     inkscape:showpageshadow="2"
     inkscape:pageopacity="0.0"
     inkscape:pagecheckerboard="0"
     inkscape:deskcolor="#d1d1d1" />
  <g
     id="g8"
     inkscape:groupmode="layer"
     inkscape:label="ink_ext_XXXXXX"
     transform="matrix(1.3333333,0,0,-1.3333333,0,31.653333)">
    <g
       id="g10"
       transform="scale(0.1)">
      <path
         d="m 2737.65,237.402 -89.03,-89.019 h -36.55 v 89.019 h -74.19 V 0 h 74.19 v 89.0313 h 36.55 l 89.03,-89.015675 h 97 l -118.7,118.691375 118.7,118.695 z m -1260.29,0.016 -0.01,-0.016 h -0.2 v -0.203 l -74.09,-74.082 -74.3,74.285 v 0.016 l -0.01,-0.016 h -74.17 V 0 h 74.18 v 138.949 l 74.3,-74.3006 74.09,74.0856 V 0 h 74.19 v 237.402 h -73.98 z m 749,-0.016 V 0 h 286.27 v 89.0313 h -74.18 V 59.3555 H 2300.53 V 178.051 h 137.92 v -29.668 h 74.18 v 89.019 z m -318.91,0 V 0 h 74.17 v 59.3555 h 140.87 V 0 h 74.18 v 237.402 z m 74.17,-59.351 h 140.87 v -59.356 h -140.87 z m -178.03,59.351 v -89.019 h -148.4 v 89.019 H 1581 V 0 h 74.19 v 89.0313 h 148.4 V 0 h 74.17 v 237.402 z m -867.922,0 V 0 h 74.192 v 59.3555 h 140.85 V 0 h 74.19 v 237.402 z m 74.192,-59.351 h 140.85 V 118.695 H 1009.86 Z M 644.602,237.402 V 0 H 913.371 V 59.3555 H 722.387 V 89.0313 H 898.449 V 148.375 H 722.387 v 29.676 H 905.91 v 59.351 z m -644.60590625,0 V 0 H 267.078 l 29.68,29.6797 V 207.738 l -29.68,29.664 z M 74.1875,178.051 H 222.57 V 59.3477 H 74.1875 Z M 326.438,237.402 V 0 h 74.175 V 59.3555 H 541.48 V 0 h 74.176 v 68.043 l -20.98,20.9883 20.98,20.9807 v 97.726 l -29.652,29.664 z m 74.175,-59.351 H 541.48 V 118.695 H 400.613 v 59.356"
         style="fill:#ffffff;fill-opacity:1;fill-rule:nonzero;stroke:none"
         id="path12" />
    </g>
  </g>
</svg>
