<svg width="5700" height="1000" viewBox="0 0 5700 1000" fill="none" xmlns="http://www.w3.org/2000/svg">
<path d="M300 200V400H600V200H300Z" fill="black"/>
<path d="M3500 200H3700V300H3600V400H3500V200Z" fill="black"/>
<path d="M3600 500H3700V400H3800V700H3600V500Z" fill="black"/>
<path fill-rule="evenodd" clip-rule="evenodd" d="M0 100H100V0H800V100H900V0H2000V100H2100V0H3200V100H3300V0H4000V100H4100V0H5600V100H5700V400H5600V500H5700V900H5600V1000H2200V900H2100V1000H600V900H500V1000H100V900H0V100ZM100 200H200V100H700V200H800V800H600V500H300V800H100V200ZM1500 200H1600V300H1400V200H1100V400H1500V500H1600V700H1500V800H1000V700H900V600H1100V700H1400V500H1000V400H900V200H1000V100H1500V200ZM1700 100H1900V200H2000V300H2100V200H2200V100H2400V800H2200V400H2100V500H2000V400H1900V800H1700V100ZM2600 200V100H3100V200H3200V400H3100V500H2900V600H2800V700H3200V800H2500V700H2600V600H2700V500H2900V400H3000V200H2700V300H2500V200H2600ZM4200 200V100H4700V200H4800V400H4700V500H4500V600H4400V700H4800V800H4100V700H4200V600H4300V500H4500V400H4600V200H4300V300H4100V200H4200ZM3900 100V200H4000V700H3900V800H3400V700H3300V200H3400V100H3900ZM4900 100H5500V200H5100V400H5400V500H5500V700H5400V800H4900V700H5300V500H4900V100Z" fill="black"/>
<path fill-rule="evenodd" clip-rule="evenodd" d="M300 200V400H600V200H300ZM3500 200V400H3600V300H3700V200H3500ZM3700 500H3600V700H3800V400H3700V500Z" fill="black"/>
<path fill-rule="evenodd" clip-rule="evenodd" d="M800 200H700V100H200V200H100V800H300V500H600V800H800V200ZM300 400V200H600V400H300Z" fill="white"/>
<path d="M1600 200H1500V100H1000V200H900V400H1000V500H1400V700H1100V600H900V700H1000V800H1500V700H1600V500H1500V400H1100V200H1400V300H1600V200Z" fill="white"/>
<path d="M1900 400H2000V500H2100V400H2200V800H2400V100H2200V200H2100V300H2000V200H1900V100H1700V800H1900V400Z" fill="white"/>
<path d="M2600 100V200H2500V300H2700V200H3000V400H2900V500H3100V400H3200V200H3100V100H2600Z" fill="white"/>
<path d="M2500 700V800H3200V700H2800V600H2900V500H2700V600H2600V700H2500Z" fill="white"/>
<path fill-rule="evenodd" clip-rule="evenodd" d="M4000 200H3900V100H3400V200H3300V700H3400V800H3900V700H4000V200ZM3700 500H3600V700H3800V400H3700V500ZM3600 400V300H3700V200H3500V400H3600Z" fill="white"/>
<path d="M4200 100V200H4100V300H4300V200H4600V400H4500V500H4700V400H4800V200H4700V100H4200Z" fill="white"/>
<path d="M4400 600H4500V500H4300V600H4200V700H4100V800H4800V700H4400V600Z" fill="white"/>
<path d="M5500 200V100H4900V500H5300V700H4900V800H5400V700H5500V500H5400V400H5100V200H5500Z" fill="white"/>
</svg>
