<svg width="2096" height="360" viewBox="0 0 2096 360" fill="none" xmlns="http://www.w3.org/2000/svg">
<path fill-rule="evenodd" clip-rule="evenodd" d="M2059.2 72V36H2023.2V0H1771.2V36H1728V0H1476V36H1440V0H1188V36H1152V0H756V36H720V0H324V36H288V0H36V36H0V324H36V360H180V324H216V360H756V324H792V360H2095.2V252H2059.2V216H2095.2V72H2059.2Z" fill="black"/>
<path d="M36 288V72H72V36H252V72H288V288H216V180H108V288H36ZM108 144H216V72H108V144Z" fill="white"/>
<path d="M324 252V216H396V252H504V180H360V144H324V72H360V36H540V72H576V108H504V72H396V144H540V180H576V252H540V288H360V252H324Z" fill="white"/>
<path d="M612 288V36H684V72H720V108H756V72H792V36H864V288H792V144H756V180H720V144H684V288H612Z" fill="white"/>
<path d="M900 288V252H936V216H972V180H1044V216H1008V252H1152V288H900ZM900 108V72H936V36H1116V72H1152V144H1116V180H1044V144H1080V72H972V108H900Z" fill="white"/>
<path d="M1188 252V72H1224V36H1404V72H1440V252H1404V288H1224V252H1188ZM1260 144H1296V108H1332V72H1260V144ZM1296 252H1368V144H1332V180H1296V252Z" fill="white"/>
<path d="M1476 288V252H1512V216H1548V180H1620V216H1584V252H1728V288H1476ZM1476 108V72H1512V36H1692V72H1728V144H1692V180H1620V144H1656V72H1548V108H1476Z" fill="white"/>
<path d="M1771.2 288V252H1807.2V216H1843.2V180H1915.2V216H1879.2V252H2023.2V288H1771.2ZM1771.2 108V72H1807.2V36H1987.2V72H2023.2V144H1987.2V180H1915.2V144H1951.2V72H1843.2V108H1771.2Z" fill="white"/>
</svg>
