<svg width="544" height="104" viewBox="0 0 544 104" fill="none" xmlns="http://www.w3.org/2000/svg">
<path d="M159.89 59.2458L159.564 59.083C158.045 58.6852 156.436 58.4321 154.736 58.3236C153.036 58.2151 151.301 57.98 149.528 57.6183C151.264 57.98 152.964 58.2693 154.628 58.4863C156.291 58.6671 157.937 59.0288 159.564 59.5713C159.058 59.8967 158.516 60.0595 157.937 60.0595C157.25 59.9872 156.563 59.8787 155.875 59.734C155.224 59.5893 154.519 59.4808 153.76 59.4085C153.76 59.1915 153.814 59.0288 153.923 58.9203C152.874 58.9203 151.825 58.8118 150.776 58.5948C149.764 58.3778 148.769 58.1427 147.793 57.8896C146.816 57.6003 145.858 57.3471 144.917 57.1301C144.013 56.877 143.163 56.7504 142.368 56.7504C142.368 56.8589 142.35 56.9131 142.314 56.9131C143.254 57.094 144.14 57.3471 144.972 57.6726C145.803 57.9981 146.744 58.2512 147.793 58.4321C148.805 58.6852 149.782 58.866 150.722 58.9745C151.698 59.083 152.657 59.2277 153.597 59.4085C152.078 59.2639 150.523 59.0469 148.932 58.7575C147.377 58.4682 145.84 58.1427 144.321 57.7811L141.771 57.1301C140.867 59.4447 139.945 61.7231 139.004 63.9653C138.1 66.1714 137.214 68.4136 136.346 70.692C136.274 70.5474 136.147 70.4569 135.967 70.4208C135.822 70.4208 135.659 70.4208 135.478 70.4208C135.334 70.4208 135.189 70.3665 135.044 70.258C134.9 70.1857 134.827 70.0049 134.827 69.7156C134.827 69.4262 134.9 69.0103 135.044 68.4679C135.189 67.9616 135.46 67.2744 135.858 66.4065C135.786 66.3341 135.659 66.298 135.478 66.298C135.334 66.2618 135.225 66.2437 135.153 66.2437C134.43 67.7626 133.724 68.9199 133.037 69.7156C132.386 70.5474 131.862 70.9633 131.464 70.9633C131.03 70.9633 130.813 70.5474 130.813 69.7156C130.813 69.0284 130.94 68.1605 131.193 67.1117C131.446 66.0267 131.753 64.8694 132.115 63.6398C132.513 62.4102 132.947 61.1444 133.417 59.8425C133.887 58.5044 134.339 57.2024 134.773 55.9367C134.375 55.6835 133.941 55.5027 133.471 55.3942C133.037 55.2857 132.549 55.1953 132.007 55.123C132.115 54.9783 132.169 54.7975 132.169 54.5805C132.169 54.3635 132.187 54.1465 132.223 53.9295C132.26 53.7125 132.332 53.5317 132.44 53.387C132.549 53.2424 132.748 53.17 133.037 53.17C133.11 53.17 133.327 53.2062 133.688 53.2785V52.7903C133.11 52.501 132.657 52.1574 132.332 51.7596C132.043 51.3618 131.898 50.964 131.898 50.5662C131.898 49.6982 132.73 49.2642 134.393 49.2642C134.864 49.2642 135.334 49.3004 135.804 49.3727C136.31 49.4089 136.816 49.4631 137.323 49.5354L139.818 43.8394C140.361 42.6098 140.939 41.3441 141.554 40.0421C142.205 38.7402 142.965 37.4563 143.832 36.1905C144.7 34.9248 145.677 33.7313 146.762 32.6102C147.883 31.4529 149.167 30.4222 150.613 29.5181L151.427 29.1926C152.44 29.4457 153.253 29.6627 153.868 29.8436C154.519 29.9882 155.044 30.0967 155.441 30.169C155.803 30.3137 156.092 30.4041 156.309 30.4403H156.255L156.309 30.603C156.309 30.6392 156.291 30.6754 156.255 30.7115L156.906 31.8507C159.257 35.7927 161.246 39.8794 162.873 44.1107C164.501 48.342 165.893 52.501 167.05 56.5876C167.34 57.4918 167.683 58.4682 168.081 59.517C168.515 60.5296 168.913 61.5061 169.275 62.4464C169.672 63.3505 169.998 64.1823 170.251 64.9418C170.504 65.6651 170.631 66.1895 170.631 66.515C170.631 66.7681 170.577 66.9309 170.468 67.0032C170.36 67.0393 170.215 67.0574 170.034 67.0574C169.094 64.7067 168.208 62.3921 167.376 60.1137C166.544 57.8715 165.73 55.6112 164.935 53.3328C165.658 55.6112 166.418 57.8715 167.213 60.1137C168.045 62.3921 168.877 64.7067 169.709 67.0574H169.329C169.112 67.0574 168.967 67.1659 168.895 67.3829C168.967 67.4552 169.058 67.6542 169.166 67.9796C169.275 68.269 169.383 68.5764 169.492 68.9018C169.6 69.2635 169.691 69.6252 169.763 69.9868C169.835 70.3485 169.871 70.6197 169.871 70.8005C169.871 71.5961 169.636 71.994 169.166 71.994C168.913 71.994 168.714 71.9397 168.569 71.8312C168.425 71.7227 168.262 71.5781 168.081 71.3972L167.539 70.8548C167.322 70.6378 167.05 70.4208 166.725 70.2038L161.517 55.2314C162.277 57.5822 163.018 59.9329 163.741 62.2836C164.501 64.6344 165.278 66.9489 166.074 69.2273C165.495 68.5402 164.953 67.7084 164.447 66.7319C163.976 65.7555 163.524 64.7248 163.09 63.6398C162.693 62.5549 162.313 61.4518 161.951 60.3307C161.59 59.1734 161.228 58.0885 160.866 57.0759C160.866 57.1482 160.866 57.2205 160.866 57.2929C160.902 57.329 160.92 57.3833 160.92 57.4556C160.92 58.0342 160.74 58.4682 160.378 58.7575L159.89 59.2458ZM159.564 53.604C159.637 53.604 159.745 53.5859 159.89 53.5498C160.034 53.4774 160.143 53.4413 160.215 53.4413C159.022 50.4396 157.828 47.5283 156.635 44.7074C155.478 41.8865 154.194 39.1742 152.783 36.5703L152.458 36.8958L153.272 38.3604C154.537 40.675 155.677 43.0619 156.689 45.5211C157.702 47.9803 158.66 50.5119 159.564 53.1158C158.516 50.2949 157.376 47.4921 156.147 44.7074C154.953 41.8865 153.669 39.3369 152.295 37.0585L152.078 37.167C150.849 38.4328 149.691 39.9517 148.606 41.7238C147.557 43.4959 146.563 45.3041 145.623 47.1486L144.212 50.5662L145.134 50.7831C145.677 50.9278 146.201 51.0905 146.708 51.2714C147.25 51.416 147.72 51.5788 148.118 51.7596C148.914 52.1574 149.962 52.4648 151.264 52.6818C152.566 52.8988 153.832 53.1158 155.062 53.3328C156.328 53.5136 157.412 53.7306 158.317 53.9838C159.257 54.2007 159.727 54.5262 159.727 54.9602L153.109 54.2007C153.507 54.2731 153.995 54.3635 154.574 54.472C155.152 54.5443 155.731 54.6347 156.309 54.7432C156.924 54.8517 157.521 54.9602 158.1 55.0687C158.678 55.141 159.166 55.2134 159.564 55.2857C159.564 55.3942 159.546 55.5027 159.51 55.6112C159.51 55.6835 159.51 55.7558 159.51 55.8282C159.51 55.9005 159.546 55.9548 159.619 55.9909C159.727 55.9909 159.836 56.009 159.944 56.0452C160.089 56.0452 160.215 56.0813 160.324 56.1537C160.432 56.1898 160.541 56.2983 160.649 56.4791L159.564 53.604ZM147.793 41.995C147.865 41.995 147.883 42.0493 147.847 42.1578C147.847 42.2301 147.865 42.2663 147.901 42.2663C147.973 42.2663 148.19 42.0131 148.552 41.5068C148.914 41.0005 149.33 40.4218 149.8 39.7709C150.27 39.1199 150.722 38.5051 151.156 37.9265C151.59 37.3478 151.897 36.9681 152.078 36.7873L151.807 36.4075C151.047 37.1308 150.342 37.9807 149.691 38.9572C149.04 39.9336 148.407 40.9462 147.793 41.995ZM153.272 36.1363C154.429 38.0892 155.496 40.1325 156.472 42.2663C157.412 44.3638 158.299 46.4614 159.13 48.559C158.443 46.4614 157.611 44.3638 156.635 42.2663C155.622 40.1325 154.519 38.0892 153.326 36.1363H153.272ZM161.571 44.2734C162.693 47.1666 163.796 50.1141 164.881 53.1158C163.868 50.1864 162.801 47.2932 161.68 44.4362C160.631 41.6153 159.42 38.7763 158.045 35.9193C159.347 38.6678 160.523 41.4526 161.571 44.2734ZM153.597 34.9428C154.067 35.0513 154.393 35.1598 154.574 35.2683C154.754 35.3768 154.881 35.4311 154.953 35.4311L155.007 35.2683C155.044 35.2683 154.971 35.2502 154.791 35.2141C154.61 35.1779 154.465 35.1417 154.357 35.1056L154.465 34.8886L153.814 34.6716L153.597 34.9428ZM150.939 34.4004L151.373 35.5396L151.319 34.4004C151.246 34.4004 151.156 34.3823 151.047 34.3461C150.975 34.3099 150.903 34.2919 150.83 34.2919L150.939 34.4004ZM152.349 35.9735L151.97 36.2448L152.295 36.6788L152.621 36.3533L152.349 35.9735ZM153.109 35.865H153.163L152.892 35.4853V35.5396L153.109 35.865ZM203.582 35.0513L203.419 36.0278C203.238 37.7999 203.13 39.6985 203.093 41.7238C203.057 43.7129 202.913 45.72 202.659 47.7453C202.949 45.7562 203.184 43.8033 203.365 41.8865C203.545 39.8975 203.726 37.9445 203.907 36.0278C204.088 36.6064 204.233 37.2212 204.341 37.8722C204.486 38.5232 204.558 39.2103 204.558 39.9336C204.377 41.7419 204.214 43.4778 204.07 45.1414C203.925 46.805 203.726 48.5409 203.473 50.3492L202.768 50.5119C202.587 52.1755 202.207 53.9838 201.629 55.9367C201.05 57.8896 200.2 59.6978 199.079 61.3614C197.994 63.025 196.584 64.4174 194.848 65.5385C193.112 66.6234 191.032 67.1659 188.609 67.1659C187.814 67.1659 186.964 67.1117 186.06 67.0032C185.192 66.8585 184.342 66.6596 183.51 66.4065C182.678 66.1171 181.883 65.7555 181.123 65.3215C180.364 64.8875 179.713 64.345 179.17 63.6941L179.224 63.8026V63.8568L179.17 63.9111L179.007 63.8568C179.224 64.1823 179.459 64.4716 179.713 64.7248C179.062 64.1461 178.465 63.4771 177.922 62.7176C177.018 61.488 176.295 60.0233 175.753 58.3236C175.427 57.3109 175.174 56.2802 174.993 55.2314C174.812 54.1827 174.686 53.0796 174.613 51.9223C174.541 50.7289 174.487 49.445 174.451 48.0708C174.451 46.6965 174.451 45.1776 174.451 43.514C174.776 42.212 175.029 40.9101 175.21 39.6081C175.391 38.3062 175.517 37.0042 175.59 35.7023C175.698 35.7023 175.825 35.6842 175.97 35.6481C176.114 35.6119 176.259 35.5938 176.404 35.5938C176.657 35.5938 176.874 35.7385 177.054 36.0278C177.271 36.3171 177.38 36.9319 177.38 37.8722V38.3604C177.38 38.5051 177.362 38.6678 177.326 38.8487H177.977C178.266 37.3297 178.61 36.1724 179.007 35.3768C179.405 34.5812 179.803 34.1834 180.201 34.1834C180.49 34.1834 180.743 34.5993 180.96 35.4311C181.213 36.2267 181.34 37.4925 181.34 39.2284C181.34 40.4942 181.304 41.778 181.232 43.08C181.159 44.3819 181.123 45.72 181.123 47.0943C181.123 49.228 181.213 51.1629 181.394 52.8988C181.611 54.6347 182.009 56.1175 182.588 57.3471C183.166 58.5767 183.98 59.5351 185.029 60.2222C186.114 60.8732 187.506 61.1987 189.206 61.1987C190.616 61.1987 191.792 60.7647 192.732 59.8967C193.672 59.0288 194.468 57.8715 195.119 56.4249C195.77 54.9783 196.312 53.3147 196.746 51.4341C197.217 49.5174 197.651 47.5283 198.048 45.4669C198.121 44.8882 198.175 44.3096 198.211 43.731C198.247 43.1523 198.265 42.5556 198.265 41.9408V40.2591C198.265 39.2103 198.32 38.3243 198.428 37.601C198.537 36.8777 198.844 36.4618 199.35 36.3533C199.35 38.1977 199.296 40.024 199.188 41.8323C199.115 43.5682 198.971 45.3041 198.754 47.0401C199.007 45.3403 199.206 43.6405 199.35 41.9408C199.495 40.1687 199.603 38.3604 199.676 36.516C199.893 36.6607 200.074 36.733 200.218 36.733C200.363 36.733 200.508 36.6607 200.652 36.516V34.5631C200.833 33.9121 201.014 33.4601 201.195 33.2069C201.376 32.9176 201.574 32.7729 201.791 32.7729C202.008 32.7729 202.225 32.8814 202.442 33.0984C202.659 33.3154 202.876 33.5866 203.093 33.9121L203.582 35.0513ZM181.177 65.8097C182.045 66.2799 182.931 66.6596 183.835 66.9489C184.776 67.2021 185.644 67.3829 186.439 67.4914C187.271 67.5999 187.94 67.6542 188.446 67.6542C190.978 67.6542 193.13 67.0936 194.902 65.9725C196.674 64.8514 198.121 63.459 199.242 61.7954C200.399 60.0957 201.285 58.2874 201.9 56.3706C202.479 54.5624 202.913 52.8988 203.202 51.3799C202.949 52.8988 202.551 54.5805 202.008 56.4249C201.394 58.3778 200.508 60.2041 199.35 61.9039C198.229 63.6037 196.801 65.0322 195.065 66.1895C193.329 67.3468 191.231 67.9254 188.772 67.9254C187.398 67.9254 186.042 67.7446 184.703 67.3829C183.365 67.0213 182.118 66.4607 180.96 65.7012C181.033 65.7374 181.105 65.7736 181.177 65.8097ZM201.954 52.4648C202.063 51.85 202.153 51.2533 202.225 50.6746C202.298 50.1683 202.37 49.662 202.442 49.1557C202.225 50.747 201.864 52.4287 201.357 54.2007C200.851 56.0452 200.146 57.7992 199.242 59.4628C198.338 61.0902 197.198 62.5368 195.824 63.8026C194.522 64.996 193.003 65.8097 191.267 66.2437C192.786 65.9182 194.142 65.2853 195.336 64.345C196.566 63.3686 197.614 62.2294 198.482 60.9274C199.35 59.6255 200.055 58.2331 200.598 56.7504C201.177 55.2676 201.629 53.8391 201.954 52.4648ZM196.584 56.2622C196.186 57.0578 195.734 57.8173 195.227 58.5406C194.757 59.2639 194.215 59.9148 193.6 60.4935C194.251 59.951 194.812 59.3181 195.282 58.5948C195.788 57.8715 196.222 57.094 196.584 56.2622ZM180.96 65.7012C180.526 65.4119 180.11 65.0864 179.713 64.7248C180.11 65.0864 180.526 65.4119 180.96 65.7012ZM203.256 51.0001L203.202 51.3799L203.256 51.0001ZM202.497 48.8845C202.46 48.993 202.442 49.0834 202.442 49.1557C202.442 49.0834 202.46 48.993 202.497 48.8845ZM214.5 59.3543C215.079 59.5351 215.766 59.8606 216.562 60.3307C217.393 60.8009 218.316 61.2891 219.328 61.7954C220.341 62.3017 221.444 62.7538 222.637 63.1516C223.867 63.5494 225.169 63.7483 226.543 63.7483H227.14C227.357 63.7483 227.61 63.7122 227.899 63.6398L228.496 64.0738C229.907 63.6398 231.064 62.8261 231.968 61.6327C232.872 60.4031 233.324 58.7575 233.324 56.6961C233.324 55.2134 232.962 54.2007 232.239 53.6583C231.552 53.0796 230.268 52.7903 228.388 52.7903C227.23 52.7903 226.019 52.8807 224.753 53.0615C223.523 53.2062 222.221 53.2785 220.847 53.2785C220.232 53.2785 219.599 53.2605 218.948 53.2243C218.298 53.152 217.628 53.0254 216.941 52.8446V53.17C218.388 53.5317 219.816 53.7125 221.227 53.7125C222.601 53.7125 223.903 53.6402 225.133 53.4955C226.398 53.3147 227.61 53.2243 228.767 53.2243C229.744 53.2243 230.503 53.3328 231.046 53.5498C231.624 53.7306 232.058 53.9838 232.348 54.3092C232.637 54.6347 232.818 55.0325 232.89 55.5027C232.999 55.9367 233.053 56.4249 233.053 56.9674C233.053 58.6671 232.601 60.1137 231.697 61.3072C230.829 62.4283 229.798 63.1335 228.605 63.4228C229.943 62.9527 230.991 62.139 231.751 60.9817C232.547 59.7521 232.944 58.3778 232.944 56.8589C232.944 55.7739 232.655 54.9421 232.076 54.3635C231.534 53.7848 230.576 53.4955 229.201 53.4955C228.08 53.4955 226.814 53.5679 225.404 53.7125C223.994 53.8572 222.493 53.9295 220.901 53.9295C219.925 53.9295 218.786 53.8029 217.484 53.5498C216.218 53.2966 215.006 52.8265 213.849 52.1393C212.692 51.4522 211.715 50.5119 210.92 49.3185C210.124 48.0888 209.726 46.4976 209.726 44.5447C209.726 42.9896 210.034 41.561 210.649 40.2591C211.3 38.921 212.149 37.7637 213.198 36.7873C214.247 35.7746 215.44 34.979 216.779 34.4004C218.153 33.8217 219.563 33.5143 221.01 33.4782C222.384 33.4782 223.686 33.6771 224.916 34.0749C226.182 34.4365 227.375 34.9248 228.496 35.5396C229.617 36.1182 230.684 36.7692 231.697 37.4925C232.709 38.2158 233.65 38.9391 234.518 39.6624L233.433 40.7473C233.179 40.7473 232.8 40.6027 232.293 40.3134C231.787 39.9879 231.01 39.4454 229.961 38.6859L229.635 39.1742C230.937 40.2229 231.878 41.1994 232.456 42.1035C233.071 43.0077 233.378 43.7129 233.378 44.2192C233.306 44.5085 233.125 44.6532 232.836 44.6532C232.547 44.6532 231.968 44.4181 231.1 43.9479C230.232 43.4778 229.237 42.9534 228.116 42.3748C227.031 41.7961 225.874 41.2717 224.644 40.8016C223.415 40.3314 222.294 40.0964 221.281 40.0964C220.702 40.0964 220.124 40.2049 219.545 40.4218C218.967 40.6388 218.442 40.9462 217.972 41.3441C217.502 41.7057 217.104 42.1578 216.779 42.7002C216.489 43.2427 216.345 43.8394 216.345 44.4904C216.345 45.5392 216.833 46.2444 217.809 46.6061C218.786 46.9677 220.07 47.1486 221.661 47.1486C221.986 47.1486 222.33 47.1486 222.692 47.1486C223.089 47.1124 223.451 47.0581 223.777 46.9858C224.608 46.9858 225.151 46.9677 225.404 46.9316C225.693 46.8592 225.965 46.8231 226.218 46.8231C227.773 46.8231 229.328 46.9316 230.883 47.1486C232.438 47.3655 233.83 47.8357 235.06 48.559C236.29 49.2823 237.284 50.313 238.044 51.6511C238.803 52.9892 239.183 54.7794 239.183 57.0216C239.183 58.5767 238.912 60.1318 238.369 61.6869C237.863 63.2058 237.085 64.5801 236.036 65.8097C234.988 67.0032 233.686 67.9616 232.131 68.6849C230.576 69.4443 228.749 69.8241 226.652 69.8241C225.386 69.8241 223.885 69.5709 222.149 69.0646C220.449 68.5944 218.822 68.0339 217.267 67.3829C215.748 66.6958 214.446 65.9906 213.361 65.2673C212.312 64.544 211.788 63.9292 211.788 63.4228C211.788 63.2782 211.878 63.1697 212.059 63.0974C214.265 64.7248 216.507 66.0629 218.786 67.1117C221.028 68.0881 223.324 68.6306 225.675 68.7391C224.518 68.6668 223.361 68.4679 222.203 68.1424C221.01 67.7807 219.816 67.3468 218.623 66.8404C217.466 66.298 216.345 65.7012 215.26 65.0503C214.211 64.3631 213.198 63.676 212.222 62.9889L213.035 62.2836C212.927 62.2475 212.728 62.1209 212.439 61.9039C212.149 61.6869 211.86 61.4157 211.571 61.0902C211.318 60.7647 211.083 60.4211 210.866 60.0595C210.649 59.6978 210.54 59.3543 210.54 59.0288C210.54 58.6671 210.612 58.4321 210.757 58.3236C210.902 58.2151 211.064 58.1608 211.245 58.1608C211.426 58.1608 211.806 58.2874 212.385 58.5406C212.963 58.7937 213.668 59.0649 214.5 59.3543ZM226.489 64.8875C225.223 64.8875 223.813 64.6344 222.258 64.1281C220.739 63.5856 219.292 62.8984 217.918 62.0666C219.039 62.8261 220.287 63.5133 221.661 64.1281C223.035 64.7067 224.626 64.996 226.435 64.996C228.858 64.996 230.774 64.2546 232.185 62.7719C233.632 61.2891 234.355 59.3 234.355 56.8046V56.2622C234.174 55.1049 233.776 54.1646 233.161 53.4413C232.583 52.6818 231.679 52.2659 230.449 52.1936C231.208 52.3382 231.823 52.5733 232.293 52.8988C232.8 53.2243 233.179 53.6221 233.433 54.0922C233.722 54.5262 233.921 55.0145 234.029 55.5569C234.138 56.0994 234.192 56.66 234.192 57.2386C234.047 59.6255 233.288 61.5061 231.914 62.8804C230.539 64.2185 228.731 64.8875 226.489 64.8875ZM233.378 67.0032C234.282 66.4245 235.006 65.7193 235.548 64.8875C236.091 64.0557 236.561 63.1878 236.959 62.2836C236.199 63.8026 235.15 65.1407 233.812 66.298C232.51 67.4552 230.955 68.1785 229.147 68.4679C229.834 68.3594 230.539 68.2147 231.263 68.0339C232.022 67.8169 232.727 67.4733 233.378 67.0032ZM238.532 56.8046C238.532 56.4068 238.46 56.0271 238.315 55.6654C238.206 55.3761 238.116 55.0687 238.044 54.7432L238.098 55.4484C238.134 55.7378 238.152 56.1356 238.152 56.6419C238.152 57.6183 238.044 58.5586 237.827 59.4628C237.61 60.3669 237.338 61.2529 237.013 62.1209C237.338 61.3253 237.646 60.4935 237.935 59.6255C238.261 58.7214 238.46 57.7811 238.532 56.8046ZM238.044 54.5805C238.044 54.6166 238.044 54.6709 238.044 54.7432C238.044 54.6709 238.044 54.6166 238.044 54.5805ZM228.55 63.4771C228.514 63.4771 228.478 63.4771 228.442 63.4771C228.478 63.4771 228.514 63.4771 228.55 63.4771ZM242.686 64.4535C242.686 64.2366 242.813 64.0376 243.066 63.8568C243.319 63.676 243.608 63.5133 243.934 63.3686C244.295 63.2239 244.639 63.0974 244.964 62.9889C245.326 62.8804 245.597 62.79 245.778 62.7176C247.514 62.9346 249.25 63.1154 250.986 63.2601C252.722 63.4048 254.458 63.4771 256.194 63.4771C256.845 63.4771 257.749 63.4771 258.906 63.4771C260.063 63.4409 261.329 63.3686 262.703 63.2601C264.078 63.1516 265.47 62.9889 266.881 62.7719C268.291 62.5187 269.575 62.1751 270.732 61.7412C271.889 61.3072 272.83 60.7647 273.553 60.1137C274.276 59.4628 274.638 58.649 274.638 57.6726C274.638 56.877 274.457 56.1717 274.095 55.5569C273.77 54.906 273.318 54.3454 272.739 53.8753C272.197 53.3689 271.582 52.953 270.895 52.6276C270.642 52.4829 270.37 52.3563 270.081 52.2478C270.37 52.3925 270.642 52.5371 270.895 52.6818C271.546 53.0435 272.124 53.4955 272.631 54.038C273.173 54.5443 273.607 55.123 273.933 55.7739C274.258 56.3887 274.421 57.094 274.421 57.8896C274.421 58.7575 274.095 59.4989 273.444 60.1137C272.83 60.6924 272.016 61.1806 271.003 61.5784C270.027 61.9762 268.924 62.2836 267.694 62.5006C266.501 62.7176 265.307 62.8804 264.114 62.9889C262.92 63.0974 261.817 63.1697 260.805 63.2058C259.792 63.2058 258.997 63.2058 258.418 63.2058C256.573 63.2058 254.711 63.1516 252.83 63.0431C250.986 62.8984 249.142 62.7357 247.297 62.5549C247.948 62.3741 248.599 62.2475 249.25 62.1751C249.937 62.0666 250.624 62.0124 251.311 62.0124C252.469 62.0124 253.608 62.0305 254.729 62.0666C255.85 62.0666 256.971 62.0666 258.092 62.0666C259.43 62.0666 260.751 62.0486 262.052 62.0124C263.354 61.9401 264.693 61.7954 266.067 61.5784L266.23 62.2294C266.772 62.1209 267.459 61.9582 268.291 61.7412C269.123 61.488 269.918 61.1806 270.678 60.819C271.473 60.4573 272.143 60.0052 272.685 59.4628C273.264 58.9203 273.553 58.2874 273.553 57.5641C273.553 56.5153 273.173 55.5931 272.414 54.7975C271.654 54.0018 270.678 53.2966 269.484 52.6818C268.327 52.0308 267.007 51.4703 265.524 51.0001C264.042 50.53 262.577 50.1141 261.13 49.7524C259.72 49.3908 258.382 49.0653 257.116 48.776C255.85 48.4867 254.838 48.2154 254.078 47.9623V48.2878C254.838 48.5771 255.832 48.8845 257.062 49.21C258.291 49.4993 259.611 49.8248 261.022 50.1864C262.468 50.5481 263.915 50.964 265.362 51.4341C266.808 51.8681 268.11 52.3925 269.267 53.0073C270.461 53.6221 271.419 54.3273 272.143 55.123C272.902 55.9186 273.282 56.8227 273.282 57.8353C273.282 58.414 273.01 58.9203 272.468 59.3543C271.926 59.7882 271.275 60.168 270.515 60.4935C269.792 60.7828 269.05 61.0179 268.291 61.1987C267.531 61.3795 266.953 61.5061 266.555 61.5784C267.025 61.4699 267.622 61.3253 268.345 61.1444C269.105 60.9274 269.828 60.6562 270.515 60.3307C271.238 60.0052 271.853 59.6255 272.36 59.1915C272.866 58.7214 273.119 58.1789 273.119 57.5641C273.119 56.5515 272.721 55.7016 271.926 55.0145C271.13 54.3273 270.081 53.7125 268.779 53.17C267.477 52.6276 265.994 52.1393 264.331 51.7054C262.667 51.2714 260.949 50.8012 259.177 50.2949C257.441 49.7886 255.742 49.21 254.078 48.559C252.414 47.908 250.932 47.0943 249.63 46.1178C248.328 45.1414 247.279 43.9841 246.483 42.646C245.688 41.3079 245.29 39.6985 245.29 37.818C245.29 35.9735 245.724 34.4184 246.592 33.1527C247.496 31.8507 248.635 30.8019 250.009 30.0063C251.42 29.1745 252.957 28.5778 254.621 28.2161C256.284 27.8545 257.893 27.6737 259.449 27.6737C261.727 27.6737 263.951 27.9991 266.121 28.6501C268.327 29.3011 270.407 30.2052 272.36 31.3625C272.143 31.4348 272.016 31.5433 271.98 31.688C271.944 31.7965 271.907 31.9231 271.871 32.0677C271.871 32.2124 271.835 32.339 271.763 32.4474C271.727 32.5559 271.618 32.6102 271.437 32.6102C271.293 32.6102 271.003 32.5559 270.569 32.4474C270.172 32.3028 269.738 32.1581 269.267 32.0135C268.797 31.8326 268.345 31.6699 267.911 31.5252C267.477 31.3806 267.188 31.2721 267.043 31.1998L266.881 31.688C267.206 31.8326 267.622 32.0496 268.128 32.339C268.671 32.5921 269.177 32.9176 269.647 33.3154C270.153 33.6771 270.569 34.0749 270.895 34.5089C271.256 34.9428 271.437 35.3768 271.437 35.8108C271.437 36.2809 271.22 36.516 270.786 36.516C270.244 36.516 269.593 36.3714 268.833 36.082C268.11 35.7927 267.296 35.4853 266.392 35.1598C265.488 34.7982 264.512 34.4727 263.463 34.1834C262.45 33.8941 261.42 33.7494 260.371 33.7494C259.684 33.7494 258.87 33.8217 257.93 33.9664C257.026 34.0749 256.139 34.3099 255.272 34.6716C254.44 34.9971 253.734 35.4672 253.156 36.082C252.577 36.6607 252.288 37.4021 252.288 38.3062C252.288 39.138 252.668 39.8432 253.427 40.4218C254.223 41.0005 255.253 41.5249 256.519 41.995C257.821 42.4652 259.286 42.9172 260.913 43.3512C262.541 43.7852 264.204 44.2734 265.904 44.8159C267.64 45.3222 269.322 45.9189 270.949 46.6061C272.577 47.2932 274.023 48.125 275.289 49.1015C276.591 50.0779 277.622 51.2352 278.381 52.5733C279.177 53.9114 279.574 55.4846 279.574 57.2929C279.574 59.0649 279.213 60.5658 278.489 61.7954C277.766 63.025 276.808 64.0557 275.614 64.8875C274.421 65.6832 273.065 66.316 271.546 66.7862C270.027 67.2202 268.454 67.5637 266.826 67.8169C265.235 68.0339 263.644 68.1605 262.052 68.1966C260.497 68.269 259.087 68.3051 257.821 68.3051H252.396C252.071 68.3051 251.619 68.287 251.04 68.2509C250.498 68.2509 249.955 68.2147 249.413 68.1424C248.87 68.1062 248.4 68.0158 248.002 67.8711C247.605 67.7265 247.406 67.5457 247.406 67.3287L247.46 67.0574C248.943 67.1298 250.407 67.2021 251.854 67.2744C253.301 67.3106 254.765 67.3287 256.248 67.3287C257.622 67.3287 258.997 67.3287 260.371 67.3287C261.6 67.2925 262.83 67.2202 264.06 67.1117C263.445 67.1478 262.83 67.184 262.215 67.2202C261.456 67.2202 260.714 67.2202 259.991 67.2202H257.821C254.422 67.2202 251.076 67.1117 247.785 66.8947C247.858 66.6054 247.894 66.4065 247.894 66.298C247.894 66.1533 247.858 66.0086 247.785 65.864C247.713 65.864 247.605 65.8821 247.46 65.9182C247.351 65.9182 247.207 65.9182 247.026 65.9182C246.628 65.9182 246.176 65.9001 245.67 65.864C245.2 65.8278 244.729 65.7555 244.259 65.647C243.825 65.5385 243.446 65.3938 243.12 65.213C242.831 64.996 242.686 64.7429 242.686 64.4535ZM275.994 63.0431C275.379 63.5856 274.728 64.0376 274.041 64.3993C273.426 64.7248 272.793 65.0322 272.143 65.3215C272.793 65.1045 273.426 64.8514 274.041 64.562C274.728 64.2727 275.379 63.7664 275.994 63.0431ZM288.36 83.8199C288.433 81.7947 288.487 79.7875 288.523 77.7985C288.559 75.8455 288.577 73.7661 288.577 71.56C288.577 70.6197 288.559 69.6794 288.523 68.7391C288.487 67.835 288.433 66.9489 288.36 66.081V72.0482C288.36 74.0373 288.324 76.0083 288.252 77.9612C288.216 79.9503 288.089 81.9032 287.872 83.8199C287.691 83.4945 287.529 83.1509 287.384 82.7892C287.239 82.4638 287.131 82.1021 287.058 81.7043C287.131 80.7278 287.167 79.8237 287.167 78.9919C287.203 78.1963 287.221 77.3102 287.221 76.3338L287.872 76.0083C287.764 75.2488 287.691 74.4713 287.655 73.6756C287.619 72.9162 287.601 72.1567 287.601 71.3972C287.601 70.5654 287.601 69.7517 287.601 68.9561C287.637 68.1966 287.655 67.401 287.655 66.5692C287.655 65.5566 287.619 64.562 287.547 63.5856C287.511 62.573 287.402 61.5603 287.221 60.5477H287.058C287.131 62.0666 287.185 63.5675 287.221 65.0503C287.294 66.533 287.33 68.0158 287.33 69.4986C287.33 70.1495 287.312 70.8005 287.275 71.4515L287.221 72.8619C287.149 69.3901 287.022 65.9906 286.842 62.6634C286.697 59.1192 286.444 55.4846 286.082 51.7596L286.299 47.257C285.901 47.2209 285.485 47.2028 285.051 47.2028H283.804L283.641 45.9551C283.641 45.7743 283.767 45.6115 284.021 45.4669C284.274 45.3222 284.78 45.2499 285.54 45.2499H286.082V44.5989C284.889 44.4543 283.948 44.2011 283.261 43.8394C282.61 43.4778 282.285 43.0981 282.285 42.7002C282.285 42.3386 282.61 42.0312 283.261 41.778C283.912 41.4887 284.744 41.2717 285.757 41.1271C286.805 40.9462 287.945 40.8197 289.174 40.7473C290.404 40.675 291.597 40.6388 292.754 40.6388C294.02 40.6388 295.376 40.675 296.823 40.7473C298.306 40.8197 299.789 41.0005 301.271 41.2898C302.754 41.5791 304.183 42.0312 305.557 42.646C306.967 43.2246 308.233 44.0564 309.354 45.1414C310.475 46.1902 311.398 47.5283 312.121 49.1557C312.88 50.747 313.369 52.6999 313.586 55.0145C313.586 56.9674 313.152 58.5767 312.284 59.8425C311.452 61.0721 310.439 62.0666 309.246 62.8261C308.052 63.5856 306.805 64.1281 305.503 64.4535C304.237 64.779 303.188 64.996 302.356 65.1045C301.525 65.2853 300.566 65.5023 299.481 65.7555C298.396 65.9725 297.474 66.081 296.715 66.081C295.883 66.081 295.395 65.9906 295.25 65.8097C295.105 65.6289 295.033 65.3938 295.033 65.1045C296.66 65.0322 298.288 64.9056 299.915 64.7248C301.543 64.5078 303.17 64.1461 304.797 63.6398C303.17 64.0376 301.543 64.345 299.915 64.562C298.288 64.7429 296.66 64.8694 295.033 64.9418C295.033 64.7248 295.015 64.5078 294.979 64.2908C294.942 64.0376 294.834 63.9111 294.653 63.9111C294.292 63.9111 294.002 64.4897 293.785 65.647C293.604 66.8043 293.46 68.1785 293.351 69.7698C293.279 71.3972 293.225 73.0608 293.188 74.7606C293.188 76.4604 293.188 77.8708 293.188 78.9919C293.188 79.4982 293.207 80.0226 293.243 80.5651C293.315 81.1437 293.351 81.632 293.351 82.0298C293.351 82.3914 293.297 82.6988 293.188 82.952C293.08 83.2051 292.773 83.3317 292.266 83.3317V76.4965C292.194 77.6538 292.14 78.793 292.104 79.9141C292.104 81.0352 292.104 82.1744 292.104 83.3317H291.127V83.7657C291.127 84.0912 291.181 84.3263 291.29 84.4709C290.892 85.1581 290.44 85.5016 289.934 85.5016C289.536 85.5016 289.228 85.3931 289.011 85.1761C288.831 84.9591 288.559 84.6698 288.198 84.3082L288.36 83.8199ZM293.622 61.1987H294.382C295.648 61.1987 297.094 61.1264 298.722 60.9817C300.385 60.837 301.94 60.5658 303.387 60.168C304.834 59.7702 306.045 59.2096 307.022 58.4863C308.034 57.763 308.541 56.8227 308.541 55.6654V55.2314C308.541 54.8698 308.504 54.472 308.432 54.038C308.396 53.604 308.251 53.1881 307.998 52.7903C308.034 52.9711 308.125 53.3328 308.269 53.8753C308.414 54.4177 308.486 54.8698 308.486 55.2314C308.486 56.3526 308.088 57.2748 307.293 57.9981C306.533 58.6852 305.557 59.2458 304.363 59.6798C303.206 60.0776 301.922 60.3669 300.512 60.5477C299.138 60.6924 297.818 60.7647 296.552 60.7647H295.467C295.105 60.7647 294.744 60.7466 294.382 60.7105C294.888 60.3126 295.539 60.0414 296.335 59.8967C297.167 59.7159 298.035 59.5713 298.939 59.4628C299.843 59.3543 300.729 59.2458 301.597 59.1373C302.465 59.0288 303.206 58.848 303.821 58.5948L304.146 59.2458C305.412 58.631 306.298 58.0342 306.805 57.4556C307.347 56.8408 307.618 56.009 307.618 54.9602C307.618 53.2966 307.148 51.8319 306.208 50.5662C305.304 49.3004 304.074 48.4505 302.519 48.0165L302.356 48.342C303.694 48.8483 304.852 49.6801 305.828 50.8374C306.805 51.9947 307.293 53.387 307.293 55.0145C307.293 55.8824 307.094 56.5696 306.696 57.0759C306.334 57.5098 305.756 57.9077 304.96 58.2693C305.611 57.98 306.099 57.6183 306.425 57.1844C306.823 56.6781 307.094 56.1175 307.239 55.5027C307.239 53.9838 306.877 52.6999 306.154 51.6511C305.43 50.6023 304.418 49.7705 303.116 49.1557C301.814 48.5047 300.241 48.0527 298.396 47.7995C296.588 47.5102 294.581 47.3655 292.375 47.3655C292.664 48.9206 292.827 50.6204 292.863 52.4648C292.935 54.2731 293.062 56.0452 293.243 57.7811L293.622 61.1987ZM288.143 52.8988C288.216 52.8265 288.288 52.5191 288.36 51.9766C288.433 51.4341 288.487 50.8555 288.523 50.2407C288.596 49.5897 288.65 48.993 288.686 48.4505C288.758 47.8719 288.831 47.5283 288.903 47.4198L288.198 47.3655L288.143 52.8988ZM304.689 58.3778L304.96 58.2693L304.689 58.3778ZM338.769 69.0646C337.394 69.5347 336.346 69.7879 335.622 69.8241C334.899 69.8964 334.266 69.9506 333.724 69.9868C331.698 69.9868 329.872 69.6071 328.245 68.8476C326.617 68.0881 325.225 67.0574 324.068 65.7555C322.91 64.4535 322.006 62.9346 321.355 61.1987C320.74 59.4266 320.433 57.546 320.433 55.5569C320.433 54.3997 320.542 53.2062 320.759 51.9766C320.976 50.7108 321.301 49.4812 321.735 48.2878C322.169 47.0581 322.73 45.9189 323.417 44.8702C324.068 43.8214 324.845 42.8811 325.749 42.0493C324.809 42.8087 324.013 43.7129 323.362 44.7617C322.675 45.8104 322.097 46.9496 321.627 48.1793C321.156 49.3727 320.813 50.6204 320.596 51.9223C320.379 53.1881 320.27 54.4177 320.27 55.6112C320.27 57.1301 320.505 58.7575 320.976 60.4935C321.482 62.1932 322.277 63.7845 323.362 65.2673C324.447 66.7139 325.84 67.9254 327.54 68.9018C329.275 69.8783 331.373 70.3665 333.832 70.3665C334.99 70.3665 336.201 70.2038 337.467 69.8783C336.093 70.7824 334.556 71.2345 332.856 71.2345C331.482 71.2345 330.18 71.0175 328.95 70.5835C327.757 70.1857 326.635 69.6071 325.587 68.8476C324.574 68.1243 323.652 67.2563 322.82 66.2437C321.988 65.2311 321.283 64.1461 320.704 62.9889L321.193 62.5549C320.578 61.3253 320.126 60.0957 319.836 58.866C319.583 57.6364 319.457 56.3887 319.457 55.123C319.457 53.2785 319.71 51.5064 320.216 49.8067C320.759 48.1069 321.464 46.4976 322.332 44.9786L323.634 43.1885C323.851 42.7907 324.158 42.3928 324.556 41.995C324.99 41.5972 325.46 41.2175 325.966 40.8558C326.473 40.458 326.997 40.1144 327.54 39.8251C328.118 39.4996 328.661 39.2103 329.167 38.9572C330.469 38.3062 331.771 37.7275 333.073 37.2212C334.375 36.6788 335.894 36.2809 337.63 36.0278L337.413 35.865C334.085 36.1905 331.265 37.0042 328.95 38.3062C326.635 39.572 324.755 41.1271 323.308 42.9715C321.862 44.8159 320.813 46.8411 320.162 49.0472C319.511 51.2171 319.185 53.3509 319.185 55.4484C319.185 56.5696 319.276 57.7088 319.457 58.866C319.674 59.9872 319.981 61.1083 320.379 62.2294C319.475 60.0595 319.023 57.763 319.023 55.3399C319.023 52.953 319.42 50.5842 320.216 48.2335C321.012 45.8828 322.259 43.7129 323.959 41.7238C326.129 39.7347 328.498 38.2158 331.066 37.167C333.633 36.082 336.111 35.5396 338.498 35.5396C339.257 35.5396 340.035 35.6661 340.83 35.9193C341.626 36.1724 342.349 36.5703 343 37.1127C343.651 37.6191 344.175 38.2881 344.573 39.1199C345.007 39.9517 345.224 40.9643 345.224 42.1578C345.224 43.1342 344.989 44.3277 344.519 45.7381C344.049 47.1486 343.344 48.5228 342.403 49.8609C341.499 51.1629 340.36 52.284 338.986 53.2243C337.611 54.1284 336.02 54.5805 334.212 54.5805H332.422C331.084 54.2912 329.854 53.9657 328.733 53.604C327.648 53.2062 326.617 52.8988 325.641 52.6818C325.496 53.2605 325.406 53.821 325.37 54.3635C325.37 54.8698 325.37 55.3761 325.37 55.8824C325.37 56.9312 325.478 57.9619 325.695 58.9745C325.948 59.951 326.328 60.8551 326.834 61.6869C327.341 62.5187 327.973 63.2239 328.733 63.8026C329.529 64.345 330.487 64.6886 331.608 64.8333C332.295 64.9779 332.892 65.0684 333.398 65.1045C333.905 65.1045 334.32 65.1226 334.646 65.1588C335.008 65.1588 335.261 65.213 335.405 65.3215C335.586 65.3938 335.677 65.5566 335.677 65.8097C335.315 65.9182 334.935 65.9906 334.537 66.0267C334.176 66.0629 333.796 66.081 333.398 66.081C332.132 66.081 330.993 65.8821 329.981 65.4842C328.968 65.0503 328.1 64.562 327.377 64.0196C328.209 64.8514 329.203 65.4481 330.36 65.8097C331.518 66.1352 332.657 66.298 333.778 66.298C334.393 66.298 335.026 66.2437 335.677 66.1352C335.604 66.3522 335.568 66.4788 335.568 66.515C335.568 66.7319 335.659 66.8766 335.839 66.9489C335.984 66.9128 336.237 66.8224 336.599 66.6777C336.961 66.4969 337.322 66.3341 337.684 66.1895C338.082 66.0086 338.461 65.864 338.823 65.7555C339.185 65.6108 339.438 65.5385 339.582 65.5385C339.763 65.5385 339.926 65.5747 340.071 65.647C340.215 65.6832 340.288 65.8821 340.288 66.2437C340.288 66.6054 340.161 67.0393 339.908 67.5457C339.655 68.052 339.275 68.5583 338.769 69.0646ZM331.283 47.5825L332.476 47.7995C332.874 47.8719 333.236 47.908 333.561 47.908C333.923 47.908 334.339 47.7995 334.809 47.5825C335.315 47.3294 335.803 46.9858 336.273 46.5518C336.78 46.1178 337.214 45.5754 337.575 44.9244C337.973 44.2734 338.262 43.532 338.443 42.7002L338.552 42.3748C338.045 42.3748 337.286 42.5013 336.273 42.7545C335.261 43.0077 334.212 43.3512 333.127 43.7852C332.042 44.183 331.029 44.6712 330.089 45.2499C329.149 45.7924 328.498 46.3891 328.136 47.0401C328.679 47.1486 329.203 47.257 329.709 47.3655C330.252 47.4379 330.776 47.5102 331.283 47.5825ZM328.787 51.5969C328.86 51.5245 328.896 51.416 328.896 51.2714C328.932 51.1267 328.95 51.0182 328.95 50.9459L326.4 50.0237L326.129 50.7831L328.787 51.5969ZM327.268 63.9111C327.015 63.6217 326.762 63.3324 326.509 63.0431C326.292 62.79 326.111 62.5368 325.966 62.2836C326.292 62.8984 326.726 63.4409 327.268 63.9111ZM369.866 69.0646C368.492 69.5347 367.443 69.7879 366.719 69.8241C365.996 69.8964 365.363 69.9506 364.821 69.9868C362.796 69.9868 360.969 69.6071 359.342 68.8476C357.714 68.0881 356.322 67.0574 355.165 65.7555C354.007 64.4535 353.103 62.9346 352.452 61.1987C351.837 59.4266 351.53 57.546 351.53 55.5569C351.53 54.3997 351.639 53.2062 351.856 51.9766C352.073 50.7108 352.398 49.4812 352.832 48.2878C353.266 47.0581 353.827 45.9189 354.514 44.8702C355.165 43.8214 355.942 42.8811 356.846 42.0493C355.906 42.8087 355.11 43.7129 354.459 44.7617C353.772 45.8104 353.194 46.9496 352.724 48.1793C352.253 49.3727 351.91 50.6204 351.693 51.9223C351.476 53.1881 351.367 54.4177 351.367 55.6112C351.367 57.1301 351.602 58.7575 352.073 60.4935C352.579 62.1932 353.375 63.7845 354.459 65.2673C355.544 66.7139 356.937 67.9254 358.637 68.9018C360.372 69.8783 362.47 70.3665 364.929 70.3665C366.087 70.3665 367.298 70.2038 368.564 69.8783C367.19 70.7824 365.653 71.2345 363.953 71.2345C362.579 71.2345 361.277 71.0175 360.047 70.5835C358.854 70.1857 357.732 69.6071 356.684 68.8476C355.671 68.1243 354.749 67.2563 353.917 66.2437C353.085 65.2311 352.38 64.1461 351.801 62.9889L352.29 62.5549C351.675 61.3253 351.223 60.0957 350.933 58.866C350.68 57.6364 350.554 56.3887 350.554 55.123C350.554 53.2785 350.807 51.5064 351.313 49.8067C351.856 48.1069 352.561 46.4976 353.429 44.9786L354.731 43.1885C354.948 42.7907 355.255 42.3928 355.653 41.995C356.087 41.5972 356.557 41.2175 357.063 40.8558C357.57 40.458 358.094 40.1144 358.637 39.8251C359.215 39.4996 359.758 39.2103 360.264 38.9572C361.566 38.3062 362.868 37.7275 364.17 37.2212C365.472 36.6788 366.991 36.2809 368.727 36.0278L368.51 35.865C365.182 36.1905 362.362 37.0042 360.047 38.3062C357.732 39.572 355.852 41.1271 354.405 42.9715C352.959 44.8159 351.91 46.8411 351.259 49.0472C350.608 51.2171 350.282 53.3509 350.282 55.4484C350.282 56.5696 350.373 57.7088 350.554 58.866C350.771 59.9872 351.078 61.1083 351.476 62.2294C350.572 60.0595 350.12 57.763 350.12 55.3399C350.12 52.953 350.517 50.5842 351.313 48.2335C352.109 45.8828 353.356 43.7129 355.056 41.7238C357.226 39.7347 359.595 38.2158 362.163 37.167C364.73 36.082 367.208 35.5396 369.595 35.5396C370.354 35.5396 371.132 35.6661 371.927 35.9193C372.723 36.1724 373.446 36.5703 374.097 37.1127C374.748 37.6191 375.272 38.2881 375.67 39.1199C376.104 39.9517 376.321 40.9643 376.321 42.1578C376.321 43.1342 376.086 44.3277 375.616 45.7381C375.146 47.1486 374.441 48.5228 373.5 49.8609C372.596 51.1629 371.457 52.284 370.083 53.2243C368.709 54.1284 367.117 54.5805 365.309 54.5805H363.519C362.181 54.2912 360.951 53.9657 359.83 53.604C358.745 53.2062 357.714 52.8988 356.738 52.6818C356.593 53.2605 356.503 53.821 356.467 54.3635C356.467 54.8698 356.467 55.3761 356.467 55.8824C356.467 56.9312 356.575 57.9619 356.792 58.9745C357.045 59.951 357.425 60.8551 357.931 61.6869C358.438 62.5187 359.071 63.2239 359.83 63.8026C360.626 64.345 361.584 64.6886 362.705 64.8333C363.392 64.9779 363.989 65.0684 364.495 65.1045C365.002 65.1045 365.417 65.1226 365.743 65.1588C366.105 65.1588 366.358 65.213 366.502 65.3215C366.683 65.3938 366.774 65.5566 366.774 65.8097C366.412 65.9182 366.032 65.9906 365.634 66.0267C365.273 66.0629 364.893 66.081 364.495 66.081C363.229 66.081 362.09 65.8821 361.078 65.4842C360.065 65.0503 359.197 64.562 358.474 64.0196C359.306 64.8514 360.3 65.4481 361.457 65.8097C362.615 66.1352 363.754 66.298 364.875 66.298C365.49 66.298 366.123 66.2437 366.774 66.1352C366.701 66.3522 366.665 66.4788 366.665 66.515C366.665 66.7319 366.756 66.8766 366.936 66.9489C367.081 66.9128 367.334 66.8224 367.696 66.6777C368.058 66.4969 368.419 66.3341 368.781 66.1895C369.179 66.0086 369.558 65.864 369.92 65.7555C370.282 65.6108 370.535 65.5385 370.68 65.5385C370.86 65.5385 371.023 65.5747 371.168 65.647C371.312 65.6832 371.385 65.8821 371.385 66.2437C371.385 66.6054 371.258 67.0393 371.005 67.5457C370.752 68.052 370.372 68.5583 369.866 69.0646ZM362.38 47.5825L363.573 47.7995C363.971 47.8719 364.333 47.908 364.658 47.908C365.02 47.908 365.436 47.7995 365.906 47.5825C366.412 47.3294 366.9 46.9858 367.37 46.5518C367.877 46.1178 368.311 45.5754 368.672 44.9244C369.07 44.2734 369.359 43.532 369.54 42.7002L369.649 42.3748C369.142 42.3748 368.383 42.5013 367.37 42.7545C366.358 43.0077 365.309 43.3512 364.224 43.7852C363.139 44.183 362.126 44.6712 361.186 45.2499C360.246 45.7924 359.595 46.3891 359.233 47.0401C359.776 47.1486 360.3 47.257 360.806 47.3655C361.349 47.4379 361.873 47.5102 362.38 47.5825ZM359.884 51.5969C359.957 51.5245 359.993 51.416 359.993 51.2714C360.029 51.1267 360.047 51.0182 360.047 50.9459L357.497 50.0237L357.226 50.7831L359.884 51.5969ZM358.365 63.9111C358.112 63.6217 357.859 63.3324 357.606 63.0431C357.389 62.79 357.208 62.5368 357.063 62.2836C357.389 62.8984 357.823 63.4409 358.365 63.9111ZM409.859 28.4874C409.932 29.5362 409.986 30.5669 410.022 31.5795C410.058 32.5559 410.076 33.5686 410.076 34.6174C410.076 36.7873 410.004 38.9752 409.859 41.1813C409.751 43.3512 409.606 45.5573 409.425 47.7995C409.245 50.0418 409.064 52.3382 408.883 54.689C408.702 57.0397 408.539 59.4808 408.395 62.0124C408.395 62.4102 408.377 62.8261 408.34 63.2601C408.34 63.6579 408.304 64.11 408.232 64.6163V65.2673C408.232 65.3758 408.196 65.5204 408.124 65.7012C408.051 65.8821 407.979 66.0086 407.907 66.081C407.436 66.6234 407.002 67.0393 406.605 67.3287C406.243 67.5818 405.899 67.7807 405.574 67.9254C405.248 68.0339 404.941 68.0881 404.652 68.0881C404.362 68.1243 404.073 68.1605 403.784 68.1966H404.109C404.218 68.1966 404.417 68.1785 404.706 68.1424C405.031 68.1062 405.375 68.052 405.737 67.9796C406.134 67.8711 406.496 67.7446 406.822 67.5999C407.183 67.4191 407.436 67.184 407.581 66.8947L408.069 65.9182C408.286 65.5204 408.413 65.1045 408.449 64.6705C408.521 64.2004 408.557 63.7483 408.557 63.3143C408.594 62.8442 408.612 62.3921 408.612 61.9582C408.612 61.5242 408.648 61.1083 408.72 60.7105C408.829 58.4321 408.973 56.1537 409.154 53.8753C409.371 51.5969 409.57 49.3004 409.751 46.9858C409.932 44.6712 410.095 42.3386 410.239 39.9879C410.384 37.601 410.456 35.1779 410.456 32.7187C410.456 31.9592 410.438 31.2359 410.402 30.5488C410.402 29.8255 410.384 29.1383 410.348 28.4874C410.456 28.632 410.565 28.8671 410.673 29.1926C410.818 29.4819 410.926 29.9521 410.999 30.603C411.179 31.0008 411.288 31.4348 411.324 31.905C411.36 32.3751 411.415 32.8633 411.487 33.3697C411.487 35.8289 411.396 38.2158 411.216 40.5303C411.035 42.8087 410.854 45.0871 410.673 47.3655L410.185 47.5283L409.697 56.8046C409.697 59.4085 409.57 61.5603 409.317 63.2601C409.1 64.9237 408.901 66.0267 408.72 66.5692V66.7319C408.178 67.2744 407.708 67.6903 407.31 67.9796C406.948 68.2328 406.605 68.4317 406.279 68.5764C405.954 68.721 405.646 68.7934 405.357 68.7934C405.104 68.8295 404.832 68.8476 404.543 68.8476H401.071C400.095 68.7391 399.046 68.6849 397.925 68.6849C396.804 68.721 395.628 68.6125 394.399 68.3594C393.169 68.1062 391.903 67.5818 390.602 66.7862C389.336 65.9906 388.052 64.7248 386.75 62.9889C386.75 63.0612 386.732 63.1154 386.696 63.1516C386.66 63.1878 386.623 63.242 386.587 63.3143C387.781 64.9418 389.209 66.2799 390.873 67.3287C392.573 68.3775 394.399 68.9923 396.352 69.1731H400.909C401.343 69.2454 401.777 69.2816 402.211 69.2816C402.681 69.3177 403.187 69.3358 403.729 69.3358C404.272 69.3358 404.977 69.2635 405.845 69.1188C406.749 68.9742 407.599 68.504 408.395 67.7084C408.539 67.5276 408.63 67.401 408.666 67.3287C408.738 67.2202 408.811 67.0755 408.883 66.8947L409.046 66.5692C409.227 66.2437 409.353 65.9182 409.425 65.5927C409.534 65.2311 409.624 64.8875 409.697 64.562C409.697 64.9599 409.661 65.3034 409.588 65.5927C409.552 65.8821 409.425 66.316 409.208 66.8947L409.046 67.0574L408.395 68.0339C408.069 68.3594 407.708 68.6125 407.31 68.7934C406.912 68.9742 406.532 69.1008 406.171 69.1731C405.809 69.2816 405.465 69.3539 405.14 69.3901C404.851 69.4262 404.634 69.4624 404.489 69.4986H402.699C402.229 69.4986 401.831 69.4805 401.505 69.4443C401.216 69.4443 400.981 69.4262 400.8 69.3901C400.655 69.3901 400.529 69.372 400.42 69.3358H398.793C398.467 69.3358 398.142 69.3358 397.816 69.3358C397.491 69.372 397.147 69.3901 396.786 69.3901C395.086 69.3901 393.422 68.9742 391.795 68.1424C390.204 67.3468 388.721 66.2076 387.347 64.7248C386.009 63.242 384.815 61.488 383.766 59.4628C382.718 57.4375 381.922 55.1953 381.379 52.7361C381.379 52.3382 381.343 51.9585 381.271 51.5969C381.235 51.2352 381.217 50.8555 381.217 50.4577C381.217 49.1195 381.416 47.7634 381.813 46.3891C382.247 44.9786 383.007 43.7129 384.092 42.5918C385.177 41.4706 386.641 40.5665 388.486 39.8794C390.33 39.1561 392.663 38.7944 395.484 38.7944C396.786 38.7944 398.052 38.8306 399.281 38.9029C400.511 38.9391 401.758 38.9933 403.024 39.0657C402.88 39.1742 402.807 39.3007 402.807 39.4454C402.807 39.6262 402.843 39.789 402.916 39.9336C402.988 40.0421 403.024 40.1687 403.024 40.3134C403.024 40.4942 402.88 40.6569 402.59 40.8016C402.337 40.9101 401.777 40.9643 400.909 40.9643C400.619 40.9643 400.276 40.9643 399.878 40.9643C399.516 40.9282 399.1 40.892 398.63 40.8558V41.3441C400.366 41.5972 401.758 41.9408 402.807 42.3748C403.892 42.7726 404.561 43.1342 404.814 43.4597L404.923 43.5682L405.14 41.1813C405.248 40.2049 405.303 39.1018 405.303 37.8722C405.303 36.6064 405.266 35.3587 405.194 34.1291C405.122 32.8995 405.086 31.9411 405.086 31.254C405.086 30.386 405.14 29.8074 405.248 29.5181C405.357 29.2288 405.502 29.0841 405.682 29.0841C405.827 29.0841 405.936 29.3915 406.008 30.0063C406.116 30.6211 406.189 31.3263 406.225 32.122C406.297 32.8814 406.333 33.6409 406.333 34.4004V35.9735C406.333 37.0223 406.315 38.0892 406.279 39.1742C406.243 40.2229 406.189 41.2717 406.116 42.3205C406.225 40.9462 406.315 39.6081 406.388 38.3062C406.46 36.9681 406.496 35.6119 406.496 34.2376C406.496 33.4058 406.478 32.5921 406.442 31.7965C406.406 30.9647 406.351 30.1329 406.279 29.3011C406.496 29.5181 406.659 29.6266 406.767 29.6266C406.912 29.6266 407.02 29.5181 407.093 29.3011C407.057 29.0118 407.02 28.7044 406.984 28.3789C406.948 28.0896 406.93 27.8002 406.93 27.5109V26.6972C407.111 26.2632 407.346 25.9377 407.635 25.7207C407.925 25.4676 408.178 25.341 408.395 25.341C409.01 25.341 409.552 26.0101 410.022 27.3482L409.859 28.4874ZM401.071 44.7617C399.878 44.834 398.522 44.9063 397.003 44.9786C395.52 45.051 394.11 45.2499 392.771 45.5754C391.433 45.8647 390.276 46.3168 389.3 46.9316C388.359 47.5464 387.835 48.3962 387.726 49.4812C387.726 50.6746 387.98 52.0128 388.486 53.4955C388.992 54.9783 389.661 56.3887 390.493 57.7268C391.325 59.0288 392.265 60.1499 393.314 61.0902C394.399 62.0305 395.52 62.5549 396.677 62.6634H399.769C399.95 62.6634 400.077 62.6815 400.149 62.7176C400.258 62.7176 400.402 62.7538 400.583 62.8261H401.885C402.428 62.9346 402.97 62.9889 403.512 62.9889C403.512 59.951 403.639 56.8408 403.892 53.6583C404.182 50.4396 404.489 47.2932 404.814 44.2192C404.344 44.5808 403.097 44.7617 401.071 44.7617ZM404.977 55.9909C404.977 56.3887 404.941 56.8046 404.869 57.2386C404.832 57.6364 404.814 58.0885 404.814 58.5948C405.212 56.5696 405.447 54.4358 405.52 52.1936C405.592 49.9513 405.682 47.7995 405.791 45.7381C405.61 47.474 405.465 49.1919 405.357 50.8916C405.285 52.5552 405.158 54.255 404.977 55.9909ZM409.697 61.8497C409.697 61.4518 409.715 61.054 409.751 60.6562C409.787 60.2222 409.841 59.7702 409.914 59.3C409.878 60.385 409.859 61.4157 409.859 62.3921C409.859 63.3324 409.805 64.0015 409.697 64.3993C409.697 64.2185 409.697 64.0557 409.697 63.9111C409.733 63.7302 409.751 63.5494 409.751 63.3686C409.751 63.0793 409.733 62.808 409.697 62.5549C409.697 62.3017 409.697 62.0666 409.697 61.8497ZM410.51 53.0615C410.438 53.2424 410.384 53.4594 410.348 53.7125C410.311 53.9295 410.257 54.1646 410.185 54.4177L410.402 51.1086L410.51 53.0615ZM410.022 57.2929C410.022 57.6183 410.004 57.9438 409.968 58.2693C409.968 58.5948 409.95 58.9022 409.914 59.1915C409.914 58.4682 409.932 57.7449 409.968 57.0216C410.004 56.2622 410.058 55.575 410.131 54.9602L410.022 57.2929ZM404.652 60.6562C404.688 60.5116 404.706 60.3669 404.706 60.2222C404.706 60.0776 404.742 59.9148 404.814 59.734V59.1373C404.778 59.2096 404.76 59.2819 404.76 59.3543C404.76 59.3904 404.742 59.4266 404.706 59.4628L404.652 59.5713V60.6562ZM404.489 63.2601C404.525 62.9346 404.561 62.6091 404.597 62.2836C404.634 61.922 404.652 61.5603 404.652 61.1987V61.0359L404.435 63.1516L404.489 63.2601ZM426.307 68.6849C425.946 68.7572 425.548 68.7934 425.114 68.7934H423.541C422.601 68.7934 421.932 68.9018 421.534 69.1188C421.172 69.3358 420.955 69.4443 420.883 69.4443L420.666 68.4679V67.4914L420.394 62.3921C420.322 61.4157 420.123 60.3669 419.798 59.2458C419.472 58.1247 419.219 56.9855 419.038 55.8282C418.93 55.0687 418.839 54.3454 418.767 53.6583L418.55 51.5426C418.478 50.8193 418.387 50.0779 418.279 49.3185C418.207 48.559 418.08 47.7453 417.899 46.8773C417.899 46.6603 417.899 46.4433 417.899 46.2263C417.935 46.0094 417.953 45.7924 417.953 45.5754C417.953 44.4543 417.863 43.3512 417.682 42.2663C417.501 41.1813 417.248 40.1144 416.923 39.0657C417.176 38.9572 417.411 38.8667 417.628 38.7944C417.845 38.6859 418.044 38.6317 418.225 38.6317C418.405 38.6317 418.604 38.8487 418.821 39.2826C419.038 39.6805 419.273 40.5303 419.527 41.8323C419.599 41.8323 419.707 41.8142 419.852 41.778C419.997 41.7057 420.105 41.6695 420.178 41.6695C420.141 41.0547 420.051 40.4038 419.906 39.7166C419.762 38.9933 419.617 38.3062 419.472 37.6552C419.328 37.0042 419.183 36.4256 419.038 35.9193C418.93 35.3768 418.876 34.9428 418.876 34.6174C418.876 34.545 418.876 34.4546 418.876 34.3461C418.912 34.2376 419.002 34.1834 419.147 34.1834C419.328 34.1834 419.563 34.3823 419.852 34.7801C420.141 35.1779 420.449 35.6842 420.774 36.299C421.1 36.9138 421.407 37.5829 421.696 38.3062C422.022 38.9933 422.311 39.6443 422.564 40.2591C423.541 38.4147 424.644 37.0223 425.874 36.082C427.139 35.1056 428.785 34.6174 430.81 34.6174C432.293 34.6174 433.504 34.7982 434.445 35.1598C435.385 35.4853 436.108 35.865 436.615 36.299C437.157 36.6968 437.519 37.0766 437.699 37.4382L438.025 37.9807C438.025 38.1977 437.916 38.3424 437.699 38.4147C436.759 37.5106 435.692 36.8234 434.499 36.3533C433.305 35.8831 432.076 35.6481 430.81 35.6481C429.58 35.6481 428.658 35.8108 428.043 36.1363C427.465 36.4256 426.85 36.7873 426.199 37.2212C426.886 36.7873 427.519 36.4437 428.098 36.1905C428.712 35.9374 429.599 35.8108 430.756 35.8108C432.022 35.8108 433.233 36.064 434.39 36.5703C435.548 37.0404 436.542 37.6552 437.374 38.4147C437.193 38.487 437.03 38.5774 436.886 38.6859C436.777 38.7583 436.723 38.8848 436.723 39.0657C436.904 39.0657 437.103 39.1922 437.32 39.4454C437.537 39.6624 437.736 39.9336 437.916 40.2591C438.097 40.5846 438.242 40.9282 438.35 41.2898C438.495 41.6153 438.567 41.8865 438.567 42.1035C438.567 42.7183 438.332 43.0257 437.862 43.0257C437.501 43.0257 437.067 42.8992 436.56 42.646C436.452 42.6098 436.217 42.4109 435.855 42.0493C435.53 41.6876 435.114 41.326 434.607 40.9643C434.101 40.5665 433.522 40.2049 432.871 39.8794C432.22 39.5539 431.497 39.3911 430.702 39.3911C430.051 39.3911 429.472 39.5358 428.966 39.8251C428.495 40.0783 428.061 40.4399 427.664 40.9101C427.266 41.3441 426.904 41.8504 426.579 42.429L425.874 43.731C426.416 42.7545 427.013 41.8685 427.664 41.0728C428.387 40.1325 429.291 39.6624 430.376 39.6624C431.316 39.6624 432.184 39.8794 432.98 40.3134C433.776 40.7112 434.427 41.2175 434.933 41.8323C434.318 41.5791 433.595 41.326 432.763 41.0728C431.931 40.8197 431.136 40.6931 430.376 40.6931C429.978 40.6931 429.635 40.7835 429.345 40.9643C429.056 41.1451 428.803 41.3802 428.586 41.6695C428.405 41.9227 428.224 42.212 428.043 42.5375C427.899 42.863 427.736 43.1704 427.555 43.4597L426.85 43.5682C426.235 44.617 425.729 45.8466 425.331 47.257C424.969 48.6313 424.789 50.0779 424.789 51.5969C424.789 52.501 424.825 53.3147 424.897 54.038C425.006 54.7613 425.15 55.5027 425.331 56.2622L425.982 57.9438L425.874 56.3706C425.801 55.141 425.729 54.0561 425.657 53.1158C425.584 52.1393 425.548 51.0725 425.548 49.9152C425.62 48.8664 425.765 47.8719 425.982 46.9316C426.163 46.1359 426.434 45.3945 426.796 44.7074C426.362 45.5754 426.072 46.5699 425.928 47.691C425.747 48.9206 425.657 50.2226 425.657 51.5969C425.657 52.6818 425.711 53.7125 425.819 54.689C425.928 55.6654 426.054 56.6419 426.199 57.6183C426.38 58.5948 426.561 59.6074 426.741 60.6562C426.922 61.6688 427.067 62.79 427.175 64.0196L427.338 65.0503L427.664 68.1424L426.307 68.6849ZM426.958 44.4362L426.796 44.7074L426.958 44.4362ZM470.423 35.0513L470.26 36.0278C470.079 37.7999 469.971 39.6985 469.934 41.7238C469.898 43.7129 469.754 45.72 469.5 47.7453C469.79 45.7562 470.025 43.8033 470.206 41.8865C470.386 39.8975 470.567 37.9445 470.748 36.0278C470.929 36.6064 471.074 37.2212 471.182 37.8722C471.327 38.5232 471.399 39.2103 471.399 39.9336C471.218 41.7419 471.056 43.4778 470.911 45.1414C470.766 46.805 470.567 48.5409 470.314 50.3492L469.609 50.5119C469.428 52.1755 469.048 53.9838 468.47 55.9367C467.891 57.8896 467.041 59.6978 465.92 61.3614C464.835 63.025 463.425 64.4174 461.689 65.5385C459.953 66.6234 457.873 67.1659 455.45 67.1659C454.655 67.1659 453.805 67.1117 452.901 67.0032C452.033 66.8585 451.183 66.6596 450.351 66.4065C449.519 66.1171 448.724 65.7555 447.964 65.3215C447.205 64.8875 446.554 64.345 446.011 63.6941L446.065 63.8026V63.8568L446.011 63.9111L445.848 63.8568C446.065 64.1823 446.301 64.4716 446.554 64.7248C445.903 64.1461 445.306 63.4771 444.764 62.7176C443.859 61.488 443.136 60.0233 442.594 58.3236C442.268 57.3109 442.015 56.2802 441.834 55.2314C441.653 54.1827 441.527 53.0796 441.454 51.9223C441.382 50.7289 441.328 49.445 441.292 48.0708C441.292 46.6965 441.292 45.1776 441.292 43.514C441.617 42.212 441.87 40.9101 442.051 39.6081C442.232 38.3062 442.359 37.0042 442.431 35.7023C442.539 35.7023 442.666 35.6842 442.811 35.6481C442.955 35.6119 443.1 35.5938 443.245 35.5938C443.498 35.5938 443.715 35.7385 443.896 36.0278C444.113 36.3171 444.221 36.9319 444.221 37.8722V38.3604C444.221 38.5051 444.203 38.6678 444.167 38.8487H444.818C445.107 37.3297 445.451 36.1724 445.848 35.3768C446.246 34.5812 446.644 34.1834 447.042 34.1834C447.331 34.1834 447.584 34.5993 447.801 35.4311C448.055 36.2267 448.181 37.4925 448.181 39.2284C448.181 40.4942 448.145 41.778 448.073 43.08C448 44.3819 447.964 45.72 447.964 47.0943C447.964 49.228 448.055 51.1629 448.235 52.8988C448.452 54.6347 448.85 56.1175 449.429 57.3471C450.007 58.5767 450.821 59.5351 451.87 60.2222C452.955 60.8732 454.347 61.1987 456.047 61.1987C457.457 61.1987 458.633 60.7647 459.573 59.8967C460.513 59.0288 461.309 57.8715 461.96 56.4249C462.611 54.9783 463.153 53.3147 463.587 51.4341C464.058 49.5174 464.492 47.5283 464.889 45.4669C464.962 44.8882 465.016 44.3096 465.052 43.731C465.088 43.1523 465.106 42.5556 465.106 41.9408V40.2591C465.106 39.2103 465.161 38.3243 465.269 37.601C465.378 36.8777 465.685 36.4618 466.191 36.3533C466.191 38.1977 466.137 40.024 466.029 41.8323C465.956 43.5682 465.812 45.3041 465.595 47.0401C465.848 45.3403 466.047 43.6405 466.191 41.9408C466.336 40.1687 466.444 38.3604 466.517 36.516C466.734 36.6607 466.915 36.733 467.059 36.733C467.204 36.733 467.349 36.6607 467.493 36.516V34.5631C467.674 33.9121 467.855 33.4601 468.036 33.2069C468.217 32.9176 468.415 32.7729 468.632 32.7729C468.849 32.7729 469.066 32.8814 469.283 33.0984C469.5 33.3154 469.717 33.5866 469.934 33.9121L470.423 35.0513ZM448.018 65.8097C448.886 66.2799 449.772 66.6596 450.677 66.9489C451.617 67.2021 452.485 67.3829 453.28 67.4914C454.112 67.5999 454.781 67.6542 455.288 67.6542C457.819 67.6542 459.971 67.0936 461.743 65.9725C463.515 64.8514 464.962 63.459 466.083 61.7954C467.24 60.0957 468.126 58.2874 468.741 56.3706C469.32 54.5624 469.754 52.8988 470.043 51.3799C469.79 52.8988 469.392 54.5805 468.849 56.4249C468.235 58.3778 467.349 60.2041 466.191 61.9039C465.07 63.6037 463.642 65.0322 461.906 66.1895C460.17 67.3468 458.072 67.9254 455.613 67.9254C454.239 67.9254 452.883 67.7446 451.544 67.3829C450.206 67.0213 448.959 66.4607 447.801 65.7012C447.874 65.7374 447.946 65.7736 448.018 65.8097ZM468.795 52.4648C468.904 51.85 468.994 51.2533 469.066 50.6746C469.139 50.1683 469.211 49.662 469.283 49.1557C469.066 50.747 468.705 52.4287 468.198 54.2007C467.692 56.0452 466.987 57.7992 466.083 59.4628C465.179 61.0902 464.04 62.5368 462.665 63.8026C461.363 64.996 459.844 65.8097 458.108 66.2437C459.627 65.9182 460.984 65.2853 462.177 64.345C463.407 63.3686 464.455 62.2294 465.323 60.9274C466.191 59.6255 466.897 58.2331 467.439 56.7504C468.018 55.2676 468.47 53.8391 468.795 52.4648ZM463.425 56.2622C463.027 57.0578 462.575 57.8173 462.069 58.5406C461.598 59.2639 461.056 59.9148 460.441 60.4935C461.092 59.951 461.653 59.3181 462.123 58.5948C462.629 57.8715 463.063 57.094 463.425 56.2622ZM447.801 65.7012C447.367 65.4119 446.952 65.0864 446.554 64.7248C446.952 65.0864 447.367 65.4119 447.801 65.7012ZM470.097 51.0001L470.043 51.3799L470.097 51.0001ZM469.338 48.8845C469.302 48.993 469.283 49.0834 469.283 49.1557C469.283 49.0834 469.302 48.993 469.338 48.8845ZM477.381 64.6163C477.381 64.4355 477.435 64.2185 477.544 63.9653C477.652 63.7122 477.707 63.4409 477.707 63.1516C477.815 62.2836 477.888 61.6688 477.924 61.3072C477.96 60.9094 477.978 60.5658 477.978 60.2765C477.978 58.7575 477.924 57.1301 477.815 55.3942C477.743 53.6221 477.652 51.9223 477.544 50.2949C477.544 49.7886 477.526 49.1919 477.49 48.5047C477.49 47.8176 477.454 47.2751 477.381 46.8773C477.49 45.6115 477.58 44.3638 477.652 43.1342C477.725 41.9046 477.761 40.6569 477.761 39.3911V38.035C477.761 37.5648 477.743 37.0947 477.707 36.6245C477.815 36.733 477.924 36.7873 478.032 36.7873C478.177 36.7873 478.321 36.733 478.466 36.6245C478.647 36.516 478.81 36.4618 478.954 36.4618C479.208 36.4618 479.406 36.733 479.551 37.2755C479.732 37.818 479.822 39.0114 479.822 40.8558H480.311C480.491 38.8306 480.763 37.2212 481.124 36.0278C481.522 34.8343 481.92 34.2376 482.318 34.2376C482.499 34.2376 482.788 34.6354 483.186 35.4311C483.584 36.1905 483.782 37.4021 483.782 39.0657L484.379 38.0892C484.777 37.6191 485.211 37.1308 485.681 36.6245C486.187 36.1182 486.748 35.6661 487.363 35.2683C487.978 34.8705 488.665 34.545 489.424 34.2919C490.184 34.0025 491.052 33.8579 492.028 33.8579C493.909 33.8579 495.536 34.2919 496.91 35.1598C498.321 35.9916 499.496 37.0947 500.436 38.4689C501.377 39.807 502.136 41.3441 502.715 43.08C503.33 44.7797 503.8 46.5157 504.125 48.2878C504.451 50.0237 504.668 51.7054 504.776 53.3328C504.885 54.9602 504.939 56.3526 504.939 57.5098C504.939 58.5586 504.867 59.1915 504.722 59.4085C504.614 59.5893 504.397 59.6978 504.071 59.734C503.999 56.9493 503.818 54.1103 503.529 51.2171C503.239 48.3239 502.552 45.5211 501.467 42.8087C502.444 45.6658 503.058 48.4867 503.312 51.2714C503.601 54.0199 503.746 56.7865 503.746 59.5713C503.529 59.4628 503.33 59.4085 503.149 59.4085C503.004 59.4085 502.878 59.4628 502.769 59.5713C502.769 59.8606 502.787 60.168 502.823 60.4935C502.86 60.7828 502.878 61.0721 502.878 61.3614C502.914 61.6508 502.932 61.922 502.932 62.1751C502.715 63.0069 502.498 63.6037 502.281 63.9653C502.064 64.327 501.865 64.5078 501.684 64.5078C501.467 64.5078 501.286 64.4174 501.142 64.2366C500.997 64.0196 500.852 63.7664 500.708 63.4771C500.599 63.1878 500.473 62.8804 500.328 62.5549C500.219 62.1932 500.057 61.8497 499.84 61.5242C499.912 60.9094 499.966 60.4211 500.002 60.0595C500.039 59.6617 500.057 59.3362 500.057 59.083C500.057 58.1066 500.039 56.9312 500.002 55.5569C499.966 54.1827 499.858 52.7541 499.677 51.2714C499.532 49.7524 499.279 48.2516 498.918 46.7688C498.592 45.2499 498.122 43.9118 497.507 42.7545C496.928 41.561 496.187 40.6027 495.283 39.8794C494.379 39.1199 493.294 38.7402 492.028 38.7402C491.16 38.7402 490.383 39.0295 489.695 39.6081C489.044 40.1868 488.466 40.9282 487.959 41.8323C487.489 42.7364 487.073 43.731 486.712 44.8159C486.35 45.8647 486.061 46.8773 485.844 47.8538C486.169 46.8411 486.495 45.8104 486.82 44.7617C487.182 43.7129 487.598 42.7545 488.068 41.8865C488.574 41.0186 489.153 40.3134 489.804 39.7709C490.455 39.1922 491.214 38.9029 492.082 38.9029C493.203 38.9029 494.162 39.2103 494.957 39.8251C495.789 40.4399 496.476 41.2356 497.019 42.212C497.597 43.1885 498.05 44.3096 498.375 45.5754C498.737 46.805 499.008 48.0708 499.189 49.3727C499.37 50.6385 499.478 51.8862 499.514 53.1158C499.587 54.3092 499.623 55.3399 499.623 56.2079C499.623 56.895 499.605 57.5822 499.568 58.2693C499.568 58.9565 499.55 59.6617 499.514 60.385C499.189 59.0107 498.936 57.5822 498.755 56.0994C498.61 54.5805 498.447 53.0977 498.267 51.6511C498.086 50.1683 497.851 48.7579 497.561 47.4198C497.308 46.0455 496.928 44.7797 496.422 43.6225L496.802 43.08C496.44 42.2482 496.024 41.6153 495.554 41.1813C495.12 40.7112 494.686 40.3676 494.252 40.1506C493.818 39.9336 493.42 39.807 493.059 39.7709C492.697 39.7347 492.462 39.7166 492.354 39.7166C491.449 39.7166 490.636 40.0421 489.912 40.6931C489.225 41.3441 488.61 42.2301 488.068 43.3512C487.562 44.4362 487.11 45.7019 486.712 47.1486C486.314 48.5952 485.97 50.1141 485.681 51.7054C485.392 53.2966 485.139 54.906 484.922 56.5334C484.705 58.1247 484.524 59.6255 484.379 61.0359H484.867C485.048 59.8063 485.229 58.4501 485.41 56.9674C485.627 55.4846 485.844 53.9838 486.061 52.4648C486.314 50.9097 486.603 49.4089 486.929 47.9623C487.254 46.5157 487.634 45.2137 488.068 44.0564C488.538 42.8992 489.081 41.9589 489.695 41.2356C490.274 40.5484 490.979 40.1506 491.811 40.0421C491.015 40.2229 490.346 40.7293 489.804 41.561C489.225 42.429 488.719 43.4959 488.285 44.7617C487.851 46.0274 487.453 47.4198 487.092 48.9387C486.766 50.4215 486.459 51.85 486.169 53.2243L485.084 61.1444C484.94 61.6508 484.831 62.1028 484.759 62.5006L484.542 63.6398C484.47 64.0015 484.397 64.3993 484.325 64.8333C484.253 65.2311 484.162 65.7012 484.054 66.2437L483.891 66.8947H483.565L478.086 65.0503C477.906 65.0141 477.761 64.9599 477.652 64.8875C477.58 64.8152 477.49 64.7248 477.381 64.6163ZM486.82 36.7873C486.097 37.4021 485.518 38.0711 485.084 38.7944C484.687 39.4816 484.307 40.1868 483.945 40.9101V40.9643C484.451 39.9155 485.157 38.8487 486.061 37.7637C486.929 36.7511 488.086 35.9916 489.533 35.4853C489.063 35.63 488.61 35.7746 488.176 35.9193C487.67 36.1001 487.218 36.3894 486.82 36.7873ZM493.33 34.9971C493.149 34.9609 492.896 34.9428 492.571 34.9428C493.728 35.2322 494.813 35.5576 495.825 35.9193C496.838 36.2448 497.796 36.9138 498.701 37.9265C498.086 37.0947 497.272 36.4437 496.259 35.9735C495.283 35.5034 494.306 35.1779 493.33 34.9971ZM494.795 41.1813C494.505 40.9643 494.162 40.8016 493.764 40.6931C493.402 40.5484 492.95 40.3676 492.408 40.1506L492.354 40.0421C492.968 40.0783 493.511 40.2229 493.981 40.4761C494.451 40.6931 494.903 41.0909 495.337 41.6695L494.795 41.1813ZM498.809 38.035C499.315 38.6498 499.785 39.355 500.219 40.1506C500.653 40.9462 501.033 41.6515 501.359 42.2663C500.997 41.4345 500.653 40.675 500.328 39.9879C500.002 39.3007 499.496 38.6498 498.809 38.035ZM514.875 59.3543C515.454 59.5351 516.141 59.8606 516.937 60.3307C517.768 60.8009 518.691 61.2891 519.703 61.7954C520.716 62.3017 521.819 62.7538 523.012 63.1516C524.242 63.5494 525.544 63.7483 526.918 63.7483H527.515C527.732 63.7483 527.985 63.7122 528.274 63.6398L528.871 64.0738C530.282 63.6398 531.439 62.8261 532.343 61.6327C533.247 60.4031 533.699 58.7575 533.699 56.6961C533.699 55.2134 533.337 54.2007 532.614 53.6583C531.927 53.0796 530.643 52.7903 528.763 52.7903C527.605 52.7903 526.394 52.8807 525.128 53.0615C523.898 53.2062 522.596 53.2785 521.222 53.2785C520.607 53.2785 519.974 53.2605 519.324 53.2243C518.673 53.152 518.003 53.0254 517.316 52.8446V53.17C518.763 53.5317 520.191 53.7125 521.602 53.7125C522.976 53.7125 524.278 53.6402 525.508 53.4955C526.774 53.3147 527.985 53.2243 529.142 53.2243C530.119 53.2243 530.878 53.3328 531.421 53.5498C531.999 53.7306 532.433 53.9838 532.723 54.3092C533.012 54.6347 533.193 55.0325 533.265 55.5027C533.374 55.9367 533.428 56.4249 533.428 56.9674C533.428 58.6671 532.976 60.1137 532.072 61.3072C531.204 62.4283 530.173 63.1335 528.98 63.4228C530.318 62.9527 531.366 62.139 532.126 60.9817C532.922 59.7521 533.319 58.3778 533.319 56.8589C533.319 55.7739 533.03 54.9421 532.451 54.3635C531.909 53.7848 530.951 53.4955 529.576 53.4955C528.455 53.4955 527.189 53.5679 525.779 53.7125C524.369 53.8572 522.868 53.9295 521.276 53.9295C520.3 53.9295 519.161 53.8029 517.859 53.5498C516.593 53.2966 515.382 52.8265 514.224 52.1393C513.067 51.4522 512.091 50.5119 511.295 49.3185C510.499 48.0888 510.101 46.4976 510.101 44.5447C510.101 42.9896 510.409 41.561 511.024 40.2591C511.675 38.921 512.524 37.7637 513.573 36.7873C514.622 35.7746 515.816 34.979 517.154 34.4004C518.528 33.8217 519.938 33.5143 521.385 33.4782C522.759 33.4782 524.061 33.6771 525.291 34.0749C526.557 34.4365 527.75 34.9248 528.871 35.5396C529.992 36.1182 531.059 36.7692 532.072 37.4925C533.084 38.2158 534.025 38.9391 534.893 39.6624L533.808 40.7473C533.554 40.7473 533.175 40.6027 532.668 40.3134C532.162 39.9879 531.385 39.4454 530.336 38.6859L530.01 39.1742C531.312 40.2229 532.253 41.1994 532.831 42.1035C533.446 43.0077 533.753 43.7129 533.753 44.2192C533.681 44.5085 533.5 44.6532 533.211 44.6532C532.922 44.6532 532.343 44.4181 531.475 43.9479C530.607 43.4778 529.612 42.9534 528.491 42.3748C527.406 41.7961 526.249 41.2717 525.02 40.8016C523.79 40.3314 522.669 40.0964 521.656 40.0964C521.078 40.0964 520.499 40.2049 519.92 40.4218C519.342 40.6388 518.817 40.9462 518.347 41.3441C517.877 41.7057 517.479 42.1578 517.154 42.7002C516.864 43.2427 516.72 43.8394 516.72 44.4904C516.72 45.5392 517.208 46.2444 518.184 46.6061C519.161 46.9677 520.445 47.1486 522.036 47.1486C522.361 47.1486 522.705 47.1486 523.067 47.1486C523.464 47.1124 523.826 47.0581 524.152 46.9858C524.983 46.9858 525.526 46.9677 525.779 46.9316C526.068 46.8592 526.34 46.8231 526.593 46.8231C528.148 46.8231 529.703 46.9316 531.258 47.1486C532.813 47.3655 534.205 47.8357 535.435 48.559C536.665 49.2823 537.659 50.313 538.419 51.6511C539.178 52.9892 539.558 54.7794 539.558 57.0216C539.558 58.5767 539.287 60.1318 538.744 61.6869C538.238 63.2058 537.46 64.5801 536.412 65.8097C535.363 67.0032 534.061 67.9616 532.506 68.6849C530.951 69.4443 529.124 69.8241 527.027 69.8241C525.761 69.8241 524.26 69.5709 522.524 69.0646C520.824 68.5944 519.197 68.0339 517.642 67.3829C516.123 66.6958 514.821 65.9906 513.736 65.2673C512.687 64.544 512.163 63.9292 512.163 63.4228C512.163 63.2782 512.253 63.1697 512.434 63.0974C514.64 64.7248 516.882 66.0629 519.161 67.1117C521.403 68.0881 523.699 68.6306 526.05 68.7391C524.893 68.6668 523.736 68.4679 522.578 68.1424C521.385 67.7807 520.191 67.3468 518.998 66.8404C517.841 66.298 516.72 65.7012 515.635 65.0503C514.586 64.3631 513.573 63.676 512.597 62.9889L513.411 62.2836C513.302 62.2475 513.103 62.1209 512.814 61.9039C512.524 61.6869 512.235 61.4157 511.946 61.0902C511.693 60.7647 511.458 60.4211 511.241 60.0595C511.024 59.6978 510.915 59.3543 510.915 59.0288C510.915 58.6671 510.987 58.4321 511.132 58.3236C511.277 58.2151 511.44 58.1608 511.62 58.1608C511.801 58.1608 512.181 58.2874 512.76 58.5406C513.338 58.7937 514.043 59.0649 514.875 59.3543ZM526.864 64.8875C525.598 64.8875 524.188 64.6344 522.633 64.1281C521.114 63.5856 519.667 62.8984 518.293 62.0666C519.414 62.8261 520.662 63.5133 522.036 64.1281C523.41 64.7067 525.001 64.996 526.81 64.996C529.233 64.996 531.149 64.2546 532.56 62.7719C534.007 61.2891 534.73 59.3 534.73 56.8046V56.2622C534.549 55.1049 534.151 54.1646 533.536 53.4413C532.958 52.6818 532.054 52.2659 530.824 52.1936C531.583 52.3382 532.198 52.5733 532.668 52.8988C533.175 53.2243 533.554 53.6221 533.808 54.0922C534.097 54.5262 534.296 55.0145 534.404 55.5569C534.513 56.0994 534.567 56.66 534.567 57.2386C534.422 59.6255 533.663 61.5061 532.289 62.8804C530.914 64.2185 529.106 64.8875 526.864 64.8875ZM533.753 67.0032C534.658 66.4245 535.381 65.7193 535.923 64.8875C536.466 64.0557 536.936 63.1878 537.334 62.2836C536.574 63.8026 535.525 65.1407 534.187 66.298C532.885 67.4552 531.33 68.1785 529.522 68.4679C530.209 68.3594 530.914 68.2147 531.638 68.0339C532.397 67.8169 533.102 67.4733 533.753 67.0032ZM538.907 56.8046C538.907 56.4068 538.835 56.0271 538.69 55.6654C538.581 55.3761 538.491 55.0687 538.419 54.7432L538.473 55.4484C538.509 55.7378 538.527 56.1356 538.527 56.6419C538.527 57.6183 538.419 58.5586 538.202 59.4628C537.985 60.3669 537.713 61.2529 537.388 62.1209C537.713 61.3253 538.021 60.4935 538.31 59.6255C538.636 58.7214 538.835 57.7811 538.907 56.8046ZM538.419 54.5805C538.419 54.6166 538.419 54.6709 538.419 54.7432C538.419 54.6709 538.419 54.6166 538.419 54.5805ZM528.925 63.4771C528.889 63.4771 528.853 63.4771 528.817 63.4771C528.853 63.4771 528.889 63.4771 528.925 63.4771Z" fill="white"/>
<path fill-rule="evenodd" clip-rule="evenodd" d="M80.7954 82.3123C71.7128 75.4235 59.4186 66.0989 21.3318 92.1382C0.786802 77.3149 -4.18551 51.7388 4.09805 38.0182C10.2941 34.6958 15.4095 28.9729 20.5369 23.2365C30.3207 12.2907 40.1487 1.29549 57.6135 6.83304C47.6243 21.5576 80.4546 37.0677 80.4546 0.205566C86.7102 11.6966 95.0442 19.1249 101.936 25.2674C108.805 31.3901 114.241 36.2354 114.757 42.5534C116.307 61.538 110.345 78.5182 95.4688 85.8C89.3456 88.7973 85.5016 85.8818 80.7954 82.3123ZM88.8029 93.4075C90.5763 93.6519 94.1269 94.1412 98.247 91.5256C102.813 88.6271 99.3234 101.117 92.3733 102.446C89.5385 102.988 85.4297 93.0647 88.205 93.3321C88.3721 93.3481 88.5716 93.3756 88.8008 93.4072L88.8026 93.4074L88.8029 93.4075ZM95.0613 37.8231C95.0613 42.2481 91.4742 45.8353 87.0491 45.8353C82.6241 45.8353 79.0369 42.2481 79.0369 37.8231C79.0369 33.3981 82.6241 29.8109 87.0491 29.8109C91.4742 29.8109 95.0613 33.3981 95.0613 37.8231ZM81.4557 51.4288C81.4557 55.8538 77.8685 59.441 73.4435 59.441C69.0185 59.441 65.4313 55.8538 65.4313 51.4288C65.4313 47.0038 69.0185 43.4166 73.4435 43.4166C77.8685 43.4166 81.4557 47.0038 81.4557 51.4288ZM87.0491 73.0466C91.4742 73.0466 95.0613 69.4594 95.0613 65.0344C95.0613 60.6094 91.4742 57.0222 87.0491 57.0222C82.6241 57.0222 79.0369 60.6094 79.0369 65.0344C79.0369 69.4594 82.6241 73.0466 87.0491 73.0466ZM108.667 51.4288C108.667 55.8538 105.08 59.441 100.655 59.441C96.2298 59.441 92.6426 55.8538 92.6426 51.4288C92.6426 47.0038 96.2298 43.4166 100.655 43.4166C105.08 43.4166 108.667 47.0038 108.667 51.4288ZM25.8238 44.3237H12.2182V58.2316H25.8238L25.8238 71.8373H39.4294V58.2317L53.0351 58.2316V44.3237L39.4294 44.3237V30.718H25.8238L25.8238 44.3237Z" fill="white"/>
</svg>
