<svg width="280" height="108" viewBox="0 0 280 108" fill="none" xmlns="http://www.w3.org/2000/svg">
<g filter="url(#filter0_d_1289_1651)">
<path d="M11 86V21.5H21.75V10.75H75.5V21.5H86.25V86H64.75V53.75H32.5V86H11ZM32.5 43H64.75V21.5H32.5V43Z" fill="white"/>
<path d="M97 75.25V64.5H118.5V75.25H150.75V53.75H107.75V43H97V21.5H107.75V10.75H161.5V21.5H172.25V32.25H150.75V21.5H118.5V43H161.5V53.75H172.25V75.25H161.5V86H107.75V75.25H97Z" fill="white"/>
<path d="M183 86V10.75H204.5V21.5H215.25V32.25H226V21.5H236.75V10.75H258.25V86H236.75V43H226V53.75H215.25V43H204.5V86H183Z" fill="white"/>
<path d="M5.625 86V91.375H11H32.5H37.875V86V59.125H59.375V86V91.375H64.75H86.25H91.625V86V80.625H97H102.375V86V91.375H107.75H161.5H166.875V86V80.625H172.25H177.625V86V91.375H183H204.5H209.875V86V59.125H215.25H226H231.375V86V91.375H236.75H258.25H263.625V86V10.75V5.375H258.25H236.75H231.375V10.75V16.125H226H220.625H215.25H209.875V10.75V5.375H204.5H183H177.625V10.75V16.125H172.25H166.875V10.75V5.375H161.5H107.75H102.375V10.75V16.125H97H91.625H86.25H80.875V10.75V5.375H75.5H21.75H16.375V10.75V16.125H11H5.625V21.5V86ZM172.25 48.375H166.875V43V37.625H172.25H177.625V48.375H172.25ZM145.375 37.625H123.875V26.875H145.375V32.25V37.625ZM97 48.375H102.375V53.75V59.125H97H91.625V48.375H97ZM123.875 59.125H145.375V69.875H123.875V64.5V59.125ZM59.375 26.875V37.625H37.875V26.875H59.375Z" stroke="black" stroke-width="10.75"/>
</g>
<defs>
<filter id="filter0_d_1289_1651" x="0.25" y="0" width="279.5" height="107.5" filterUnits="userSpaceOnUse" color-interpolation-filters="sRGB">
<feFlood flood-opacity="0" result="BackgroundImageFix"/>
<feColorMatrix in="SourceAlpha" type="matrix" values="0 0 0 0 0 0 0 0 0 0 0 0 0 0 0 0 0 0 127 0" result="hardAlpha"/>
<feOffset dx="10.75" dy="10.75"/>
<feColorMatrix type="matrix" values="0 0 0 0 0 0 0 0 0 0 0 0 0 0 0 0 0 0 1 0"/>
<feBlend mode="normal" in2="BackgroundImageFix" result="effect1_dropShadow_1289_1651"/>
<feBlend mode="normal" in="SourceGraphic" in2="effect1_dropShadow_1289_1651" result="shape"/>
</filter>
</defs>
</svg>
