<svg width="1660" height="161" viewBox="0 0 1660 161" fill="none" xmlns="http://www.w3.org/2000/svg">
<path d="M1158.54 87.7067L1158.11 87.4948C1156.14 86.9768 1154.04 86.6472 1151.83 86.5059C1149.61 86.3646 1147.35 86.0585 1145.05 85.5876C1147.31 86.0585 1149.52 86.4353 1151.69 86.7178C1153.85 86.9533 1156 87.4242 1158.11 88.1306C1157.46 88.5544 1156.75 88.7663 1156 88.7663C1155.1 88.6721 1154.21 88.5308 1153.31 88.3425C1152.46 88.1541 1151.55 88.0128 1150.56 87.9187C1150.56 87.6361 1150.63 87.4242 1150.77 87.2829C1149.4 87.2829 1148.04 87.1416 1146.67 86.8591C1145.35 86.5765 1144.06 86.2704 1142.79 85.9408C1141.51 85.5641 1140.27 85.2344 1139.04 84.9519C1137.87 84.6222 1136.76 84.4574 1135.72 84.4574C1135.72 84.5987 1135.7 84.6693 1135.65 84.6693C1136.88 84.9048 1138.03 85.2344 1139.11 85.6582C1140.2 86.0821 1141.42 86.4117 1142.79 86.6472C1144.1 86.9768 1145.38 87.2123 1146.6 87.3536C1147.87 87.4948 1149.12 87.6832 1150.34 87.9187C1148.37 87.7303 1146.34 87.4477 1144.27 87.071C1142.24 86.6943 1140.24 86.2704 1138.27 85.7995L1134.95 84.9519C1133.77 87.9657 1132.57 90.9325 1131.34 93.8522C1130.17 96.7248 1129.01 99.6445 1127.88 102.611C1127.79 102.423 1127.62 102.305 1127.39 102.258C1127.2 102.258 1126.99 102.258 1126.75 102.258C1126.56 102.258 1126.37 102.187 1126.19 102.046C1126 101.952 1125.9 101.717 1125.9 101.34C1125.9 100.963 1126 100.422 1126.19 99.7152C1126.37 99.0559 1126.73 98.1611 1127.25 97.0309C1127.15 96.9367 1126.99 96.8897 1126.75 96.8897C1126.56 96.8426 1126.42 96.819 1126.33 96.819C1125.39 98.7969 1124.47 100.304 1123.57 101.34C1122.72 102.423 1122.04 102.965 1121.52 102.965C1120.96 102.965 1120.68 102.423 1120.68 101.34C1120.68 100.445 1120.84 99.3149 1121.17 97.9492C1121.5 96.5365 1121.9 95.0295 1122.37 93.4284C1122.89 91.8273 1123.45 90.1791 1124.07 88.4838C1124.68 86.7414 1125.27 85.0461 1125.83 83.3978C1125.32 83.0682 1124.75 82.8327 1124.14 82.6915C1123.57 82.5502 1122.94 82.4325 1122.23 82.3383C1122.37 82.1499 1122.44 81.9144 1122.44 81.6319C1122.44 81.3493 1122.47 81.0668 1122.51 80.7842C1122.56 80.5017 1122.65 80.2662 1122.8 80.0779C1122.94 79.8895 1123.2 79.7953 1123.57 79.7953C1123.67 79.7953 1123.95 79.8424 1124.42 79.9366V79.3008C1123.67 78.9241 1123.08 78.4767 1122.65 77.9587C1122.28 77.4407 1122.09 76.9227 1122.09 76.4047C1122.09 75.2745 1123.17 74.7094 1125.34 74.7094C1125.95 74.7094 1126.56 74.7565 1127.18 74.8507C1127.83 74.8978 1128.49 74.9684 1129.15 75.0626L1132.4 67.6456C1133.11 66.0445 1133.86 64.3963 1134.66 62.701C1135.51 61.0057 1136.5 59.3339 1137.63 57.6857C1138.76 56.0375 1140.03 54.4834 1141.44 53.0236C1142.9 51.5166 1144.58 50.1745 1146.46 48.9972L1147.52 48.5734C1148.84 48.903 1149.9 49.1856 1150.7 49.4211C1151.55 49.6094 1152.23 49.7507 1152.75 49.8449C1153.22 50.0332 1153.59 50.151 1153.88 50.1981H1153.81L1153.88 50.41C1153.88 50.4571 1153.85 50.5042 1153.81 50.5513L1154.65 52.0347C1157.71 57.1677 1160.3 62.489 1162.42 67.9988C1164.54 73.5085 1166.36 78.9241 1167.86 84.2455C1168.24 85.4228 1168.69 86.6943 1169.2 88.0599C1169.77 89.3785 1170.29 90.65 1170.76 91.8744C1171.28 93.0517 1171.7 94.1348 1172.03 95.1237C1172.36 96.0655 1172.52 96.7484 1172.52 97.1722C1172.52 97.5019 1172.45 97.7138 1172.31 97.8079C1172.17 97.855 1171.98 97.8786 1171.75 97.8786C1170.52 94.8176 1169.37 91.8037 1168.29 88.8369C1167.2 85.9173 1166.14 82.974 1165.11 80.0072C1166.05 82.974 1167.04 85.9173 1168.07 88.8369C1169.16 91.8037 1170.24 94.8176 1171.32 97.8786H1170.83C1170.55 97.8786 1170.36 98.0199 1170.26 98.3024C1170.36 98.3966 1170.48 98.6556 1170.62 99.0794C1170.76 99.4562 1170.9 99.8564 1171.04 100.28C1171.18 100.751 1171.3 101.222 1171.39 101.693C1171.49 102.164 1171.54 102.517 1171.54 102.753C1171.54 103.789 1171.23 104.307 1170.62 104.307C1170.29 104.307 1170.03 104.236 1169.84 104.095C1169.65 103.953 1169.44 103.765 1169.2 103.53L1168.5 102.823C1168.22 102.541 1167.86 102.258 1167.44 101.976L1160.66 82.4795C1161.65 85.5405 1162.61 88.6015 1163.55 91.6625C1164.54 94.7234 1165.56 97.7373 1166.59 100.704C1165.84 99.8094 1165.13 98.7262 1164.47 97.4548C1163.86 96.1833 1163.27 94.8412 1162.71 93.4284C1162.19 92.0156 1161.69 90.5793 1161.22 89.1195C1160.75 87.6126 1160.28 86.1998 1159.81 84.8812C1159.81 84.9754 1159.81 85.0696 1159.81 85.1638C1159.86 85.2109 1159.88 85.2815 1159.88 85.3757C1159.88 86.1292 1159.65 86.6943 1159.17 87.071L1158.54 87.7067ZM1158.11 80.3604C1158.21 80.3604 1158.35 80.3369 1158.54 80.2898C1158.73 80.1956 1158.87 80.1485 1158.96 80.1485C1157.41 76.2399 1155.85 72.449 1154.3 68.7758C1152.79 65.1026 1151.12 61.5708 1149.28 58.1801L1148.86 58.604L1149.92 60.5112C1151.57 63.5251 1153.05 66.6331 1154.37 69.8354C1155.69 73.0376 1156.94 76.3341 1158.11 79.7247C1156.75 76.0515 1155.27 72.4019 1153.66 68.7758C1152.11 65.1026 1150.44 61.7827 1148.65 58.8159L1148.37 58.9572C1146.77 60.6054 1145.26 62.5832 1143.85 64.8907C1142.48 67.1982 1141.18 69.5528 1139.96 71.9545L1138.12 76.4047L1139.32 76.6872C1140.03 76.8756 1140.71 77.0875 1141.37 77.323C1142.08 77.5114 1142.69 77.7233 1143.21 77.9587C1144.25 78.4767 1145.61 78.877 1147.31 79.1596C1149 79.4421 1150.65 79.7247 1152.25 80.0072C1153.9 80.2427 1155.31 80.5252 1156.49 80.8549C1157.71 81.1374 1158.33 81.5613 1158.33 82.1264L1149.71 81.1374C1150.23 81.2316 1150.86 81.3493 1151.62 81.4906C1152.37 81.5848 1153.12 81.7025 1153.88 81.8438C1154.68 81.9851 1155.45 82.1264 1156.21 82.2676C1156.96 82.3618 1157.6 82.456 1158.11 82.5502C1158.11 82.6915 1158.09 82.8327 1158.04 82.974C1158.04 83.0682 1158.04 83.1624 1158.04 83.2566C1158.04 83.3507 1158.09 83.4214 1158.19 83.4685C1158.33 83.4685 1158.47 83.492 1158.61 83.5391C1158.8 83.5391 1158.96 83.5862 1159.1 83.6804C1159.24 83.7275 1159.39 83.8688 1159.53 84.1042L1158.11 80.3604ZM1142.79 65.2439C1142.88 65.2439 1142.9 65.3146 1142.86 65.4558C1142.86 65.55 1142.88 65.5971 1142.93 65.5971C1143.02 65.5971 1143.3 65.2675 1143.78 64.6082C1144.25 63.9489 1144.79 63.1954 1145.4 62.3478C1146.01 61.5001 1146.6 60.6996 1147.17 59.9461C1147.73 59.1926 1148.13 58.6982 1148.37 58.4627L1148.01 57.9682C1147.02 58.9101 1146.11 60.0167 1145.26 61.2882C1144.41 62.5597 1143.59 63.8783 1142.79 65.2439ZM1149.92 57.615C1151.43 60.158 1152.82 62.8187 1154.09 65.5971C1155.31 68.3284 1156.47 71.0598 1157.55 73.7911C1156.65 71.0598 1155.57 68.3284 1154.3 65.5971C1152.98 62.8187 1151.55 60.158 1149.99 57.615H1149.92ZM1160.73 68.2107C1162.19 71.9781 1163.62 75.816 1165.04 79.7247C1163.72 75.9102 1162.33 72.1429 1160.87 68.4226C1159.5 64.7495 1157.93 61.0527 1156.14 57.3325C1157.83 60.9115 1159.36 64.5375 1160.73 68.2107ZM1150.34 56.061C1150.96 56.2023 1151.38 56.3436 1151.62 56.4848C1151.85 56.6261 1152.02 56.6967 1152.11 56.6967L1152.18 56.4848C1152.23 56.4848 1152.13 56.4613 1151.9 56.4142C1151.66 56.3671 1151.47 56.32 1151.33 56.2729L1151.47 55.9904L1150.63 55.7078L1150.34 56.061ZM1146.88 55.3546L1147.45 56.838L1147.38 55.3546C1147.28 55.3546 1147.17 55.3311 1147.02 55.284C1146.93 55.2369 1146.84 55.2134 1146.74 55.2134L1146.88 55.3546ZM1148.72 57.4031L1148.23 57.7563L1148.65 58.3214L1149.07 57.8976L1148.72 57.4031ZM1149.71 57.2619H1149.78L1149.43 56.7674V56.838L1149.71 57.2619ZM1215.43 56.2023L1215.22 57.4738C1214.98 59.7813 1214.84 62.2536 1214.8 64.8907C1214.75 67.4808 1214.56 70.0944 1214.23 72.7315C1214.61 70.1415 1214.91 67.5985 1215.15 65.1026C1215.38 62.5126 1215.62 59.9696 1215.85 57.4738C1216.09 58.2272 1216.28 59.0278 1216.42 59.8754C1216.61 60.7231 1216.7 61.6178 1216.7 62.5597C1216.47 64.9143 1216.26 67.1747 1216.07 69.3409C1215.88 71.5071 1215.62 73.7676 1215.29 76.1221L1214.37 76.3341C1214.14 78.5003 1213.64 80.8549 1212.89 83.3978C1212.13 85.9408 1211.03 88.2954 1209.57 90.4616C1208.16 92.6278 1206.32 94.4409 1204.06 95.9007C1201.8 97.3135 1199.09 98.0199 1195.93 98.0199C1194.9 98.0199 1193.79 97.9492 1192.62 97.8079C1191.48 97.6196 1190.38 97.3606 1189.3 97.0309C1188.21 96.6542 1187.18 96.1833 1186.19 95.6182C1185.2 95.0531 1184.35 94.3467 1183.64 93.499L1183.71 93.6403V93.711L1183.64 93.7816L1183.43 93.711C1183.71 94.1348 1184.02 94.5115 1184.35 94.8412C1183.5 94.0877 1182.73 93.2165 1182.02 92.2276C1180.84 90.6264 1179.9 88.7192 1179.19 86.5059C1178.77 85.1873 1178.44 83.8452 1178.2 82.4795C1177.97 81.1139 1177.8 79.6776 1177.71 78.1706C1177.62 76.6166 1177.55 74.9448 1177.5 73.1554C1177.5 71.3659 1177.5 69.388 1177.5 67.2218C1177.92 65.5265 1178.25 63.8312 1178.49 62.1359C1178.72 60.4406 1178.89 58.7452 1178.98 57.0499C1179.12 57.0499 1179.29 57.0264 1179.48 56.9793C1179.66 56.9322 1179.85 56.9087 1180.04 56.9087C1180.37 56.9087 1180.65 57.097 1180.89 57.4738C1181.17 57.8505 1181.31 58.6511 1181.31 59.8754V60.5112C1181.31 60.6996 1181.29 60.9115 1181.24 61.1469H1182.09C1182.47 59.1691 1182.91 57.6621 1183.43 56.6261C1183.95 55.5901 1184.47 55.0721 1184.99 55.0721C1185.36 55.0721 1185.69 55.6136 1185.98 56.6967C1186.3 57.7328 1186.47 59.381 1186.47 61.6414C1186.47 63.2896 1186.42 64.9614 1186.33 66.6567C1186.23 68.352 1186.19 70.0944 1186.19 71.8839C1186.19 74.6623 1186.3 77.1817 1186.54 79.4421C1186.82 81.7025 1187.34 83.6333 1188.09 85.2344C1188.85 86.8355 1189.91 88.0835 1191.27 88.9782C1192.69 89.8259 1194.5 90.2497 1196.71 90.2497C1198.55 90.2497 1200.08 89.6846 1201.3 88.5544C1202.53 87.4242 1203.56 85.9173 1204.41 84.0336C1205.26 82.1499 1205.97 79.9837 1206.53 77.5349C1207.14 75.039 1207.71 72.449 1208.23 69.7647C1208.32 69.0113 1208.39 68.2578 1208.44 67.5043C1208.48 66.7509 1208.51 65.9738 1208.51 65.1733V62.9835C1208.51 61.6178 1208.58 60.4641 1208.72 59.5223C1208.86 58.5804 1209.26 58.0389 1209.92 57.8976C1209.92 60.2993 1209.85 62.6774 1209.71 65.032C1209.62 67.2924 1209.43 69.5528 1209.14 71.8132C1209.47 69.5999 1209.73 67.3866 1209.92 65.1733C1210.11 62.8658 1210.25 60.5112 1210.35 58.1095C1210.63 58.2979 1210.86 58.3921 1211.05 58.3921C1211.24 58.3921 1211.43 58.2979 1211.62 58.1095V55.5665C1211.85 54.7189 1212.09 54.1302 1212.32 53.8006C1212.56 53.4239 1212.82 53.2355 1213.1 53.2355C1213.38 53.2355 1213.67 53.3768 1213.95 53.6593C1214.23 53.9419 1214.51 54.2951 1214.8 54.7189L1215.43 56.2023ZM1186.26 96.2539C1187.39 96.8661 1188.54 97.3606 1189.72 97.7373C1190.94 98.067 1192.07 98.3024 1193.11 98.4437C1194.19 98.585 1195.06 98.6556 1195.72 98.6556C1199.02 98.6556 1201.82 97.9257 1204.13 96.4658C1206.44 95.006 1208.32 93.1929 1209.78 91.0267C1211.29 88.8134 1212.44 86.4588 1213.24 83.9629C1213.99 81.6083 1214.56 79.4421 1214.94 77.4643C1214.61 79.4421 1214.09 81.6319 1213.38 84.0336C1212.58 86.5765 1211.43 88.9547 1209.92 91.168C1208.46 93.3813 1206.6 95.2414 1204.34 96.7484C1202.08 98.2553 1199.35 99.0088 1196.15 99.0088C1194.36 99.0088 1192.59 98.7733 1190.85 98.3024C1189.11 97.8315 1187.48 97.1016 1185.98 96.1126C1186.07 96.1597 1186.16 96.2068 1186.26 96.2539ZM1213.31 78.877C1213.45 78.0765 1213.57 77.2994 1213.67 76.546C1213.76 75.8867 1213.85 75.2274 1213.95 74.5681C1213.67 76.6402 1213.19 78.8299 1212.53 81.1374C1211.88 83.5391 1210.96 85.8231 1209.78 87.9893C1208.6 90.1084 1207.12 91.9921 1205.33 93.6403C1203.63 95.1943 1201.66 96.2539 1199.4 96.819C1201.37 96.3952 1203.14 95.5711 1204.69 94.3467C1206.3 93.0752 1207.66 91.5918 1208.79 89.8965C1209.92 88.2012 1210.84 86.3882 1211.55 84.4574C1212.3 82.5266 1212.89 80.6665 1213.31 78.877ZM1206.32 83.8217C1205.8 84.8577 1205.21 85.8466 1204.55 86.7885C1203.94 87.7303 1203.23 88.5779 1202.43 89.3314C1203.28 88.625 1204.01 87.8009 1204.62 86.8591C1205.28 85.9173 1205.85 84.9048 1206.32 83.8217ZM1185.98 96.1126C1185.41 95.7359 1184.87 95.3121 1184.35 94.8412C1184.87 95.3121 1185.41 95.7359 1185.98 96.1126ZM1215.01 76.9698L1214.94 77.4643L1215.01 76.9698ZM1214.02 74.2149C1213.97 74.3562 1213.95 74.4739 1213.95 74.5681C1213.95 74.4739 1213.97 74.3562 1214.02 74.2149ZM1229.65 87.848C1230.4 88.0835 1231.3 88.5073 1232.33 89.1195C1233.42 89.7317 1234.62 90.3674 1235.94 91.0267C1237.25 91.686 1238.69 92.2747 1240.24 92.7927C1241.85 93.3107 1243.54 93.5697 1245.33 93.5697H1246.11C1246.39 93.5697 1246.72 93.5226 1247.1 93.4284L1247.87 93.9935C1249.71 93.4284 1251.22 92.3688 1252.39 90.8148C1253.57 89.2137 1254.16 87.071 1254.16 84.3868C1254.16 82.456 1253.69 81.1374 1252.75 80.431C1251.85 79.6776 1250.18 79.3008 1247.73 79.3008C1246.22 79.3008 1244.65 79.4186 1243 79.654C1241.4 79.8424 1239.7 79.9366 1237.91 79.9366C1237.11 79.9366 1236.29 79.913 1235.44 79.8659C1234.59 79.7718 1233.72 79.6069 1232.83 79.3715V79.7953C1234.71 80.2662 1236.57 80.5017 1238.41 80.5017C1240.2 80.5017 1241.89 80.4075 1243.49 80.2191C1245.14 79.9837 1246.72 79.8659 1248.23 79.8659C1249.5 79.8659 1250.49 80.0072 1251.19 80.2898C1251.95 80.5252 1252.51 80.8549 1252.89 81.2787C1253.27 81.7025 1253.5 82.2205 1253.59 82.8327C1253.74 83.3978 1253.81 84.0336 1253.81 84.74C1253.81 86.9533 1253.22 88.8369 1252.04 90.391C1250.91 91.8508 1249.57 92.7691 1248.01 93.1459C1249.76 92.5337 1251.12 91.4741 1252.11 89.9672C1253.15 88.366 1253.67 86.5765 1253.67 84.5987C1253.67 83.1859 1253.29 82.1028 1252.54 81.3493C1251.83 80.5959 1250.58 80.2191 1248.79 80.2191C1247.33 80.2191 1245.68 80.3133 1243.85 80.5017C1242.01 80.6901 1240.06 80.7842 1237.98 80.7842C1236.71 80.7842 1235.23 80.6194 1233.53 80.2898C1231.89 79.9601 1230.31 79.3479 1228.8 78.4532C1227.29 77.5584 1226.02 76.3341 1224.99 74.78C1223.95 73.1789 1223.43 71.1069 1223.43 68.5639C1223.43 66.5389 1223.83 64.6788 1224.63 62.9835C1225.48 61.2411 1226.59 59.7342 1227.95 58.4627C1229.32 57.1441 1230.87 56.1081 1232.62 55.3546C1234.4 54.6012 1236.24 54.2009 1238.13 54.1538C1239.91 54.1538 1241.61 54.4128 1243.21 54.9308C1244.86 55.4017 1246.41 56.0375 1247.87 56.838C1249.33 57.5915 1250.72 58.4391 1252.04 59.381C1253.36 60.3228 1254.58 61.2647 1255.71 62.2065L1254.3 63.6193C1253.97 63.6193 1253.48 63.4309 1252.82 63.0542C1252.16 62.6303 1251.15 61.9239 1249.78 60.935L1249.36 61.5708C1251.05 62.9364 1252.28 64.2079 1253.03 65.3852C1253.83 66.5625 1254.23 67.4808 1254.23 68.1401C1254.14 68.5168 1253.9 68.7052 1253.52 68.7052C1253.15 68.7052 1252.39 68.3991 1251.26 67.7869C1250.13 67.1747 1248.84 66.4919 1247.38 65.7384C1245.97 64.9849 1244.46 64.3021 1242.86 63.6899C1241.26 63.0777 1239.8 62.7716 1238.48 62.7716C1237.72 62.7716 1236.97 62.9129 1236.22 63.1954C1235.46 63.478 1234.78 63.8783 1234.17 64.3963C1233.56 64.8672 1233.04 65.4558 1232.62 66.1622C1232.24 66.8686 1232.05 67.6456 1232.05 68.4933C1232.05 69.8589 1232.69 70.7772 1233.96 71.2481C1235.23 71.7191 1236.9 71.9545 1238.97 71.9545C1239.4 71.9545 1239.84 71.9545 1240.31 71.9545C1240.83 71.9074 1241.3 71.8368 1241.73 71.7426C1242.81 71.7426 1243.52 71.7191 1243.85 71.672C1244.22 71.5778 1244.58 71.5307 1244.91 71.5307C1246.93 71.5307 1248.96 71.672 1250.98 71.9545C1253.01 72.2371 1254.82 72.8493 1256.42 73.7911C1258.02 74.7329 1259.32 76.0751 1260.31 77.8175C1261.29 79.5599 1261.79 81.8909 1261.79 84.8106C1261.79 86.8355 1261.44 88.8605 1260.73 90.8854C1260.07 92.8633 1259.06 94.6528 1257.69 96.2539C1256.33 97.8079 1254.63 99.0559 1252.61 99.9977C1250.58 100.987 1248.2 101.481 1245.47 101.481C1243.82 101.481 1241.87 101.151 1239.61 100.492C1237.4 99.88 1235.28 99.1501 1233.25 98.3024C1231.27 97.4077 1229.58 96.4894 1228.17 95.5475C1226.8 94.6057 1226.12 93.8051 1226.12 93.1459C1226.12 92.9575 1226.23 92.8162 1226.47 92.722C1229.34 94.8412 1232.26 96.5836 1235.23 97.9492C1238.15 99.2207 1241.14 99.9271 1244.2 100.068C1242.69 99.9742 1241.19 99.7152 1239.68 99.2913C1238.13 98.8204 1236.57 98.2553 1235.02 97.596C1233.51 96.8897 1232.05 96.1126 1230.64 95.265C1229.27 94.3702 1227.95 93.4755 1226.68 92.5808L1227.74 91.6625C1227.6 91.6154 1227.34 91.4505 1226.96 91.168C1226.59 90.8854 1226.21 90.5323 1225.83 90.1084C1225.5 89.6846 1225.2 89.2372 1224.92 88.7663C1224.63 88.2954 1224.49 87.848 1224.49 87.4242C1224.49 86.9533 1224.59 86.6472 1224.77 86.5059C1224.96 86.3646 1225.17 86.294 1225.41 86.294C1225.65 86.294 1226.14 86.4588 1226.89 86.7885C1227.65 87.1181 1228.57 87.4713 1229.65 87.848ZM1245.26 95.0531C1243.61 95.0531 1241.77 94.7234 1239.75 94.0641C1237.77 93.3578 1235.89 92.463 1234.1 91.3799C1235.56 92.3688 1237.18 93.2636 1238.97 94.0641C1240.76 94.8176 1242.83 95.1943 1245.19 95.1943C1248.34 95.1943 1250.84 94.229 1252.68 92.2982C1254.56 90.3674 1255.5 87.7774 1255.5 84.528V83.8217C1255.27 82.3147 1254.75 81.0903 1253.95 80.1485C1253.19 79.1596 1252.02 78.618 1250.42 78.5238C1251.4 78.7122 1252.21 79.0183 1252.82 79.4421C1253.48 79.8659 1253.97 80.384 1254.3 80.9962C1254.68 81.5613 1254.94 82.197 1255.08 82.9034C1255.22 83.6098 1255.29 84.3397 1255.29 85.0931C1255.1 88.2012 1254.11 90.65 1252.32 92.4395C1250.53 94.1819 1248.18 95.0531 1245.26 95.0531ZM1254.23 97.8079C1255.41 97.0545 1256.35 96.1362 1257.06 95.0531C1257.76 93.97 1258.37 92.8398 1258.89 91.6625C1257.9 93.6403 1256.54 95.3827 1254.8 96.8897C1253.1 98.3966 1251.08 99.3384 1248.72 99.7152C1249.62 99.5739 1250.53 99.3855 1251.48 99.1501C1252.46 98.8675 1253.38 98.4201 1254.23 97.8079ZM1260.94 84.528C1260.94 84.01 1260.85 83.5156 1260.66 83.0446C1260.52 82.6679 1260.4 82.2676 1260.31 81.8438L1260.38 82.7621C1260.42 83.1388 1260.45 83.6568 1260.45 84.3161C1260.45 85.5876 1260.31 86.812 1260.02 87.9893C1259.74 89.1666 1259.39 90.3203 1258.96 91.4505C1259.39 90.4145 1259.79 89.3314 1260.16 88.2012C1260.59 87.0239 1260.85 85.7995 1260.94 84.528ZM1260.31 81.6319C1260.31 81.679 1260.31 81.7496 1260.31 81.8438C1260.31 81.7496 1260.31 81.679 1260.31 81.6319ZM1247.94 93.2165C1247.9 93.2165 1247.85 93.2165 1247.8 93.2165C1247.85 93.2165 1247.9 93.2165 1247.94 93.2165ZM1266.35 94.488C1266.35 94.2054 1266.52 93.9464 1266.84 93.711C1267.17 93.4755 1267.55 93.2636 1267.98 93.0752C1268.45 92.8868 1268.89 92.722 1269.32 92.5808C1269.79 92.4395 1270.14 92.3217 1270.38 92.2276C1272.64 92.5101 1274.9 92.7456 1277.16 92.9339C1279.42 93.1223 1281.68 93.2165 1283.94 93.2165C1284.79 93.2165 1285.96 93.2165 1287.47 93.2165C1288.98 93.1694 1290.63 93.0752 1292.42 92.9339C1294.21 92.7927 1296.02 92.5807 1297.85 92.2982C1299.69 91.9686 1301.36 91.5212 1302.87 90.9561C1304.38 90.391 1305.6 89.6846 1306.54 88.8369C1307.49 87.9893 1307.96 86.9297 1307.96 85.6582C1307.96 84.6222 1307.72 83.7039 1307.25 82.9034C1306.83 82.0557 1306.24 81.3258 1305.48 80.7136C1304.78 80.0543 1303.98 79.5128 1303.08 79.0889C1302.75 78.9006 1302.4 78.7357 1302.02 78.5945C1302.4 78.7828 1302.75 78.9712 1303.08 79.1596C1303.93 79.6305 1304.68 80.2191 1305.34 80.9255C1306.05 81.5848 1306.61 82.3383 1307.04 83.1859C1307.46 83.9865 1307.67 84.9048 1307.67 85.9408C1307.67 87.071 1307.25 88.0364 1306.4 88.8369C1305.6 89.5904 1304.54 90.2262 1303.22 90.7442C1301.95 91.2622 1300.52 91.6625 1298.91 91.945C1297.36 92.2276 1295.81 92.4395 1294.25 92.5808C1292.7 92.722 1291.26 92.8162 1289.94 92.8633C1288.62 92.8633 1287.59 92.8633 1286.84 92.8633C1284.43 92.8633 1282.01 92.7927 1279.56 92.6514C1277.16 92.463 1274.76 92.2511 1272.35 92.0156C1273.2 91.7802 1274.05 91.6154 1274.9 91.5212C1275.79 91.3799 1276.69 91.3093 1277.58 91.3093C1279.09 91.3093 1280.57 91.3328 1282.03 91.3799C1283.49 91.3799 1284.95 91.3799 1286.41 91.3799C1288.15 91.3799 1289.87 91.3564 1291.57 91.3093C1293.26 91.2151 1295.01 91.0267 1296.8 90.7442L1297.01 91.5918C1297.71 91.4505 1298.61 91.2386 1299.69 90.9561C1300.77 90.6264 1301.81 90.2262 1302.8 89.7552C1303.84 89.2843 1304.71 88.6957 1305.41 87.9893C1306.17 87.2829 1306.54 86.4588 1306.54 85.517C1306.54 84.1513 1306.05 82.9505 1305.06 81.9144C1304.07 80.8784 1302.8 79.9601 1301.25 79.1596C1299.74 78.3119 1298.02 77.582 1296.09 76.9698C1294.16 76.3576 1292.25 75.816 1290.37 75.3451C1288.53 74.8742 1286.79 74.4504 1285.14 74.0736C1283.49 73.6969 1282.17 73.3437 1281.18 73.0141V73.4379C1282.17 73.8146 1283.47 74.2149 1285.07 74.6387C1286.67 75.0155 1288.39 75.4393 1290.23 75.9102C1292.11 76.3811 1293.99 76.9227 1295.88 77.5349C1297.76 78.1 1299.46 78.7828 1300.96 79.5834C1302.52 80.384 1303.76 81.3022 1304.71 82.3383C1305.7 83.3743 1306.19 84.5516 1306.19 85.8702C1306.19 86.6236 1305.84 87.2829 1305.13 87.848C1304.42 88.4131 1303.58 88.9076 1302.59 89.3314C1301.65 89.7081 1300.68 90.0142 1299.69 90.2497C1298.7 90.4852 1297.95 90.65 1297.43 90.7442C1298.04 90.6029 1298.82 90.4145 1299.76 90.1791C1300.75 89.8965 1301.69 89.5433 1302.59 89.1195C1303.53 88.6957 1304.33 88.2012 1304.99 87.6361C1305.65 87.0239 1305.98 86.3175 1305.98 85.517C1305.98 84.1984 1305.46 83.0917 1304.42 82.197C1303.39 81.3022 1302.02 80.5017 1300.33 79.7953C1298.63 79.0889 1296.7 78.4532 1294.53 77.8881C1292.37 77.323 1290.13 76.7108 1287.82 76.0515C1285.56 75.3922 1283.35 74.6387 1281.18 73.7911C1279.02 72.9434 1277.09 71.8839 1275.39 70.6124C1273.7 69.3409 1272.33 67.834 1271.3 66.0916C1270.26 64.3492 1269.74 62.2536 1269.74 59.8048C1269.74 57.4031 1270.31 55.3782 1271.44 53.73C1272.61 52.0347 1274.1 50.669 1275.89 49.633C1277.72 48.5499 1279.72 47.7728 1281.89 47.3019C1284.06 46.831 1286.15 46.5955 1288.18 46.5955C1291.14 46.5955 1294.04 47.0194 1296.87 47.867C1299.74 48.7147 1302.45 49.892 1304.99 51.3989C1304.71 51.4931 1304.54 51.6344 1304.49 51.8227C1304.45 51.964 1304.4 52.1288 1304.35 52.3172C1304.35 52.5056 1304.31 52.6704 1304.21 52.8117C1304.17 52.9529 1304.02 53.0236 1303.79 53.0236C1303.6 53.0236 1303.22 52.9529 1302.66 52.8117C1302.14 52.6233 1301.58 52.4349 1300.96 52.2466C1300.35 52.0111 1299.76 51.7992 1299.2 51.6108C1298.63 51.4225 1298.26 51.2812 1298.07 51.187L1297.85 51.8227C1298.28 52.0111 1298.82 52.2937 1299.48 52.6704C1300.19 53 1300.85 53.4239 1301.46 53.9419C1302.12 54.4128 1302.66 54.9308 1303.08 55.4959C1303.55 56.061 1303.79 56.6261 1303.79 57.1912C1303.79 57.8034 1303.51 58.1095 1302.94 58.1095C1302.23 58.1095 1301.39 57.9211 1300.4 57.5444C1299.46 57.1677 1298.4 56.7674 1297.22 56.3436C1296.04 55.8726 1294.77 55.4488 1293.4 55.0721C1292.09 54.6953 1290.74 54.507 1289.38 54.507C1288.48 54.507 1287.42 54.6012 1286.2 54.7895C1285.02 54.9308 1283.87 55.2369 1282.74 55.7078C1281.66 56.1316 1280.74 56.7438 1279.98 57.5444C1279.23 58.2979 1278.85 59.2633 1278.85 60.4406C1278.85 61.5237 1279.35 62.442 1280.34 63.1954C1281.37 63.9489 1282.71 64.6317 1284.36 65.2439C1286.06 65.8561 1287.97 66.4448 1290.08 67.0099C1292.2 67.575 1294.37 68.2107 1296.58 68.9171C1298.84 69.5764 1301.03 70.3534 1303.15 71.2481C1305.27 72.1429 1307.16 73.226 1308.8 74.4975C1310.5 75.769 1311.84 77.2759 1312.83 79.0183C1313.87 80.7607 1314.38 82.8092 1314.38 85.1638C1314.38 87.4713 1313.91 89.4256 1312.97 91.0267C1312.03 92.6278 1310.78 93.97 1309.23 95.0531C1307.67 96.0891 1305.91 96.9132 1303.93 97.5254C1301.95 98.0905 1299.9 98.5379 1297.78 98.8675C1295.71 99.1501 1293.64 99.3149 1291.57 99.362C1289.54 99.4562 1287.71 99.5033 1286.06 99.5033H1278.99C1278.57 99.5033 1277.98 99.4797 1277.23 99.4326C1276.52 99.4326 1275.82 99.3855 1275.11 99.2913C1274.4 99.2442 1273.79 99.1265 1273.27 98.9382C1272.75 98.7498 1272.5 98.5143 1272.5 98.2318L1272.57 97.8786C1274.5 97.9728 1276.4 98.067 1278.29 98.1611C1280.17 98.2082 1282.08 98.2318 1284.01 98.2318C1285.8 98.2318 1287.59 98.2318 1289.38 98.2318C1290.98 98.1847 1292.58 98.0905 1294.18 97.9492C1293.38 97.9963 1292.58 98.0434 1291.78 98.0905C1290.79 98.0905 1289.83 98.0905 1288.88 98.0905H1286.06C1281.63 98.0905 1277.28 97.9492 1272.99 97.6667C1273.08 97.2899 1273.13 97.0309 1273.13 96.8897C1273.13 96.7013 1273.08 96.5129 1272.99 96.3246C1272.9 96.3246 1272.75 96.3481 1272.57 96.3952C1272.43 96.3952 1272.24 96.3952 1272 96.3952C1271.48 96.3952 1270.89 96.3716 1270.24 96.3246C1269.62 96.2775 1269.01 96.1833 1268.4 96.042C1267.83 95.9007 1267.34 95.7124 1266.92 95.4769C1266.54 95.1943 1266.35 94.8647 1266.35 94.488ZM1309.72 92.6514C1308.92 93.3578 1308.07 93.9464 1307.18 94.4173C1306.38 94.8412 1305.55 95.2414 1304.71 95.6182C1305.55 95.3356 1306.38 95.006 1307.18 94.6292C1308.07 94.2525 1308.92 93.5932 1309.72 92.6514ZM1325.82 119.706C1325.92 117.069 1325.99 114.455 1326.04 111.865C1326.08 109.322 1326.11 106.614 1326.11 103.742C1326.11 102.517 1326.08 101.293 1326.04 100.068C1325.99 98.8911 1325.92 97.7373 1325.82 96.6071V104.377C1325.82 106.967 1325.78 109.534 1325.68 112.077C1325.64 114.667 1325.47 117.21 1325.19 119.706C1324.95 119.282 1324.74 118.834 1324.55 118.364C1324.36 117.94 1324.22 117.469 1324.13 116.951C1324.22 115.679 1324.27 114.502 1324.27 113.419C1324.32 112.383 1324.34 111.229 1324.34 109.958L1325.19 109.534C1325.05 108.545 1324.95 107.532 1324.91 106.496C1324.86 105.507 1324.84 104.519 1324.84 103.53C1324.84 102.446 1324.84 101.387 1324.84 100.351C1324.88 99.362 1324.91 98.326 1324.91 97.2428C1324.91 95.9243 1324.86 94.6292 1324.77 93.3578C1324.72 92.0392 1324.58 90.7206 1324.34 89.402H1324.13C1324.22 91.3799 1324.29 93.3342 1324.34 95.265C1324.44 97.1958 1324.48 99.1265 1324.48 101.057C1324.48 101.905 1324.46 102.753 1324.41 103.6L1324.34 105.437C1324.25 100.916 1324.08 96.4894 1323.85 92.1569C1323.66 87.5419 1323.33 82.8092 1322.86 77.9587L1323.14 72.0958C1322.62 72.0487 1322.08 72.0252 1321.52 72.0252H1319.89L1319.68 70.4005C1319.68 70.165 1319.84 69.9531 1320.17 69.7647C1320.5 69.5764 1321.16 69.4822 1322.15 69.4822H1322.86V68.6345C1321.3 68.4462 1320.08 68.1165 1319.18 67.6456C1318.34 67.1747 1317.91 66.6802 1317.91 66.1622C1317.91 65.6913 1318.34 65.291 1319.18 64.9614C1320.03 64.5846 1321.12 64.3021 1322.43 64.1137C1323.8 63.8783 1325.28 63.7134 1326.88 63.6193C1328.49 63.5251 1330.04 63.478 1331.55 63.478C1333.19 63.478 1334.96 63.5251 1336.84 63.6193C1338.77 63.7134 1340.71 63.9489 1342.64 64.3256C1344.57 64.7024 1346.43 65.291 1348.22 66.0916C1350.05 66.845 1351.7 67.9282 1353.16 69.3409C1354.62 70.7066 1355.82 72.449 1356.76 74.5681C1357.75 76.6402 1358.39 79.1831 1358.67 82.197C1358.67 84.74 1358.11 86.8355 1356.98 88.4838C1355.89 90.0849 1354.57 91.3799 1353.02 92.3688C1351.47 93.3578 1349.84 94.0641 1348.15 94.488C1346.5 94.9118 1345.13 95.1943 1344.05 95.3356C1342.97 95.5711 1341.72 95.8536 1340.31 96.1833C1338.89 96.4658 1337.69 96.6071 1336.7 96.6071C1335.62 96.6071 1334.98 96.4894 1334.8 96.2539C1334.61 96.0185 1334.51 95.7124 1334.51 95.3356C1336.63 95.2414 1338.75 95.0766 1340.87 94.8412C1342.99 94.5586 1345.11 94.0877 1347.23 93.4284C1345.11 93.9464 1342.99 94.3467 1340.87 94.6292C1338.75 94.8647 1336.63 95.0295 1334.51 95.1237C1334.51 94.8412 1334.49 94.5586 1334.44 94.2761C1334.4 93.9464 1334.25 93.7816 1334.02 93.7816C1333.55 93.7816 1333.17 94.5351 1332.89 96.042C1332.65 97.5489 1332.46 99.3384 1332.32 101.41C1332.23 103.53 1332.16 105.696 1332.11 107.909C1332.11 110.122 1332.11 111.959 1332.11 113.419C1332.11 114.078 1332.13 114.761 1332.18 115.467C1332.28 116.221 1332.32 116.857 1332.32 117.375C1332.32 117.846 1332.25 118.246 1332.11 118.575C1331.97 118.905 1331.57 119.07 1330.91 119.07V110.17C1330.82 111.677 1330.75 113.16 1330.7 114.62C1330.7 116.08 1330.7 117.563 1330.7 119.07H1329.43V119.635C1329.43 120.059 1329.5 120.365 1329.64 120.553C1329.12 121.448 1328.53 121.895 1327.87 121.895C1327.36 121.895 1326.95 121.754 1326.67 121.472C1326.44 121.189 1326.08 120.812 1325.61 120.341L1325.82 119.706ZM1332.68 90.2497H1333.67C1335.31 90.2497 1337.2 90.1555 1339.32 89.9672C1341.48 89.7788 1343.51 89.4256 1345.39 88.9076C1347.27 88.3896 1348.85 87.6597 1350.12 86.7178C1351.44 85.776 1352.1 84.5516 1352.1 83.0446V82.4795C1352.1 82.0086 1352.05 81.4906 1351.96 80.9255C1351.91 80.3604 1351.73 79.8189 1351.4 79.3008C1351.44 79.5363 1351.56 80.0072 1351.75 80.7136C1351.94 81.42 1352.03 82.0086 1352.03 82.4795C1352.03 83.9394 1351.51 85.1402 1350.48 86.0821C1349.49 86.9768 1348.22 87.7067 1346.66 88.2718C1345.16 88.7899 1343.48 89.1666 1341.65 89.402C1339.86 89.5904 1338.14 89.6846 1336.49 89.6846H1335.08C1334.61 89.6846 1334.14 89.6611 1333.67 89.614C1334.32 89.096 1335.17 88.7428 1336.21 88.5544C1337.29 88.3189 1338.42 88.1306 1339.6 87.9893C1340.78 87.848 1341.93 87.7067 1343.06 87.5655C1344.19 87.4242 1345.16 87.1887 1345.96 86.8591L1346.38 87.7067C1348.03 86.9062 1349.18 86.1292 1349.84 85.3757C1350.55 84.5751 1350.9 83.492 1350.9 82.1264C1350.9 79.9601 1350.29 78.0529 1349.06 76.4047C1347.89 74.7565 1346.29 73.6498 1344.26 73.0847L1344.05 73.5085C1345.79 74.1678 1347.3 75.2509 1348.57 76.7579C1349.84 78.2648 1350.48 80.0779 1350.48 82.197C1350.48 83.3272 1350.22 84.2219 1349.7 84.8812C1349.23 85.4463 1348.48 85.9643 1347.44 86.4353C1348.29 86.0585 1348.92 85.5876 1349.35 85.0225C1349.87 84.3632 1350.22 83.6333 1350.41 82.8327C1350.41 80.8549 1349.94 79.1831 1348.99 77.8175C1348.05 76.4518 1346.73 75.3687 1345.04 74.5681C1343.34 73.7205 1341.29 73.1318 1338.89 72.8022C1336.54 72.4254 1333.92 72.2371 1331.05 72.2371C1331.43 74.262 1331.64 76.4753 1331.69 78.877C1331.78 81.2316 1331.95 83.5391 1332.18 85.7995L1332.68 90.2497ZM1325.54 79.4421C1325.64 79.3479 1325.73 78.9477 1325.82 78.2413C1325.92 77.5349 1325.99 76.7814 1326.04 75.9809C1326.13 75.1332 1326.2 74.3562 1326.25 73.6498C1326.34 72.8964 1326.44 72.449 1326.53 72.3077L1325.61 72.2371L1325.54 79.4421ZM1347.09 86.5765L1347.44 86.4353L1347.09 86.5765ZM1391.46 100.492C1389.67 101.104 1388.31 101.434 1387.37 101.481C1386.42 101.575 1385.6 101.646 1384.89 101.693C1382.26 101.693 1379.88 101.199 1377.76 100.21C1375.64 99.2207 1373.83 97.8786 1372.32 96.1833C1370.81 94.488 1369.64 92.5101 1368.79 90.2497C1367.99 87.9422 1367.59 85.4934 1367.59 82.9034C1367.59 81.3964 1367.73 79.8424 1368.01 78.2413C1368.29 76.5931 1368.72 74.9919 1369.28 73.4379C1369.85 71.8368 1370.58 70.3534 1371.47 68.9877C1372.32 67.6221 1373.33 66.3977 1374.51 65.3146C1373.29 66.3035 1372.25 67.4808 1371.4 68.8465C1370.51 70.2121 1369.75 71.6955 1369.14 73.2966C1368.53 74.8507 1368.08 76.4753 1367.8 78.1706C1367.52 79.8189 1367.38 81.42 1367.38 82.974C1367.38 84.9519 1367.68 87.071 1368.29 89.3314C1368.95 91.5447 1369.99 93.6168 1371.4 95.5475C1372.81 97.4312 1374.63 99.0088 1376.84 100.28C1379.1 101.552 1381.83 102.187 1385.04 102.187C1386.54 102.187 1388.12 101.976 1389.77 101.552C1387.98 102.729 1385.98 103.318 1383.76 103.318C1381.97 103.318 1380.28 103.035 1378.68 102.47C1377.12 101.952 1375.66 101.199 1374.3 100.21C1372.98 99.2678 1371.78 98.1376 1370.7 96.819C1369.61 95.5004 1368.69 94.0877 1367.94 92.5808L1368.58 92.0156C1367.78 90.4145 1367.19 88.8134 1366.81 87.2123C1366.48 85.6112 1366.32 83.9865 1366.32 82.3383C1366.32 79.9366 1366.65 77.6291 1367.31 75.4158C1368.01 73.2024 1368.93 71.1069 1370.06 69.129L1371.76 66.798C1372.04 66.2799 1372.44 65.7619 1372.96 65.2439C1373.52 64.7259 1374.13 64.2314 1374.79 63.7605C1375.45 63.2425 1376.13 62.7951 1376.84 62.4184C1377.59 61.9946 1378.3 61.6178 1378.96 61.2882C1380.66 60.4406 1382.35 59.6871 1384.05 59.0278C1385.74 58.3214 1387.72 57.8034 1389.98 57.4738L1389.7 57.2619C1385.36 57.6857 1381.69 58.7452 1378.68 60.4406C1375.66 62.0888 1373.22 64.1137 1371.33 66.5154C1369.45 68.9171 1368.08 71.5542 1367.23 74.4268C1366.39 77.2523 1365.96 80.0308 1365.96 82.7621C1365.96 84.2219 1366.08 85.7053 1366.32 87.2123C1366.6 88.6721 1367 90.132 1367.52 91.5918C1366.34 88.7663 1365.75 85.776 1365.75 82.6208C1365.75 79.5128 1366.27 76.4282 1367.31 73.3673C1368.34 70.3063 1369.97 67.4808 1372.18 64.8907C1375 62.3007 1378.09 60.3228 1381.43 58.9572C1384.78 57.5444 1388 56.838 1391.11 56.838C1392.1 56.838 1393.11 57.0028 1394.15 57.3325C1395.18 57.6621 1396.13 58.1801 1396.97 58.8865C1397.82 59.5458 1398.5 60.417 1399.02 61.5001C1399.59 62.5832 1399.87 63.9018 1399.87 65.4558C1399.87 66.7273 1399.56 68.2813 1398.95 70.1179C1398.34 71.9545 1397.42 73.744 1396.2 75.4864C1395.02 77.1817 1393.54 78.6416 1391.75 79.8659C1389.96 81.0432 1387.88 81.6319 1385.53 81.6319H1383.2C1381.46 81.2552 1379.86 80.8313 1378.4 80.3604C1376.98 79.8424 1375.64 79.4421 1374.37 79.1596C1374.18 79.913 1374.06 80.643 1374.02 81.3493C1374.02 82.0086 1374.02 82.6679 1374.02 83.3272C1374.02 84.6929 1374.16 86.035 1374.44 87.3536C1374.77 88.625 1375.26 89.8023 1375.92 90.8854C1376.58 91.9686 1377.41 92.8868 1378.4 93.6403C1379.43 94.3467 1380.68 94.7941 1382.14 94.9824C1383.03 95.1708 1383.81 95.2885 1384.47 95.3356C1385.13 95.3356 1385.67 95.3592 1386.09 95.4063C1386.57 95.4063 1386.9 95.4769 1387.08 95.6182C1387.32 95.7124 1387.44 95.9243 1387.44 96.2539C1386.97 96.3952 1386.47 96.4894 1385.95 96.5365C1385.48 96.5836 1384.99 96.6071 1384.47 96.6071C1382.82 96.6071 1381.34 96.3481 1380.02 95.8301C1378.7 95.265 1377.57 94.6292 1376.63 93.9229C1377.71 95.006 1379.01 95.783 1380.51 96.2539C1382.02 96.6777 1383.5 96.8897 1384.96 96.8897C1385.77 96.8897 1386.59 96.819 1387.44 96.6777C1387.34 96.9603 1387.3 97.1251 1387.3 97.1722C1387.3 97.4548 1387.41 97.6431 1387.65 97.7373C1387.84 97.6902 1388.17 97.5725 1388.64 97.3841C1389.11 97.1487 1389.58 96.9367 1390.05 96.7484C1390.57 96.5129 1391.06 96.3246 1391.53 96.1833C1392 95.9949 1392.33 95.9007 1392.52 95.9007C1392.76 95.9007 1392.97 95.9478 1393.16 96.042C1393.35 96.0891 1393.44 96.3481 1393.44 96.819C1393.44 97.2899 1393.28 97.855 1392.95 98.5143C1392.62 99.1736 1392.12 99.8329 1391.46 100.492ZM1381.72 72.5196L1383.27 72.8022C1383.79 72.8964 1384.26 72.9434 1384.68 72.9434C1385.15 72.9434 1385.69 72.8022 1386.31 72.5196C1386.97 72.19 1387.6 71.7426 1388.21 71.1775C1388.87 70.6124 1389.44 69.906 1389.91 69.0584C1390.43 68.2107 1390.8 67.2453 1391.04 66.1622L1391.18 65.7384C1390.52 65.7384 1389.53 65.9032 1388.21 66.2329C1386.9 66.5625 1385.53 67.0099 1384.12 67.575C1382.7 68.093 1381.39 68.7287 1380.16 69.4822C1378.94 70.1886 1378.09 70.9656 1377.62 71.8132C1378.32 71.9545 1379.01 72.0958 1379.67 72.2371C1380.37 72.3312 1381.06 72.4254 1381.72 72.5196ZM1378.47 77.7468C1378.56 77.6526 1378.61 77.5114 1378.61 77.323C1378.65 77.1346 1378.68 76.9933 1378.68 76.8992L1375.36 75.6983L1375 76.6872L1378.47 77.7468ZM1376.49 93.7816C1376.16 93.4049 1375.83 93.0281 1375.5 92.6514C1375.22 92.3217 1374.98 91.9921 1374.79 91.6625C1375.22 92.463 1375.78 93.1694 1376.49 93.7816ZM1431.96 100.492C1430.17 101.104 1428.8 101.434 1427.86 101.481C1426.92 101.575 1426.09 101.646 1425.39 101.693C1422.75 101.693 1420.37 101.199 1418.25 100.21C1416.13 99.2207 1414.32 97.8786 1412.81 96.1833C1411.31 94.488 1410.13 92.5101 1409.28 90.2497C1408.48 87.9422 1408.08 85.4934 1408.08 82.9034C1408.08 81.3964 1408.22 79.8424 1408.5 78.2413C1408.79 76.5931 1409.21 74.9919 1409.78 73.4379C1410.34 71.8368 1411.07 70.3534 1411.97 68.9877C1412.81 67.6221 1413.83 66.3977 1415 65.3146C1413.78 66.3035 1412.74 67.4808 1411.89 68.8465C1411 70.2121 1410.25 71.6955 1409.63 73.2966C1409.02 74.8507 1408.57 76.4753 1408.29 78.1706C1408.01 79.8189 1407.87 81.42 1407.87 82.974C1407.87 84.9519 1408.17 87.071 1408.79 89.3314C1409.45 91.5447 1410.48 93.6168 1411.89 95.5475C1413.31 97.4312 1415.12 99.0088 1417.33 100.28C1419.59 101.552 1422.33 102.187 1425.53 102.187C1427.03 102.187 1428.61 101.976 1430.26 101.552C1428.47 102.729 1426.47 103.318 1424.26 103.318C1422.47 103.318 1420.77 103.035 1419.17 102.47C1417.62 101.952 1416.16 101.199 1414.79 100.21C1413.47 99.2678 1412.27 98.1376 1411.19 96.819C1410.11 95.5004 1409.19 94.0877 1408.43 92.5808L1409.07 92.0156C1408.27 90.4145 1407.68 88.8134 1407.3 87.2123C1406.97 85.6112 1406.81 83.9865 1406.81 82.3383C1406.81 79.9366 1407.14 77.6291 1407.8 75.4158C1408.5 73.2024 1409.42 71.1069 1410.55 69.129L1412.25 66.798C1412.53 66.2799 1412.93 65.7619 1413.45 65.2439C1414.01 64.7259 1414.63 64.2314 1415.29 63.7605C1415.94 63.2425 1416.63 62.7951 1417.33 62.4184C1418.09 61.9946 1418.79 61.6178 1419.45 61.2882C1421.15 60.4406 1422.84 59.6871 1424.54 59.0278C1426.23 58.3214 1428.21 57.8034 1430.47 57.4738L1430.19 57.2619C1425.86 57.6857 1422.18 58.7452 1419.17 60.4406C1416.16 62.0888 1413.71 64.1137 1411.82 66.5154C1409.94 68.9171 1408.57 71.5542 1407.73 74.4268C1406.88 77.2523 1406.46 80.0308 1406.46 82.7621C1406.46 84.2219 1406.57 85.7053 1406.81 87.2123C1407.09 88.6721 1407.49 90.132 1408.01 91.5918C1406.83 88.7663 1406.24 85.776 1406.24 82.6208C1406.24 79.5128 1406.76 76.4282 1407.8 73.3673C1408.83 70.3063 1410.46 67.4808 1412.67 64.8907C1415.5 62.3007 1418.58 60.3228 1421.93 58.9572C1425.27 57.5444 1428.49 56.838 1431.6 56.838C1432.59 56.838 1433.6 57.0028 1434.64 57.3325C1435.68 57.6621 1436.62 58.1801 1437.47 58.8865C1438.31 59.5458 1439 60.417 1439.51 61.5001C1440.08 62.5832 1440.36 63.9018 1440.36 65.4558C1440.36 66.7273 1440.06 68.2813 1439.44 70.1179C1438.83 71.9545 1437.91 73.744 1436.69 75.4864C1435.51 77.1817 1434.03 78.6416 1432.24 79.8659C1430.45 81.0432 1428.38 81.6319 1426.02 81.6319H1423.69C1421.95 81.2552 1420.35 80.8313 1418.89 80.3604C1417.47 79.8424 1416.13 79.4421 1414.86 79.1596C1414.67 79.913 1414.56 80.643 1414.51 81.3493C1414.51 82.0086 1414.51 82.6679 1414.51 83.3272C1414.51 84.6929 1414.65 86.035 1414.93 87.3536C1415.26 88.625 1415.76 89.8023 1416.42 90.8854C1417.07 91.9686 1417.9 92.8868 1418.89 93.6403C1419.92 94.3467 1421.17 94.7941 1422.63 94.9824C1423.53 95.1708 1424.3 95.2885 1424.96 95.3356C1425.62 95.3356 1426.16 95.3592 1426.59 95.4063C1427.06 95.4063 1427.39 95.4769 1427.58 95.6182C1427.81 95.7124 1427.93 95.9243 1427.93 96.2539C1427.46 96.3952 1426.96 96.4894 1426.45 96.5365C1425.98 96.5836 1425.48 96.6071 1424.96 96.6071C1423.31 96.6071 1421.83 96.3481 1420.51 95.8301C1419.19 95.265 1418.06 94.6292 1417.12 93.9229C1418.2 95.006 1419.5 95.783 1421.01 96.2539C1422.51 96.6777 1424 96.8897 1425.46 96.8897C1426.26 96.8897 1427.08 96.819 1427.93 96.6777C1427.84 96.9603 1427.79 97.1251 1427.79 97.1722C1427.79 97.4548 1427.91 97.6431 1428.14 97.7373C1428.33 97.6902 1428.66 97.5725 1429.13 97.3841C1429.6 97.1487 1430.07 96.9367 1430.54 96.7484C1431.06 96.5129 1431.56 96.3246 1432.03 96.1833C1432.5 95.9949 1432.83 95.9007 1433.02 95.9007C1433.25 95.9007 1433.46 95.9478 1433.65 96.042C1433.84 96.0891 1433.93 96.3481 1433.93 96.819C1433.93 97.2899 1433.77 97.855 1433.44 98.5143C1433.11 99.1736 1432.62 99.8329 1431.96 100.492ZM1422.21 72.5196L1423.76 72.8022C1424.28 72.8964 1424.75 72.9434 1425.17 72.9434C1425.65 72.9434 1426.19 72.8022 1426.8 72.5196C1427.46 72.19 1428.09 71.7426 1428.71 71.1775C1429.37 70.6124 1429.93 69.906 1430.4 69.0584C1430.92 68.2107 1431.3 67.2453 1431.53 66.1622L1431.67 65.7384C1431.01 65.7384 1430.02 65.9032 1428.71 66.2329C1427.39 66.5625 1426.02 67.0099 1424.61 67.575C1423.2 68.093 1421.88 68.7287 1420.65 69.4822C1419.43 70.1886 1418.58 70.9656 1418.11 71.8132C1418.82 71.9545 1419.5 72.0958 1420.16 72.2371C1420.87 72.3312 1421.55 72.4254 1422.21 72.5196ZM1418.96 77.7468C1419.05 77.6526 1419.1 77.5114 1419.1 77.323C1419.15 77.1346 1419.17 76.9933 1419.17 76.8992L1415.85 75.6983L1415.5 76.6872L1418.96 77.7468ZM1416.98 93.7816C1416.65 93.4049 1416.32 93.0281 1415.99 92.6514C1415.71 92.3217 1415.47 91.9921 1415.29 91.6625C1415.71 92.463 1416.27 93.1694 1416.98 93.7816ZM1484.03 47.6551C1484.13 49.0208 1484.2 50.3629 1484.24 51.6815C1484.29 52.9529 1484.32 54.2715 1484.32 55.6372C1484.32 58.4627 1484.22 61.3118 1484.03 64.1844C1483.89 67.0099 1483.7 69.8825 1483.47 72.8022C1483.23 75.7219 1483 78.7122 1482.76 81.7732C1482.53 84.8341 1482.31 88.0128 1482.13 91.3093C1482.13 91.8273 1482.1 92.3688 1482.06 92.9339C1482.06 93.4519 1482.01 94.0406 1481.91 94.6999V95.5475C1481.91 95.6888 1481.87 95.8772 1481.77 96.1126C1481.68 96.3481 1481.58 96.5129 1481.49 96.6071C1480.88 97.3135 1480.31 97.855 1479.79 98.2318C1479.32 98.5614 1478.88 98.8204 1478.45 99.0088C1478.03 99.1501 1477.63 99.2207 1477.25 99.2207C1476.87 99.2678 1476.5 99.3149 1476.12 99.362H1476.55C1476.69 99.362 1476.95 99.3384 1477.32 99.2913C1477.75 99.2442 1478.19 99.1736 1478.66 99.0794C1479.18 98.9382 1479.65 98.7733 1480.08 98.585C1480.55 98.3495 1480.88 98.0434 1481.07 97.6667L1481.7 96.3952C1481.98 95.8772 1482.15 95.3356 1482.2 94.7705C1482.29 94.1583 1482.34 93.5697 1482.34 93.0046C1482.38 92.3924 1482.41 91.8037 1482.41 91.2386C1482.41 90.6735 1482.46 90.132 1482.55 89.614C1482.69 86.6472 1482.88 83.6804 1483.11 80.7136C1483.4 77.7468 1483.66 74.7565 1483.89 71.7426C1484.13 68.7287 1484.34 65.6913 1484.53 62.6303C1484.72 59.5223 1484.81 56.3671 1484.81 53.1649C1484.81 52.1759 1484.79 51.2341 1484.74 50.3393C1484.74 49.3975 1484.72 48.5028 1484.67 47.6551C1484.81 47.8435 1484.95 48.1496 1485.09 48.5734C1485.28 48.9501 1485.42 49.5623 1485.52 50.41C1485.75 50.928 1485.89 51.4931 1485.94 52.1053C1485.99 52.7175 1486.06 53.3532 1486.15 54.0125C1486.15 57.2148 1486.03 60.3228 1485.8 63.3367C1485.56 66.3035 1485.33 69.2703 1485.09 72.2371L1484.46 72.449L1483.82 84.528C1483.82 87.9187 1483.66 90.7206 1483.33 92.9339C1483.04 95.1002 1482.78 96.5365 1482.55 97.2428V97.4548C1481.84 98.1611 1481.23 98.7027 1480.71 99.0794C1480.24 99.4091 1479.79 99.6681 1479.37 99.8564C1478.95 100.045 1478.55 100.139 1478.17 100.139C1477.84 100.186 1477.49 100.21 1477.11 100.21H1472.59C1471.32 100.068 1469.95 99.9977 1468.49 99.9977C1467.03 100.045 1465.5 99.9035 1463.9 99.5739C1462.3 99.2442 1460.65 98.5614 1458.96 97.5254C1457.31 96.4894 1455.64 94.8412 1453.94 92.5808C1453.94 92.6749 1453.92 92.7456 1453.87 92.7927C1453.82 92.8398 1453.78 92.9104 1453.73 93.0046C1455.28 95.1237 1457.14 96.8661 1459.31 98.2318C1461.52 99.5974 1463.9 100.398 1466.44 100.633H1472.38C1472.94 100.728 1473.51 100.775 1474.07 100.775C1474.69 100.822 1475.34 100.845 1476.05 100.845C1476.76 100.845 1477.68 100.751 1478.81 100.563C1479.98 100.374 1481.09 99.7623 1482.13 98.7262C1482.31 98.4908 1482.43 98.326 1482.48 98.2318C1482.57 98.0905 1482.67 97.9021 1482.76 97.6667L1482.97 97.2428C1483.21 96.819 1483.37 96.3952 1483.47 95.9714C1483.61 95.5004 1483.73 95.0531 1483.82 94.6292C1483.82 95.1473 1483.77 95.5946 1483.68 95.9714C1483.63 96.3481 1483.47 96.9132 1483.19 97.6667L1482.97 97.8786L1482.13 99.1501C1481.7 99.5739 1481.23 99.9035 1480.71 100.139C1480.19 100.374 1479.7 100.539 1479.23 100.633C1478.76 100.775 1478.31 100.869 1477.89 100.916C1477.51 100.963 1477.23 101.01 1477.04 101.057H1474.71C1474.1 101.057 1473.58 101.034 1473.15 100.987C1472.78 100.987 1472.47 100.963 1472.24 100.916C1472.05 100.916 1471.88 100.892 1471.74 100.845H1469.62C1469.2 100.845 1468.78 100.845 1468.35 100.845C1467.93 100.892 1467.48 100.916 1467.01 100.916C1464.8 100.916 1462.63 100.374 1460.51 99.2913C1458.44 98.2553 1456.51 96.7719 1454.72 94.8412C1452.98 92.9104 1451.42 90.6264 1450.06 87.9893C1448.69 85.3521 1447.65 82.4325 1446.95 79.2302C1446.95 78.7122 1446.9 78.2177 1446.81 77.7468C1446.76 77.2759 1446.74 76.7814 1446.74 76.2634C1446.74 74.521 1447 72.7551 1447.51 70.9656C1448.08 69.129 1449.07 67.4808 1450.48 66.0209C1451.89 64.5611 1453.8 63.3838 1456.2 62.489C1458.6 61.5472 1461.64 61.0763 1465.31 61.0763C1467.01 61.0763 1468.66 61.1234 1470.26 61.2176C1471.86 61.2647 1473.48 61.3353 1475.13 61.4295C1474.94 61.5708 1474.85 61.7356 1474.85 61.9239C1474.85 62.1594 1474.9 62.3713 1474.99 62.5597C1475.09 62.701 1475.13 62.8658 1475.13 63.0542C1475.13 63.2896 1474.94 63.5015 1474.57 63.6899C1474.24 63.8312 1473.51 63.9018 1472.38 63.9018C1472 63.9018 1471.55 63.9018 1471.04 63.9018C1470.56 63.8547 1470.02 63.8076 1469.41 63.7605V64.3963C1471.67 64.7259 1473.48 65.1733 1474.85 65.7384C1476.26 66.2564 1477.13 66.7273 1477.46 67.1511L1477.6 67.2924L1477.89 64.1844C1478.03 62.9129 1478.1 61.4766 1478.1 59.8754C1478.1 58.2272 1478.05 56.6026 1477.96 55.0014C1477.86 53.4003 1477.82 52.1524 1477.82 51.2576C1477.82 50.1274 1477.89 49.374 1478.03 48.9972C1478.17 48.6205 1478.36 48.4321 1478.59 48.4321C1478.78 48.4321 1478.92 48.8324 1479.02 49.633C1479.16 50.4335 1479.25 51.3518 1479.3 52.3878C1479.39 53.3768 1479.44 54.3657 1479.44 55.3546V57.4031C1479.44 58.7688 1479.42 60.158 1479.37 61.5708C1479.32 62.9364 1479.25 64.3021 1479.16 65.6677C1479.3 63.8783 1479.42 62.1359 1479.51 60.4406C1479.61 58.6982 1479.65 56.9322 1479.65 55.1427C1479.65 54.0596 1479.63 53 1479.58 51.964C1479.54 50.8809 1479.46 49.7978 1479.37 48.7147C1479.65 48.9972 1479.87 49.1385 1480.01 49.1385C1480.19 49.1385 1480.34 48.9972 1480.43 48.7147C1480.38 48.3379 1480.34 47.9377 1480.29 47.5138C1480.24 47.1371 1480.22 46.7604 1480.22 46.3836V45.3241C1480.45 44.759 1480.76 44.3351 1481.14 44.0526C1481.51 43.7229 1481.84 43.5581 1482.13 43.5581C1482.93 43.5581 1483.63 44.4293 1484.24 46.1717L1484.03 47.6551ZM1472.59 68.8465C1471.04 68.9406 1469.27 69.0348 1467.29 69.129C1465.36 69.2232 1463.52 69.4822 1461.78 69.906C1460.04 70.2828 1458.53 70.8714 1457.26 71.672C1456.04 72.4725 1455.35 73.5792 1455.21 74.9919C1455.21 76.546 1455.54 78.2884 1456.2 80.2191C1456.86 82.1499 1457.73 83.9865 1458.82 85.7289C1459.9 87.4242 1461.12 88.884 1462.49 90.1084C1463.9 91.3328 1465.36 92.0156 1466.87 92.1569H1470.89C1471.13 92.1569 1471.29 92.1805 1471.39 92.2276C1471.53 92.2276 1471.72 92.2747 1471.95 92.3688H1473.65C1474.36 92.5101 1475.06 92.5808 1475.77 92.5808C1475.77 88.625 1475.93 84.5751 1476.26 80.431C1476.64 76.2399 1477.04 72.1429 1477.46 68.1401C1476.85 68.611 1475.23 68.8465 1472.59 68.8465ZM1477.68 83.4685C1477.68 83.9865 1477.63 84.528 1477.53 85.0931C1477.49 85.6112 1477.46 86.1998 1477.46 86.8591C1477.98 84.2219 1478.29 81.4435 1478.38 78.5238C1478.48 75.6041 1478.59 72.8022 1478.74 70.1179C1478.5 72.3783 1478.31 74.6152 1478.17 76.8285C1478.08 78.9947 1477.91 81.2081 1477.68 83.4685ZM1483.82 91.0974C1483.82 90.5793 1483.84 90.0613 1483.89 89.5433C1483.94 88.9782 1484.01 88.3896 1484.1 87.7774C1484.06 89.1901 1484.03 90.5323 1484.03 91.8037C1484.03 93.0281 1483.96 93.8993 1483.82 94.4173C1483.82 94.1819 1483.82 93.97 1483.82 93.7816C1483.87 93.5461 1483.89 93.3107 1483.89 93.0752C1483.89 92.6985 1483.87 92.3453 1483.82 92.0156C1483.82 91.686 1483.82 91.3799 1483.82 91.0974ZM1484.88 79.654C1484.79 79.8895 1484.72 80.172 1484.67 80.5017C1484.62 80.7842 1484.55 81.0903 1484.46 81.42L1484.74 77.1111L1484.88 79.654ZM1484.24 85.1638C1484.24 85.5876 1484.22 86.0114 1484.17 86.4353C1484.17 86.8591 1484.15 87.2594 1484.1 87.6361C1484.1 86.6943 1484.13 85.7524 1484.17 84.8106C1484.22 83.8217 1484.29 82.9269 1484.39 82.1264L1484.24 85.1638ZM1477.25 89.5433C1477.3 89.355 1477.32 89.1666 1477.32 88.9782C1477.32 88.7899 1477.37 88.5779 1477.46 88.3425V87.5655C1477.42 87.6597 1477.39 87.7538 1477.39 87.848C1477.39 87.8951 1477.37 87.9422 1477.32 87.9893L1477.25 88.1306V89.5433ZM1477.04 92.9339C1477.09 92.5101 1477.13 92.0863 1477.18 91.6625C1477.23 91.1915 1477.25 90.7206 1477.25 90.2497V90.0378L1476.97 92.7927L1477.04 92.9339ZM1505.45 99.9977C1504.98 100.092 1504.46 100.139 1503.9 100.139H1501.85C1500.62 100.139 1499.75 100.28 1499.23 100.563C1498.76 100.845 1498.48 100.987 1498.39 100.987L1498.1 99.7152V98.4437L1497.75 91.8037C1497.66 90.5323 1497.4 89.1666 1496.97 87.7067C1496.55 86.2469 1496.22 84.7635 1495.99 83.2566C1495.84 82.2676 1495.73 81.3258 1495.63 80.431L1495.35 77.6762C1495.26 76.7343 1495.14 75.769 1495 74.78C1494.9 73.7911 1494.74 72.7315 1494.5 71.6013C1494.5 71.3188 1494.5 71.0362 1494.5 70.7537C1494.55 70.4711 1494.57 70.1886 1494.57 69.906C1494.57 68.4462 1494.45 67.0099 1494.22 65.5971C1493.98 64.1844 1493.65 62.7951 1493.23 61.4295C1493.56 61.2882 1493.87 61.1705 1494.15 61.0763C1494.43 60.935 1494.69 60.8644 1494.93 60.8644C1495.16 60.8644 1495.42 61.1469 1495.7 61.712C1495.99 62.23 1496.29 63.3367 1496.62 65.032C1496.71 65.032 1496.86 65.0085 1497.04 64.9614C1497.23 64.8672 1497.37 64.8201 1497.47 64.8201C1497.42 64.0195 1497.3 63.1719 1497.12 62.2771C1496.93 61.3353 1496.74 60.4406 1496.55 59.5929C1496.36 58.7452 1496.17 57.9918 1495.99 57.3325C1495.84 56.6261 1495.77 56.061 1495.77 55.6372C1495.77 55.543 1495.77 55.4253 1495.77 55.284C1495.82 55.1427 1495.94 55.0721 1496.13 55.0721C1496.36 55.0721 1496.67 55.3311 1497.04 55.8491C1497.42 56.3671 1497.82 57.0264 1498.25 57.827C1498.67 58.6275 1499.07 59.4987 1499.45 60.4406C1499.87 61.3353 1500.25 62.183 1500.58 62.9835C1501.85 60.5818 1503.28 58.7688 1504.89 57.5444C1506.53 56.2729 1508.68 55.6372 1511.31 55.6372C1513.24 55.6372 1514.82 55.8726 1516.05 56.3436C1517.27 56.7674 1518.21 57.2619 1518.87 57.827C1519.58 58.345 1520.05 58.8394 1520.28 59.3103L1520.71 60.0167C1520.71 60.2993 1520.57 60.4876 1520.28 60.5818C1519.06 59.4045 1517.67 58.5098 1516.12 57.8976C1514.56 57.2854 1512.96 56.9793 1511.31 56.9793C1509.71 56.9793 1508.51 57.1912 1507.71 57.615C1506.96 57.9918 1506.16 58.4627 1505.31 59.0278C1506.2 58.4627 1507.03 58.0153 1507.78 57.6857C1508.58 57.356 1509.74 57.1912 1511.24 57.1912C1512.89 57.1912 1514.47 57.5209 1515.98 58.1801C1517.48 58.7923 1518.78 59.5929 1519.86 60.5818C1519.63 60.676 1519.41 60.7937 1519.22 60.935C1519.08 61.0292 1519.01 61.194 1519.01 61.4295C1519.25 61.4295 1519.51 61.5943 1519.79 61.9239C1520.07 62.2065 1520.33 62.5597 1520.57 62.9835C1520.8 63.4073 1520.99 63.8547 1521.13 64.3256C1521.32 64.7495 1521.41 65.1026 1521.41 65.3852C1521.41 66.1858 1521.11 66.586 1520.5 66.586C1520.03 66.586 1519.46 66.4212 1518.8 66.0916C1518.66 66.0445 1518.35 65.7855 1517.88 65.3146C1517.46 64.8436 1516.92 64.3727 1516.26 63.9018C1515.6 63.3838 1514.85 62.9129 1514 62.489C1513.15 62.0652 1512.21 61.8533 1511.17 61.8533C1510.32 61.8533 1509.57 62.0417 1508.91 62.4184C1508.3 62.7481 1507.73 63.219 1507.22 63.8312C1506.7 64.3963 1506.23 65.0556 1505.8 65.809L1504.89 67.5043C1505.59 66.2329 1506.37 65.0791 1507.22 64.0431C1508.16 62.8187 1509.34 62.2065 1510.75 62.2065C1511.97 62.2065 1513.1 62.489 1514.14 63.0542C1515.17 63.5722 1516.02 64.2314 1516.68 65.032C1515.88 64.7024 1514.94 64.3727 1513.86 64.0431C1512.77 63.7134 1511.74 63.5486 1510.75 63.5486C1510.23 63.5486 1509.78 63.6663 1509.41 63.9018C1509.03 64.1373 1508.7 64.4434 1508.42 64.8201C1508.18 65.1497 1507.95 65.5265 1507.71 65.9503C1507.52 66.3741 1507.31 66.7744 1507.08 67.1511L1506.16 67.2924C1505.36 68.6581 1504.7 70.2592 1504.18 72.0958C1503.71 73.8853 1503.47 75.769 1503.47 77.7468C1503.47 78.9241 1503.52 79.9837 1503.61 80.9255C1503.76 81.8674 1503.94 82.8327 1504.18 83.8217L1505.03 86.0114L1504.89 83.9629C1504.79 82.3618 1504.7 80.9491 1504.6 79.7247C1504.51 78.4532 1504.46 77.064 1504.46 75.557C1504.56 74.1914 1504.74 72.8964 1505.03 71.672C1505.26 70.6359 1505.62 69.6706 1506.09 68.7758C1505.52 69.906 1505.14 71.201 1504.96 72.6609C1504.72 74.262 1504.6 75.9573 1504.6 77.7468C1504.6 79.1596 1504.67 80.5017 1504.81 81.7732C1504.96 83.0446 1505.12 84.3161 1505.31 85.5876C1505.54 86.8591 1505.78 88.1777 1506.02 89.5433C1506.25 90.8619 1506.44 92.3217 1506.58 93.9229L1506.79 95.265L1507.22 99.2913L1505.45 99.9977ZM1506.3 68.4226L1506.09 68.7758L1506.3 68.4226ZM1562.89 56.2023L1562.68 57.4738C1562.45 59.7813 1562.31 62.2536 1562.26 64.8907C1562.21 67.4808 1562.02 70.0944 1561.69 72.7315C1562.07 70.1415 1562.38 67.5985 1562.61 65.1026C1562.85 62.5126 1563.08 59.9696 1563.32 57.4738C1563.55 58.2272 1563.74 59.0278 1563.88 59.8754C1564.07 60.7231 1564.17 61.6178 1564.17 62.5597C1563.93 64.9143 1563.72 67.1747 1563.53 69.3409C1563.34 71.5071 1563.08 73.7676 1562.75 76.1221L1561.83 76.3341C1561.6 78.5003 1561.1 80.8549 1560.35 83.3978C1559.6 85.9408 1558.49 88.2954 1557.03 90.4616C1555.62 92.6278 1553.78 94.4409 1551.52 95.9007C1549.26 97.3135 1546.55 98.0199 1543.4 98.0199C1542.36 98.0199 1541.26 97.9492 1540.08 97.8079C1538.95 97.6196 1537.84 97.3606 1536.76 97.0309C1535.68 96.6542 1534.64 96.1833 1533.65 95.6182C1532.66 95.0531 1531.81 94.3467 1531.11 93.499L1531.18 93.6403V93.711L1531.11 93.7816L1530.9 93.711C1531.18 94.1348 1531.48 94.5115 1531.81 94.8412C1530.97 94.0877 1530.19 93.2165 1529.48 92.2276C1528.31 90.6264 1527.36 88.7192 1526.66 86.5059C1526.23 85.1873 1525.9 83.8452 1525.67 82.4795C1525.43 81.1139 1525.27 79.6776 1525.17 78.1706C1525.08 76.6166 1525.01 74.9448 1524.96 73.1554C1524.96 71.3659 1524.96 69.388 1524.96 67.2218C1525.39 65.5265 1525.72 63.8312 1525.95 62.1359C1526.19 60.4406 1526.35 58.7452 1526.45 57.0499C1526.59 57.0499 1526.75 57.0264 1526.94 56.9793C1527.13 56.9322 1527.32 56.9087 1527.5 56.9087C1527.83 56.9087 1528.12 57.097 1528.35 57.4738C1528.64 57.8505 1528.78 58.6511 1528.78 59.8754V60.5112C1528.78 60.6996 1528.75 60.9115 1528.71 61.1469H1529.55C1529.93 59.1691 1530.38 57.6621 1530.9 56.6261C1531.41 55.5901 1531.93 55.0721 1532.45 55.0721C1532.83 55.0721 1533.16 55.6136 1533.44 56.6967C1533.77 57.7328 1533.93 59.381 1533.93 61.6414C1533.93 63.2896 1533.89 64.9614 1533.79 66.6567C1533.7 68.352 1533.65 70.0944 1533.65 71.8839C1533.65 74.6623 1533.77 77.1817 1534 79.4421C1534.29 81.7025 1534.8 83.6333 1535.56 85.2344C1536.31 86.8355 1537.37 88.0835 1538.74 88.9782C1540.15 89.8259 1541.96 90.2497 1544.18 90.2497C1546.01 90.2497 1547.54 89.6846 1548.77 88.5544C1549.99 87.4242 1551.03 85.9173 1551.87 84.0336C1552.72 82.1499 1553.43 79.9837 1553.99 77.5349C1554.61 75.039 1555.17 72.449 1555.69 69.7647C1555.78 69.0113 1555.85 68.2578 1555.9 67.5043C1555.95 66.7509 1555.97 65.9738 1555.97 65.1733V62.9835C1555.97 61.6178 1556.04 60.4641 1556.18 59.5223C1556.33 58.5804 1556.73 58.0389 1557.38 57.8976C1557.38 60.2993 1557.31 62.6774 1557.17 65.032C1557.08 67.2924 1556.89 69.5528 1556.61 71.8132C1556.94 69.5999 1557.2 67.3866 1557.38 65.1733C1557.57 62.8658 1557.71 60.5112 1557.81 58.1095C1558.09 58.2979 1558.33 58.3921 1558.51 58.3921C1558.7 58.3921 1558.89 58.2979 1559.08 58.1095V55.5665C1559.32 54.7189 1559.55 54.1302 1559.79 53.8006C1560.02 53.4239 1560.28 53.2355 1560.56 53.2355C1560.85 53.2355 1561.13 53.3768 1561.41 53.6593C1561.69 53.9419 1561.98 54.2951 1562.26 54.7189L1562.89 56.2023ZM1533.72 96.2539C1534.85 96.8661 1536.01 97.3606 1537.18 97.7373C1538.41 98.067 1539.54 98.3024 1540.57 98.4437C1541.66 98.585 1542.53 98.6556 1543.19 98.6556C1546.48 98.6556 1549.28 97.9257 1551.59 96.4658C1553.9 95.006 1555.78 93.1929 1557.24 91.0267C1558.75 88.8134 1559.9 86.4588 1560.7 83.9629C1561.46 81.6083 1562.02 79.4421 1562.4 77.4643C1562.07 79.4421 1561.55 81.6319 1560.85 84.0336C1560.05 86.5765 1558.89 88.9547 1557.38 91.168C1555.92 93.3813 1554.06 95.2414 1551.8 96.7484C1549.54 98.2553 1546.81 99.0088 1543.61 99.0088C1541.82 99.0088 1540.05 98.7733 1538.31 98.3024C1536.57 97.8315 1534.95 97.1016 1533.44 96.1126C1533.53 96.1597 1533.63 96.2068 1533.72 96.2539ZM1560.78 78.877C1560.92 78.0765 1561.03 77.2994 1561.13 76.546C1561.22 75.8867 1561.32 75.2274 1561.41 74.5681C1561.13 76.6402 1560.66 78.8299 1560 81.1374C1559.34 83.5391 1558.42 85.8231 1557.24 87.9893C1556.07 90.1084 1554.58 91.9921 1552.79 93.6403C1551.1 95.1943 1549.12 96.2539 1546.86 96.819C1548.84 96.3952 1550.6 95.5711 1552.16 94.3467C1553.76 93.0752 1555.12 91.5918 1556.25 89.8965C1557.38 88.2012 1558.3 86.3882 1559.01 84.4574C1559.76 82.5266 1560.35 80.6665 1560.78 78.877ZM1553.78 83.8217C1553.26 84.8577 1552.68 85.8466 1552.02 86.7885C1551.4 87.7303 1550.7 88.5779 1549.9 89.3314C1550.74 88.625 1551.47 87.8009 1552.09 86.8591C1552.75 85.9173 1553.31 84.9048 1553.78 83.8217ZM1533.44 96.1126C1532.87 95.7359 1532.33 95.3121 1531.81 94.8412C1532.33 95.3121 1532.87 95.7359 1533.44 96.1126ZM1562.47 76.9698L1562.4 77.4643L1562.47 76.9698ZM1561.48 74.2149C1561.43 74.3562 1561.41 74.4739 1561.41 74.5681C1561.41 74.4739 1561.43 74.3562 1561.48 74.2149ZM1571.96 94.6999C1571.96 94.4644 1572.03 94.1819 1572.17 93.8522C1572.31 93.5226 1572.38 93.1694 1572.38 92.7927C1572.52 91.6625 1572.61 90.8619 1572.66 90.391C1572.71 89.873 1572.73 89.4256 1572.73 89.0489C1572.73 87.071 1572.66 84.9519 1572.52 82.6915C1572.43 80.384 1572.31 78.1706 1572.17 76.0515C1572.17 75.3922 1572.14 74.6152 1572.1 73.7205C1572.1 72.8257 1572.05 72.1193 1571.96 71.6013C1572.1 69.9531 1572.21 68.3284 1572.31 66.7273C1572.4 65.1262 1572.45 63.5015 1572.45 61.8533V60.0874C1572.45 59.4752 1572.43 58.863 1572.38 58.2508C1572.52 58.3921 1572.66 58.4627 1572.8 58.4627C1572.99 58.4627 1573.18 58.3921 1573.37 58.2508C1573.6 58.1095 1573.82 58.0389 1574 58.0389C1574.33 58.0389 1574.59 58.3921 1574.78 59.0984C1575.02 59.8048 1575.13 61.3588 1575.13 63.7605H1575.77C1576.01 61.1234 1576.36 59.0278 1576.83 57.4738C1577.35 55.9197 1577.87 55.1427 1578.38 55.1427C1578.62 55.1427 1579 55.6607 1579.51 56.6967C1580.03 57.6857 1580.29 59.2633 1580.29 61.4295L1581.07 60.158C1581.59 59.5458 1582.15 58.9101 1582.76 58.2508C1583.42 57.5915 1584.15 57.0028 1584.95 56.4848C1585.75 55.9668 1586.65 55.543 1587.64 55.2134C1588.63 54.8366 1589.76 54.6483 1591.03 54.6483C1593.48 54.6483 1595.6 55.2134 1597.39 56.3436C1599.22 57.4267 1600.75 58.863 1601.98 60.6525C1603.2 62.3949 1604.19 64.3963 1604.94 66.6567C1605.74 68.87 1606.36 71.1304 1606.78 73.4379C1607.2 75.6983 1607.49 77.8881 1607.63 80.0072C1607.77 82.1264 1607.84 83.9394 1607.84 85.4463C1607.84 86.812 1607.75 87.6361 1607.56 87.9187C1607.42 88.1541 1607.13 88.2954 1606.71 88.3425C1606.62 84.7164 1606.38 81.0197 1606 77.2523C1605.63 73.485 1604.73 69.8354 1603.32 66.3035C1604.59 70.0237 1605.39 73.6969 1605.72 77.323C1606.1 80.902 1606.29 84.5045 1606.29 88.1306C1606 87.9893 1605.74 87.9187 1605.51 87.9187C1605.32 87.9187 1605.16 87.9893 1605.01 88.1306C1605.01 88.5073 1605.04 88.9076 1605.08 89.3314C1605.13 89.7081 1605.16 90.0849 1605.16 90.4616C1605.2 90.8384 1605.23 91.1915 1605.23 91.5212C1604.94 92.6043 1604.66 93.3813 1604.38 93.8522C1604.1 94.3231 1603.84 94.5586 1603.6 94.5586C1603.32 94.5586 1603.08 94.4409 1602.89 94.2054C1602.71 93.9229 1602.52 93.5932 1602.33 93.2165C1602.19 92.8398 1602.02 92.4395 1601.84 92.0156C1601.69 91.5447 1601.48 91.0974 1601.2 90.6735C1601.29 89.873 1601.36 89.2372 1601.41 88.7663C1601.46 88.2483 1601.48 87.8245 1601.48 87.4948C1601.48 86.2233 1601.46 84.6929 1601.41 82.9034C1601.36 81.1139 1601.22 79.2538 1600.99 77.323C1600.8 75.3451 1600.47 73.3908 1600 71.46C1599.57 69.4822 1598.96 67.7398 1598.16 66.2329C1597.41 64.6788 1596.44 63.4309 1595.27 62.489C1594.09 61.5001 1592.68 61.0057 1591.03 61.0057C1589.9 61.0057 1588.88 61.3824 1587.99 62.1359C1587.14 62.8893 1586.39 63.8547 1585.73 65.032C1585.12 66.2093 1584.58 67.5043 1584.11 68.9171C1583.63 70.2828 1583.26 71.6013 1582.97 72.8728C1583.4 71.5542 1583.82 70.2121 1584.25 68.8465C1584.72 67.4808 1585.26 66.2329 1585.87 65.1026C1586.53 63.9724 1587.28 63.0542 1588.13 62.3478C1588.98 61.5943 1589.97 61.2176 1591.1 61.2176C1592.56 61.2176 1593.81 61.6178 1594.84 62.4184C1595.93 63.219 1596.82 64.255 1597.53 65.5265C1598.28 66.798 1598.87 68.2578 1599.29 69.906C1599.76 71.5071 1600.12 73.1554 1600.35 74.8507C1600.59 76.4989 1600.73 78.1235 1600.78 79.7247C1600.87 81.2787 1600.92 82.6208 1600.92 83.751C1600.92 84.6458 1600.89 85.5405 1600.85 86.4353C1600.85 87.33 1600.82 88.2483 1600.78 89.1901C1600.35 87.4006 1600.02 85.5405 1599.79 83.6097C1599.6 81.6319 1599.39 79.7011 1599.15 77.8175C1598.92 75.8867 1598.61 74.0501 1598.23 72.3077C1597.9 70.5182 1597.41 68.87 1596.75 67.3631L1597.24 66.6567C1596.77 65.5736 1596.23 64.7495 1595.62 64.1844C1595.05 63.5722 1594.49 63.1248 1593.92 62.8422C1593.36 62.5597 1592.84 62.3949 1592.37 62.3478C1591.9 62.3007 1591.59 62.2771 1591.45 62.2771C1590.27 62.2771 1589.21 62.701 1588.27 63.5486C1587.38 64.3963 1586.58 65.55 1585.87 67.0099C1585.21 68.4226 1584.62 70.0708 1584.11 71.9545C1583.59 73.8382 1583.14 75.816 1582.76 77.8881C1582.39 79.9601 1582.06 82.0557 1581.77 84.1749C1581.49 86.2469 1581.26 88.2012 1581.07 90.0378H1581.7C1581.94 88.4367 1582.17 86.6707 1582.41 84.74C1582.69 82.8092 1582.97 80.8549 1583.26 78.877C1583.59 76.8521 1583.96 74.8978 1584.39 73.0141C1584.81 71.1304 1585.31 69.4351 1585.87 67.9282C1586.48 66.4212 1587.19 65.1968 1587.99 64.255C1588.74 63.3602 1589.66 62.8422 1590.75 62.701C1589.71 62.9364 1588.84 63.5957 1588.13 64.6788C1587.38 65.809 1586.72 67.1982 1586.15 68.8465C1585.59 70.4947 1585.07 72.3077 1584.6 74.2856C1584.18 76.2163 1583.78 78.0765 1583.4 79.8659L1581.99 90.1791C1581.8 90.8384 1581.66 91.427 1581.56 91.945L1581.28 93.4284C1581.19 93.8993 1581.09 94.4173 1581 94.9824C1580.9 95.5004 1580.79 96.1126 1580.64 96.819L1580.43 97.6667H1580.01L1572.87 95.265C1572.64 95.2179 1572.45 95.1473 1572.31 95.0531C1572.21 94.9589 1572.1 94.8412 1571.96 94.6999ZM1584.25 58.4627C1583.3 59.2633 1582.55 60.1345 1581.99 61.0763C1581.47 61.971 1580.97 62.8893 1580.5 63.8312V63.9018C1581.16 62.5361 1582.08 61.1469 1583.26 59.7342C1584.39 58.4156 1585.89 57.4267 1587.78 56.7674C1587.17 56.9558 1586.58 57.1441 1586.01 57.3325C1585.35 57.5679 1584.76 57.9447 1584.25 58.4627ZM1592.72 56.1316C1592.49 56.0846 1592.16 56.061 1591.73 56.061C1593.24 56.4377 1594.65 56.8616 1595.97 57.3325C1597.29 57.7563 1598.54 58.6275 1599.72 59.9461C1598.92 58.863 1597.86 58.0153 1596.54 57.4031C1595.27 56.7909 1593.99 56.3671 1592.72 56.1316ZM1594.63 64.1844C1594.25 63.9018 1593.81 63.6899 1593.29 63.5486C1592.82 63.3602 1592.23 63.1248 1591.52 62.8422L1591.45 62.701C1592.25 62.7481 1592.96 62.9364 1593.57 63.2661C1594.18 63.5486 1594.77 64.0666 1595.34 64.8201L1594.63 64.1844ZM1599.86 60.0874C1600.52 60.8879 1601.13 61.8062 1601.69 62.8422C1602.26 63.8783 1602.75 64.7965 1603.18 65.5971C1602.71 64.514 1602.26 63.5251 1601.84 62.6303C1601.41 61.7356 1600.75 60.8879 1599.86 60.0874ZM1620.78 87.848C1621.53 88.0835 1622.43 88.5073 1623.46 89.1195C1624.55 89.7317 1625.75 90.3674 1627.06 91.0267C1628.38 91.686 1629.82 92.2747 1631.37 92.7927C1632.97 93.3107 1634.67 93.5697 1636.46 93.5697H1637.24C1637.52 93.5697 1637.85 93.5226 1638.23 93.4284L1639 93.9935C1640.84 93.4284 1642.35 92.3688 1643.52 90.8148C1644.7 89.2137 1645.29 87.071 1645.29 84.3868C1645.29 82.456 1644.82 81.1374 1643.88 80.431C1642.98 79.6776 1641.31 79.3008 1638.86 79.3008C1637.35 79.3008 1635.78 79.4186 1634.13 79.654C1632.53 79.8424 1630.83 79.9366 1629.04 79.9366C1628.24 79.9366 1627.42 79.913 1626.57 79.8659C1625.72 79.7718 1624.85 79.6069 1623.96 79.3715V79.7953C1625.84 80.2662 1627.7 80.5017 1629.54 80.5017C1631.33 80.5017 1633.02 80.4075 1634.62 80.2191C1636.27 79.9837 1637.85 79.8659 1639.36 79.8659C1640.63 79.8659 1641.62 80.0072 1642.32 80.2898C1643.08 80.5252 1643.64 80.8549 1644.02 81.2787C1644.39 81.7025 1644.63 82.2205 1644.72 82.8327C1644.87 83.3978 1644.94 84.0336 1644.94 84.74C1644.94 86.9533 1644.35 88.8369 1643.17 90.391C1642.04 91.8508 1640.7 92.7691 1639.14 93.1459C1640.89 92.5337 1642.25 91.4741 1643.24 89.9672C1644.28 88.366 1644.79 86.5765 1644.79 84.5987C1644.79 83.1859 1644.42 82.1028 1643.66 81.3493C1642.96 80.5959 1641.71 80.2191 1639.92 80.2191C1638.46 80.2191 1636.81 80.3133 1634.98 80.5017C1633.14 80.6901 1631.19 80.7842 1629.11 80.7842C1627.84 80.7842 1626.36 80.6194 1624.66 80.2898C1623.01 79.9601 1621.44 79.3479 1619.93 78.4532C1618.42 77.5584 1617.15 76.3341 1616.12 74.78C1615.08 73.1789 1614.56 71.1069 1614.56 68.5639C1614.56 66.5389 1614.96 64.6788 1615.76 62.9835C1616.61 61.2411 1617.72 59.7342 1619.08 58.4627C1620.45 57.1441 1622 56.1081 1623.74 55.3546C1625.53 54.6012 1627.37 54.2009 1629.25 54.1538C1631.04 54.1538 1632.74 54.4128 1634.34 54.9308C1635.99 55.4017 1637.54 56.0375 1639 56.838C1640.46 57.5915 1641.85 58.4391 1643.17 59.381C1644.49 60.3228 1645.71 61.2647 1646.84 62.2065L1645.43 63.6193C1645.1 63.6193 1644.61 63.4309 1643.95 63.0542C1643.29 62.6303 1642.28 61.9239 1640.91 60.935L1640.49 61.5708C1642.18 62.9364 1643.41 64.2079 1644.16 65.3852C1644.96 66.5625 1645.36 67.4808 1645.36 68.1401C1645.27 68.5168 1645.03 68.7052 1644.65 68.7052C1644.28 68.7052 1643.52 68.3991 1642.39 67.7869C1641.26 67.1747 1639.97 66.4919 1638.51 65.7384C1637.1 64.9849 1635.59 64.3021 1633.99 63.6899C1632.39 63.0777 1630.93 62.7716 1629.61 62.7716C1628.85 62.7716 1628.1 62.9129 1627.35 63.1954C1626.59 63.478 1625.91 63.8783 1625.3 64.3963C1624.69 64.8672 1624.17 65.4558 1623.74 66.1622C1623.37 66.8686 1623.18 67.6456 1623.18 68.4933C1623.18 69.8589 1623.82 70.7772 1625.09 71.2481C1626.36 71.7191 1628.03 71.9545 1630.1 71.9545C1630.53 71.9545 1630.97 71.9545 1631.44 71.9545C1631.96 71.9074 1632.43 71.8368 1632.86 71.7426C1633.94 71.7426 1634.65 71.7191 1634.98 71.672C1635.35 71.5778 1635.71 71.5307 1636.04 71.5307C1638.06 71.5307 1640.09 71.672 1642.11 71.9545C1644.14 72.2371 1645.95 72.8493 1647.55 73.7911C1649.15 74.7329 1650.45 76.0751 1651.43 77.8175C1652.42 79.5599 1652.92 81.8909 1652.92 84.8106C1652.92 86.8355 1652.56 88.8605 1651.86 90.8854C1651.2 92.8633 1650.19 94.6528 1648.82 96.2539C1647.46 97.8079 1645.76 99.0559 1643.74 99.9977C1641.71 100.987 1639.33 101.481 1636.6 101.481C1634.95 101.481 1633 101.151 1630.74 100.492C1628.52 99.88 1626.41 99.1501 1624.38 98.3024C1622.4 97.4077 1620.71 96.4894 1619.29 95.5475C1617.93 94.6057 1617.25 93.8051 1617.25 93.1459C1617.25 92.9575 1617.36 92.8162 1617.6 92.722C1620.47 94.8412 1623.39 96.5836 1626.36 97.9492C1629.28 99.2207 1632.27 99.9271 1635.33 100.068C1633.82 99.9742 1632.32 99.7152 1630.81 99.2913C1629.25 98.8204 1627.7 98.2553 1626.15 97.596C1624.64 96.8897 1623.18 96.1126 1621.77 95.265C1620.4 94.3702 1619.08 93.4755 1617.81 92.5808L1618.87 91.6625C1618.73 91.6154 1618.47 91.4505 1618.09 91.168C1617.72 90.8854 1617.34 90.5323 1616.96 90.1084C1616.63 89.6846 1616.33 89.2372 1616.04 88.7663C1615.76 88.2954 1615.62 87.848 1615.62 87.4242C1615.62 86.9533 1615.72 86.6472 1615.9 86.5059C1616.09 86.3646 1616.3 86.294 1616.54 86.294C1616.77 86.294 1617.27 86.4588 1618.02 86.7885C1618.78 87.1181 1619.69 87.4713 1620.78 87.848ZM1636.39 95.0531C1634.74 95.0531 1632.9 94.7234 1630.88 94.0641C1628.9 93.3578 1627.02 92.463 1625.23 91.3799C1626.69 92.3688 1628.31 93.2636 1630.1 94.0641C1631.89 94.8176 1633.96 95.1943 1636.32 95.1943C1639.47 95.1943 1641.97 94.229 1643.81 92.2982C1645.69 90.3674 1646.63 87.7774 1646.63 84.528V83.8217C1646.4 82.3147 1645.88 81.0903 1645.08 80.1485C1644.32 79.1596 1643.15 78.618 1641.55 78.5238C1642.53 78.7122 1643.33 79.0183 1643.95 79.4421C1644.61 79.8659 1645.1 80.384 1645.43 80.9962C1645.81 81.5613 1646.07 82.197 1646.21 82.9034C1646.35 83.6098 1646.42 84.3397 1646.42 85.0931C1646.23 88.2012 1645.24 90.65 1643.45 92.4395C1641.66 94.1819 1639.31 95.0531 1636.39 95.0531ZM1645.36 97.8079C1646.54 97.0545 1647.48 96.1362 1648.19 95.0531C1648.89 93.97 1649.5 92.8398 1650.02 91.6625C1649.03 93.6403 1647.67 95.3827 1645.92 96.8897C1644.23 98.3966 1642.2 99.3384 1639.85 99.7152C1640.74 99.5739 1641.66 99.3855 1642.6 99.1501C1643.59 98.8675 1644.51 98.4201 1645.36 97.8079ZM1652.07 84.528C1652.07 84.01 1651.98 83.5156 1651.79 83.0446C1651.65 82.6679 1651.53 82.2676 1651.43 81.8438L1651.51 82.7621C1651.55 83.1388 1651.58 83.6568 1651.58 84.3161C1651.58 85.5876 1651.43 86.812 1651.15 87.9893C1650.87 89.1666 1650.52 90.3203 1650.09 91.4505C1650.52 90.4145 1650.92 89.3314 1651.29 88.2012C1651.72 87.0239 1651.98 85.7995 1652.07 84.528ZM1651.43 81.6319C1651.43 81.679 1651.43 81.7496 1651.43 81.8438C1651.43 81.7496 1651.43 81.679 1651.43 81.6319ZM1639.07 93.2165C1639.03 93.2165 1638.98 93.2165 1638.93 93.2165C1638.98 93.2165 1639.03 93.2165 1639.07 93.2165Z" fill="white"/>
<path fill-rule="evenodd" clip-rule="evenodd" d="M1054.84 119.914C1043.01 110.944 1027 98.802 977.408 132.709C950.655 113.407 944.18 80.1033 954.967 62.2372C963.035 57.9109 969.696 50.459 976.372 42.9894C989.112 28.7365 1001.91 14.4192 1024.65 21.6299C1011.64 40.8033 1054.39 60.9996 1054.39 13C1062.54 27.9629 1073.39 37.6355 1082.36 45.6339C1091.31 53.6065 1098.39 59.9157 1099.06 68.1426C1101.08 92.8632 1093.32 114.974 1073.94 124.456C1065.97 128.359 1060.97 124.562 1054.84 119.914ZM1065.26 134.362C1067.57 134.68 1072.2 135.317 1077.56 131.911C1083.51 128.137 1078.96 144.401 1069.91 146.131C1066.22 146.837 1060.87 133.915 1064.49 134.263C1064.7 134.284 1064.96 134.32 1065.26 134.362L1065.26 134.362ZM1073.41 61.9852C1073.41 67.7472 1068.74 72.4182 1062.98 72.4182C1057.22 72.4182 1052.55 67.7472 1052.55 61.9852C1052.55 56.2233 1057.22 51.5523 1062.98 51.5523C1068.74 51.5523 1073.41 56.2233 1073.41 61.9852ZM1055.7 79.7016C1055.7 85.4636 1051.03 90.1346 1045.26 90.1346C1039.5 90.1346 1034.83 85.4636 1034.83 79.7016C1034.83 73.9396 1039.5 69.2687 1045.26 69.2687C1051.03 69.2687 1055.7 73.9396 1055.7 79.7016ZM1062.98 107.851C1068.74 107.851 1073.41 103.18 1073.41 97.4178C1073.41 91.6558 1068.74 86.9848 1062.98 86.9848C1057.22 86.9848 1052.55 91.6558 1052.55 97.4178C1052.55 103.18 1057.22 107.851 1062.98 107.851ZM1091.13 79.7016C1091.13 85.4636 1086.46 90.1346 1080.7 90.1346C1074.93 90.1346 1070.26 85.4636 1070.26 79.7016C1070.26 73.9396 1074.93 69.2687 1080.7 69.2687C1086.46 69.2687 1091.13 73.9396 1091.13 79.7016ZM983.256 70.4482H965.54V88.5583H983.256L983.256 106.275H1000.97V88.5584L1018.69 88.5583V70.4482L1000.97 70.4482V52.7318H983.256L983.256 70.4482Z" fill="white"/>
<path d="M7.84009 51.6604C18.3901 51.6704 49.2701 51.6604 49.2701 51.6604C49.2701 43.8804 49.7401 36.6204 55.1301 30.1104C59.7801 24.5004 66.4601 21.7004 73.5801 21.0204C85.3701 19.8804 102.22 20.2904 108.62 31.9504C112.19 38.4504 112.75 47.7404 107.92 53.6804C105.15 57.0904 101.24 59.4304 97.0201 60.6704C90.3201 62.6304 83.0801 63.6504 76.1401 64.3304C69.1101 65.0204 61.9601 65.9404 54.7001 67.0804C47.4401 68.2304 40.2401 69.7804 33.0901 71.7304C25.9401 73.6804 19.5901 75.9804 14.0401 79.8804C11.7801 81.4704 9.77009 83.3104 7.85009 85.3304V152.65H152.84V7.65039H7.84009V51.6604ZM111.4 106.58C111.4 114.68 109.4 133.34 85.2301 138.69C73.1301 141.36 53.9701 139.1 47.0301 126.96C43.2601 120.35 42.7601 110.92 47.6001 104.72C54.0101 95.7504 67.3701 93.7604 78.0501 92.3304C89.4401 90.8104 100.99 89.7004 111.4 85.3304V106.58Z" fill="white"/>
<path d="M649.92 7.65039H608.5V152.64H649.92V7.65039Z" fill="white"/>
<path d="M339.24 152.64H380.67V65.8404C380.67 40.2704 385.85 20.6004 411.74 20.6004C437.63 20.6004 442.81 40.2804 442.81 65.8404V152.64H484.23V65.8404C484.23 40.2704 489.41 20.6004 515.3 20.6004C541.19 20.6004 546.37 40.2804 546.37 65.8404V152.64H587.79V7.65039H339.24V152.64Z" fill="white"/>
<path d="M211.77 40.5702C215.21 34.7702 219.66 30.0202 225.12 26.3502C230.58 22.6802 237.35 20.6002 245.42 20.6002C266.76 20.6102 278.95 30.5802 282.28 51.6702H318.53V7.66016H173.54V80.1002V80.1802V152.64H318.53V108.62H282.28C278.95 129.7 266.76 139.69 245.42 139.69C237.35 139.69 230.58 137.61 225.12 133.94C219.66 130.26 215.21 125.52 211.77 119.72C208.33 113.91 205.89 107.77 204.47 100.78C203.06 93.8701 202.35 86.9302 202.34 80.1502C202.36 73.3702 203.07 66.4202 204.47 59.5202C205.89 52.5202 208.33 46.3702 211.77 40.5702Z" fill="white"/>
<path d="M7.84009 51.6604C18.3901 51.6704 49.2701 51.6604 49.2701 51.6604C49.2701 43.8804 49.7401 36.6204 55.1301 30.1104C59.7801 24.5004 66.4601 21.7004 73.5801 21.0204C85.3701 19.8804 102.22 20.2904 108.62 31.9504C112.19 38.4504 112.75 47.7404 107.92 53.6804C105.15 57.0904 101.24 59.4304 97.0201 60.6704C90.3201 62.6304 83.0801 63.6504 76.1401 64.3304C69.1101 65.0204 61.9601 65.9404 54.7001 67.0804C47.4401 68.2304 40.2401 69.7804 33.0901 71.7304C25.9401 73.6804 19.5901 75.9804 14.0401 79.8804C11.7801 81.4704 9.77009 83.3104 7.85009 85.3304V152.65H152.84V7.65039H7.84009V51.6604ZM111.4 106.58C111.4 114.68 109.4 133.34 85.2301 138.69C73.1301 141.36 53.9701 139.1 47.0301 126.96C43.2601 120.35 42.7601 110.92 47.6001 104.72C54.0101 95.7504 67.3701 93.7604 78.0501 92.3304C89.4401 90.8104 100.99 89.7004 111.4 85.3304V106.58Z" fill="white"/>
<path d="M650.42 7.65039H609V152.64H650.42V7.65039Z" fill="white"/>
<path d="M340 152.64H381.43V65.8404C381.43 40.2704 386.61 20.6004 412.5 20.6004C438.39 20.6004 443.57 40.2804 443.57 65.8404V152.64H484.99V65.8404C484.99 40.2704 490.17 20.6004 516.06 20.6004C541.95 20.6004 547.13 40.2804 547.13 65.8404V152.64H588.55V7.65039H340V152.64Z" fill="white"/>
<path d="M212.23 40.5702C215.67 34.7702 220.12 30.0202 225.58 26.3502C231.04 22.6802 237.81 20.6002 245.88 20.6002C267.22 20.6102 279.41 30.5802 282.74 51.6702H318.99V7.66016H174V80.1002V80.1802V152.64H318.99V108.62H282.74C279.41 129.7 267.22 139.69 245.88 139.69C237.81 139.69 231.04 137.61 225.58 133.94C220.12 130.26 215.67 125.52 212.23 119.72C208.79 113.91 206.35 107.77 204.93 100.78C203.52 93.8701 202.81 86.9302 202.8 80.1502C202.82 73.3702 203.53 66.4202 204.93 59.5202C206.35 52.5202 208.79 46.3702 212.23 40.5702Z" fill="white"/>
<path d="M788.108 73.4965L800.924 64.3838C803.394 62.6984 805.295 61.013 806.627 59.3277C807.999 57.6031 808.685 55.2514 808.685 52.2727C808.685 49.9602 807.783 47.8633 805.98 45.982C804.178 44.0614 801.63 43.1012 798.338 43.1012C796.064 43.1012 794.144 43.6303 792.576 44.6885C791.008 45.7468 789.832 47.1578 789.048 48.9215C788.265 50.6461 787.873 52.547 787.873 54.6243C787.873 56.3881 788.304 58.2106 789.166 60.092C790.028 61.9733 791.224 63.933 792.752 65.9711C794.281 68.0092 796.025 70.1649 797.985 72.4382L838.492 121H825.441L792.223 81.257C789.284 77.8078 786.658 74.6527 784.345 71.7915C782.033 68.8911 780.21 66.0887 778.878 63.3843C777.584 60.6799 776.937 57.8775 776.937 54.9771C776.937 50.5089 777.819 46.7463 779.583 43.6891C781.386 40.5927 783.894 38.2411 787.108 36.6341C790.322 35.0271 794.085 34.2236 798.396 34.2236C802.59 34.2236 806.196 35.0663 809.214 36.7517C812.271 38.3978 814.623 40.5927 816.269 43.3363C817.915 46.0408 818.738 49.0195 818.738 52.2727C818.738 55.0163 818.248 57.4855 817.268 59.6804C816.289 61.8361 814.917 63.8154 813.153 65.6184C811.429 67.4213 809.41 69.1851 807.098 70.9096L790.107 83.5498C787.285 85.6271 785.227 87.6065 783.934 89.4878C782.64 91.3691 781.798 93.0349 781.406 94.4851C781.053 95.9353 780.876 97.0915 780.876 97.9538C780.876 100.737 781.484 103.284 782.699 105.597C783.914 107.909 785.756 109.771 788.225 111.182C790.734 112.554 793.869 113.24 797.632 113.24C800.924 113.24 804.119 112.495 807.215 111.006C810.351 109.477 813.153 107.321 815.622 104.538C818.092 101.716 820.051 98.3653 821.501 94.4851C822.991 90.5656 823.736 86.2347 823.736 81.4921H833.495C833.495 85.3724 833.123 89.0371 832.378 92.4862C831.633 95.9353 830.477 99.1492 828.909 102.128C827.381 105.068 825.421 107.752 823.03 110.182C822.677 110.535 822.403 110.947 822.207 111.417C822.011 111.887 821.737 112.299 821.384 112.652C818.444 115.826 814.819 118.217 810.507 119.824C806.235 121.392 801.943 122.176 797.632 122.176C791.949 122.176 787.03 121.137 782.875 119.06C778.76 116.983 775.585 114.121 773.351 110.476C771.117 106.831 770 102.657 770 97.9538C770 94.3479 770.764 91.1732 772.293 88.4295C773.861 85.6859 775.997 83.1187 778.701 80.7278C781.445 78.337 784.58 75.9265 788.108 73.4965Z" fill="white"/>
</svg>
