<svg width="37" height="19" viewBox="0 0 37 19" fill="none" xmlns="http://www.w3.org/2000/svg">
<path d="M27.7534 9.69277e-08H9.25066C7.72563 -0.000223631 6.22421 0.386861 4.88006 1.12679C3.53591 1.86672 2.39075 2.93654 1.54652 4.241C0.702297 5.54546 0.185205 7.04409 0.0412831 8.60346C-0.102639 10.1628 0.131074 11.7346 0.721616 13.1787C1.31216 14.6229 2.2412 15.8946 3.42604 16.8808C4.61088 17.867 6.01474 18.5369 7.51265 18.831C9.01056 19.1251 10.556 19.0343 12.0115 18.5665C13.4669 18.0987 14.7872 17.2686 15.8547 16.15H21.1453C22.2127 17.2685 23.5328 18.0986 24.988 18.5663C26.4433 19.0341 27.9886 19.1251 29.4864 18.8312C30.9841 18.5373 32.3879 17.8676 33.5728 16.8818C34.7576 15.8959 35.6868 14.6245 36.2776 13.1806C36.8684 11.7368 37.1024 10.1653 36.959 8.60604C36.8155 7.04681 36.2989 5.54819 35.4552 4.2436C34.6114 2.939 33.4668 1.86889 32.1231 1.12851C30.7793 0.388134 29.2782 0.000461651 27.7534 9.69277e-08ZM14.3378 10.2125C14.3378 10.4015 14.2647 10.5827 14.1346 10.7163C14.0045 10.8499 13.8281 10.925 13.6441 10.925H10.6381V14.0125C10.6381 14.2015 10.565 14.3827 10.4349 14.5163C10.3048 14.6499 10.1283 14.725 9.94436 14.725H8.55696C8.37298 14.725 8.19654 14.6499 8.06644 14.5163C7.93635 14.3827 7.86326 14.2015 7.86326 14.0125V10.925H4.85723C4.67325 10.925 4.4968 10.8499 4.36671 10.7163C4.23661 10.5827 4.16353 10.4015 4.16353 10.2125V8.7875C4.16353 8.59853 4.23661 8.41731 4.36671 8.28369C4.4968 8.15007 4.67325 8.075 4.85723 8.075H7.86326V4.9875C7.86326 4.79853 7.93635 4.61731 8.06644 4.48369C8.19654 4.35007 8.37298 4.275 8.55696 4.275H9.94436C10.1283 4.275 10.3048 4.35007 10.4349 4.48369C10.565 4.61731 10.6381 4.79853 10.6381 4.9875V8.075H13.6441C13.8281 8.075 14.0045 8.15007 14.1346 8.28369C14.2647 8.41731 14.3378 8.59853 14.3378 8.7875V10.2125ZM26.8244 14.725C26.3671 14.725 25.92 14.5857 25.5397 14.3247C25.1595 14.0638 24.8631 13.6928 24.6881 13.2589C24.5131 12.8249 24.4673 12.3474 24.5565 11.8867C24.6457 11.426 24.866 11.0028 25.1893 10.6706C25.5127 10.3385 25.9247 10.1123 26.3733 10.0206C26.8218 9.929 27.2868 9.97603 27.7093 10.1558C28.1318 10.3355 28.493 10.64 28.747 11.0305C29.0011 11.4211 29.1367 11.8803 29.1367 12.35C29.1367 12.9799 28.8931 13.584 28.4595 14.0294C28.0258 14.4748 27.4377 14.725 26.8244 14.725ZM30.5241 9.025C30.0668 9.025 29.6197 8.88571 29.2395 8.62474C28.8592 8.36377 28.5628 7.99285 28.3878 7.55887C28.2128 7.1249 28.167 6.64737 28.2562 6.18666C28.3455 5.72596 28.5657 5.30277 28.8891 4.97062C29.2125 4.63847 29.6245 4.41227 30.073 4.32063C30.5216 4.22899 30.9865 4.27603 31.409 4.45579C31.8316 4.63554 32.1927 4.93995 32.4468 5.33052C32.7009 5.72109 32.8365 6.18027 32.8365 6.65C32.8365 7.27989 32.5929 7.88398 32.1592 8.32938C31.7256 8.77478 31.1374 9.025 30.5241 9.025Z" fill="#000"/>
</svg>
