<svg width="28" height="35" viewBox="0 0 28 35" fill="none" xmlns="http://www.w3.org/2000/svg">
<path d="M27.9983 20.7812C27.9983 28.6357 21.7323 35 13.9992 35C6.26597 35 0 28.6357 0 20.7812C0 13.6719 5.13527 7.7793 11.8454 6.7334V4.375H9.96094C9.51674 4.375 9.1533 4.00586 9.1533 3.55469V0.820312C9.1533 0.369141 9.51674 0 9.96094 0H18.0374C18.4816 0 18.845 0.369141 18.845 0.820312V3.55469C18.845 4.00586 18.4816 4.375 18.0374 4.375H16.1529V6.7334C18.6768 7.12988 20.9785 8.20996 22.8631 9.78223L24.7139 7.90234C25.0302 7.58105 25.5417 7.58105 25.8581 7.90234L27.7628 9.83691C28.0791 10.1582 28.0791 10.6777 27.7628 10.999L25.784 13.0088L25.7436 13.0498C27.1705 15.2646 27.9983 17.9238 27.9983 20.7812ZM16.1529 23.2422V12.8857C16.1529 12.4346 15.7894 12.0654 15.3452 12.0654H12.6531C12.2089 12.0654 11.8454 12.4346 11.8454 12.8857V23.2422C11.8454 23.6934 12.2089 24.0625 12.6531 24.0625H15.3452C15.7894 24.0625 16.1529 23.6934 16.1529 23.2422Z" fill="#000"/>
</svg>
