<svg width="216" height="216" viewBox="0 0 216 216" fill="none" xmlns="http://www.w3.org/2000/svg">
<path fill-rule="evenodd" clip-rule="evenodd" d="M140.465 151.716C127.613 141.968 110.217 128.774 56.3254 165.619C27.2547 144.645 20.219 108.455 31.94 89.0406C40.7074 84.3395 47.9455 76.2418 55.2007 68.1248C69.0446 52.6368 82.951 37.0788 107.663 44.9144C93.5287 65.7493 139.983 87.6958 139.983 35.5366C148.834 51.7961 160.627 62.307 170.378 70.9986C180.098 79.6621 187.79 86.518 188.52 95.4578C190.714 122.321 182.277 146.347 161.228 156.651C152.563 160.892 147.124 156.767 140.465 151.716ZM151.796 167.415C154.305 167.761 159.329 168.453 165.159 164.752C171.619 160.651 166.682 178.324 156.848 180.205C152.836 180.972 147.023 166.93 150.95 167.309C151.187 167.331 151.47 167.37 151.796 167.415ZM160.651 88.7663C160.651 95.0276 155.576 100.103 149.314 100.103C143.053 100.103 137.977 95.0276 137.977 88.7663C137.977 82.505 143.053 77.4293 149.314 77.4293C155.576 77.4293 160.651 82.505 160.651 88.7663ZM141.4 108.018C141.4 114.279 136.324 119.355 130.063 119.355C123.801 119.355 118.726 114.279 118.726 108.018C118.726 101.757 123.801 96.6809 130.063 96.6809C136.324 96.6809 141.4 101.757 141.4 108.018ZM149.314 138.606C155.576 138.606 160.651 133.531 160.651 127.269C160.651 121.008 155.576 115.932 149.314 115.932C143.053 115.932 137.977 121.008 137.977 127.269C137.977 133.531 143.053 138.606 149.314 138.606ZM179.903 108.018C179.903 114.279 174.827 119.355 168.566 119.355C162.305 119.355 157.229 114.279 157.229 108.018C157.229 101.757 162.305 96.6809 168.566 96.6809C174.827 96.6809 179.903 101.757 179.903 108.018ZM62.6819 97.9642H43.4303V117.644H62.6819L62.682 136.895H81.9336V117.644L101.185 117.644V97.9642L81.9336 97.9642V78.7125H62.682L62.6819 97.9642Z" fill="#CC7722"/>
</svg>
