<svg width="163" height="146" viewBox="0 0 163 146" fill="none" xmlns="http://www.w3.org/2000/svg">
<path fill-rule="evenodd" clip-rule="evenodd" d="M113.756 116.549C100.923 106.771 83.5527 93.5347 29.7392 130.497C0.710854 109.456 -6.3146 73.1507 5.38936 53.6745C14.1439 48.9584 21.3714 40.8349 28.6161 32.6921C42.4398 17.1547 56.3259 1.54713 81.0022 9.40761C66.8882 30.3089 113.275 52.3254 113.275 0C122.113 16.3113 133.889 26.8557 143.626 35.575C153.331 44.2661 161.012 51.1438 161.741 60.1122C163.932 87.0606 155.508 111.164 134.488 121.5C125.837 125.755 120.406 121.616 113.756 116.549ZM133.913 53.3976C133.913 59.6789 128.845 64.7708 122.593 64.7708C116.34 64.7708 111.272 59.6789 111.272 53.3976C111.272 47.1164 116.34 42.0244 122.593 42.0244C128.845 42.0244 133.913 47.1164 133.913 53.3976ZM114.69 72.7106C114.69 78.9919 109.621 84.0838 103.369 84.0838C97.1168 84.0838 92.0484 78.9919 92.0484 72.7106C92.0484 66.4294 97.1168 61.3374 103.369 61.3374C109.621 61.3374 114.69 66.4294 114.69 72.7106ZM122.593 103.397C128.845 103.397 133.913 98.3049 133.913 92.0237C133.913 85.7424 128.845 80.6505 122.593 80.6505C116.34 80.6505 111.272 85.7424 111.272 92.0237C111.272 98.3049 116.34 103.397 122.593 103.397ZM153.137 72.7106C153.137 78.9919 148.068 84.0838 141.816 84.0838C135.564 84.0838 130.496 78.9919 130.496 72.7106C130.496 66.4294 135.564 61.3374 141.816 61.3374C148.068 61.3374 153.137 66.4294 153.137 72.7106ZM36.0865 62.6252H16.863V82.3674H36.0865L36.0866 101.681H55.3102V82.3675L74.5338 82.3674V62.6252L55.3102 62.6252V43.3122H36.0866L36.0865 62.6252Z" fill="#CC7722"/>
<path d="M138.414 129.628C131.837 133.822 126.288 132.391 124.225 132.192C120.304 131.812 126.11 145.899 130.115 145.129C139.935 143.243 144.865 125.513 138.414 129.628Z" fill="#CC7722"/>
</svg>
