<svg width="133" height="40" viewBox="0 0 133 40" fill="none" xmlns="http://www.w3.org/2000/svg">
<path d="M41.9588 21.2894L41.8886 21.2544C41.5612 21.1686 41.2143 21.114 40.8479 21.0907C40.4816 21.0673 40.1074 21.0166 39.7254 20.9387C40.0996 21.0166 40.466 21.079 40.8246 21.1257C41.1831 21.1647 41.5378 21.2427 41.8886 21.3596C41.7795 21.4298 41.6626 21.4648 41.5378 21.4648C41.3897 21.4493 41.2416 21.4259 41.0935 21.3947C40.9532 21.3635 40.8012 21.3401 40.6375 21.3245C40.6375 21.2778 40.6492 21.2427 40.6725 21.2193C40.4465 21.2193 40.2204 21.1959 39.9943 21.1491C39.7761 21.1024 39.5617 21.0517 39.3512 20.9971C39.1407 20.9348 38.9342 20.8802 38.7315 20.8334C38.5366 20.7788 38.3534 20.7516 38.1819 20.7516C38.1819 20.7749 38.178 20.7866 38.1702 20.7866C38.3729 20.8256 38.5639 20.8802 38.7432 20.9503C38.9225 21.0205 39.1251 21.0751 39.3512 21.114C39.5695 21.1686 39.78 21.2076 39.9826 21.231C40.1931 21.2544 40.3997 21.2855 40.6024 21.3245C40.275 21.2933 39.9398 21.2466 39.5968 21.1842C39.2616 21.1218 38.9303 21.0517 38.6029 20.9737L38.0533 20.8334C37.8584 21.3323 37.6596 21.8234 37.4569 22.3068C37.262 22.7823 37.071 23.2656 36.884 23.7567C36.8684 23.7255 36.8411 23.706 36.8021 23.6982C36.7709 23.6982 36.7358 23.6982 36.6969 23.6982C36.6657 23.6982 36.6345 23.6865 36.6033 23.6632C36.5721 23.6476 36.5565 23.6086 36.5565 23.5462C36.5565 23.4839 36.5721 23.3942 36.6033 23.2773C36.6345 23.1682 36.693 23.02 36.7787 22.8329C36.7631 22.8174 36.7358 22.8096 36.6969 22.8096C36.6657 22.8018 36.6423 22.7979 36.6267 22.7979C36.4708 23.1253 36.3188 23.3747 36.1707 23.5462C36.0304 23.7255 35.9173 23.8152 35.8316 23.8152C35.738 23.8152 35.6912 23.7255 35.6912 23.5462C35.6912 23.3981 35.7185 23.211 35.7731 22.985C35.8277 22.7511 35.8939 22.5016 35.9719 22.2366C36.0576 21.9715 36.1512 21.6987 36.2525 21.4181C36.3539 21.1296 36.4513 20.849 36.5449 20.5762C36.4591 20.5216 36.3656 20.4826 36.2642 20.4592C36.1707 20.4358 36.0654 20.4164 35.9485 20.4008C35.9719 20.3696 35.9836 20.3306 35.9836 20.2838C35.9836 20.2371 35.9875 20.1903 35.9953 20.1435C36.0031 20.0967 36.0187 20.0578 36.042 20.0266C36.0654 19.9954 36.1083 19.9798 36.1707 19.9798C36.1863 19.9798 36.233 19.9876 36.311 20.0032V19.898C36.1863 19.8356 36.0888 19.7615 36.0187 19.6758C35.9563 19.59 35.9251 19.5043 35.9251 19.4185C35.9251 19.2314 36.1044 19.1379 36.463 19.1379C36.5643 19.1379 36.6657 19.1457 36.767 19.1613C36.8762 19.1691 36.9853 19.1808 37.0944 19.1964L37.6323 17.9686C37.7492 17.7035 37.874 17.4307 38.0065 17.1501C38.1468 16.8694 38.3105 16.5927 38.4976 16.3198C38.6847 16.047 38.8952 15.7898 39.129 15.5481C39.3707 15.2986 39.6474 15.0765 39.9593 14.8816L40.1347 14.8114C40.3529 14.866 40.5283 14.9128 40.6609 14.9517C40.8012 14.9829 40.9142 15.0063 41 15.0219C41.0779 15.0531 41.1403 15.0726 41.187 15.0804H41.1753L41.187 15.1154C41.187 15.1232 41.1831 15.131 41.1753 15.1388L41.3157 15.3844C41.8224 16.2341 42.2511 17.115 42.6019 18.027C42.9527 18.9391 43.2528 19.8356 43.5023 20.7165C43.5647 20.9114 43.6387 21.1218 43.7245 21.3479C43.818 21.5662 43.9038 21.7767 43.9817 21.9793C44.0675 22.1742 44.1376 22.3535 44.1922 22.5172C44.2468 22.6731 44.274 22.7862 44.274 22.8563C44.274 22.9109 44.2623 22.946 44.239 22.9616C44.2156 22.9694 44.1844 22.9733 44.1454 22.9733C43.9427 22.4666 43.7517 21.9677 43.5725 21.4765C43.3932 20.9932 43.2178 20.506 43.0463 20.0149C43.2022 20.506 43.3659 20.9932 43.5374 21.4765C43.7167 21.9677 43.896 22.4666 44.0753 22.9733H43.9934C43.9466 22.9733 43.9155 22.9967 43.8999 23.0434C43.9155 23.059 43.9349 23.1019 43.9583 23.172C43.9817 23.2344 44.0051 23.3007 44.0285 23.3708C44.0519 23.4488 44.0714 23.5267 44.087 23.6047C44.1025 23.6827 44.1103 23.7411 44.1103 23.7801C44.1103 23.9516 44.0597 24.0373 43.9583 24.0373C43.9038 24.0373 43.8609 24.0257 43.8297 24.0023C43.7985 23.9789 43.7634 23.9477 43.7245 23.9087L43.6075 23.7918C43.5608 23.745 43.5023 23.6982 43.4321 23.6515L42.3096 20.4242C42.4733 20.9309 42.6331 21.4376 42.789 21.9443C42.9527 22.451 43.1203 22.9499 43.2918 23.441C43.1671 23.2929 43.0502 23.1136 42.941 22.9031C42.8397 22.6926 42.7422 22.4705 42.6487 22.2366C42.5629 22.0027 42.4811 21.765 42.4031 21.5233C42.3252 21.2739 42.2472 21.04 42.1693 20.8217C42.1693 20.8373 42.1693 20.8529 42.1693 20.8685C42.1771 20.8763 42.181 20.888 42.181 20.9036C42.181 21.0283 42.142 21.1218 42.064 21.1842L41.9588 21.2894ZM41.8886 20.0734C41.9042 20.0734 41.9276 20.0695 41.9588 20.0617C41.99 20.0461 42.0134 20.0383 42.029 20.0383C41.7717 19.3913 41.5145 18.7637 41.2572 18.1557C41.0077 17.5476 40.731 16.963 40.427 16.4017L40.3568 16.4719L40.5322 16.7876C40.8051 17.2865 41.0506 17.801 41.2689 18.3311C41.4872 18.8612 41.6937 19.4068 41.8886 19.9681C41.6626 19.3601 41.417 18.7559 41.152 18.1557C40.8947 17.5476 40.618 16.9981 40.3217 16.5069L40.275 16.5303C40.0099 16.8032 39.7605 17.1306 39.5266 17.5126C39.3005 17.8945 39.0862 18.2843 38.8835 18.6819L38.5795 19.4185L38.7782 19.4653C38.8952 19.4965 39.0082 19.5316 39.1174 19.5705C39.2343 19.6017 39.3356 19.6368 39.4214 19.6758C39.5929 19.7615 39.8189 19.8278 40.0996 19.8746C40.3802 19.9213 40.6531 19.9681 40.9181 20.0149C41.1909 20.0539 41.4248 20.1006 41.6197 20.1552C41.8224 20.202 41.9237 20.2721 41.9237 20.3657L40.4971 20.202C40.5829 20.2176 40.6881 20.2371 40.8129 20.2604C40.9376 20.276 41.0623 20.2955 41.187 20.3189C41.3196 20.3423 41.4482 20.3657 41.5729 20.3891C41.6976 20.4047 41.8029 20.4203 41.8886 20.4358C41.8886 20.4592 41.8847 20.4826 41.8769 20.506C41.8769 20.5216 41.8769 20.5372 41.8769 20.5528C41.8769 20.5684 41.8847 20.5801 41.9003 20.5879C41.9237 20.5879 41.9471 20.5918 41.9705 20.5995C42.0017 20.5995 42.029 20.6073 42.0523 20.6229C42.0757 20.6307 42.0991 20.6541 42.1225 20.6931L41.8886 20.0734ZM39.3512 17.571C39.3668 17.571 39.3707 17.5827 39.3629 17.6061C39.3629 17.6217 39.3668 17.6295 39.3746 17.6295C39.3902 17.6295 39.437 17.5749 39.5149 17.4658C39.5929 17.3566 39.6825 17.2319 39.7839 17.0916C39.8852 16.9513 39.9826 16.8188 40.0762 16.694C40.1697 16.5693 40.236 16.4874 40.275 16.4485L40.2165 16.3666C40.0528 16.5225 39.9008 16.7057 39.7605 16.9162C39.6202 17.1267 39.4837 17.3449 39.3512 17.571ZM40.5322 16.3082C40.7817 16.7291 41.0116 17.1696 41.2221 17.6295C41.4248 18.0816 41.6158 18.5338 41.7951 18.9859C41.647 18.5338 41.4677 18.0816 41.2572 17.6295C41.0389 17.1696 40.8012 16.7291 40.5439 16.3082H40.5322ZM42.3213 18.0621C42.5629 18.6858 42.8007 19.3211 43.0346 19.9681C42.8163 19.3367 42.5863 18.713 42.3447 18.0972C42.1186 17.4892 41.8575 16.8772 41.5612 16.2614C41.8419 16.8538 42.0952 17.4541 42.3213 18.0621ZM40.6024 16.0509C40.7037 16.0743 40.7739 16.0977 40.8129 16.1211C40.8518 16.1444 40.8791 16.1561 40.8947 16.1561L40.9064 16.1211C40.9142 16.1211 40.8986 16.1172 40.8596 16.1094C40.8207 16.1016 40.7895 16.0938 40.7661 16.086L40.7895 16.0392L40.6492 15.9924L40.6024 16.0509ZM40.0294 15.934L40.123 16.1795L40.1113 15.934C40.0957 15.934 40.0762 15.9301 40.0528 15.9223C40.0372 15.9145 40.0216 15.9106 40.006 15.9106L40.0294 15.934ZM40.3334 16.2731L40.2516 16.3315L40.3217 16.4251L40.3919 16.3549L40.3334 16.2731ZM40.4971 16.2497H40.5088L40.4504 16.1678V16.1795L40.4971 16.2497ZM51.3766 16.0743L51.3416 16.2848C51.3026 16.6667 51.2792 17.076 51.2714 17.5126C51.2636 17.9413 51.2324 18.3739 51.1779 18.8105C51.2402 18.3817 51.2909 17.9608 51.3299 17.5476C51.3688 17.1189 51.4078 16.6979 51.4468 16.2848C51.4858 16.4095 51.517 16.542 51.5403 16.6823C51.5715 16.8227 51.5871 16.9708 51.5871 17.1267C51.5481 17.5164 51.5131 17.8906 51.4819 18.2492C51.4507 18.6078 51.4078 18.982 51.3533 19.3718L51.2012 19.4068C51.1623 19.7654 51.0804 20.1552 50.9557 20.5762C50.831 20.9971 50.6478 21.3869 50.4061 21.7455C50.1722 22.1041 49.8682 22.4042 49.494 22.6459C49.1199 22.8797 48.6716 22.9967 48.1493 22.9967C47.9778 22.9967 47.7946 22.985 47.5997 22.9616C47.4127 22.9304 47.2295 22.8875 47.0502 22.8329C46.8709 22.7706 46.6994 22.6926 46.5357 22.5991C46.372 22.5055 46.2316 22.3886 46.1147 22.2483L46.1264 22.2717V22.2834L46.1147 22.2951L46.0796 22.2834C46.1264 22.3535 46.1771 22.4159 46.2316 22.4705C46.0913 22.3457 45.9627 22.2015 45.8458 22.0378C45.6509 21.7728 45.495 21.457 45.378 21.0907C45.3079 20.8724 45.2533 20.6502 45.2143 20.4242C45.1754 20.1981 45.1481 19.9603 45.1325 19.7109C45.1169 19.4536 45.1052 19.1769 45.0974 18.8807C45.0974 18.5844 45.0974 18.257 45.0974 17.8984C45.1676 17.6178 45.2221 17.3372 45.2611 17.0565C45.3001 16.7759 45.3274 16.4952 45.343 16.2146C45.3663 16.2146 45.3936 16.2107 45.4248 16.2029C45.456 16.1951 45.4872 16.1912 45.5184 16.1912C45.5729 16.1912 45.6197 16.2224 45.6587 16.2848C45.7055 16.3471 45.7288 16.4797 45.7288 16.6823V16.7876C45.7288 16.8188 45.7249 16.8538 45.7171 16.8928H45.8575C45.9198 16.5654 45.9939 16.3159 46.0796 16.1444C46.1654 15.9729 46.2511 15.8872 46.3369 15.8872C46.3992 15.8872 46.4538 15.9768 46.5006 16.1561C46.5552 16.3276 46.5824 16.6005 46.5824 16.9747C46.5824 17.2475 46.5746 17.5242 46.5591 17.8049C46.5435 18.0855 46.5357 18.3739 46.5357 18.6702C46.5357 19.1301 46.5552 19.5472 46.5941 19.9213C46.6409 20.2955 46.7267 20.6151 46.8514 20.8802C46.9761 21.1452 47.1515 21.3518 47.3776 21.4999C47.6114 21.6402 47.9116 21.7104 48.278 21.7104C48.582 21.7104 48.8353 21.6169 49.038 21.4298C49.2407 21.2427 49.4122 20.9932 49.5525 20.6814C49.6928 20.3696 49.8098 20.011 49.9033 19.6056C50.0046 19.1925 50.0982 18.7637 50.1839 18.3194C50.1995 18.1947 50.2112 18.0699 50.219 17.9452C50.2268 17.8205 50.2307 17.6918 50.2307 17.5593V17.1968C50.2307 16.9708 50.2424 16.7798 50.2658 16.6239C50.2892 16.468 50.3554 16.3783 50.4646 16.3549C50.4646 16.7525 50.4529 17.1462 50.4295 17.5359C50.4139 17.9101 50.3827 18.2843 50.3359 18.6585C50.3905 18.2921 50.4334 17.9257 50.4646 17.5593C50.4958 17.1773 50.5191 16.7876 50.5347 16.39C50.5815 16.4212 50.6205 16.4368 50.6517 16.4368C50.6828 16.4368 50.714 16.4212 50.7452 16.39V15.9691C50.7842 15.8287 50.8232 15.7313 50.8621 15.6767C50.9011 15.6144 50.944 15.5832 50.9908 15.5832C51.0375 15.5832 51.0843 15.6066 51.1311 15.6533C51.1779 15.7001 51.2246 15.7586 51.2714 15.8287L51.3766 16.0743ZM46.5474 22.7043C46.7345 22.8057 46.9254 22.8875 47.1203 22.9499C47.323 23.0044 47.5101 23.0434 47.6816 23.0668C47.8609 23.0902 48.0051 23.1019 48.1142 23.1019C48.6599 23.1019 49.1238 22.9811 49.5057 22.7394C49.8877 22.4977 50.1995 22.1976 50.4412 21.839C50.6906 21.4726 50.8816 21.0829 51.0142 20.6697C51.1389 20.2799 51.2324 19.9213 51.2948 19.5939C51.2402 19.9213 51.1545 20.2838 51.0375 20.6814C50.905 21.1024 50.714 21.496 50.4646 21.8624C50.2229 22.2288 49.915 22.5367 49.5408 22.7862C49.1666 23.0356 48.7145 23.1604 48.1844 23.1604C47.8882 23.1604 47.5958 23.1214 47.3074 23.0434C47.019 22.9655 46.75 22.8446 46.5006 22.6809C46.5162 22.6887 46.5318 22.6965 46.5474 22.7043ZM51.0258 19.8278C51.0492 19.6953 51.0687 19.5667 51.0843 19.4419C51.0999 19.3328 51.1155 19.2237 51.1311 19.1145C51.0843 19.4575 51.0064 19.82 50.8972 20.202C50.7881 20.5995 50.6361 20.9776 50.4412 21.3362C50.2463 21.687 50.0007 21.9988 49.7045 22.2717C49.4239 22.5289 49.0965 22.7043 48.7223 22.7979C49.0497 22.7277 49.342 22.5913 49.5993 22.3886C49.8643 22.1781 50.0904 21.9326 50.2775 21.6519C50.4646 21.3713 50.6166 21.0712 50.7335 20.7516C50.8582 20.4319 50.9557 20.124 51.0258 19.8278ZM49.8682 20.6463C49.7825 20.8178 49.685 20.9815 49.5759 21.1374C49.4746 21.2933 49.3576 21.4337 49.2251 21.5584C49.3654 21.4415 49.4862 21.305 49.5876 21.1491C49.6967 20.9932 49.7903 20.8256 49.8682 20.6463ZM46.5006 22.6809C46.407 22.6186 46.3174 22.5484 46.2316 22.4705C46.3174 22.5484 46.407 22.6186 46.5006 22.6809ZM51.3065 19.5121L51.2948 19.5939L51.3065 19.5121ZM51.1428 19.056C51.135 19.0794 51.1311 19.0989 51.1311 19.1145C51.1311 19.0989 51.135 19.0794 51.1428 19.056ZM53.7302 21.3128C53.8549 21.3518 54.003 21.422 54.1745 21.5233C54.3538 21.6247 54.5526 21.7299 54.7709 21.839C54.9891 21.9482 55.2269 22.0456 55.4841 22.1314C55.7492 22.2171 56.0298 22.26 56.3261 22.26H56.4547C56.5015 22.26 56.556 22.2522 56.6184 22.2366L56.747 22.3301C57.051 22.2366 57.3005 22.0612 57.4954 21.8039C57.6903 21.5389 57.7877 21.1842 57.7877 20.7399C57.7877 20.4203 57.7097 20.202 57.5538 20.085C57.4057 19.9603 57.129 19.898 56.7236 19.898C56.4742 19.898 56.213 19.9174 55.9402 19.9564C55.6751 19.9876 55.3945 20.0032 55.0983 20.0032C54.9657 20.0032 54.8293 19.9993 54.689 19.9915C54.5487 19.9759 54.4045 19.9486 54.2564 19.9097V19.9798C54.5682 20.0578 54.8761 20.0967 55.1801 20.0967C55.4764 20.0967 55.757 20.0812 56.022 20.05C56.2949 20.011 56.556 19.9915 56.8055 19.9915C57.016 19.9915 57.1797 20.0149 57.2966 20.0617C57.4213 20.1006 57.5149 20.1552 57.5772 20.2254C57.6396 20.2955 57.6786 20.3813 57.6942 20.4826C57.7175 20.5762 57.7292 20.6814 57.7292 20.7983C57.7292 21.1647 57.6318 21.4765 57.4369 21.7338C57.2498 21.9754 57.0276 22.1275 56.7704 22.1898C57.0588 22.0885 57.2849 21.9131 57.4486 21.6636C57.6201 21.3986 57.7058 21.1024 57.7058 20.7749C57.7058 20.5411 57.6435 20.3618 57.5188 20.2371C57.4018 20.1123 57.1952 20.05 56.899 20.05C56.6574 20.05 56.3845 20.0656 56.0805 20.0967C55.7765 20.1279 55.453 20.1435 55.11 20.1435C54.8995 20.1435 54.6539 20.1162 54.3733 20.0617C54.1005 20.0071 53.8393 19.9058 53.5899 19.7576C53.3404 19.6095 53.1299 19.4068 52.9584 19.1496C52.7869 18.8845 52.7012 18.5415 52.7012 18.1206C52.7012 17.7854 52.7674 17.4775 52.9 17.1968C53.0403 16.9084 53.2235 16.6589 53.4495 16.4485C53.6756 16.2302 53.9329 16.0587 54.2213 15.934C54.5175 15.8092 54.8215 15.743 55.1334 15.7352C55.4296 15.7352 55.7102 15.7781 55.9753 15.8638C56.2481 15.9418 56.5053 16.047 56.747 16.1795C56.9887 16.3043 57.2186 16.4446 57.4369 16.6005C57.6552 16.7564 57.8579 16.9123 58.045 17.0682L57.8111 17.3021C57.7565 17.3021 57.6747 17.2709 57.5655 17.2085C57.4564 17.1384 57.2888 17.0214 57.0627 16.8577L56.9926 16.963C57.2732 17.189 57.4759 17.3995 57.6006 17.5944C57.7331 17.7893 57.7994 17.9413 57.7994 18.0504C57.7838 18.1128 57.7448 18.144 57.6825 18.144C57.6201 18.144 57.4954 18.0933 57.3083 17.992C57.1212 17.8906 56.9068 17.7776 56.6652 17.6529C56.4313 17.5281 56.1818 17.4151 55.9168 17.3138C55.6517 17.2124 55.4101 17.1618 55.1918 17.1618C55.0671 17.1618 54.9424 17.1851 54.8176 17.2319C54.6929 17.2787 54.5799 17.3449 54.4785 17.4307C54.3772 17.5087 54.2914 17.6061 54.2213 17.723C54.1589 17.84 54.1277 17.9686 54.1277 18.1089C54.1277 18.335 54.233 18.487 54.4435 18.5649C54.6539 18.6429 54.9307 18.6819 55.2737 18.6819C55.3438 18.6819 55.4179 18.6819 55.4958 18.6819C55.5816 18.6741 55.6595 18.6624 55.7297 18.6468C55.909 18.6468 56.0259 18.6429 56.0805 18.6351C56.1429 18.6195 56.2013 18.6117 56.2559 18.6117C56.5911 18.6117 56.9263 18.6351 57.2615 18.6819C57.5967 18.7286 57.8968 18.83 58.1619 18.9859C58.4269 19.1418 58.6413 19.364 58.805 19.6524C58.9687 19.9408 59.0506 20.3267 59.0506 20.81C59.0506 21.1452 58.9921 21.4804 58.8752 21.8156C58.766 22.143 58.5984 22.4393 58.3724 22.7043C58.1463 22.9616 57.8657 23.1682 57.5305 23.3241C57.1952 23.4878 56.8016 23.5696 56.3494 23.5696C56.0766 23.5696 55.7531 23.515 55.3789 23.4059C55.0125 23.3046 54.6617 23.1837 54.3265 23.0434C53.9991 22.8953 53.7185 22.7433 53.4846 22.5874C53.2585 22.4315 53.1455 22.299 53.1455 22.1898C53.1455 22.1586 53.165 22.1353 53.204 22.1197C53.6795 22.4705 54.1628 22.7589 54.6539 22.985C55.1372 23.1954 55.6323 23.3124 56.139 23.3358C55.8895 23.3202 55.6401 23.2773 55.3906 23.2071C55.1334 23.1292 54.8761 23.0356 54.6189 22.9265C54.3694 22.8096 54.1277 22.6809 53.8939 22.5406C53.6678 22.3925 53.4495 22.2444 53.2391 22.0963L53.4145 21.9443C53.3911 21.9365 53.3482 21.9092 53.2858 21.8624C53.2235 21.8156 53.1611 21.7572 53.0987 21.687C53.0442 21.6169 52.9935 21.5428 52.9467 21.4648C52.9 21.3869 52.8766 21.3128 52.8766 21.2427C52.8766 21.1647 52.8922 21.114 52.9233 21.0907C52.9545 21.0673 52.9896 21.0556 53.0286 21.0556C53.0676 21.0556 53.1494 21.0829 53.2741 21.1374C53.3989 21.192 53.5509 21.2505 53.7302 21.3128ZM56.3144 22.5055C56.0415 22.5055 55.7375 22.451 55.4023 22.3418C55.0749 22.2249 54.7631 22.0768 54.4668 21.8975C54.7085 22.0612 54.9774 22.2093 55.2737 22.3418C55.5699 22.4666 55.9129 22.5289 56.3027 22.5289C56.825 22.5289 57.2381 22.3691 57.5421 22.0495C57.854 21.7299 58.0099 21.3011 58.0099 20.7633V20.6463C57.9709 20.3969 57.8851 20.1942 57.7526 20.0383C57.6279 19.8746 57.433 19.7849 57.168 19.7693C57.3317 19.8005 57.4642 19.8512 57.5655 19.9213C57.6747 19.9915 57.7565 20.0773 57.8111 20.1786C57.8735 20.2721 57.9163 20.3774 57.9397 20.4943C57.9631 20.6112 57.9748 20.7321 57.9748 20.8568C57.9436 21.3713 57.7799 21.7767 57.4837 22.0729C57.1875 22.3613 56.7977 22.5055 56.3144 22.5055ZM57.7994 22.9616C57.9943 22.8368 58.1502 22.6848 58.2671 22.5055C58.3841 22.3262 58.4854 22.1392 58.5711 21.9443C58.4074 22.2717 58.1814 22.5601 57.8929 22.8096C57.6123 23.059 57.2771 23.2149 56.8873 23.2773C57.0354 23.2539 57.1875 23.2227 57.3434 23.1837C57.5071 23.137 57.6591 23.0629 57.7994 22.9616ZM58.9102 20.7633C58.9102 20.6775 58.8947 20.5957 58.8635 20.5177C58.8401 20.4553 58.8206 20.3891 58.805 20.3189L58.8167 20.4709C58.8245 20.5333 58.8284 20.619 58.8284 20.7282C58.8284 20.9387 58.805 21.1413 58.7582 21.3362C58.7115 21.5311 58.653 21.7221 58.5828 21.9092C58.653 21.7377 58.7193 21.5584 58.7816 21.3713C58.8518 21.1764 58.8947 20.9737 58.9102 20.7633ZM58.805 20.2838C58.805 20.2916 58.805 20.3033 58.805 20.3189C58.805 20.3033 58.805 20.2916 58.805 20.2838ZM56.7587 22.2015C56.7509 22.2015 56.7431 22.2015 56.7353 22.2015C56.7431 22.2015 56.7509 22.2015 56.7587 22.2015ZM59.8057 22.412C59.8057 22.3652 59.833 22.3223 59.8875 22.2834C59.9421 22.2444 60.0045 22.2093 60.0746 22.1781C60.1526 22.1469 60.2266 22.1197 60.2968 22.0963C60.3748 22.0729 60.4332 22.0534 60.4722 22.0378C60.8464 22.0846 61.2206 22.1236 61.5947 22.1547C61.9689 22.1859 62.3431 22.2015 62.7173 22.2015C62.8576 22.2015 63.0525 22.2015 63.3019 22.2015C63.5514 22.1937 63.8242 22.1781 64.1205 22.1547C64.4167 22.1314 64.7168 22.0963 65.0208 22.0495C65.3249 21.9949 65.6016 21.9209 65.8511 21.8273C66.1005 21.7338 66.3032 21.6169 66.4591 21.4765C66.615 21.3362 66.693 21.1608 66.693 20.9503C66.693 20.7788 66.654 20.6268 66.576 20.4943C66.5059 20.354 66.4084 20.2332 66.2837 20.1318C66.1668 20.0227 66.0343 19.933 65.8861 19.8629C65.8316 19.8317 65.7731 19.8044 65.7107 19.781C65.7731 19.8122 65.8316 19.8434 65.8861 19.8746C66.0265 19.9525 66.1512 20.05 66.2603 20.1669C66.3773 20.276 66.4708 20.4008 66.541 20.5411C66.6111 20.6736 66.6462 20.8256 66.6462 20.9971C66.6462 21.1842 66.576 21.344 66.4357 21.4765C66.3032 21.6013 66.1278 21.7065 65.9095 21.7923C65.699 21.878 65.4613 21.9443 65.1962 21.991C64.939 22.0378 64.6817 22.0729 64.4245 22.0963C64.1672 22.1197 63.9295 22.1353 63.7112 22.143C63.4929 22.143 63.3214 22.143 63.1967 22.143C62.7991 22.143 62.3977 22.1314 61.9923 22.108C61.5947 22.0768 61.1972 22.0417 60.7996 22.0027C60.9399 21.9638 61.0802 21.9365 61.2206 21.9209C61.3687 21.8975 61.5168 21.8858 61.6649 21.8858C61.9144 21.8858 62.1599 21.8897 62.4016 21.8975C62.6432 21.8975 62.8849 21.8975 63.1265 21.8975C63.415 21.8975 63.6995 21.8936 63.9802 21.8858C64.2608 21.8702 64.5492 21.839 64.8454 21.7923L64.8805 21.9326C64.9975 21.9092 65.1456 21.8741 65.3249 21.8273C65.5042 21.7728 65.6757 21.7065 65.8394 21.6285C66.0109 21.5506 66.1551 21.4532 66.272 21.3362C66.3967 21.2193 66.4591 21.0829 66.4591 20.927C66.4591 20.7009 66.3773 20.5021 66.2135 20.3306C66.0498 20.1591 65.8394 20.0071 65.5821 19.8746C65.3327 19.7343 65.0481 19.6134 64.7285 19.5121C64.4089 19.4107 64.0932 19.3211 63.7814 19.2431C63.4773 19.1652 63.1889 19.095 62.9161 19.0327C62.6432 18.9703 62.425 18.9118 62.2613 18.8573V18.9274C62.425 18.9898 62.6393 19.056 62.9044 19.1262C63.1694 19.1886 63.454 19.2587 63.758 19.3367C64.0698 19.4146 64.3816 19.5043 64.6934 19.6056C65.0053 19.6992 65.2859 19.8122 65.5353 19.9447C65.7926 20.0773 65.9992 20.2293 66.1551 20.4008C66.3188 20.5723 66.4006 20.7672 66.4006 20.9854C66.4006 21.1102 66.3422 21.2193 66.2252 21.3128C66.1083 21.4064 65.968 21.4882 65.8043 21.5584C65.6484 21.6208 65.4886 21.6714 65.3249 21.7104C65.1612 21.7494 65.0364 21.7767 64.9507 21.7923C65.052 21.7689 65.1807 21.7377 65.3366 21.6987C65.5003 21.6519 65.6562 21.5935 65.8043 21.5233C65.9602 21.4532 66.0927 21.3713 66.2019 21.2778C66.311 21.1764 66.3656 21.0595 66.3656 20.927C66.3656 20.7087 66.2798 20.5255 66.1083 20.3774C65.9368 20.2293 65.7107 20.0967 65.4301 19.9798C65.1495 19.8629 64.8299 19.7576 64.4713 19.6641C64.1127 19.5705 63.7424 19.4692 63.3604 19.3601C62.9862 19.2509 62.6198 19.1262 62.2613 18.9859C61.9027 18.8456 61.583 18.6702 61.3024 18.4597C61.0218 18.2492 60.7957 17.9998 60.6242 17.7113C60.4527 17.4229 60.367 17.076 60.367 16.6706C60.367 16.2731 60.4605 15.9379 60.6476 15.665C60.8425 15.3844 61.088 15.1583 61.3843 14.9868C61.6883 14.8075 62.0196 14.6789 62.3782 14.6009C62.7368 14.523 63.0837 14.484 63.4189 14.484C63.91 14.484 64.3894 14.5542 64.8571 14.6945C65.3327 14.8348 65.7809 15.0297 66.2019 15.2792C66.1551 15.2947 66.1278 15.3181 66.12 15.3493C66.1122 15.3727 66.1044 15.4 66.0966 15.4312C66.0966 15.4623 66.0888 15.4896 66.0732 15.513C66.0654 15.5364 66.042 15.5481 66.0031 15.5481C65.9719 15.5481 65.9095 15.5364 65.816 15.513C65.7302 15.4818 65.6367 15.4507 65.5353 15.4195C65.434 15.3805 65.3366 15.3454 65.243 15.3142C65.1495 15.2831 65.0871 15.2597 65.0559 15.2441L65.0208 15.3493C65.091 15.3805 65.1807 15.4273 65.2898 15.4896C65.4067 15.5442 65.5159 15.6144 65.6172 15.7001C65.7263 15.7781 65.816 15.8638 65.8861 15.9574C65.9641 16.0509 66.0031 16.1444 66.0031 16.238C66.0031 16.3393 65.9563 16.39 65.8628 16.39C65.7458 16.39 65.6055 16.3588 65.4418 16.2965C65.2859 16.2341 65.1105 16.1678 64.9156 16.0977C64.7207 16.0197 64.5102 15.9496 64.2842 15.8872C64.0659 15.8248 63.8437 15.7937 63.6177 15.7937C63.4695 15.7937 63.2942 15.8092 63.0915 15.8404C62.8966 15.8638 62.7056 15.9145 62.5185 15.9924C62.3392 16.0626 62.1872 16.1639 62.0625 16.2965C61.9377 16.4212 61.8754 16.581 61.8754 16.7759C61.8754 16.9552 61.9572 17.1072 62.1209 17.2319C62.2924 17.3566 62.5146 17.4697 62.7874 17.571C63.0681 17.6724 63.3838 17.7698 63.7346 17.8633C64.0854 17.9569 64.444 18.0621 64.8104 18.1791C65.1845 18.2882 65.547 18.4168 65.8978 18.5649C66.2486 18.713 66.5604 18.8923 66.8333 19.1028C67.1139 19.3133 67.3361 19.5628 67.4998 19.8512C67.6713 20.1396 67.757 20.4787 67.757 20.8685C67.757 21.2505 67.6791 21.574 67.5232 21.839C67.3673 22.1041 67.1607 22.3262 66.9034 22.5055C66.6462 22.677 66.3539 22.8135 66.0265 22.9148C65.699 23.0083 65.3599 23.0824 65.0092 23.137C64.6662 23.1837 64.3232 23.211 63.9802 23.2188C63.6449 23.2344 63.3409 23.2422 63.0681 23.2422H61.8988C61.8286 23.2422 61.7312 23.2383 61.6064 23.2305C61.4895 23.2305 61.3726 23.2227 61.2556 23.2071C61.1387 23.1993 61.0374 23.1798 60.9516 23.1487C60.8659 23.1175 60.823 23.0785 60.823 23.0317L60.8347 22.9733C61.1543 22.9889 61.47 23.0044 61.7818 23.02C62.0937 23.0278 62.4094 23.0317 62.729 23.0317C63.0252 23.0317 63.3214 23.0317 63.6177 23.0317C63.8827 23.0239 64.1478 23.0083 64.4128 22.985C64.2803 22.9928 64.1478 23.0005 64.0152 23.0083C63.8515 23.0083 63.6917 23.0083 63.5358 23.0083H63.0681C62.3353 23.0083 61.6142 22.985 60.9048 22.9382C60.9204 22.8758 60.9282 22.8329 60.9282 22.8096C60.9282 22.7784 60.9204 22.7472 60.9048 22.716C60.8893 22.716 60.8659 22.7199 60.8347 22.7277C60.8113 22.7277 60.7801 22.7277 60.7411 22.7277C60.6554 22.7277 60.5579 22.7238 60.4488 22.716C60.3475 22.7082 60.2461 22.6926 60.1448 22.6692C60.0512 22.6459 59.9694 22.6147 59.8992 22.5757C59.8369 22.5289 59.8057 22.4744 59.8057 22.412ZM66.9853 22.108C66.8528 22.2249 66.7125 22.3223 66.5643 22.4003C66.4318 22.4705 66.2954 22.5367 66.1551 22.5991C66.2954 22.5523 66.4318 22.4977 66.5643 22.4354C66.7125 22.373 66.8528 22.2639 66.9853 22.108ZM69.6509 26.5865C69.6665 26.1499 69.6782 25.7173 69.686 25.2885C69.6938 24.8676 69.6977 24.4193 69.6977 23.9438C69.6977 23.7411 69.6938 23.5384 69.686 23.3358C69.6782 23.1409 69.6665 22.9499 69.6509 22.7628V24.049C69.6509 24.4778 69.6431 24.9026 69.6275 25.3236C69.6197 25.7523 69.5924 26.1733 69.5456 26.5865C69.5067 26.5163 69.4716 26.4422 69.4404 26.3643C69.4092 26.2941 69.3858 26.2162 69.3703 26.1304C69.3858 25.9199 69.3936 25.7251 69.3936 25.5458C69.4014 25.3743 69.4053 25.1833 69.4053 24.9728L69.5456 24.9026C69.5223 24.7389 69.5067 24.5713 69.4989 24.3998C69.4911 24.2361 69.4872 24.0724 69.4872 23.9087C69.4872 23.7294 69.4872 23.554 69.4872 23.3825C69.495 23.2188 69.4989 23.0473 69.4989 22.868C69.4989 22.6498 69.4911 22.4354 69.4755 22.2249C69.4677 22.0066 69.4443 21.7884 69.4053 21.5701H69.3703C69.3858 21.8975 69.3975 22.221 69.4053 22.5406C69.4209 22.8602 69.4287 23.1798 69.4287 23.4995C69.4287 23.6398 69.4248 23.7801 69.417 23.9204L69.4053 24.2244C69.3897 23.4761 69.3625 22.7433 69.3235 22.0261C69.2923 21.2622 69.2377 20.4787 69.1598 19.6758L69.2065 18.7053C69.1208 18.6975 69.0311 18.6936 68.9376 18.6936H68.6687L68.6336 18.4246C68.6336 18.3856 68.6609 18.3506 68.7154 18.3194C68.77 18.2882 68.8791 18.2726 69.0428 18.2726H69.1598V18.1323C68.9025 18.1011 68.6998 18.0465 68.5517 17.9686C68.4114 17.8906 68.3413 17.8088 68.3413 17.723C68.3413 17.6451 68.4114 17.5788 68.5517 17.5242C68.692 17.4619 68.8713 17.4151 69.0896 17.3839C69.3157 17.3449 69.5612 17.3177 69.8263 17.3021C70.0913 17.2865 70.3486 17.2787 70.598 17.2787C70.8709 17.2787 71.1632 17.2865 71.475 17.3021C71.7946 17.3177 72.1142 17.3566 72.4339 17.419C72.7535 17.4814 73.0614 17.5788 73.3576 17.7113C73.6616 17.8361 73.9345 18.0154 74.1761 18.2492C74.4178 18.4753 74.6166 18.7637 74.7725 19.1145C74.9362 19.4575 75.0414 19.8785 75.0882 20.3774C75.0882 20.7983 74.9947 21.1452 74.8076 21.4181C74.6283 21.6831 74.41 21.8975 74.1528 22.0612C73.8955 22.2249 73.6266 22.3418 73.3459 22.412C73.0731 22.4822 72.847 22.5289 72.6677 22.5523C72.4884 22.5913 72.2819 22.6381 72.048 22.6926C71.8141 22.7394 71.6153 22.7628 71.4516 22.7628C71.2723 22.7628 71.1671 22.7433 71.1359 22.7043C71.1047 22.6653 71.0891 22.6147 71.0891 22.5523C71.4399 22.5367 71.7907 22.5094 72.1415 22.4705C72.4923 22.4237 72.8431 22.3457 73.1939 22.2366C72.8431 22.3223 72.4923 22.3886 72.1415 22.4354C71.7907 22.4744 71.4399 22.5016 71.0891 22.5172C71.0891 22.4705 71.0852 22.4237 71.0775 22.3769C71.0697 22.3223 71.0463 22.2951 71.0073 22.2951C70.9293 22.2951 70.867 22.4198 70.8202 22.6692C70.7812 22.9187 70.75 23.2149 70.7267 23.5579C70.7111 23.9087 70.6994 24.2673 70.6916 24.6337C70.6916 25.0001 70.6916 25.3041 70.6916 25.5458C70.6916 25.6549 70.6955 25.7679 70.7033 25.8849C70.7189 26.0096 70.7267 26.1148 70.7267 26.2006C70.7267 26.2785 70.715 26.3448 70.6916 26.3994C70.6682 26.4539 70.6019 26.4812 70.4928 26.4812V25.0079C70.4772 25.2573 70.4655 25.5029 70.4577 25.7445C70.4577 25.9862 70.4577 26.2318 70.4577 26.4812H70.2472V26.5748C70.2472 26.6449 70.2589 26.6956 70.2823 26.7268C70.1966 26.8749 70.0991 26.9489 69.99 26.9489C69.9042 26.9489 69.838 26.9256 69.7912 26.8788C69.7522 26.832 69.6938 26.7696 69.6158 26.6917L69.6509 26.5865ZM70.7851 21.7104H70.9488C71.2217 21.7104 71.5335 21.6948 71.8843 21.6636C72.2429 21.6324 72.5781 21.574 72.8899 21.4882C73.2017 21.4025 73.4629 21.2817 73.6733 21.1257C73.8916 20.9698 74.0007 20.7672 74.0007 20.5177V20.4242C74.0007 20.3462 73.993 20.2604 73.9774 20.1669C73.9696 20.0734 73.9384 19.9837 73.8838 19.898C73.8916 19.9369 73.9111 20.0149 73.9423 20.1318C73.9735 20.2488 73.9891 20.3462 73.9891 20.4242C73.9891 20.6658 73.9033 20.8646 73.7318 21.0205C73.5681 21.1686 73.3576 21.2894 73.1004 21.383C72.8509 21.4687 72.5742 21.5311 72.2702 21.5701C71.9739 21.6013 71.6894 21.6169 71.4166 21.6169H71.1827C71.1047 21.6169 71.0268 21.613 70.9488 21.6052C71.058 21.5194 71.1983 21.4609 71.3698 21.4298C71.5491 21.3908 71.7362 21.3596 71.9311 21.3362C72.1259 21.3128 72.3169 21.2894 72.504 21.2661C72.6911 21.2427 72.8509 21.2037 72.9834 21.1491L73.0536 21.2894C73.3264 21.1569 73.5174 21.0283 73.6266 20.9036C73.7435 20.771 73.802 20.5918 73.802 20.3657C73.802 20.0071 73.7006 19.6914 73.4979 19.4185C73.3031 19.1457 73.038 18.9625 72.7028 18.869L72.6677 18.9391C72.9562 19.0483 73.2056 19.2275 73.4161 19.477C73.6266 19.7265 73.7318 20.0266 73.7318 20.3774C73.7318 20.5645 73.6889 20.7126 73.6032 20.8217C73.5252 20.9153 73.4005 21.001 73.229 21.079C73.3693 21.0166 73.4746 20.9387 73.5447 20.8451C73.6305 20.736 73.6889 20.6151 73.7201 20.4826C73.7201 20.1552 73.6422 19.8785 73.4862 19.6524C73.3303 19.4263 73.1121 19.247 72.8314 19.1145C72.5508 18.9742 72.2117 18.8768 71.8141 18.8222C71.4244 18.7598 70.9917 18.7286 70.5162 18.7286C70.5785 19.0638 70.6136 19.4302 70.6214 19.8278C70.637 20.2176 70.6643 20.5995 70.7033 20.9737L70.7851 21.7104ZM69.6041 19.9213C69.6197 19.9058 69.6353 19.8395 69.6509 19.7226C69.6665 19.6056 69.6782 19.4809 69.686 19.3484C69.7016 19.2081 69.7133 19.0794 69.721 18.9625C69.7366 18.8378 69.7522 18.7637 69.7678 18.7403L69.6158 18.7286L69.6041 19.9213ZM73.1705 21.1024L73.229 21.079L73.1705 21.1024ZM80.5165 23.4059C80.2203 23.5073 79.9942 23.5618 79.8383 23.5696C79.6824 23.5852 79.546 23.5969 79.429 23.6047C78.9925 23.6047 78.5988 23.5228 78.248 23.3591C77.8972 23.1954 77.5971 22.9733 77.3476 22.6926C77.0982 22.412 76.9033 22.0846 76.763 21.7104C76.6305 21.3284 76.5642 20.9231 76.5642 20.4943C76.5642 20.2449 76.5876 19.9876 76.6344 19.7226C76.6811 19.4497 76.7513 19.1847 76.8448 18.9274C76.9384 18.6624 77.0592 18.4168 77.2073 18.1908C77.3476 17.9647 77.5152 17.762 77.7101 17.5827C77.5075 17.7464 77.336 17.9413 77.1956 18.1674C77.0475 18.3934 76.9228 18.639 76.8215 18.904C76.7201 19.1613 76.6461 19.4302 76.5993 19.7109C76.5525 19.9837 76.5291 20.2488 76.5291 20.506C76.5291 20.8334 76.5798 21.1842 76.6811 21.5584C76.7903 21.9248 76.9618 22.2678 77.1956 22.5874C77.4295 22.8992 77.7296 23.1604 78.096 23.3708C78.4702 23.5813 78.9223 23.6865 79.4524 23.6865C79.7019 23.6865 79.963 23.6515 80.2359 23.5813C79.9396 23.7762 79.6083 23.8736 79.2419 23.8736C78.9457 23.8736 78.6651 23.8269 78.4 23.7333C78.1428 23.6476 77.9011 23.5228 77.6751 23.3591C77.4568 23.2032 77.258 23.0161 77.0787 22.7979C76.8994 22.5796 76.7474 22.3457 76.6227 22.0963L76.7279 22.0027C76.5954 21.7377 76.4979 21.4726 76.4356 21.2076C76.381 20.9425 76.3537 20.6736 76.3537 20.4008C76.3537 20.0032 76.4083 19.6212 76.5174 19.2548C76.6344 18.8884 76.7864 18.5415 76.9735 18.2141L77.2541 17.8283C77.3009 17.7425 77.3671 17.6568 77.4529 17.571C77.5464 17.4853 77.6478 17.4034 77.7569 17.3255C77.866 17.2397 77.9791 17.1657 78.096 17.1033C78.2207 17.0331 78.3377 16.9708 78.4468 16.9162C78.7274 16.7759 79.0081 16.6512 79.2887 16.542C79.5694 16.4251 79.8968 16.3393 80.2709 16.2848L80.2242 16.2497C79.507 16.3198 78.8989 16.4952 78.4 16.7759C77.9011 17.0487 77.4958 17.3839 77.1839 17.7815C76.8721 18.1791 76.6461 18.6156 76.5057 19.0911C76.3654 19.5589 76.2953 20.0188 76.2953 20.4709C76.2953 20.7126 76.3147 20.9581 76.3537 21.2076C76.4005 21.4493 76.4668 21.6909 76.5525 21.9326C76.3576 21.4648 76.2602 20.9698 76.2602 20.4475C76.2602 19.933 76.3459 19.4224 76.5174 18.9157C76.6889 18.409 76.9579 17.9413 77.3243 17.5126C77.792 17.0838 78.3026 16.7564 78.8561 16.5303C79.4095 16.2965 79.9435 16.1795 80.458 16.1795C80.6217 16.1795 80.7893 16.2068 80.9608 16.2614C81.1323 16.3159 81.2882 16.4017 81.4286 16.5186C81.5689 16.6278 81.6819 16.772 81.7677 16.9513C81.8612 17.1306 81.908 17.3488 81.908 17.6061C81.908 17.8166 81.8573 18.0738 81.756 18.3778C81.6546 18.6819 81.5026 18.9781 81.2999 19.2665C81.1051 19.5472 80.8595 19.7888 80.5633 19.9915C80.267 20.1864 79.924 20.2838 79.5343 20.2838H79.1484C78.86 20.2215 78.5949 20.1513 78.3533 20.0734C78.1194 19.9876 77.8972 19.9213 77.6867 19.8746C77.6556 19.9993 77.6361 20.1201 77.6283 20.2371C77.6283 20.3462 77.6283 20.4553 77.6283 20.5645C77.6283 20.7905 77.6517 21.0127 77.6984 21.231C77.753 21.4415 77.8349 21.6363 77.944 21.8156C78.0531 21.9949 78.1896 22.1469 78.3533 22.2717C78.5248 22.3886 78.7313 22.4627 78.973 22.4938C79.1211 22.525 79.2497 22.5445 79.3589 22.5523C79.468 22.5523 79.5577 22.5562 79.6278 22.564C79.7058 22.564 79.7603 22.5757 79.7915 22.5991C79.8305 22.6147 79.85 22.6498 79.85 22.7043C79.772 22.7277 79.6902 22.7433 79.6044 22.7511C79.5265 22.7589 79.4446 22.7628 79.3589 22.7628C79.086 22.7628 78.8405 22.7199 78.6222 22.6342C78.4039 22.5406 78.2168 22.4354 78.0609 22.3184C78.2402 22.4977 78.4546 22.6264 78.7041 22.7043C78.9535 22.7745 79.1991 22.8096 79.4407 22.8096C79.5732 22.8096 79.7097 22.7979 79.85 22.7745C79.8344 22.8213 79.8266 22.8485 79.8266 22.8563C79.8266 22.9031 79.8461 22.9343 79.8851 22.9499C79.9162 22.9421 79.9708 22.9226 80.0488 22.8914C80.1267 22.8524 80.2047 22.8174 80.2826 22.7862C80.3684 22.7472 80.4502 22.716 80.5282 22.6926C80.6061 22.6614 80.6607 22.6459 80.6919 22.6459C80.7309 22.6459 80.766 22.6537 80.7971 22.6692C80.8283 22.677 80.8439 22.7199 80.8439 22.7979C80.8439 22.8758 80.8166 22.9694 80.7621 23.0785C80.7075 23.1876 80.6256 23.2968 80.5165 23.4059ZM78.9028 18.7754L79.1601 18.8222C79.2458 18.8378 79.3238 18.8456 79.394 18.8456C79.4719 18.8456 79.5616 18.8222 79.6629 18.7754C79.772 18.7208 79.8773 18.6468 79.9786 18.5532C80.0877 18.4597 80.1813 18.3428 80.2592 18.2024C80.345 18.0621 80.4074 17.9023 80.4463 17.723L80.4697 17.6529C80.3606 17.6529 80.1969 17.6802 79.9786 17.7347C79.7603 17.7893 79.5343 17.8633 79.3004 17.9569C79.0665 18.0426 78.8483 18.1479 78.6456 18.2726C78.4429 18.3895 78.3026 18.5182 78.2246 18.6585C78.3416 18.6819 78.4546 18.7053 78.5637 18.7286C78.6807 18.7442 78.7937 18.7598 78.9028 18.7754ZM78.365 19.6407C78.3805 19.6251 78.3883 19.6017 78.3883 19.5705C78.3961 19.5394 78.4 19.516 78.4 19.5004L77.8505 19.3016L77.792 19.4653L78.365 19.6407ZM78.0375 22.2951C77.983 22.2327 77.9284 22.1703 77.8738 22.108C77.8271 22.0534 77.7881 21.9988 77.7569 21.9443C77.8271 22.0768 77.9206 22.1937 78.0375 22.2951ZM87.2195 23.4059C86.9233 23.5073 86.6972 23.5618 86.5413 23.5696C86.3854 23.5852 86.249 23.5969 86.1321 23.6047C85.6955 23.6047 85.3018 23.5228 84.951 23.3591C84.6002 23.1954 84.3001 22.9733 84.0507 22.6926C83.8012 22.412 83.6063 22.0846 83.466 21.7104C83.3335 21.3284 83.2672 20.9231 83.2672 20.4943C83.2672 20.2449 83.2906 19.9876 83.3374 19.7226C83.3842 19.4497 83.4543 19.1847 83.5479 18.9274C83.6414 18.6624 83.7622 18.4168 83.9104 18.1908C84.0507 17.9647 84.2183 17.762 84.4132 17.5827C84.2105 17.7464 84.039 17.9413 83.8987 18.1674C83.7505 18.3934 83.6258 18.639 83.5245 18.904C83.4231 19.1613 83.3491 19.4302 83.3023 19.7109C83.2555 19.9837 83.2321 20.2488 83.2321 20.506C83.2321 20.8334 83.2828 21.1842 83.3842 21.5584C83.4933 21.9248 83.6648 22.2678 83.8987 22.5874C84.1325 22.8992 84.4326 23.1604 84.799 23.3708C85.1732 23.5813 85.6253 23.6865 86.1554 23.6865C86.4049 23.6865 86.666 23.6515 86.9389 23.5813C86.6427 23.7762 86.3113 23.8736 85.945 23.8736C85.6487 23.8736 85.3681 23.8269 85.1031 23.7333C84.8458 23.6476 84.6041 23.5228 84.3781 23.3591C84.1598 23.2032 83.961 23.0161 83.7817 22.7979C83.6024 22.5796 83.4504 22.3457 83.3257 22.0963L83.4309 22.0027C83.2984 21.7377 83.201 21.4726 83.1386 21.2076C83.084 20.9425 83.0567 20.6736 83.0567 20.4008C83.0567 20.0032 83.1113 19.6212 83.2205 19.2548C83.3374 18.8884 83.4894 18.5415 83.6765 18.2141L83.9571 17.8283C84.0039 17.7425 84.0702 17.6568 84.1559 17.571C84.2495 17.4853 84.3508 17.4034 84.4599 17.3255C84.5691 17.2397 84.6821 17.1657 84.799 17.1033C84.9238 17.0331 85.0407 16.9708 85.1498 16.9162C85.4305 16.7759 85.7111 16.6512 85.9917 16.542C86.2724 16.4251 86.5998 16.3393 86.974 16.2848L86.9272 16.2497C86.21 16.3198 85.602 16.4952 85.1031 16.7759C84.6041 17.0487 84.1988 17.3839 83.887 17.7815C83.5751 18.1791 83.3491 18.6156 83.2088 19.0911C83.0684 19.5589 82.9983 20.0188 82.9983 20.4709C82.9983 20.7126 83.0178 20.9581 83.0567 21.2076C83.1035 21.4493 83.1698 21.6909 83.2555 21.9326C83.0606 21.4648 82.9632 20.9698 82.9632 20.4475C82.9632 19.933 83.049 19.4224 83.2205 18.9157C83.392 18.409 83.6609 17.9413 84.0273 17.5126C84.495 17.0838 85.0056 16.7564 85.5591 16.5303C86.1126 16.2965 86.6466 16.1795 87.1611 16.1795C87.3248 16.1795 87.4924 16.2068 87.6639 16.2614C87.8354 16.3159 87.9913 16.4017 88.1316 16.5186C88.2719 16.6278 88.3849 16.772 88.4707 16.9513C88.5642 17.1306 88.611 17.3488 88.611 17.6061C88.611 17.8166 88.5603 18.0738 88.459 18.3778C88.3577 18.6819 88.2056 18.9781 88.003 19.2665C87.8081 19.5472 87.5625 19.7888 87.2663 19.9915C86.9701 20.1864 86.6271 20.2838 86.2373 20.2838H85.8514C85.563 20.2215 85.2979 20.1513 85.0563 20.0734C84.8224 19.9876 84.6002 19.9213 84.3898 19.8746C84.3586 19.9993 84.3391 20.1201 84.3313 20.2371C84.3313 20.3462 84.3313 20.4553 84.3313 20.5645C84.3313 20.7905 84.3547 21.0127 84.4015 21.231C84.456 21.4415 84.5379 21.6363 84.647 21.8156C84.7562 21.9949 84.8926 22.1469 85.0563 22.2717C85.2278 22.3886 85.4344 22.4627 85.676 22.4938C85.8241 22.525 85.9528 22.5445 86.0619 22.5523C86.171 22.5523 86.2607 22.5562 86.3308 22.564C86.4088 22.564 86.4634 22.5757 86.4945 22.5991C86.5335 22.6147 86.553 22.6498 86.553 22.7043C86.4751 22.7277 86.3932 22.7433 86.3075 22.7511C86.2295 22.7589 86.1476 22.7628 86.0619 22.7628C85.7891 22.7628 85.5435 22.7199 85.3252 22.6342C85.107 22.5406 84.9199 22.4354 84.764 22.3184C84.9432 22.4977 85.1576 22.6264 85.4071 22.7043C85.6565 22.7745 85.9021 22.8096 86.1437 22.8096C86.2763 22.8096 86.4127 22.7979 86.553 22.7745C86.5374 22.8213 86.5296 22.8485 86.5296 22.8563C86.5296 22.9031 86.5491 22.9343 86.5881 22.9499C86.6193 22.9421 86.6738 22.9226 86.7518 22.8914C86.8297 22.8524 86.9077 22.8174 86.9857 22.7862C87.0714 22.7472 87.1533 22.716 87.2312 22.6926C87.3092 22.6614 87.3637 22.6459 87.3949 22.6459C87.4339 22.6459 87.469 22.6537 87.5002 22.6692C87.5313 22.677 87.5469 22.7199 87.5469 22.7979C87.5469 22.8758 87.5196 22.9694 87.4651 23.0785C87.4105 23.1876 87.3287 23.2968 87.2195 23.4059ZM85.6059 18.7754L85.8631 18.8222C85.9489 18.8378 86.0268 18.8456 86.097 18.8456C86.1749 18.8456 86.2646 18.8222 86.3659 18.7754C86.4751 18.7208 86.5803 18.6468 86.6816 18.5532C86.7908 18.4597 86.8843 18.3428 86.9623 18.2024C87.048 18.0621 87.1104 17.9023 87.1494 17.723L87.1727 17.6529C87.0636 17.6529 86.8999 17.6802 86.6816 17.7347C86.4634 17.7893 86.2373 17.8633 86.0034 17.9569C85.7696 18.0426 85.5513 18.1479 85.3486 18.2726C85.1459 18.3895 85.0056 18.5182 84.9277 18.6585C85.0446 18.6819 85.1576 18.7053 85.2668 18.7286C85.3837 18.7442 85.4967 18.7598 85.6059 18.7754ZM85.068 19.6407C85.0836 19.6251 85.0914 19.6017 85.0914 19.5705C85.0992 19.5394 85.1031 19.516 85.1031 19.5004L84.5535 19.3016L84.495 19.4653L85.068 19.6407ZM84.7406 22.2951C84.686 22.2327 84.6314 22.1703 84.5769 22.108C84.5301 22.0534 84.4911 21.9988 84.4599 21.9443C84.5301 22.0768 84.6236 22.1937 84.7406 22.2951ZM95.8402 14.6594C95.8558 14.8855 95.8675 15.1077 95.8753 15.3259C95.8831 15.5364 95.887 15.7547 95.887 15.9807C95.887 16.4485 95.8714 16.9201 95.8402 17.3956C95.8168 17.8633 95.7857 18.3389 95.7467 18.8222C95.7077 19.3055 95.6687 19.8005 95.6297 20.3072C95.5908 20.8139 95.5557 21.3401 95.5245 21.8858C95.5245 21.9715 95.5206 22.0612 95.5128 22.1547C95.5128 22.2405 95.505 22.3379 95.4894 22.4471V22.5874C95.4894 22.6108 95.4816 22.642 95.466 22.6809C95.4504 22.7199 95.4349 22.7472 95.4193 22.7628C95.3179 22.8797 95.2244 22.9694 95.1386 23.0317C95.0607 23.0863 94.9866 23.1292 94.9165 23.1604C94.8463 23.1837 94.78 23.1954 94.7177 23.1954C94.6553 23.2032 94.593 23.211 94.5306 23.2188H94.6007C94.6241 23.2188 94.667 23.2149 94.7294 23.2071C94.7995 23.1993 94.8736 23.1876 94.9515 23.172C95.0373 23.1487 95.1152 23.1214 95.1854 23.0902C95.2634 23.0512 95.3179 23.0005 95.3491 22.9382L95.4543 22.7277C95.5011 22.642 95.5284 22.5523 95.5362 22.4588C95.5518 22.3574 95.5596 22.26 95.5596 22.1664C95.5674 22.0651 95.5713 21.9677 95.5713 21.8741C95.5713 21.7806 95.5791 21.6909 95.5947 21.6052C95.6181 21.114 95.6492 20.6229 95.6882 20.1318C95.735 19.6407 95.7779 19.1457 95.8168 18.6468C95.8558 18.1479 95.8909 17.6451 95.9221 17.1384C95.9533 16.6239 95.9688 16.1016 95.9688 15.5715C95.9688 15.4078 95.9649 15.2519 95.9572 15.1038C95.9572 14.9478 95.9533 14.7997 95.9455 14.6594C95.9688 14.6906 95.9922 14.7413 96.0156 14.8114C96.0468 14.8738 96.0702 14.9751 96.0858 15.1154C96.1248 15.2012 96.1481 15.2947 96.1559 15.3961C96.1637 15.4974 96.1754 15.6027 96.191 15.7118C96.191 16.2419 96.1715 16.7564 96.1326 17.2553C96.0936 17.7464 96.0546 18.2375 96.0156 18.7286L95.9104 18.7637L95.8051 20.7633C95.8051 21.3245 95.7779 21.7884 95.7233 22.1547C95.6765 22.5133 95.6336 22.7511 95.5947 22.868V22.9031C95.4777 23.02 95.3764 23.1097 95.2906 23.172C95.2127 23.2266 95.1386 23.2695 95.0685 23.3007C94.9983 23.3319 94.9321 23.3474 94.8697 23.3474C94.8151 23.3552 94.7567 23.3591 94.6943 23.3591H93.9459C93.7355 23.3358 93.5094 23.3241 93.2677 23.3241C93.0261 23.3319 92.7727 23.3085 92.5077 23.2539C92.2426 23.1993 91.9698 23.0863 91.6891 22.9148C91.4163 22.7433 91.1396 22.4705 90.8589 22.0963C90.8589 22.1119 90.855 22.1236 90.8472 22.1314C90.8394 22.1392 90.8316 22.1508 90.8238 22.1664C91.0811 22.5172 91.389 22.8057 91.7476 23.0317C92.114 23.2578 92.5077 23.3903 92.9286 23.4293H93.9108C94.0044 23.4449 94.0979 23.4527 94.1915 23.4527C94.2928 23.4605 94.402 23.4644 94.5189 23.4644C94.6358 23.4644 94.7878 23.4488 94.9749 23.4176C95.1698 23.3864 95.353 23.2851 95.5245 23.1136C95.5557 23.0746 95.5752 23.0473 95.583 23.0317C95.5986 23.0083 95.6142 22.9772 95.6297 22.9382L95.6648 22.868C95.7038 22.7979 95.7311 22.7277 95.7467 22.6575C95.7701 22.5796 95.7896 22.5055 95.8051 22.4354C95.8051 22.5211 95.7973 22.5952 95.7818 22.6575C95.774 22.7199 95.7467 22.8135 95.6999 22.9382L95.6648 22.9733L95.5245 23.1837C95.4543 23.2539 95.3764 23.3085 95.2906 23.3474C95.2049 23.3864 95.123 23.4137 95.0451 23.4293C94.9671 23.4527 94.8931 23.4683 94.8229 23.4761C94.7606 23.4839 94.7138 23.4917 94.6826 23.4995H94.2967C94.1954 23.4995 94.1096 23.4956 94.0395 23.4878C93.9771 23.4878 93.9264 23.4839 93.8875 23.4761C93.8563 23.4761 93.829 23.4722 93.8056 23.4644H93.4548C93.3847 23.4644 93.3145 23.4644 93.2443 23.4644C93.1742 23.4722 93.1001 23.4761 93.0222 23.4761C92.6558 23.4761 92.2972 23.3864 91.9464 23.2071C91.6034 23.0356 91.2838 22.7901 90.9876 22.4705C90.6991 22.1508 90.4419 21.7728 90.2158 21.3362C89.9897 20.8997 89.8182 20.4164 89.7013 19.8863C89.7013 19.8005 89.6935 19.7187 89.6779 19.6407C89.6701 19.5628 89.6662 19.4809 89.6662 19.3952C89.6662 19.1067 89.7091 18.8144 89.7948 18.5182C89.8884 18.2141 90.0521 17.9413 90.286 17.6996C90.5198 17.458 90.8355 17.2631 91.2331 17.115C91.6307 16.9591 92.1335 16.8811 92.7415 16.8811C93.0222 16.8811 93.295 16.8889 93.5601 16.9045C93.8251 16.9123 94.094 16.924 94.3669 16.9396C94.3357 16.963 94.3201 16.9903 94.3201 17.0214C94.3201 17.0604 94.3279 17.0955 94.3435 17.1267C94.3591 17.1501 94.3669 17.1773 94.3669 17.2085C94.3669 17.2475 94.3357 17.2826 94.2733 17.3138C94.2188 17.3372 94.0979 17.3488 93.9108 17.3488C93.8485 17.3488 93.7744 17.3488 93.6887 17.3488C93.6107 17.3411 93.5211 17.3333 93.4197 17.3255V17.4307C93.7939 17.4853 94.094 17.5593 94.3201 17.6529C94.554 17.7386 94.6982 17.8166 94.7528 17.8867L94.7761 17.9101L94.8229 17.3956C94.8463 17.1851 94.858 16.9474 94.858 16.6823C94.858 16.4095 94.8502 16.1406 94.8346 15.8755C94.819 15.6105 94.8112 15.4039 94.8112 15.2558C94.8112 15.0687 94.8229 14.9439 94.8463 14.8816C94.8697 14.8192 94.9009 14.788 94.9398 14.788C94.971 14.788 94.9944 14.8543 95.01 14.9868C95.0334 15.1193 95.049 15.2714 95.0568 15.4429C95.0724 15.6066 95.0802 15.7703 95.0802 15.934V16.2731C95.0802 16.4991 95.0763 16.7291 95.0685 16.963C95.0607 17.189 95.049 17.4151 95.0334 17.6412C95.0568 17.3449 95.0763 17.0565 95.0919 16.7759C95.1075 16.4874 95.1152 16.1951 95.1152 15.8989C95.1152 15.7196 95.1113 15.5442 95.1036 15.3727C95.0958 15.1934 95.0841 15.0141 95.0685 14.8348C95.1152 14.8816 95.1503 14.905 95.1737 14.905C95.2049 14.905 95.2283 14.8816 95.2439 14.8348C95.2361 14.7724 95.2283 14.7062 95.2205 14.636C95.2127 14.5737 95.2088 14.5113 95.2088 14.4489V14.2735C95.2478 14.18 95.2984 14.1098 95.3608 14.0631C95.4232 14.0085 95.4777 13.9812 95.5245 13.9812C95.657 13.9812 95.774 14.1254 95.8753 14.4139L95.8402 14.6594ZM93.9459 18.1674C93.6887 18.183 93.3963 18.1985 93.0689 18.2141C92.7493 18.2297 92.4453 18.2726 92.1569 18.3428C91.8684 18.4051 91.619 18.5026 91.4085 18.6351C91.2058 18.7676 91.0928 18.9508 91.0694 19.1847C91.0694 19.4419 91.124 19.7304 91.2331 20.05C91.3422 20.3696 91.4865 20.6736 91.6658 20.962C91.8451 21.2427 92.0477 21.4843 92.2738 21.687C92.5077 21.8897 92.7493 22.0027 92.9988 22.0261H93.6653C93.7043 22.0261 93.7316 22.03 93.7471 22.0378C93.7705 22.0378 93.8017 22.0456 93.8407 22.0612H94.1213C94.2383 22.0846 94.3552 22.0963 94.4721 22.0963C94.4721 21.4415 94.4994 20.771 94.554 20.085C94.6163 19.3913 94.6826 18.713 94.7528 18.0504C94.6514 18.1284 94.3825 18.1674 93.9459 18.1674ZM94.7878 20.5879C94.7878 20.6736 94.78 20.7633 94.7645 20.8568C94.7567 20.9425 94.7528 21.04 94.7528 21.1491C94.8385 20.7126 94.8892 20.2527 94.9048 19.7693C94.9204 19.286 94.9398 18.8222 94.9632 18.3778C94.9243 18.752 94.8931 19.1223 94.8697 19.4887C94.8541 19.8473 94.8268 20.2137 94.7878 20.5879ZM95.8051 21.8507C95.8051 21.765 95.809 21.6792 95.8168 21.5935C95.8246 21.4999 95.8363 21.4025 95.8519 21.3011C95.8441 21.535 95.8402 21.7572 95.8402 21.9677C95.8402 22.1703 95.8285 22.3145 95.8051 22.4003C95.8051 22.3613 95.8051 22.3262 95.8051 22.2951C95.8129 22.2561 95.8168 22.2171 95.8168 22.1781C95.8168 22.1158 95.8129 22.0573 95.8051 22.0027C95.8051 21.9482 95.8051 21.8975 95.8051 21.8507ZM95.9805 19.9564C95.9649 19.9954 95.9533 20.0422 95.9455 20.0967C95.9377 20.1435 95.926 20.1942 95.9104 20.2488L95.9572 19.5355L95.9805 19.9564ZM95.8753 20.8685C95.8753 20.9387 95.8714 21.0088 95.8636 21.079C95.8636 21.1491 95.8597 21.2154 95.8519 21.2778C95.8519 21.1218 95.8558 20.9659 95.8636 20.81C95.8714 20.6463 95.8831 20.4982 95.8987 20.3657L95.8753 20.8685ZM94.7177 21.5935C94.7255 21.5623 94.7294 21.5311 94.7294 21.4999C94.7294 21.4687 94.7372 21.4337 94.7528 21.3947V21.2661C94.745 21.2817 94.7411 21.2972 94.7411 21.3128C94.7411 21.3206 94.7372 21.3284 94.7294 21.3362L94.7177 21.3596V21.5935ZM94.6826 22.1547C94.6904 22.0846 94.6982 22.0144 94.706 21.9443C94.7138 21.8663 94.7177 21.7884 94.7177 21.7104V21.6753L94.6709 22.1314L94.6826 22.1547ZM99.3856 23.3241C99.3077 23.3397 99.2219 23.3474 99.1284 23.3474H98.7893C98.5866 23.3474 98.4424 23.3708 98.3566 23.4176C98.2787 23.4644 98.2319 23.4878 98.2163 23.4878L98.1695 23.2773V23.0668L98.1111 21.9677C98.0955 21.7572 98.0526 21.5311 97.9825 21.2894C97.9123 21.0478 97.8577 20.8022 97.8187 20.5528C97.7954 20.3891 97.7759 20.2332 97.7603 20.085L97.7135 19.629C97.6979 19.4731 97.6784 19.3133 97.655 19.1496C97.6395 18.9859 97.6122 18.8105 97.5732 18.6234C97.5732 18.5766 97.5732 18.5299 97.5732 18.4831C97.581 18.4363 97.5849 18.3895 97.5849 18.3428C97.5849 18.1011 97.5654 17.8633 97.5264 17.6295C97.4874 17.3956 97.4329 17.1657 97.3627 16.9396C97.4173 16.9162 97.468 16.8967 97.5147 16.8811C97.5615 16.8577 97.6044 16.846 97.6433 16.846C97.6823 16.846 97.7252 16.8928 97.772 16.9864C97.8187 17.0721 97.8694 17.2553 97.924 17.5359C97.9396 17.5359 97.963 17.532 97.9941 17.5242C98.0253 17.5087 98.0487 17.5009 98.0643 17.5009C98.0565 17.3683 98.037 17.228 98.0058 17.0799C97.9747 16.924 97.9435 16.7759 97.9123 16.6356C97.8811 16.4952 97.8499 16.3705 97.8187 16.2614C97.7954 16.1444 97.7837 16.0509 97.7837 15.9807C97.7837 15.9652 97.7837 15.9457 97.7837 15.9223C97.7915 15.8989 97.811 15.8872 97.8421 15.8872C97.8811 15.8872 97.9318 15.9301 97.9941 16.0158C98.0565 16.1016 98.1228 16.2107 98.1929 16.3432C98.2631 16.4758 98.3293 16.62 98.3917 16.7759C98.4619 16.924 98.5242 17.0643 98.5788 17.1968C98.7893 16.7993 99.027 16.4991 99.2921 16.2965C99.5649 16.086 99.9196 15.9807 100.356 15.9807C100.676 15.9807 100.937 16.0197 101.14 16.0977C101.342 16.1678 101.498 16.2497 101.607 16.3432C101.724 16.429 101.802 16.5108 101.841 16.5888L101.911 16.7057C101.911 16.7525 101.888 16.7837 101.841 16.7993C101.639 16.6044 101.409 16.4563 101.151 16.3549C100.894 16.2536 100.629 16.2029 100.356 16.2029C100.091 16.2029 99.8923 16.238 99.7598 16.3082C99.6351 16.3705 99.5026 16.4485 99.3622 16.542C99.5104 16.4485 99.6468 16.3744 99.7715 16.3198C99.904 16.2653 100.095 16.238 100.344 16.238C100.617 16.238 100.878 16.2926 101.128 16.4017C101.377 16.503 101.592 16.6356 101.771 16.7993C101.732 16.8149 101.697 16.8343 101.666 16.8577C101.642 16.8733 101.631 16.9006 101.631 16.9396C101.67 16.9396 101.713 16.9669 101.759 17.0214C101.806 17.0682 101.849 17.1267 101.888 17.1968C101.927 17.267 101.958 17.3411 101.982 17.419C102.013 17.4892 102.028 17.5476 102.028 17.5944C102.028 17.7269 101.978 17.7932 101.876 17.7932C101.798 17.7932 101.705 17.7659 101.596 17.7113C101.572 17.7035 101.522 17.6607 101.444 17.5827C101.373 17.5048 101.284 17.4268 101.175 17.3488C101.066 17.2631 100.941 17.1851 100.801 17.115C100.66 17.0448 100.504 17.0097 100.333 17.0097C100.192 17.0097 100.068 17.0409 99.9586 17.1033C99.8573 17.1579 99.7637 17.2358 99.678 17.3372C99.5922 17.4307 99.5143 17.5398 99.4441 17.6646L99.2921 17.9452C99.409 17.7347 99.5376 17.5437 99.678 17.3722C99.8339 17.1696 100.029 17.0682 100.263 17.0682C100.465 17.0682 100.652 17.115 100.824 17.2085C100.995 17.2943 101.136 17.4034 101.245 17.5359C101.112 17.4814 100.956 17.4268 100.777 17.3722C100.598 17.3177 100.426 17.2904 100.263 17.2904C100.177 17.2904 100.103 17.3099 100.04 17.3488C99.9781 17.3878 99.9235 17.4385 99.8767 17.5009C99.8378 17.5554 99.7988 17.6178 99.7598 17.6879C99.7286 17.7581 99.6936 17.8244 99.6546 17.8867L99.5026 17.9101C99.37 18.1362 99.2609 18.4012 99.1752 18.7053C99.0972 19.0015 99.0582 19.3133 99.0582 19.6407C99.0582 19.8356 99.066 20.011 99.0816 20.1669C99.105 20.3228 99.1362 20.4826 99.1752 20.6463L99.3155 21.0088L99.2921 20.6697C99.2765 20.4047 99.2609 20.1708 99.2453 19.9681C99.2297 19.7576 99.2219 19.5277 99.2219 19.2782C99.2375 19.0522 99.2687 18.8378 99.3155 18.6351C99.3545 18.4636 99.4129 18.3038 99.4909 18.1557C99.3973 18.3428 99.335 18.5571 99.3038 18.7988C99.2648 19.0638 99.2453 19.3445 99.2453 19.6407C99.2453 19.8746 99.257 20.0967 99.2804 20.3072C99.3038 20.5177 99.3311 20.7282 99.3622 20.9387C99.4012 21.1491 99.4402 21.3674 99.4792 21.5935C99.5182 21.8117 99.5493 22.0534 99.5727 22.3184L99.6078 22.5406L99.678 23.2071L99.3856 23.3241ZM99.526 18.0972L99.4909 18.1557L99.526 18.0972ZM108.895 16.0743L108.86 16.2848C108.821 16.6667 108.797 17.076 108.79 17.5126C108.782 17.9413 108.751 18.3739 108.696 18.8105C108.758 18.3817 108.809 17.9608 108.848 17.5476C108.887 17.1189 108.926 16.6979 108.965 16.2848C109.004 16.4095 109.035 16.542 109.058 16.6823C109.09 16.8227 109.105 16.9708 109.105 17.1267C109.066 17.5164 109.031 17.8906 109 18.2492C108.969 18.6078 108.926 18.982 108.871 19.3718L108.719 19.4068C108.68 19.7654 108.599 20.1552 108.474 20.5762C108.349 20.9971 108.166 21.3869 107.924 21.7455C107.69 22.1041 107.386 22.4042 107.012 22.6459C106.638 22.8797 106.19 22.9967 105.667 22.9967C105.496 22.9967 105.313 22.985 105.118 22.9616C104.931 22.9304 104.748 22.8875 104.568 22.8329C104.389 22.7706 104.217 22.6926 104.054 22.5991C103.89 22.5055 103.75 22.3886 103.633 22.2483L103.645 22.2717V22.2834L103.633 22.2951L103.598 22.2834C103.645 22.3535 103.695 22.4159 103.75 22.4705C103.609 22.3457 103.481 22.2015 103.364 22.0378C103.169 21.7728 103.013 21.457 102.896 21.0907C102.826 20.8724 102.771 20.6502 102.732 20.4242C102.693 20.1981 102.666 19.9603 102.651 19.7109C102.635 19.4536 102.623 19.1769 102.616 18.8807C102.616 18.5844 102.616 18.257 102.616 17.8984C102.686 17.6178 102.74 17.3372 102.779 17.0565C102.818 16.7759 102.845 16.4952 102.861 16.2146C102.884 16.2146 102.912 16.2107 102.943 16.2029C102.974 16.1951 103.005 16.1912 103.036 16.1912C103.091 16.1912 103.138 16.2224 103.177 16.2848C103.224 16.3471 103.247 16.4797 103.247 16.6823V16.7876C103.247 16.8188 103.243 16.8538 103.235 16.8928H103.376C103.438 16.5654 103.512 16.3159 103.598 16.1444C103.683 15.9729 103.769 15.8872 103.855 15.8872C103.917 15.8872 103.972 15.9768 104.019 16.1561C104.073 16.3276 104.101 16.6005 104.101 16.9747C104.101 17.2475 104.093 17.5242 104.077 17.8049C104.062 18.0855 104.054 18.3739 104.054 18.6702C104.054 19.1301 104.073 19.5472 104.112 19.9213C104.159 20.2955 104.245 20.6151 104.369 20.8802C104.494 21.1452 104.67 21.3518 104.896 21.4999C105.13 21.6402 105.43 21.7104 105.796 21.7104C106.1 21.7104 106.353 21.6169 106.556 21.4298C106.759 21.2427 106.93 20.9932 107.071 20.6814C107.211 20.3696 107.328 20.011 107.421 19.6056C107.523 19.1925 107.616 18.7637 107.702 18.3194C107.718 18.1947 107.729 18.0699 107.737 17.9452C107.745 17.8205 107.749 17.6918 107.749 17.5593V17.1968C107.749 16.9708 107.761 16.7798 107.784 16.6239C107.807 16.468 107.874 16.3783 107.983 16.3549C107.983 16.7525 107.971 17.1462 107.948 17.5359C107.932 17.9101 107.901 18.2843 107.854 18.6585C107.909 18.2921 107.951 17.9257 107.983 17.5593C108.014 17.1773 108.037 16.7876 108.053 16.39C108.1 16.4212 108.139 16.4368 108.17 16.4368C108.201 16.4368 108.232 16.4212 108.263 16.39V15.9691C108.302 15.8287 108.341 15.7313 108.38 15.6767C108.419 15.6144 108.462 15.5832 108.509 15.5832C108.556 15.5832 108.602 15.6066 108.649 15.6533C108.696 15.7001 108.743 15.7586 108.79 15.8287L108.895 16.0743ZM104.065 22.7043C104.253 22.8057 104.444 22.8875 104.638 22.9499C104.841 23.0044 105.028 23.0434 105.2 23.0668C105.379 23.0902 105.523 23.1019 105.632 23.1019C106.178 23.1019 106.642 22.9811 107.024 22.7394C107.406 22.4977 107.718 22.1976 107.959 21.839C108.209 21.4726 108.4 21.0829 108.532 20.6697C108.657 20.2799 108.751 19.9213 108.813 19.5939C108.758 19.9213 108.673 20.2838 108.556 20.6814C108.423 21.1024 108.232 21.496 107.983 21.8624C107.741 22.2288 107.433 22.5367 107.059 22.7862C106.685 23.0356 106.233 23.1604 105.703 23.1604C105.406 23.1604 105.114 23.1214 104.826 23.0434C104.537 22.9655 104.268 22.8446 104.019 22.6809C104.034 22.6887 104.05 22.6965 104.065 22.7043ZM108.544 19.8278C108.567 19.6953 108.587 19.5667 108.602 19.4419C108.618 19.3328 108.634 19.2237 108.649 19.1145C108.602 19.4575 108.524 19.82 108.415 20.202C108.306 20.5995 108.154 20.9776 107.959 21.3362C107.764 21.687 107.519 21.9988 107.223 22.2717C106.942 22.5289 106.615 22.7043 106.24 22.7979C106.568 22.7277 106.86 22.5913 107.117 22.3886C107.382 22.1781 107.608 21.9326 107.796 21.6519C107.983 21.3713 108.135 21.0712 108.252 20.7516C108.376 20.4319 108.474 20.124 108.544 19.8278ZM107.386 20.6463C107.301 20.8178 107.203 20.9815 107.094 21.1374C106.993 21.2933 106.876 21.4337 106.743 21.5584C106.884 21.4415 107.004 21.305 107.106 21.1491C107.215 20.9932 107.308 20.8256 107.386 20.6463ZM104.019 22.6809C103.925 22.6186 103.836 22.5484 103.75 22.4705C103.836 22.5484 103.925 22.6186 104.019 22.6809ZM108.825 19.5121L108.813 19.5939L108.825 19.5121ZM108.661 19.056C108.653 19.0794 108.649 19.0989 108.649 19.1145C108.649 19.0989 108.653 19.0794 108.661 19.056ZM110.395 22.4471C110.395 22.4081 110.406 22.3613 110.43 22.3068C110.453 22.2522 110.465 22.1937 110.465 22.1314C110.488 21.9443 110.504 21.8117 110.512 21.7338C110.519 21.648 110.523 21.574 110.523 21.5116C110.523 21.1842 110.512 20.8334 110.488 20.4592C110.473 20.0773 110.453 19.7109 110.43 19.3601C110.43 19.2509 110.426 19.1223 110.418 18.9742C110.418 18.8261 110.41 18.7092 110.395 18.6234C110.418 18.3506 110.438 18.0816 110.453 17.8166C110.469 17.5515 110.477 17.2826 110.477 17.0097V16.7174C110.477 16.6161 110.473 16.5147 110.465 16.4134C110.488 16.4368 110.512 16.4485 110.535 16.4485C110.566 16.4485 110.597 16.4368 110.629 16.4134C110.668 16.39 110.703 16.3783 110.734 16.3783C110.788 16.3783 110.831 16.4368 110.862 16.5537C110.901 16.6706 110.921 16.9279 110.921 17.3255H111.026C111.065 16.8889 111.124 16.542 111.201 16.2848C111.287 16.0275 111.373 15.8989 111.459 15.8989C111.498 15.8989 111.56 15.9846 111.646 16.1561C111.732 16.3198 111.774 16.581 111.774 16.9396L111.903 16.7291C111.989 16.6278 112.082 16.5225 112.184 16.4134C112.293 16.3043 112.414 16.2068 112.546 16.1211C112.679 16.0353 112.827 15.9652 112.991 15.9106C113.154 15.8482 113.341 15.817 113.552 15.817C113.957 15.817 114.308 15.9106 114.604 16.0977C114.908 16.277 115.162 16.5147 115.364 16.811C115.567 17.0994 115.731 17.4307 115.855 17.8049C115.988 18.1713 116.089 18.5454 116.159 18.9274C116.23 19.3016 116.276 19.6641 116.3 20.0149C116.323 20.3657 116.335 20.6658 116.335 20.9153C116.335 21.1413 116.319 21.2778 116.288 21.3245C116.265 21.3635 116.218 21.3869 116.148 21.3947C116.132 20.7944 116.093 20.1825 116.031 19.5589C115.968 18.9352 115.82 18.3311 115.586 17.7464C115.797 18.3623 115.929 18.9703 115.984 19.5705C116.046 20.163 116.078 20.7594 116.078 21.3596C116.031 21.3362 115.988 21.3245 115.949 21.3245C115.918 21.3245 115.89 21.3362 115.867 21.3596C115.867 21.422 115.871 21.4882 115.879 21.5584C115.887 21.6208 115.89 21.6831 115.89 21.7455C115.898 21.8078 115.902 21.8663 115.902 21.9209C115.855 22.1002 115.809 22.2288 115.762 22.3068C115.715 22.3847 115.672 22.4237 115.633 22.4237C115.586 22.4237 115.547 22.4042 115.516 22.3652C115.485 22.3184 115.454 22.2639 115.423 22.2015C115.399 22.1392 115.372 22.0729 115.341 22.0027C115.317 21.9248 115.282 21.8507 115.236 21.7806C115.251 21.648 115.263 21.5428 115.271 21.4648C115.279 21.3791 115.282 21.3089 115.282 21.2544C115.282 21.0439 115.279 20.7905 115.271 20.4943C115.263 20.1981 115.24 19.8902 115.201 19.5705C115.169 19.2431 115.115 18.9196 115.037 18.6C114.967 18.2726 114.865 17.9842 114.733 17.7347C114.608 17.4775 114.448 17.2709 114.253 17.115C114.059 16.9513 113.825 16.8694 113.552 16.8694C113.365 16.8694 113.197 16.9318 113.049 17.0565C112.909 17.1812 112.784 17.3411 112.675 17.5359C112.573 17.7308 112.484 17.9452 112.406 18.1791C112.328 18.4051 112.266 18.6234 112.219 18.8339C112.289 18.6156 112.359 18.3934 112.429 18.1674C112.507 17.9413 112.597 17.7347 112.698 17.5476C112.807 17.3605 112.932 17.2085 113.072 17.0916C113.213 16.9669 113.376 16.9045 113.564 16.9045C113.805 16.9045 114.012 16.9708 114.183 17.1033C114.363 17.2358 114.511 17.4073 114.628 17.6178C114.752 17.8283 114.85 18.0699 114.92 18.3428C114.998 18.6078 115.056 18.8807 115.095 19.1613C115.134 19.4341 115.158 19.7031 115.165 19.9681C115.181 20.2254 115.189 20.4475 115.189 20.6346C115.189 20.7827 115.185 20.9309 115.177 21.079C115.177 21.2271 115.173 21.3791 115.165 21.535C115.095 21.2388 115.041 20.9309 115.002 20.6112C114.971 20.2838 114.936 19.9642 114.897 19.6524C114.858 19.3328 114.807 19.0288 114.745 18.7403C114.69 18.4441 114.608 18.1713 114.499 17.9218L114.581 17.8049C114.503 17.6256 114.413 17.4892 114.312 17.3956C114.218 17.2943 114.125 17.2202 114.031 17.1734C113.938 17.1267 113.852 17.0994 113.774 17.0916C113.696 17.0838 113.645 17.0799 113.622 17.0799C113.427 17.0799 113.252 17.1501 113.096 17.2904C112.948 17.4307 112.815 17.6217 112.698 17.8633C112.589 18.0972 112.492 18.37 112.406 18.6819C112.32 18.9937 112.246 19.3211 112.184 19.6641C112.121 20.0071 112.067 20.354 112.02 20.7048C111.973 21.0478 111.934 21.3713 111.903 21.6753H112.008C112.047 21.4103 112.086 21.1179 112.125 20.7983C112.172 20.4787 112.219 20.1552 112.266 19.8278C112.32 19.4926 112.383 19.1691 112.453 18.8573C112.523 18.5454 112.605 18.2648 112.698 18.0154C112.8 17.7659 112.916 17.5632 113.049 17.4073C113.174 17.2592 113.326 17.1734 113.505 17.1501C113.334 17.189 113.189 17.2982 113.072 17.4775C112.948 17.6646 112.839 17.8945 112.745 18.1674C112.651 18.4402 112.566 18.7403 112.488 19.0677C112.418 19.3874 112.351 19.6953 112.289 19.9915L112.055 21.6987C112.024 21.8078 112.001 21.9053 111.985 21.991L111.938 22.2366C111.923 22.3145 111.907 22.4003 111.891 22.4938C111.876 22.5796 111.856 22.6809 111.833 22.7979L111.798 22.9382H111.728L110.547 22.5406C110.508 22.5328 110.477 22.5211 110.453 22.5055C110.438 22.4899 110.418 22.4705 110.395 22.4471ZM112.429 16.4485C112.273 16.581 112.149 16.7252 112.055 16.8811C111.969 17.0292 111.887 17.1812 111.81 17.3372V17.3488C111.919 17.1228 112.071 16.8928 112.266 16.6589C112.453 16.4407 112.702 16.277 113.014 16.1678C112.913 16.199 112.815 16.2302 112.722 16.2614C112.612 16.3004 112.515 16.3627 112.429 16.4485ZM113.832 16.0626C113.793 16.0548 113.739 16.0509 113.669 16.0509C113.918 16.1133 114.152 16.1834 114.37 16.2614C114.589 16.3315 114.795 16.4758 114.99 16.694C114.858 16.5147 114.682 16.3744 114.464 16.2731C114.253 16.1717 114.043 16.1016 113.832 16.0626ZM114.148 17.3956C114.086 17.3488 114.012 17.3138 113.926 17.2904C113.848 17.2592 113.751 17.2202 113.634 17.1734L113.622 17.1501C113.754 17.1579 113.871 17.189 113.973 17.2436C114.074 17.2904 114.172 17.3761 114.265 17.5009L114.148 17.3956ZM115.013 16.7174C115.123 16.8499 115.224 17.0019 115.317 17.1734C115.411 17.3449 115.493 17.497 115.563 17.6295C115.485 17.4502 115.411 17.2865 115.341 17.1384C115.271 16.9903 115.162 16.8499 115.013 16.7174ZM118.477 21.3128C118.601 21.3518 118.749 21.422 118.921 21.5233C119.1 21.6247 119.299 21.7299 119.517 21.839C119.736 21.9482 119.973 22.0456 120.231 22.1314C120.496 22.2171 120.776 22.26 121.072 22.26H121.201C121.248 22.26 121.302 22.2522 121.365 22.2366L121.493 22.3301C121.797 22.2366 122.047 22.0612 122.242 21.8039C122.437 21.5389 122.534 21.1842 122.534 20.7399C122.534 20.4203 122.456 20.202 122.3 20.085C122.152 19.9603 121.875 19.898 121.47 19.898C121.221 19.898 120.959 19.9174 120.687 19.9564C120.422 19.9876 120.141 20.0032 119.845 20.0032C119.712 20.0032 119.576 19.9993 119.435 19.9915C119.295 19.9759 119.151 19.9486 119.003 19.9097V19.9798C119.315 20.0578 119.622 20.0967 119.927 20.0967C120.223 20.0967 120.503 20.0812 120.768 20.05C121.041 20.011 121.302 19.9915 121.552 19.9915C121.762 19.9915 121.926 20.0149 122.043 20.0617C122.168 20.1006 122.261 20.1552 122.324 20.2254C122.386 20.2955 122.425 20.3813 122.441 20.4826C122.464 20.5762 122.476 20.6814 122.476 20.7983C122.476 21.1647 122.378 21.4765 122.183 21.7338C121.996 21.9754 121.774 22.1275 121.517 22.1898C121.805 22.0885 122.031 21.9131 122.195 21.6636C122.366 21.3986 122.452 21.1024 122.452 20.7749C122.452 20.5411 122.39 20.3618 122.265 20.2371C122.148 20.1123 121.942 20.05 121.645 20.05C121.404 20.05 121.131 20.0656 120.827 20.0967C120.523 20.1279 120.199 20.1435 119.856 20.1435C119.646 20.1435 119.4 20.1162 119.12 20.0617C118.847 20.0071 118.586 19.9058 118.336 19.7576C118.087 19.6095 117.876 19.4068 117.705 19.1496C117.533 18.8845 117.448 18.5415 117.448 18.1206C117.448 17.7854 117.514 17.4775 117.646 17.1968C117.787 16.9084 117.97 16.6589 118.196 16.4485C118.422 16.2302 118.679 16.0587 118.968 15.934C119.264 15.8092 119.568 15.743 119.88 15.7352C120.176 15.7352 120.457 15.7781 120.722 15.8638C120.994 15.9418 121.252 16.047 121.493 16.1795C121.735 16.3043 121.965 16.4446 122.183 16.6005C122.402 16.7564 122.604 16.9123 122.791 17.0682L122.557 17.3021C122.503 17.3021 122.421 17.2709 122.312 17.2085C122.203 17.1384 122.035 17.0214 121.809 16.8577L121.739 16.963C122.02 17.189 122.222 17.3995 122.347 17.5944C122.48 17.7893 122.546 17.9413 122.546 18.0504C122.53 18.1128 122.491 18.144 122.429 18.144C122.366 18.144 122.242 18.0933 122.055 17.992C121.868 17.8906 121.653 17.7776 121.412 17.6529C121.178 17.5281 120.928 17.4151 120.663 17.3138C120.398 17.2124 120.156 17.1618 119.938 17.1618C119.813 17.1618 119.689 17.1851 119.564 17.2319C119.439 17.2787 119.326 17.3449 119.225 17.4307C119.124 17.5087 119.038 17.6061 118.968 17.723C118.905 17.84 118.874 17.9686 118.874 18.1089C118.874 18.335 118.979 18.487 119.19 18.5649C119.4 18.6429 119.677 18.6819 120.02 18.6819C120.09 18.6819 120.164 18.6819 120.242 18.6819C120.328 18.6741 120.406 18.6624 120.476 18.6468C120.655 18.6468 120.772 18.6429 120.827 18.6351C120.889 18.6195 120.948 18.6117 121.002 18.6117C121.337 18.6117 121.673 18.6351 122.008 18.6819C122.343 18.7286 122.643 18.83 122.908 18.9859C123.173 19.1418 123.388 19.364 123.551 19.6524C123.715 19.9408 123.797 20.3267 123.797 20.81C123.797 21.1452 123.738 21.4804 123.622 21.8156C123.512 22.143 123.345 22.4393 123.119 22.7043C122.893 22.9616 122.612 23.1682 122.277 23.3241C121.942 23.4878 121.548 23.5696 121.096 23.5696C120.823 23.5696 120.499 23.515 120.125 23.4059C119.759 23.3046 119.408 23.1837 119.073 23.0434C118.746 22.8953 118.465 22.7433 118.231 22.5874C118.005 22.4315 117.892 22.299 117.892 22.1898C117.892 22.1586 117.911 22.1353 117.95 22.1197C118.426 22.4705 118.909 22.7589 119.4 22.985C119.884 23.1954 120.379 23.3124 120.885 23.3358C120.636 23.3202 120.386 23.2773 120.137 23.2071C119.88 23.1292 119.622 23.0356 119.365 22.9265C119.116 22.8096 118.874 22.6809 118.64 22.5406C118.414 22.3925 118.196 22.2444 117.985 22.0963L118.161 21.9443C118.137 21.9365 118.095 21.9092 118.032 21.8624C117.97 21.8156 117.907 21.7572 117.845 21.687C117.791 21.6169 117.74 21.5428 117.693 21.4648C117.646 21.3869 117.623 21.3128 117.623 21.2427C117.623 21.1647 117.639 21.114 117.67 21.0907C117.701 21.0673 117.736 21.0556 117.775 21.0556C117.814 21.0556 117.896 21.0829 118.021 21.1374C118.145 21.192 118.297 21.2505 118.477 21.3128ZM121.061 22.5055C120.788 22.5055 120.484 22.451 120.149 22.3418C119.821 22.2249 119.509 22.0768 119.213 21.8975C119.455 22.0612 119.724 22.2093 120.02 22.3418C120.316 22.4666 120.659 22.5289 121.049 22.5289C121.571 22.5289 121.985 22.3691 122.289 22.0495C122.6 21.7299 122.756 21.3011 122.756 20.7633V20.6463C122.717 20.3969 122.632 20.1942 122.499 20.0383C122.374 19.8746 122.179 19.7849 121.914 19.7693C122.078 19.8005 122.211 19.8512 122.312 19.9213C122.421 19.9915 122.503 20.0773 122.557 20.1786C122.62 20.2721 122.663 20.3774 122.686 20.4943C122.709 20.6112 122.721 20.7321 122.721 20.8568C122.69 21.3713 122.526 21.7767 122.23 22.0729C121.934 22.3613 121.544 22.5055 121.061 22.5055ZM122.546 22.9616C122.741 22.8368 122.897 22.6848 123.014 22.5055C123.13 22.3262 123.232 22.1392 123.318 21.9443C123.154 22.2717 122.928 22.5601 122.639 22.8096C122.359 23.059 122.023 23.2149 121.634 23.2773C121.782 23.2539 121.934 23.2227 122.09 23.1837C122.253 23.137 122.405 23.0629 122.546 22.9616ZM123.657 20.7633C123.657 20.6775 123.641 20.5957 123.61 20.5177C123.586 20.4553 123.567 20.3891 123.551 20.3189L123.563 20.4709C123.571 20.5333 123.575 20.619 123.575 20.7282C123.575 20.9387 123.551 21.1413 123.505 21.3362C123.458 21.5311 123.399 21.7221 123.329 21.9092C123.399 21.7377 123.466 21.5584 123.528 21.3713C123.598 21.1764 123.641 20.9737 123.657 20.7633ZM123.551 20.2838C123.551 20.2916 123.551 20.3033 123.551 20.3189C123.551 20.3033 123.551 20.2916 123.551 20.2838ZM121.505 22.2015C121.497 22.2015 121.49 22.2015 121.482 22.2015C121.49 22.2015 121.497 22.2015 121.505 22.2015Z" fill="#CC7722"/>
<path fill-rule="evenodd" clip-rule="evenodd" d="M24.7923 26.3672C22.8345 24.8823 20.1845 22.8724 11.9748 28.4852C7.54628 25.29 6.47449 19.777 8.26003 16.8195C9.59561 16.1034 10.6982 14.8698 11.8035 13.6333C13.9124 11.2739 16.0308 8.90388 19.7954 10.0975C17.6422 13.2714 24.7188 16.6147 24.7188 8.66895C26.0672 11.1459 27.8637 12.747 29.3491 14.0711C30.8298 15.3908 32.0016 16.4352 32.1128 17.7971C32.4469 21.8893 31.1618 25.5494 27.9552 27.119C26.6353 27.7651 25.8067 27.1366 24.7923 26.3672ZM26.5183 28.7588C26.9006 28.8115 27.6659 28.9169 28.554 28.3531C29.5382 27.7284 28.786 30.4206 27.2879 30.7071C26.6769 30.8239 25.7912 28.6849 26.3894 28.7425C26.4256 28.746 26.4687 28.752 26.5183 28.7588ZM27.8674 16.7777C27.8674 17.7315 27.0941 18.5047 26.1403 18.5047C25.1865 18.5047 24.4133 17.7315 24.4133 16.7777C24.4133 15.8239 25.1865 15.0506 26.1403 15.0506C27.0941 15.0506 27.8674 15.8239 27.8674 16.7777ZM24.9346 19.7104C24.9346 20.6642 24.1614 21.4374 23.2076 21.4374C22.2538 21.4374 21.4806 20.6642 21.4806 19.7104C21.4806 18.7566 22.2538 17.9834 23.2076 17.9834C24.1614 17.9834 24.9346 18.7566 24.9346 19.7104ZM26.1403 24.3701C27.0941 24.3701 27.8674 23.5969 27.8674 22.6431C27.8674 21.6893 27.0941 20.916 26.1403 20.916C25.1865 20.916 24.4133 21.6893 24.4133 22.6431C24.4133 23.5969 25.1865 24.3701 26.1403 24.3701ZM30.8001 19.7104C30.8001 20.6642 30.0269 21.4374 29.073 21.4374C28.1192 21.4374 27.346 20.6642 27.346 19.7104C27.346 18.7566 28.1192 17.9834 29.073 17.9834C30.0269 17.9834 30.8001 18.7566 30.8001 19.7104ZM12.9431 18.1789H10.0104V21.1768H12.9431L12.9431 24.1095H15.8758V21.1768L18.8085 21.1768V18.1789L15.8758 18.1789V15.2462H12.9431L12.9431 18.1789Z" fill="#CC7722"/>
</svg>
