<svg width="428" height="143" viewBox="0 0 428 143" fill="none" xmlns="http://www.w3.org/2000/svg">
<g clip-path="url(#clip0_1686_6734)">
<path d="M166.191 80.035H143.021C136.899 80.035 132.346 78.8208 129.361 76.3419C126.376 73.9135 124.909 70.1192 124.909 65.0095V42.0412C124.909 36.9315 126.376 33.1877 129.361 30.7088C132.346 28.2804 136.899 27.0156 143.021 27.0156H161.385C162.296 27.0156 163.004 27.218 163.409 27.6227C163.814 28.0275 164.016 28.7357 164.016 29.6464V38.5504C164.016 39.461 163.814 40.1693 163.409 40.574C163.004 40.9788 162.296 41.1811 161.385 41.1811H146.107C144.589 41.1811 143.476 41.4847 142.717 42.0918C141.958 42.6988 141.604 43.6095 141.604 44.8743V62.4293C141.604 63.6435 141.908 64.5542 142.464 65.1612C143.021 65.7683 143.881 66.0213 144.994 66.0213H152.127V54.5371C152.127 53.6265 152.33 52.9182 152.734 52.5135C153.139 52.1088 153.847 51.9064 154.758 51.9064H166.141C167.051 51.9064 167.76 52.1088 168.164 52.5135C168.569 52.9182 168.772 53.6265 168.772 54.5371V77.4043C168.772 78.3149 168.569 79.0232 168.164 79.4279C167.76 79.8326 167.102 80.035 166.191 80.035Z" fill="white"/>
<path d="M190.981 77.4044C190.981 78.315 190.779 79.0233 190.374 79.4281C189.969 79.8328 189.261 80.0351 188.35 80.0351H177.524C176.613 80.0351 175.905 79.8328 175.5 79.4281C175.095 79.0233 174.893 78.315 174.893 77.4044V57.9775C174.893 56.5103 175.146 54.7902 175.601 52.9184C176.057 50.9959 176.765 48.7699 177.777 46.2403L184.151 29.5453C184.455 28.7358 184.91 28.0782 185.517 27.724C186.124 27.3193 186.934 27.1169 187.895 27.1169H207.676C208.587 27.1169 209.396 27.3193 210.003 27.724C210.61 28.1288 211.066 28.7358 211.369 29.5453L217.744 46.2403C218.705 48.7699 219.464 51.0465 219.919 52.9184C220.374 54.8408 220.627 56.5103 220.627 57.9775V77.4044C220.627 78.315 220.425 79.0233 220.02 79.4281C219.616 79.8328 218.907 80.0351 217.997 80.0351H206.867C205.905 80.0351 205.146 79.8328 204.691 79.4281C204.236 79.0233 203.983 78.315 203.983 77.4044V67.0838H190.981V77.4044ZM195.129 42.5472L191.689 53.7278H203.224L199.784 42.5472C199.581 42.0919 199.379 41.7883 199.177 41.586C198.974 41.3836 198.721 41.2824 198.418 41.2824H196.597C196.293 41.2824 196.04 41.3836 195.838 41.586C195.534 41.7883 195.332 42.0919 195.129 42.5472Z" fill="white"/>
<path d="M241.42 80.0351H230.442C229.531 80.0351 228.823 79.8328 228.418 79.4281C228.013 79.0233 227.811 78.315 227.811 77.4044V29.7477C227.811 28.837 228.013 28.1288 228.418 27.724C228.823 27.3193 229.531 27.1169 230.442 27.1169H242.28C243.039 27.1169 243.697 27.2687 244.253 27.6229C244.759 27.977 245.265 28.5335 245.67 29.2924L252.297 41.2824C252.55 41.7377 252.752 42.0413 252.904 42.2437C253.056 42.446 253.309 42.5472 253.612 42.5472H254.27C254.574 42.5472 254.776 42.446 254.978 42.2437C255.13 42.0413 255.333 41.7377 255.586 41.2824L262.112 29.2924C262.567 28.5335 263.022 27.9264 263.528 27.6229C264.034 27.2687 264.692 27.1169 265.501 27.1169H277.441C278.351 27.1169 279.06 27.3193 279.464 27.724C279.869 28.1288 280.072 28.837 280.072 29.7477V77.4044C280.072 78.315 279.869 79.0233 279.464 79.4281C279.06 79.8328 278.351 80.0351 277.441 80.0351H266.108C265.198 80.0351 264.49 79.8328 264.085 79.4281C263.68 79.0233 263.478 78.315 263.478 77.4044V51.5018L259.127 59.4952C258.672 60.3046 258.166 60.9117 257.559 61.3165C256.951 61.6706 256.193 61.873 255.231 61.873H252.297C251.386 61.873 250.577 61.6706 249.97 61.3165C249.363 60.9623 248.806 60.3552 248.402 59.4952L244.051 51.5018V77.4044C244.051 78.315 243.848 79.0233 243.444 79.4281C243.039 79.8328 242.331 80.0351 241.42 80.0351Z" fill="white"/>
<path d="M325.199 80.0351H291.05C290.14 80.0351 289.431 79.8328 289.027 79.4281C288.622 79.0233 288.419 78.315 288.419 77.4044V29.7477C288.419 28.837 288.622 28.1288 289.027 27.724C289.431 27.3193 290.14 27.1169 291.05 27.1169H325.199C326.11 27.1169 326.818 27.3193 327.223 27.724C327.627 28.1288 327.83 28.837 327.83 29.7477V38.3481C327.83 39.2588 327.627 39.9671 327.223 40.3718C326.818 40.7765 326.11 40.9789 325.199 40.9789H304.912V46.6451H319.229C320.14 46.6451 320.848 46.8474 321.253 47.2522C321.658 47.6569 321.86 48.3652 321.86 49.2758V57.168C321.86 58.0786 321.658 58.7869 321.253 59.1916C320.848 59.5964 320.14 59.7987 319.229 59.7987H304.912V66.1226H325.199C326.11 66.1226 326.818 66.325 327.223 66.7297C327.627 67.1344 327.83 67.8427 327.83 68.7533V77.3538C327.83 78.2645 327.627 78.9727 327.223 79.3775C326.818 79.8328 326.11 80.0351 325.199 80.0351Z" fill="white"/>
<path d="M373.413 70.0181C373.413 71.6876 373.16 73.2053 372.654 74.5713C372.148 75.9372 371.288 77.1008 370.023 78.062C368.758 79.0233 367.038 79.7821 364.863 80.3386C362.687 80.8951 359.854 81.1481 356.515 81.1481C353.126 81.1481 350.343 80.8951 348.117 80.3386C345.891 79.7821 344.171 79.0233 342.906 78.062C341.641 77.1008 340.781 75.9372 340.275 74.5713C339.77 73.2053 339.517 71.6876 339.517 70.0181V51.4006C339.517 49.7311 339.77 48.2134 340.275 46.8474C340.781 45.4814 341.641 44.3178 342.906 43.306C344.171 42.3448 345.891 41.5859 348.117 41.0294C350.343 40.4729 353.126 40.22 356.515 40.22C359.905 40.22 362.687 40.4729 364.863 41.0294C367.038 41.5859 368.809 42.3448 370.023 43.306C371.288 44.2673 372.148 45.4814 372.654 46.8474C373.16 48.2134 373.413 49.7311 373.413 51.4006V70.0181ZM351.911 68.045C351.911 68.7533 352.164 69.3604 352.721 69.8663C353.277 70.3722 354.542 70.6252 356.465 70.6252C358.438 70.6252 359.702 70.3722 360.208 69.8663C360.765 69.3604 361.018 68.7533 361.018 68.045V53.3736C361.018 52.6654 360.765 52.1089 360.208 51.6029C359.652 51.097 358.387 50.8441 356.465 50.8441C354.492 50.8441 353.227 51.097 352.721 51.6029C352.164 52.1089 351.911 52.6654 351.911 53.3736V68.045Z" fill="white"/>
<path d="M389.096 80.3385H380.9C380.192 80.3385 379.686 80.1867 379.382 79.8832C379.079 79.5796 378.927 79.0737 378.927 78.3655V43.0529C378.927 42.3447 379.079 41.8388 379.382 41.5352C379.686 41.2317 380.192 41.0799 380.9 41.0799H386.566C387.274 41.0799 387.831 41.1811 388.337 41.3834C388.843 41.5858 389.298 41.9905 389.804 42.547L400.377 54.6383V43.0023C400.377 42.2941 400.529 41.7882 400.833 41.4846C401.136 41.1811 401.642 41.0293 402.35 41.0293H410.546C411.254 41.0293 411.76 41.1811 412.064 41.4846C412.367 41.7882 412.519 42.2941 412.519 43.0023V78.3149C412.519 79.0231 412.367 79.529 412.064 79.8326C411.76 80.1361 411.254 80.2879 410.546 80.2879H402.35C401.642 80.2879 401.136 80.1361 400.833 79.8326C400.529 79.529 400.377 79.0231 400.377 78.3149V71.5863L391.069 60.3045V78.3149C391.069 79.0231 390.917 79.529 390.613 79.8326C390.31 80.1867 389.804 80.3385 389.096 80.3385Z" fill="white"/>
<path d="M160.93 141.756H142.97C136.848 141.756 132.295 140.542 129.31 138.063C126.326 135.634 124.858 131.84 124.858 126.73V103.863C124.858 98.7535 126.326 94.9592 129.31 92.4802C132.295 90.0013 136.848 88.7871 142.97 88.7871H160.93C161.84 88.7871 162.549 88.9895 162.953 89.3942C163.358 89.7989 163.561 90.5072 163.561 91.4178V100.322C163.561 101.232 163.358 101.941 162.953 102.345C162.549 102.75 161.84 102.953 160.93 102.953H146.157C144.64 102.953 143.526 103.256 142.768 103.863C142.009 104.47 141.655 105.381 141.655 106.646V124.15C141.655 125.364 142.009 126.275 142.768 126.832C143.526 127.388 144.64 127.692 146.157 127.692H160.93C161.84 127.692 162.549 127.894 162.953 128.299C163.358 128.703 163.561 129.412 163.561 130.322V139.125C163.561 140.036 163.358 140.744 162.953 141.149C162.549 141.554 161.891 141.756 160.93 141.756Z" fill="white"/>
<path d="M185.062 139.125C185.062 140.036 184.86 140.744 184.455 141.149C184.05 141.554 183.342 141.756 182.431 141.756H171.605C170.694 141.756 169.986 141.554 169.581 141.149C169.176 140.744 168.974 140.036 168.974 139.125V119.698C168.974 118.231 169.227 116.511 169.682 114.639C170.138 112.717 170.846 110.491 171.858 107.961L178.232 91.2663C178.536 90.4568 178.991 89.7991 179.598 89.445C180.205 89.0402 181.015 88.8379 181.976 88.8379H201.757C202.668 88.8379 203.477 89.0402 204.084 89.445C204.691 89.8497 205.147 90.4568 205.45 91.2663L211.825 107.961C212.786 110.491 213.545 112.767 214 114.639C214.455 116.562 214.708 118.231 214.708 119.698V139.125C214.708 140.036 214.506 140.744 214.101 141.149C213.697 141.554 212.988 141.756 212.078 141.756H200.948C199.986 141.756 199.228 141.554 198.772 141.149C198.317 140.744 198.064 140.036 198.064 139.125V128.805H185.062V139.125ZM189.261 104.268L185.821 115.449H197.356L193.915 104.268C193.713 103.813 193.511 103.509 193.308 103.307C193.106 103.105 192.853 103.003 192.55 103.003H190.728C190.425 103.003 190.172 103.105 189.969 103.307C189.666 103.509 189.463 103.813 189.261 104.268Z" fill="white"/>
<path d="M235.602 141.756H224.574C223.663 141.756 222.955 141.554 222.55 141.149C222.145 140.744 221.943 140.036 221.943 139.125V91.4686C221.943 90.558 222.145 89.8497 222.55 89.445C222.955 89.0402 223.663 88.8379 224.574 88.8379H232.213C233.123 88.8379 233.933 88.9897 234.591 89.2932C235.248 89.5968 235.906 90.1027 236.564 90.8615L250.83 107.202V91.5192C250.83 90.6086 251.033 89.9003 251.437 89.4956C251.842 89.0908 252.55 88.8885 253.461 88.8885H264.49C265.401 88.8885 266.109 89.0908 266.514 89.4956C266.918 89.9003 267.121 90.6086 267.121 91.5192V139.125C267.121 140.036 266.918 140.744 266.514 141.149C266.109 141.554 265.401 141.756 264.49 141.756H253.461C252.55 141.756 251.842 141.554 251.437 141.149C251.033 140.744 250.83 140.036 250.83 139.125V130.07L238.233 114.842V139.125C238.233 140.036 238.031 140.744 237.626 141.149C237.221 141.554 236.513 141.756 235.602 141.756Z" fill="white"/>
<path d="M310.679 141.756H292.719C286.598 141.756 282.045 140.542 279.06 138.063C276.075 135.634 274.608 131.84 274.608 126.73V103.863C274.608 98.7535 276.075 94.9592 279.06 92.4802C282.045 90.0013 286.598 88.7871 292.719 88.7871H310.679C311.59 88.7871 312.298 88.9895 312.703 89.3942C313.108 89.7989 313.31 90.5072 313.31 91.4178V100.322C313.31 101.232 313.108 101.941 312.703 102.345C312.298 102.75 311.59 102.953 310.679 102.953H295.907C294.389 102.953 293.276 103.256 292.517 103.863C291.758 104.47 291.404 105.381 291.404 106.646V124.15C291.404 125.364 291.758 126.275 292.517 126.832C293.276 127.388 294.389 127.692 295.907 127.692H310.679C311.59 127.692 312.298 127.894 312.703 128.299C313.108 128.703 313.31 129.412 313.31 130.322V139.125C313.31 140.036 313.108 140.744 312.703 141.149C312.298 141.554 311.641 141.756 310.679 141.756Z" fill="white"/>
<path d="M356.616 141.756H322.467C321.557 141.756 320.848 141.554 320.444 141.149C320.039 140.744 319.836 140.036 319.836 139.125V91.4686C319.836 90.558 320.039 89.8497 320.444 89.445C320.848 89.0402 321.557 88.8379 322.467 88.8379H356.616C357.527 88.8379 358.235 89.0402 358.64 89.445C359.044 89.8497 359.247 90.558 359.247 91.4686V100.069C359.247 100.98 359.044 101.688 358.64 102.093C358.235 102.497 357.527 102.7 356.616 102.7H336.329V108.366H350.646C351.557 108.366 352.265 108.568 352.67 108.973C353.075 109.378 353.277 110.086 353.277 110.997V118.889C353.277 119.8 353.075 120.508 352.67 120.913C352.265 121.317 351.557 121.52 350.646 121.52H336.329V127.844H356.616C357.527 127.844 358.235 128.046 358.64 128.451C359.044 128.855 359.247 129.564 359.247 130.474V139.075C359.247 139.985 359.044 140.694 358.64 141.098C358.184 141.554 357.527 141.756 356.616 141.756Z" fill="white"/>
<path d="M380.04 141.756H368.707C367.797 141.756 367.089 141.554 366.684 141.149C366.279 140.744 366.077 140.036 366.077 139.125V91.4686C366.077 90.558 366.279 89.8497 366.684 89.445C367.089 89.0402 367.797 88.8379 368.707 88.8379H393.193C398.708 88.8379 402.452 90.0015 404.576 92.2781C406.651 94.5547 407.713 97.4889 407.713 101.132V104.521C407.713 106.595 407.41 108.315 406.802 109.783C406.195 111.25 405.133 112.262 403.615 112.919C406.246 113.223 408.421 114.285 410.04 116.157C411.659 118.029 412.519 120.508 412.519 123.594V139.125C412.519 140.036 412.317 140.744 411.912 141.149C411.507 141.554 410.799 141.756 409.888 141.756H398.505C397.595 141.756 396.887 141.554 396.482 141.149C396.077 140.744 395.875 140.036 395.875 139.125V127.894C395.875 126.832 395.672 126.022 395.268 125.516C394.863 125.01 394.104 124.757 393.092 124.757H382.772V139.125C382.772 140.036 382.569 140.744 382.165 141.149C381.659 141.554 381.001 141.756 380.04 141.756ZM382.721 102.042V111.452H388.236C389.5 111.452 390.36 111.098 390.816 110.44C391.271 109.783 391.473 108.973 391.473 107.961V105.482C391.473 104.521 391.271 103.661 390.816 103.003C390.36 102.346 389.5 101.992 388.236 101.992H382.721V102.042Z" fill="white"/>
<path d="M47.3027 61.5691C46.1897 63.188 44.8237 64.6552 43.1036 65.8694C35.1609 71.5861 24.0814 69.866 18.314 61.9738C12.5467 54.0816 14.3173 43.1034 22.2601 37.336C27.1675 33.7946 33.3396 33.0864 38.6516 35.0088C37.4374 37.4878 36.6786 40.2197 36.5774 43.2046C33.5925 41.8386 30.0006 42.0916 27.1675 44.1152C23.019 47.1001 22.0578 52.918 25.0932 57.0665C28.1287 61.215 33.9467 62.1256 38.1457 59.1407C39.2587 58.3313 40.1188 57.3195 40.7765 56.1559C42.5471 58.3819 44.7731 60.2032 47.3027 61.5691Z" fill="white"/>
<path d="M35.5656 71.4345C35.6161 73.357 35.3632 75.3806 34.7055 77.3537C31.6701 86.6118 21.653 91.6709 12.3443 88.686C3.03554 85.7012 -2.07416 75.7347 0.961303 66.4766C2.83317 60.7092 7.43695 56.6113 12.8502 54.9924C13.3055 57.7243 14.3679 60.3551 16.0374 62.7834C12.8502 63.4411 10.0677 65.7177 8.95469 69.0061C7.38637 73.8629 10.0677 79.1243 14.9244 80.6927C19.8318 82.261 25.0932 79.6303 26.6615 74.7229C27.0663 73.4076 27.218 72.0922 27.0663 70.7768C29.8488 71.6369 32.7325 71.8392 35.5656 71.4345Z" fill="white"/>
<path d="M31.8726 86.2577C33.0868 87.826 34.048 89.5461 34.7057 91.5191C37.7411 100.777 32.6315 110.744 23.3227 113.729C14.014 116.764 3.99693 111.654 0.96147 102.396C-0.910398 96.6288 0.354381 90.6085 3.79457 86.1565C5.76762 88.079 8.19599 89.6473 10.9785 90.6085C8.7525 92.9863 7.89245 96.4771 8.95486 99.7655C10.5232 104.622 15.7846 107.304 20.692 105.735C25.5993 104.167 28.2806 98.9054 26.7123 94.0487C26.257 92.7333 25.5993 91.6203 24.6887 90.6591C27.37 89.7485 29.8489 88.2307 31.8726 86.2577Z" fill="white"/>
<path d="M37.6903 100.423C39.5622 100.98 41.3834 101.84 43.1035 103.054C51.0463 108.771 52.7664 119.799 47.0496 127.692C41.2823 135.584 30.2028 137.304 22.26 131.587C17.3527 128.046 14.7726 122.43 14.9749 116.815C17.7574 117.219 20.5905 117.068 23.4236 116.258C23.0189 119.496 24.3848 122.784 27.2179 124.859C31.3664 127.843 37.235 126.933 40.2704 122.784C43.3059 118.636 42.3953 112.868 38.1962 109.833C37.0832 109.024 35.8184 108.518 34.5536 108.265C36.122 105.887 37.235 103.206 37.6903 100.423Z" fill="white"/>
<path d="M50.7934 108.467C52.6653 107.809 54.6384 107.455 56.7126 107.455C66.5273 107.455 74.47 115.348 74.47 125.061C74.47 134.774 66.5273 142.667 56.7126 142.667C50.6417 142.667 45.279 139.631 42.0918 134.977C44.5708 133.712 46.7462 131.891 48.618 129.564C50.2369 132.397 53.2724 134.319 56.7632 134.319C61.9235 134.319 66.0719 130.171 66.0719 125.061C66.0719 119.951 61.8729 115.803 56.7632 115.803C55.3466 115.803 54.0819 116.106 52.8677 116.663C52.7159 113.83 52.0582 110.997 50.7934 108.467Z" fill="white"/>
<path d="M66.1226 107.304C67.2356 105.685 68.6521 104.218 70.3216 103.003C78.2644 97.2865 89.3438 99.0066 95.1112 106.899C100.879 114.791 99.1079 125.82 91.1651 131.537C86.2578 135.078 80.0857 135.736 74.7736 133.864C75.9878 131.385 76.7467 128.653 76.8479 125.719C79.8327 127.085 83.4247 126.832 86.2578 124.808C90.4062 121.773 91.3675 116.005 88.332 111.857C85.2965 107.708 79.4786 106.798 75.3301 109.833C74.2171 110.643 73.3571 111.654 72.6994 112.767C70.8781 110.541 68.6521 108.67 66.1226 107.304Z" fill="white"/>
<path d="M77.8598 97.4382C77.8092 95.4651 78.0621 93.4921 78.7198 91.519C81.7553 82.2609 91.7723 77.2018 101.081 80.1866C110.39 83.1715 115.499 93.1379 112.464 102.396C110.592 108.163 105.988 112.312 100.575 113.88C100.12 111.148 99.0574 108.518 97.3879 106.089C100.626 105.432 103.358 103.155 104.471 99.8665C106.039 95.0098 103.358 89.7989 98.5009 88.18C93.5936 86.6117 88.3321 89.2424 86.7638 94.0992C86.3085 95.4145 86.2073 96.7299 86.3591 98.0453C83.5766 97.2864 80.6929 97.0334 77.8598 97.4382Z" fill="white"/>
<path d="M81.5024 82.6151C80.2882 81.0467 79.327 79.2761 78.6693 77.3536C75.6339 68.0955 80.7435 58.1796 90.0523 55.1442C99.361 52.1593 109.378 57.2184 112.414 66.4765C114.285 72.2439 113.021 78.2642 109.58 82.7163C107.607 80.7938 105.179 79.2255 102.397 78.2643C104.623 75.8865 105.483 72.3957 104.42 69.1073C102.852 64.2505 97.5904 61.5692 92.683 63.1375C87.7757 64.7059 85.0944 69.9673 86.7133 74.8241C87.118 76.1394 87.8263 77.2524 88.7369 78.2137C86.0556 79.1243 83.5766 80.642 81.5024 82.6151Z" fill="white"/>
<path d="M75.735 68.5002C73.8631 67.9436 72.0418 67.0836 70.3217 65.8694C62.3789 60.1526 60.6588 49.1238 66.3756 41.2316C72.143 33.3394 83.2224 31.6193 91.1652 37.3361C96.0726 40.8775 98.6021 46.4931 98.4503 52.1087C95.7184 51.7039 92.8347 51.8557 90.0016 52.6652C90.4064 49.4273 89.0404 46.1389 86.2073 44.0647C82.0589 41.0292 76.1903 41.9905 73.1548 46.1389C70.1193 50.2874 71.03 56.0548 75.2291 59.0902C76.3421 59.8997 77.6068 60.4056 78.8716 60.6585C77.3033 62.9857 76.1903 65.6671 75.735 68.5002Z" fill="white"/>
<path d="M62.6317 60.4561C60.7598 61.1138 58.7868 61.4679 56.7125 61.4679C46.8979 61.4679 38.9551 53.5758 38.9551 43.8623C38.9551 34.1488 46.8979 26.2566 56.7125 26.2566C62.7834 26.2566 68.1461 29.2921 71.3333 33.9464C68.8544 35.2112 66.6284 37.0325 64.8577 39.3597C63.2388 36.5266 60.2033 34.6041 56.7125 34.6041C51.5522 34.6041 47.3532 38.7526 47.3532 43.8623C47.3532 48.972 51.5522 53.1204 56.7125 53.1204C58.0785 53.1204 59.3938 52.8169 60.608 52.2604C60.7092 55.0935 61.3669 57.876 62.6317 60.4561Z" fill="white"/>
<path d="M419.905 104.319C423.677 104.319 426.735 101.261 426.735 97.489C426.735 93.717 423.677 90.6592 419.905 90.6592C416.133 90.6592 413.076 93.717 413.076 97.489C413.076 101.261 416.133 104.319 419.905 104.319Z" stroke="white" stroke-width="2.52955" stroke-miterlimit="10"/>
<path d="M418.894 100.626H417.477C417.376 100.626 417.275 100.575 417.224 100.524C417.174 100.474 417.123 100.373 417.123 100.271V94.2511C417.123 94.1499 417.174 94.0487 417.224 93.9981C417.275 93.9476 417.376 93.897 417.477 93.897H420.563C421.272 93.897 421.727 94.0487 421.98 94.3523C422.233 94.6558 422.385 95.01 422.385 95.4653V95.87C422.385 96.123 422.334 96.3759 422.283 96.5277C422.182 96.7301 422.081 96.8313 421.879 96.9324C422.233 96.983 422.486 97.0842 422.688 97.3372C422.89 97.5901 422.992 97.8937 422.992 98.2984V100.271C422.992 100.373 422.941 100.474 422.89 100.524C422.84 100.575 422.739 100.626 422.637 100.626H421.17C421.069 100.626 420.968 100.575 420.917 100.524C420.867 100.474 420.816 100.373 420.816 100.271V98.8549C420.816 98.7031 420.766 98.6019 420.715 98.5513C420.664 98.5007 420.563 98.4502 420.462 98.4502H419.147V100.271C419.147 100.373 419.096 100.474 419.046 100.524C419.096 100.626 418.995 100.626 418.894 100.626ZM419.248 95.6171V96.8312H419.956C420.108 96.8312 420.209 96.7807 420.26 96.7301C420.31 96.6289 420.361 96.5277 420.361 96.4265V96.123C420.361 96.0218 420.31 95.87 420.26 95.8194C420.209 95.7182 420.108 95.7183 419.956 95.7183H419.248V95.6171Z" fill="white"/>
<path d="M189.362 9.30874C189.362 2.88368 191.892 0 197.002 0C200.239 0 202.465 1.31537 203.427 5.31206L199.329 6.52624C198.873 4.90733 198.165 4.30024 197.002 4.30024C195.332 4.30024 194.371 5.46382 194.371 9.5111C194.371 13.4572 195.332 14.6714 197.002 14.6714C198.216 14.6714 199.025 13.8114 199.43 12.1924L203.578 13.609C202.617 17.0998 200.442 18.7693 196.85 18.7693C191.639 18.6681 189.362 15.5314 189.362 9.30874Z" fill="white"/>
<path d="M210.206 12.0914H212.887L211.572 5.71694L210.206 12.0914ZM213.747 15.734H209.396L208.84 18.2129H203.983L208.789 0.303711H214.607L219.363 18.2129H214.354L213.747 15.734Z" fill="white"/>
<path d="M225.332 9.56156L225.434 18.2632H220.88V0.354004H224.574L230.493 9.86511L230.392 0.354004H234.894V18.2632H230.746L225.332 9.56156Z" fill="white"/>
<path d="M236.968 9.30874C236.968 2.88368 239.498 0 244.607 0C247.845 0 250.071 1.31537 250.982 5.31206L246.884 6.52624C246.429 4.90733 245.771 4.30024 244.557 4.30024C242.887 4.30024 241.926 5.46382 241.926 9.5111C241.926 13.4572 242.887 14.6714 244.557 14.6714C245.771 14.6714 246.581 13.8114 246.985 12.1924L251.134 13.609C250.173 17.0998 247.997 18.7693 244.355 18.7693C239.245 18.6681 236.968 15.5314 236.968 9.30874Z" fill="white"/>
<path d="M252.702 0.354004H264.54V4.2495H257.407V7.23437H263.427V11.2311H257.407V14.3677H264.591V18.2632H252.702V0.354004Z" fill="white"/>
<path d="M271.572 4.40129V8.7521H273.343C274.507 8.7521 275.215 7.99324 275.215 6.57669C275.215 5.21074 274.608 4.40129 273.292 4.40129H271.572ZM271.572 18.2632H266.766V0.354004H274.355C278.25 0.354004 280.021 2.88355 280.021 6.5261C280.021 8.80269 279.211 10.4722 277.795 11.484L280.072 18.2126H274.861L273.191 12.6982H271.522V18.2632H271.572Z" fill="white"/>
<path d="M124.909 9.30874C124.909 2.88368 127.439 0 132.548 0C135.786 0 138.012 1.31537 138.973 5.31206L134.876 6.52624C134.42 4.90733 133.763 4.30024 132.548 4.30024C130.879 4.30024 129.918 5.46382 129.918 9.5111C129.918 13.4572 130.879 14.6714 132.548 14.6714C133.763 14.6714 134.572 13.8114 134.977 12.1924L139.125 13.609C138.164 17.0998 135.989 18.7693 132.346 18.7693C127.186 18.6681 124.909 15.5314 124.909 9.30874Z" fill="white"/>
<path d="M149.851 0.354004H154.758V11.8382C154.758 16.4419 152.228 18.6679 147.827 18.6679C143.375 18.6679 140.896 16.3913 140.896 11.8382V0.354004H145.803V12.0405C145.803 13.5582 146.562 14.3171 147.878 14.3171C149.193 14.3171 149.952 13.5582 149.952 12.0405V0.354004H149.851Z" fill="white"/>
<path d="M161.79 4.40129V8.7521H163.561C164.724 8.7521 165.433 7.99324 165.433 6.57669C165.433 5.21074 164.826 4.40129 163.51 4.40129H161.79ZM161.79 18.2632H156.984V0.354004H164.573C168.468 0.354004 170.239 2.88355 170.239 6.5261C170.239 8.85328 169.429 10.4722 168.013 11.5346L170.289 18.2632H165.078L163.409 12.7488H161.739V18.2632H161.79Z" fill="white"/>
<path d="M172.11 0.354004H183.898V4.2495H176.815V7.23437H182.836V11.1805H176.815V14.3677H183.999V18.2632H172.11V0.354004Z" fill="white"/>
</g>
<defs>
<clipPath id="clip0_1686_6734">
<rect width="428" height="142.667" fill="white"/>
</clipPath>
</defs>
</svg>
