<svg width="30" height="37" viewBox="0 0 30 37" fill="none" xmlns="http://www.w3.org/2000/svg">
<path d="M19.6154 6.93777C21.5272 6.93777 23.0769 5.38472 23.0769 3.46889C23.0769 1.55305 21.5272 0 19.6154 0C17.7036 0 16.1538 1.55305 16.1538 3.46889C16.1538 5.38472 17.7036 6.93777 19.6154 6.93777ZM8.1988 22.9431L7.13149 25.4378H2.30769C1.03341 25.4378 0 26.4734 0 27.7504C0 29.0273 1.03341 30.063 2.30769 30.063H7.89303C9.28125 30.063 10.531 29.2362 11.074 27.9607L11.7079 26.4777L10.9385 26.0224C9.68942 25.2831 8.77067 24.189 8.1988 22.9431ZM27.6923 16.1874H24.5171L22.6377 12.3391C21.7363 10.4927 20.0812 9.14268 18.1825 8.65776L13.0565 7.13001C11.0156 6.63858 8.89038 7.09026 7.22668 8.36869L4.36587 10.5664C3.35409 11.3433 3.16226 12.7944 3.93894 13.8083C4.71562 14.8223 6.16298 15.0123 7.17404 14.2362L10.0363 12.0385C10.5894 11.6128 11.294 11.4603 11.8587 11.5948L12.9187 11.9106L10.2173 18.2261C9.30721 20.3566 10.1228 22.852 12.1139 24.03L18.2423 27.6557L16.2613 33.9958C15.8805 35.2142 16.5577 36.5115 17.7736 36.893C18.0036 36.9653 18.2358 37 18.4644 37C19.4459 37 20.356 36.3662 20.6654 35.3776L22.9471 28.0741C23.3733 26.5731 22.7387 24.9608 21.3865 24.1434L16.9702 21.5317L19.2281 15.8745L20.6899 18.8686C21.2668 20.0494 22.487 20.8119 23.7988 20.8119H27.6923C28.9666 20.8119 30 19.7763 30 18.4993C30 17.2223 28.9666 16.1874 27.6923 16.1874Z" fill="#000"/>
</svg>
