<svg width="823" height="156" viewBox="0 0 823 156" fill="none" xmlns="http://www.w3.org/2000/svg">
<path d="M139.166 83.2872L138.885 83.147C137.577 82.8043 136.191 82.5863 134.727 82.4928C133.263 82.3994 131.768 82.1969 130.241 81.8854C131.736 82.1969 133.2 82.4461 134.633 82.633C136.066 82.7887 137.484 83.1002 138.885 83.5675C138.449 83.8479 137.982 83.988 137.484 83.988C136.892 83.9257 136.3 83.8323 135.708 83.7077C135.147 83.5831 134.54 83.4896 133.886 83.4273C133.886 83.2404 133.933 83.1002 134.026 83.0068C133.123 83.0068 132.219 82.9133 131.316 82.7264C130.444 82.5395 129.587 82.3371 128.746 82.119C127.905 81.8698 127.079 81.6518 126.27 81.4649C125.491 81.2468 124.759 81.1378 124.073 81.1378C124.073 81.2312 124.058 81.278 124.027 81.278C124.837 81.4337 125.6 81.6518 126.316 81.9321C127.033 82.2125 127.843 82.4305 128.746 82.5863C129.618 82.8043 130.459 82.9601 131.269 83.0535C132.11 83.147 132.936 83.2716 133.746 83.4273C132.437 83.3027 131.098 83.1158 129.727 82.8666C128.388 82.6174 127.064 82.3371 125.756 82.0256L123.559 81.4649C122.781 83.4585 121.986 85.4209 121.176 87.3523C120.398 89.2524 119.635 91.1837 118.887 93.1462C118.825 93.0216 118.716 92.9437 118.56 92.9126C118.435 92.9126 118.295 92.9126 118.139 92.9126C118.015 92.9126 117.89 92.8659 117.766 92.7724C117.641 92.7101 117.579 92.5544 117.579 92.3052C117.579 92.056 117.641 91.6977 117.766 91.2305C117.89 90.7944 118.124 90.2025 118.466 89.4549C118.404 89.3926 118.295 89.3615 118.139 89.3615C118.015 89.3303 117.921 89.3147 117.859 89.3147C117.236 90.623 116.629 91.6199 116.037 92.3052C115.476 93.0216 115.024 93.3798 114.682 93.3798C114.308 93.3798 114.121 93.0216 114.121 92.3052C114.121 91.7133 114.23 90.9657 114.448 90.0623C114.666 89.1278 114.931 88.131 115.242 87.0719C115.585 86.0128 115.959 84.9225 116.364 83.8011C116.769 82.6486 117.158 81.5272 117.532 80.4369C117.189 80.2188 116.815 80.0631 116.41 79.9696C116.037 79.8762 115.616 79.7983 115.149 79.736C115.242 79.6114 115.289 79.4557 115.289 79.2688C115.289 79.0819 115.305 78.895 115.336 78.7081C115.367 78.5212 115.429 78.3654 115.523 78.2408C115.616 78.1162 115.787 78.0539 116.037 78.0539C116.099 78.0539 116.286 78.0851 116.597 78.1474V77.7268C116.099 77.4776 115.71 77.1817 115.429 76.839C115.18 76.4964 115.055 76.1537 115.055 75.8111C115.055 75.0635 115.772 74.6897 117.205 74.6897C117.61 74.6897 118.015 74.7208 118.42 74.7831C118.856 74.8143 119.292 74.861 119.728 74.9233L121.877 70.0171C122.345 68.958 122.843 67.8678 123.373 66.7463C123.933 65.6249 124.587 64.5191 125.335 63.4288C126.083 62.3386 126.924 61.3106 127.858 60.345C128.824 59.3482 129.93 58.4604 131.176 57.6816L131.877 57.4013C132.749 57.6193 133.45 57.8062 133.979 57.962C134.54 58.0866 134.992 58.18 135.334 58.2423C135.646 58.3669 135.895 58.4448 136.082 58.4759H136.035L136.082 58.6161C136.082 58.6473 136.066 58.6784 136.035 58.7096L136.596 59.6908C138.621 63.0862 140.334 66.6062 141.736 70.2508C143.137 73.8953 144.337 77.4776 145.334 80.9976C145.583 81.7764 145.879 82.6174 146.221 83.5208C146.595 84.393 146.938 85.234 147.249 86.044C147.592 86.8227 147.872 87.5392 148.09 88.1933C148.308 88.8163 148.417 89.268 148.417 89.5484C148.417 89.7664 148.371 89.9066 148.277 89.9689C148.184 90 148.059 90.0156 147.903 90.0156C147.094 87.9908 146.33 85.9972 145.614 84.0348C144.897 82.1034 144.197 80.1565 143.511 78.1941C144.134 80.1565 144.788 82.1034 145.474 84.0348C146.19 85.9972 146.907 87.9908 147.623 90.0156H147.296C147.109 90.0156 146.984 90.1091 146.922 90.296C146.984 90.3583 147.062 90.5296 147.156 90.8099C147.249 91.0591 147.343 91.3239 147.436 91.6043C147.53 91.9158 147.608 92.2273 147.67 92.5388C147.732 92.8503 147.763 93.0839 147.763 93.2397C147.763 93.925 147.561 94.2676 147.156 94.2676C146.938 94.2676 146.766 94.2209 146.642 94.1275C146.517 94.034 146.377 93.9094 146.221 93.7536L145.754 93.2864C145.567 93.0995 145.334 92.9126 145.053 92.7257L140.568 79.8295C141.222 81.8542 141.86 83.879 142.483 85.9038C143.137 87.9285 143.807 89.9222 144.492 91.8846C143.994 91.2928 143.527 90.5763 143.091 89.7353C142.686 88.8942 142.296 88.0064 141.923 87.0719C141.58 86.1374 141.253 85.1873 140.941 84.2217C140.63 83.2248 140.318 82.2903 140.007 81.4181C140.007 81.4804 140.007 81.5427 140.007 81.605C140.038 81.6362 140.054 81.6829 140.054 81.7452C140.054 82.2436 139.898 82.6174 139.586 82.8666L139.166 83.2872ZM138.885 78.4277C138.948 78.4277 139.041 78.4121 139.166 78.381C139.29 78.3187 139.384 78.2875 139.446 78.2875C138.418 75.7021 137.39 73.1945 136.362 70.7647C135.365 68.335 134.26 65.9987 133.045 63.7559L132.764 64.0363L133.465 65.2979C134.556 67.2915 135.537 69.3474 136.409 71.4656C137.281 73.5838 138.107 75.7644 138.885 78.0072C137.982 75.5775 137.001 73.1633 135.942 70.7647C134.914 68.335 133.808 66.1389 132.624 64.1764L132.437 64.2699C131.378 65.3602 130.381 66.6685 129.447 68.1948C128.544 69.7212 127.687 71.2787 126.877 72.8674L125.662 75.8111L126.456 75.998C126.924 76.1226 127.375 76.2628 127.811 76.4185C128.279 76.5431 128.684 76.6833 129.026 76.839C129.712 77.1817 130.615 77.4465 131.736 77.6334C132.858 77.8203 133.948 78.0072 135.007 78.1941C136.097 78.3498 137.032 78.5367 137.811 78.7548C138.621 78.9417 139.026 79.222 139.026 79.5958L133.325 78.9417C133.668 79.004 134.088 79.0819 134.587 79.1753C135.085 79.2376 135.583 79.3155 136.082 79.4089C136.611 79.5024 137.125 79.5958 137.624 79.6893C138.122 79.7516 138.543 79.8139 138.885 79.8762C138.885 79.9696 138.87 80.0631 138.839 80.1565C138.839 80.2188 138.839 80.2811 138.839 80.3434C138.839 80.4057 138.87 80.4525 138.932 80.4836C139.026 80.4836 139.119 80.4992 139.213 80.5303C139.337 80.5303 139.446 80.5615 139.54 80.6238C139.633 80.655 139.726 80.7484 139.82 80.9042L138.885 78.4277ZM128.746 68.4285C128.808 68.4285 128.824 68.4752 128.793 68.5686C128.793 68.6309 128.808 68.6621 128.839 68.6621C128.902 68.6621 129.089 68.444 129.4 68.0079C129.712 67.5718 130.07 67.0734 130.475 66.5127C130.88 65.952 131.269 65.4225 131.643 64.9241C132.017 64.4256 132.282 64.0986 132.437 63.9428L132.204 63.6157C131.55 64.2387 130.942 64.9708 130.381 65.8118C129.821 66.6529 129.276 67.5251 128.746 68.4285ZM133.465 63.3821C134.462 65.0642 135.381 66.8242 136.222 68.6621C137.032 70.4688 137.795 72.2755 138.512 74.0822C137.92 72.2755 137.203 70.4688 136.362 68.6621C135.49 66.8242 134.54 65.0642 133.512 63.3821H133.465ZM140.614 70.3909C141.58 72.883 142.53 75.4217 143.465 78.0072C142.592 75.484 141.673 72.992 140.708 70.5311C139.804 68.1014 138.761 65.6561 137.577 63.1952C138.699 65.5626 139.711 67.9612 140.614 70.3909ZM133.746 62.3542C134.151 62.4476 134.431 62.5411 134.587 62.6345C134.742 62.728 134.851 62.7747 134.914 62.7747L134.96 62.6345C134.992 62.6345 134.929 62.6189 134.774 62.5878C134.618 62.5566 134.493 62.5255 134.4 62.4943L134.493 62.3074L133.933 62.1205L133.746 62.3542ZM131.456 61.8869L131.83 62.8681L131.783 61.8869C131.721 61.8869 131.643 61.8713 131.55 61.8402C131.487 61.809 131.425 61.7935 131.363 61.7935L131.456 61.8869ZM132.671 63.2419L132.344 63.4756L132.624 63.8494L132.905 63.569L132.671 63.2419ZM133.325 63.1485H133.372L133.138 62.8214V62.8681L133.325 63.1485ZM176.799 62.4476L176.659 63.2887C176.503 64.815 176.41 66.4504 176.379 68.1948C176.347 69.9081 176.223 71.6369 176.005 73.3814C176.254 71.6681 176.456 69.986 176.612 68.335C176.768 66.6217 176.924 64.9396 177.079 63.2887C177.235 63.7871 177.36 64.3166 177.453 64.8773C177.578 65.438 177.64 66.0299 177.64 66.6529C177.484 68.2104 177.344 69.7056 177.22 71.1385C177.095 72.5715 176.924 74.0667 176.706 75.6242L176.098 75.7644C175.942 77.1973 175.615 78.7548 175.117 80.4369C174.619 82.119 173.887 83.6765 172.921 85.1094C171.986 86.5424 170.772 87.7416 169.276 88.7073C167.781 89.6418 165.99 90.1091 163.903 90.1091C163.218 90.1091 162.486 90.0623 161.707 89.9689C160.959 89.8443 160.227 89.673 159.511 89.4549C158.794 89.2057 158.109 88.8942 157.455 88.5204C156.801 88.1466 156.24 87.6793 155.773 87.1186L155.819 87.2121V87.2588L155.773 87.3055L155.632 87.2588C155.819 87.5392 156.022 87.7884 156.24 88.0064C155.679 87.508 155.165 86.9317 154.698 86.2776C153.919 85.2185 153.296 83.9569 152.829 82.4928C152.549 81.6206 152.331 80.7328 152.175 79.8295C152.019 78.9261 151.91 77.976 151.848 76.9792C151.785 75.9513 151.739 74.8454 151.708 73.6617C151.708 72.478 151.708 71.1697 151.708 69.7368C151.988 68.6154 152.206 67.494 152.362 66.3725C152.517 65.2511 152.626 64.1297 152.689 63.0083C152.782 63.0083 152.891 62.9927 153.016 62.9616C153.14 62.9304 153.265 62.9149 153.39 62.9149C153.608 62.9149 153.795 63.0395 153.95 63.2887C154.137 63.5379 154.231 64.0674 154.231 64.8773V65.2979C154.231 65.4225 154.215 65.5626 154.184 65.7184H154.745C154.994 64.4101 155.29 63.4133 155.632 62.728C155.975 62.0427 156.318 61.7 156.66 61.7C156.91 61.7 157.128 62.0582 157.315 62.7747C157.533 63.46 157.642 64.5503 157.642 66.0455C157.642 67.1357 157.611 68.2416 157.548 69.363C157.486 70.4844 157.455 71.6369 157.455 72.8207C157.455 74.6585 157.533 76.3251 157.688 77.8203C157.875 79.3155 158.218 80.5927 158.716 81.6518C159.215 82.7109 159.916 83.5364 160.819 84.1282C161.754 84.6889 162.953 84.9693 164.417 84.9693C165.632 84.9693 166.644 84.5955 167.454 83.8479C168.264 83.1002 168.949 82.1034 169.51 80.8574C170.071 79.6114 170.538 78.1785 170.912 76.5587C171.317 74.9077 171.69 73.1945 172.033 71.4189C172.095 70.9205 172.142 70.4221 172.173 69.9237C172.204 69.4253 172.22 68.9113 172.22 68.3817V66.9332C172.22 66.0299 172.267 65.2667 172.36 64.6437C172.454 64.0207 172.718 63.6625 173.155 63.569C173.155 65.1577 173.108 66.7308 173.014 68.2883C172.952 69.7835 172.827 71.2787 172.641 72.7739C172.859 71.3099 173.03 69.8458 173.155 68.3817C173.279 66.8554 173.373 65.2979 173.435 63.7092C173.622 63.8338 173.778 63.8961 173.902 63.8961C174.027 63.8961 174.151 63.8338 174.276 63.7092V62.0271C174.432 61.4664 174.587 61.077 174.743 60.8589C174.899 60.6097 175.07 60.4851 175.257 60.4851C175.444 60.4851 175.631 60.5786 175.818 60.7655C176.005 60.9524 176.192 61.186 176.379 61.4664L176.799 62.4476ZM157.501 88.9409C158.249 89.3459 159.012 89.673 159.791 89.9222C160.601 90.1402 161.349 90.296 162.034 90.3894C162.75 90.4829 163.327 90.5296 163.763 90.5296C165.943 90.5296 167.797 90.0468 169.323 89.0811C170.849 88.1154 172.095 86.9162 173.061 85.4832C174.058 84.0192 174.821 82.4617 175.351 80.8107C175.849 79.2532 176.223 77.8203 176.472 76.512C176.254 77.8203 175.911 79.2688 175.444 80.8574C174.915 82.5395 174.151 84.1126 173.155 85.5767C172.189 87.0408 170.958 88.2712 169.463 89.268C167.968 90.2648 166.161 90.7632 164.043 90.7632C162.859 90.7632 161.691 90.6075 160.539 90.296C159.386 89.9845 158.311 89.5016 157.315 88.8475C157.377 88.8786 157.439 88.9098 157.501 88.9409ZM175.397 77.4465C175.491 76.9169 175.569 76.4029 175.631 75.9045C175.693 75.4684 175.756 75.0323 175.818 74.5962C175.631 75.9668 175.319 77.4153 174.883 78.9417C174.447 80.5303 173.84 82.0411 173.061 83.4741C172.282 84.8758 171.301 86.1218 170.117 87.2121C168.996 88.24 167.688 88.9409 166.192 89.3147C167.501 89.0344 168.669 88.4892 169.697 87.6793C170.756 86.8383 171.659 85.857 172.407 84.7356C173.155 83.6142 173.762 82.4149 174.229 81.1378C174.728 79.8606 175.117 78.6302 175.397 77.4465ZM170.772 80.7173C170.429 81.4026 170.039 82.0567 169.603 82.6797C169.198 83.3027 168.731 83.8634 168.202 84.3618C168.762 83.8946 169.245 83.3495 169.65 82.7264C170.086 82.1034 170.46 81.4337 170.772 80.7173ZM157.315 88.8475C156.941 88.5983 156.583 88.3179 156.24 88.0064C156.583 88.3179 156.941 88.5983 157.315 88.8475ZM176.519 76.1849L176.472 76.512L176.519 76.1849ZM175.865 74.3626C175.833 74.456 175.818 74.5339 175.818 74.5962C175.818 74.5339 175.833 74.456 175.865 74.3626ZM186.204 83.3806C186.702 83.5364 187.294 83.8167 187.979 84.2217C188.696 84.6266 189.49 85.0471 190.362 85.4832C191.234 85.9194 192.185 86.3087 193.212 86.6514C194.272 86.994 195.393 87.1654 196.577 87.1654H197.091C197.278 87.1654 197.496 87.1342 197.745 87.0719L198.259 87.4457C199.474 87.0719 200.471 86.371 201.249 85.3431C202.028 84.284 202.417 82.8666 202.417 81.0911C202.417 79.8139 202.106 78.9417 201.483 78.4744C200.891 77.976 199.785 77.7268 198.165 77.7268C197.169 77.7268 196.125 77.8047 195.035 77.9605C193.976 78.0851 192.854 78.1474 191.671 78.1474C191.141 78.1474 190.596 78.1318 190.035 78.1006C189.474 78.0383 188.898 77.9293 188.306 77.7735V78.0539C189.552 78.3654 190.783 78.5212 191.998 78.5212C193.181 78.5212 194.303 78.4589 195.362 78.3343C196.452 78.1785 197.496 78.1006 198.492 78.1006C199.334 78.1006 199.988 78.1941 200.455 78.381C200.953 78.5367 201.327 78.7548 201.576 79.0351C201.826 79.3155 201.981 79.6581 202.044 80.0631C202.137 80.4369 202.184 80.8574 202.184 81.3247C202.184 82.7887 201.794 84.0348 201.016 85.0627C200.268 86.0284 199.38 86.6358 198.352 86.885C199.505 86.4801 200.408 85.7792 201.062 84.7824C201.748 83.7233 202.09 82.5395 202.09 81.2312C202.09 80.2967 201.841 79.5803 201.343 79.0819C200.875 78.5835 200.05 78.3343 198.866 78.3343C197.901 78.3343 196.81 78.3966 195.595 78.5212C194.381 78.6458 193.088 78.7081 191.717 78.7081C190.876 78.7081 189.895 78.599 188.774 78.381C187.683 78.1629 186.64 77.758 185.643 77.1661C184.646 76.5743 183.805 75.7644 183.12 74.7364C182.434 73.6773 182.092 72.3067 182.092 70.6246C182.092 69.2851 182.357 68.0547 182.886 66.9332C183.447 65.7807 184.179 64.7839 185.082 63.9428C185.986 63.0706 187.014 62.3853 188.166 61.8869C189.35 61.3885 190.565 61.1237 191.811 61.0926C192.994 61.0926 194.116 61.2639 195.175 61.6065C196.265 61.9181 197.293 62.3386 198.259 62.8681C199.225 63.3665 200.143 63.9272 201.016 64.5503C201.888 65.1733 202.698 65.7963 203.445 66.4193L202.511 67.3538C202.293 67.3538 201.966 67.2292 201.53 66.98C201.094 66.6996 200.424 66.2324 199.52 65.5782L199.24 65.9987C200.361 66.9021 201.171 67.7432 201.67 68.5219C202.199 69.3007 202.464 69.9081 202.464 70.3442C202.402 70.5934 202.246 70.718 201.997 70.718C201.748 70.718 201.249 70.5155 200.502 70.1106C199.754 69.7056 198.897 69.2539 197.932 68.7555C196.997 68.2571 196 67.8055 194.941 67.4005C193.882 66.9955 192.917 66.7931 192.044 66.7931C191.546 66.7931 191.048 66.8865 190.549 67.0734C190.051 67.2603 189.599 67.5251 189.194 67.8678C188.789 68.1793 188.447 68.5686 188.166 69.0359C187.917 69.5031 187.792 70.0171 187.792 70.5778C187.792 71.4812 188.213 72.0886 189.054 72.4001C189.895 72.7116 191.001 72.8674 192.371 72.8674C192.652 72.8674 192.948 72.8674 193.259 72.8674C193.602 72.8362 193.913 72.7895 194.194 72.7272C194.91 72.7272 195.377 72.7116 195.595 72.6805C195.845 72.6182 196.078 72.587 196.296 72.587C197.636 72.587 198.975 72.6805 200.315 72.8674C201.654 73.0543 202.854 73.4592 203.913 74.0822C204.972 74.7052 205.828 75.593 206.483 76.7456C207.137 77.8982 207.464 79.4401 207.464 81.3714C207.464 82.7109 207.23 84.0503 206.763 85.3898C206.327 86.6981 205.657 87.8818 204.754 88.9409C203.85 89.9689 202.729 90.7944 201.389 91.4174C200.05 92.0715 198.477 92.3986 196.67 92.3986C195.58 92.3986 194.287 92.1806 192.792 91.7445C191.328 91.3395 189.926 90.8567 188.587 90.296C187.278 89.7041 186.157 89.0967 185.222 88.4737C184.319 87.8507 183.867 87.3211 183.867 86.885C183.867 86.7604 183.945 86.667 184.101 86.6047C186.001 88.0064 187.933 89.159 189.895 90.0623C191.826 90.9034 193.804 91.3707 195.829 91.4641C194.832 91.4018 193.836 91.2305 192.839 90.9501C191.811 90.6386 190.783 90.2648 189.755 89.8287C188.758 89.3615 187.792 88.8475 186.858 88.2868C185.954 87.6949 185.082 87.1031 184.241 86.5112L184.942 85.9038C184.849 85.8726 184.677 85.7636 184.428 85.5767C184.179 85.3898 183.93 85.1562 183.681 84.8758C183.462 84.5955 183.26 84.2995 183.073 83.988C182.886 83.6765 182.793 83.3806 182.793 83.1002C182.793 82.7887 182.855 82.5863 182.98 82.4928C183.104 82.3994 183.244 82.3526 183.4 82.3526C183.556 82.3526 183.883 82.4617 184.381 82.6797C184.88 82.8978 185.487 83.1314 186.204 83.3806ZM196.53 88.1466C195.44 88.1466 194.225 87.9285 192.885 87.4924C191.577 87.0252 190.331 86.4333 189.147 85.7169C190.113 86.371 191.188 86.9629 192.371 87.4924C193.555 87.9908 194.926 88.24 196.483 88.24C198.57 88.24 200.221 87.6015 201.436 86.3243C202.682 85.0471 203.305 83.3339 203.305 81.1845V80.7173C203.149 79.7204 202.807 78.9105 202.277 78.2875C201.779 77.6334 201 77.2751 199.941 77.2128C200.595 77.3374 201.125 77.5399 201.53 77.8203C201.966 78.1006 202.293 78.4433 202.511 78.8482C202.76 79.222 202.931 79.6426 203.025 80.1098C203.118 80.5771 203.165 81.0599 203.165 81.5583C203.04 83.6142 202.386 85.234 201.203 86.4178C200.019 87.5703 198.461 88.1466 196.53 88.1466ZM202.464 89.9689C203.243 89.4705 203.866 88.8631 204.333 88.1466C204.8 87.4301 205.205 86.6825 205.548 85.9038C204.894 87.2121 203.99 88.3646 202.838 89.3615C201.717 90.3583 200.377 90.9813 198.82 91.2305C199.411 91.137 200.019 91.0124 200.642 90.8567C201.296 90.6698 201.903 90.3738 202.464 89.9689ZM206.903 81.1845C206.903 80.8419 206.841 80.5148 206.716 80.2033C206.623 79.9541 206.545 79.6893 206.483 79.4089L206.529 80.0164C206.56 80.2656 206.576 80.6082 206.576 81.0443C206.576 81.8854 206.483 82.6953 206.296 83.4741C206.109 84.2528 205.875 85.016 205.595 85.7636C205.875 85.0783 206.14 84.3618 206.389 83.6142C206.669 82.8355 206.841 82.0256 206.903 81.1845ZM206.483 79.2688C206.483 79.2999 206.483 79.3466 206.483 79.4089C206.483 79.3466 206.483 79.2999 206.483 79.2688ZM198.306 86.9317C198.274 86.9317 198.243 86.9317 198.212 86.9317C198.243 86.9317 198.274 86.9317 198.306 86.9317ZM210.481 87.7728C210.481 87.5859 210.59 87.4146 210.808 87.2588C211.026 87.1031 211.276 86.9629 211.556 86.8383C211.867 86.7137 212.163 86.6047 212.444 86.5112C212.755 86.4178 212.989 86.3399 213.145 86.2776C214.64 86.4645 216.135 86.6202 217.63 86.7448C219.125 86.8694 220.621 86.9317 222.116 86.9317C222.677 86.9317 223.455 86.9317 224.452 86.9317C225.449 86.9006 226.539 86.8383 227.723 86.7448C228.907 86.6514 230.106 86.5112 231.321 86.3243C232.536 86.1063 233.641 85.8103 234.638 85.4365C235.635 85.0627 236.445 84.5955 237.068 84.0348C237.691 83.4741 238.002 82.7732 238.002 81.9321C238.002 81.2468 237.847 80.6394 237.535 80.1098C237.255 79.5491 236.865 79.0663 236.367 78.6613C235.9 78.2252 235.37 77.867 234.778 77.5866C234.56 77.462 234.327 77.353 234.078 77.2596C234.327 77.3842 234.56 77.5088 234.778 77.6334C235.339 77.9449 235.838 78.3343 236.274 78.8015C236.741 79.2376 237.115 79.736 237.395 80.2967C237.675 80.8263 237.816 81.4337 237.816 82.119C237.816 82.8666 237.535 83.5052 236.975 84.0348C236.445 84.5332 235.744 84.9537 234.872 85.2963C234.031 85.639 233.081 85.9038 232.022 86.0907C230.994 86.2776 229.966 86.4178 228.938 86.5112C227.91 86.6047 226.96 86.667 226.087 86.6981C225.215 86.6981 224.53 86.6981 224.032 86.6981C222.443 86.6981 220.839 86.6514 219.219 86.5579C217.63 86.4333 216.042 86.2932 214.453 86.1374C215.014 85.9817 215.574 85.8726 216.135 85.8103C216.727 85.7169 217.319 85.6701 217.911 85.6701C218.907 85.6701 219.889 85.6857 220.854 85.7169C221.82 85.7169 222.786 85.7169 223.751 85.7169C224.904 85.7169 226.041 85.7013 227.162 85.6701C228.284 85.6078 229.436 85.4832 230.62 85.2963L230.76 85.857C231.227 85.7636 231.819 85.6234 232.536 85.4365C233.252 85.2185 233.937 84.9537 234.592 84.6422C235.277 84.3307 235.853 83.9413 236.32 83.4741C236.819 83.0068 237.068 82.4617 237.068 81.8387C237.068 80.9353 236.741 80.141 236.087 79.4557C235.433 78.7704 234.592 78.1629 233.564 77.6334C232.567 77.0727 231.43 76.5898 230.153 76.1849C228.875 75.7799 227.614 75.4217 226.368 75.1102C225.153 74.7987 224 74.5183 222.91 74.2691C221.82 74.0199 220.948 73.7863 220.294 73.5683V73.8486C220.948 74.0978 221.804 74.3626 222.863 74.6429C223.923 74.8921 225.06 75.1725 226.274 75.484C227.52 75.7955 228.766 76.1537 230.012 76.5587C231.258 76.9325 232.38 77.3842 233.377 77.9137C234.405 78.4433 235.23 79.0507 235.853 79.736C236.507 80.4213 236.834 81.2001 236.834 82.0723C236.834 82.5707 236.601 83.0068 236.133 83.3806C235.666 83.7544 235.106 84.0815 234.451 84.3618C233.828 84.611 233.19 84.8135 232.536 84.9693C231.881 85.125 231.383 85.234 231.04 85.2963C231.445 85.2029 231.959 85.0783 232.582 84.9225C233.236 84.7356 233.859 84.502 234.451 84.2217C235.074 83.9413 235.604 83.6142 236.04 83.2404C236.476 82.8355 236.694 82.3682 236.694 81.8387C236.694 80.9665 236.352 80.2344 235.666 79.6426C234.981 79.0507 234.078 78.5212 232.956 78.0539C231.835 77.5866 230.558 77.1661 229.125 76.7923C227.692 76.4185 226.212 76.0136 224.686 75.5775C223.191 75.1414 221.726 74.6429 220.294 74.0822C218.861 73.5215 217.583 72.8207 216.462 71.9796C215.341 71.1385 214.437 70.1417 213.752 68.9892C213.067 67.8366 212.724 66.4504 212.724 64.8306C212.724 63.2419 213.098 61.9025 213.845 60.8122C214.624 59.6908 215.605 58.7874 216.789 58.1021C218.004 57.3857 219.328 56.8717 220.761 56.5602C222.194 56.2487 223.58 56.0929 224.919 56.0929C226.882 56.0929 228.798 56.3733 230.667 56.934C232.567 57.4947 234.358 58.2735 236.04 59.2703C235.853 59.3326 235.744 59.426 235.713 59.5506C235.682 59.6441 235.651 59.7531 235.619 59.8777C235.619 60.0023 235.588 60.1113 235.526 60.2048C235.495 60.2982 235.401 60.345 235.246 60.345C235.121 60.345 234.872 60.2982 234.498 60.2048C234.155 60.0802 233.782 59.9556 233.377 59.831C232.972 59.6752 232.582 59.5351 232.209 59.4105C231.835 59.2859 231.586 59.1924 231.461 59.1301L231.321 59.5506C231.601 59.6752 231.959 59.8621 232.395 60.1113C232.863 60.3294 233.299 60.6097 233.704 60.9524C234.14 61.2639 234.498 61.6065 234.778 61.9804C235.09 62.3542 235.246 62.728 235.246 63.1018C235.246 63.5067 235.059 63.7092 234.685 63.7092C234.218 63.7092 233.657 63.5846 233.003 63.3354C232.38 63.0862 231.679 62.8214 230.9 62.5411C230.121 62.2296 229.28 61.9492 228.377 61.7C227.505 61.4508 226.617 61.3262 225.714 61.3262C225.122 61.3262 224.421 61.3885 223.611 61.5131C222.832 61.6065 222.069 61.809 221.322 62.1205C220.605 62.4009 219.998 62.8058 219.499 63.3354C219.001 63.8338 218.752 64.4724 218.752 65.2511C218.752 65.9676 219.079 66.575 219.733 67.0734C220.418 67.5718 221.306 68.0235 222.396 68.4285C223.518 68.8334 224.779 69.2228 226.181 69.5966C227.583 69.9704 229.016 70.3909 230.48 70.8582C231.975 71.2943 233.423 71.8083 234.825 72.4001C236.227 72.992 237.473 73.7084 238.563 74.5495C239.685 75.3906 240.572 76.3874 241.227 77.5399C241.912 78.6925 242.254 80.0475 242.254 81.605C242.254 83.1314 241.943 84.4241 241.32 85.4832C240.697 86.5424 239.872 87.4301 238.844 88.1466C237.816 88.8319 236.647 89.377 235.339 89.782C234.031 90.1558 232.676 90.4517 231.274 90.6698C229.903 90.8567 228.533 90.9657 227.162 90.9968C225.823 91.0591 224.608 91.0903 223.518 91.0903H218.845C218.565 91.0903 218.175 91.0747 217.677 91.0436C217.21 91.0436 216.742 91.0124 216.275 90.9501C215.808 90.919 215.403 90.8411 215.06 90.7165C214.718 90.5919 214.546 90.4361 214.546 90.2492L214.593 90.0156C215.87 90.0779 217.132 90.1402 218.378 90.2025C219.624 90.2337 220.885 90.2492 222.163 90.2492C223.346 90.2492 224.53 90.2492 225.714 90.2492C226.773 90.2181 227.832 90.1558 228.891 90.0623C228.361 90.0935 227.832 90.1246 227.302 90.1558C226.648 90.1558 226.01 90.1558 225.387 90.1558H223.518C220.589 90.1558 217.708 90.0623 214.873 89.8754C214.936 89.6262 214.967 89.4549 214.967 89.3615C214.967 89.2369 214.936 89.1123 214.873 88.9877C214.811 88.9877 214.718 89.0032 214.593 89.0344C214.5 89.0344 214.375 89.0344 214.219 89.0344C213.877 89.0344 213.487 89.0188 213.051 88.9877C212.646 88.9565 212.241 88.8942 211.836 88.8008C211.462 88.7073 211.135 88.5827 210.855 88.4269C210.606 88.24 210.481 88.022 210.481 87.7728ZM239.171 86.5579C238.641 87.0252 238.08 87.4146 237.489 87.7261C236.959 88.0064 236.414 88.2712 235.853 88.5204C236.414 88.3335 236.959 88.1154 237.489 87.8662C238.08 87.617 238.641 87.1809 239.171 86.5579ZM249.822 104.454C249.884 102.709 249.931 100.981 249.962 99.2672C249.994 97.5851 250.009 95.794 250.009 93.8938C250.009 93.0839 249.994 92.274 249.962 91.4641C249.931 90.6853 249.884 89.9222 249.822 89.1746V94.3144C249.822 96.0276 249.791 97.7253 249.729 99.4074C249.698 101.121 249.589 102.803 249.402 104.454C249.246 104.173 249.106 103.877 248.981 103.566C248.857 103.286 248.763 102.974 248.701 102.631C248.763 101.79 248.794 101.012 248.794 100.295C248.825 99.6099 248.841 98.8467 248.841 98.0057L249.402 97.7253C249.308 97.0712 249.246 96.4014 249.215 95.7161C249.184 95.062 249.168 94.4078 249.168 93.7536C249.168 93.0372 249.168 92.3363 249.168 91.651C249.199 90.9968 249.215 90.3115 249.215 89.5951C249.215 88.7229 249.184 87.8662 249.121 87.0252C249.09 86.153 248.997 85.2808 248.841 84.4086H248.701C248.763 85.7169 248.81 87.0096 248.841 88.2868C248.903 89.5639 248.934 90.8411 248.934 92.1183C248.934 92.679 248.919 93.2397 248.888 93.8004L248.841 95.0152C248.779 92.0248 248.67 89.0967 248.514 86.2309C248.389 83.1781 248.171 80.0475 247.86 76.839L248.047 72.9608C247.704 72.9297 247.346 72.9141 246.972 72.9141H245.897L245.757 71.8394C245.757 71.6837 245.866 71.5435 246.084 71.4189C246.302 71.2943 246.738 71.232 247.392 71.232H247.86V70.6713C246.832 70.5467 246.022 70.3286 245.43 70.0171C244.869 69.7056 244.589 69.3785 244.589 69.0359C244.589 68.7244 244.869 68.4596 245.43 68.2416C245.991 67.9924 246.707 67.8055 247.579 67.6809C248.483 67.5251 249.464 67.4161 250.523 67.3538C251.582 67.2915 252.61 67.2603 253.607 67.2603C254.697 67.2603 255.865 67.2915 257.111 67.3538C258.389 67.4161 259.666 67.5718 260.943 67.821C262.22 68.0702 263.45 68.4596 264.634 68.9892C265.849 69.4876 266.939 70.204 267.905 71.1385C268.871 72.0419 269.665 73.1945 270.288 74.5962C270.942 75.9668 271.363 77.6489 271.55 79.6426C271.55 81.3247 271.176 82.7109 270.428 83.8011C269.712 84.8602 268.839 85.7169 267.811 86.371C266.784 87.0252 265.709 87.4924 264.587 87.7728C263.497 88.0531 262.594 88.24 261.877 88.3335C261.161 88.4892 260.335 88.6762 259.401 88.8942C258.466 89.0811 257.672 89.1746 257.018 89.1746C256.301 89.1746 255.881 89.0967 255.756 88.9409C255.632 88.7852 255.569 88.5827 255.569 88.3335C256.971 88.2712 258.373 88.1622 259.775 88.0064C261.176 87.8195 262.578 87.508 263.98 87.0719C262.578 87.4146 261.176 87.6793 259.775 87.8662C258.373 88.022 256.971 88.131 255.569 88.1933C255.569 88.0064 255.554 87.8195 255.523 87.6326C255.492 87.4146 255.398 87.3055 255.242 87.3055C254.931 87.3055 254.682 87.8039 254.495 88.8008C254.339 89.7976 254.214 90.9813 254.121 92.3519C254.059 93.7536 254.012 95.1866 253.981 96.6506C253.981 98.1147 253.981 99.3295 253.981 100.295C253.981 100.731 253.996 101.183 254.027 101.65C254.09 102.149 254.121 102.569 254.121 102.912C254.121 103.223 254.074 103.488 253.981 103.706C253.887 103.924 253.623 104.033 253.186 104.033V98.1458C253.124 99.1426 253.077 100.124 253.046 101.09C253.046 102.055 253.046 103.036 253.046 104.033H252.205V104.407C252.205 104.687 252.252 104.89 252.345 105.014C252.003 105.606 251.613 105.902 251.177 105.902C250.835 105.902 250.57 105.809 250.383 105.622C250.227 105.435 249.994 105.186 249.682 104.874L249.822 104.454ZM254.355 84.9693H255.009C256.099 84.9693 257.345 84.907 258.747 84.7824C260.18 84.6578 261.519 84.4241 262.765 84.0815C264.011 83.7388 265.055 83.256 265.896 82.633C266.768 82.01 267.204 81.2001 267.204 80.2033V79.8295C267.204 79.518 267.173 79.1753 267.111 78.8015C267.079 78.4277 266.955 78.0695 266.737 77.7268C266.768 77.8826 266.846 78.1941 266.97 78.6613C267.095 79.1286 267.157 79.518 267.157 79.8295C267.157 80.7951 266.815 81.5895 266.129 82.2125C265.475 82.8043 264.634 83.2872 263.606 83.661C262.609 84.0036 261.504 84.2528 260.289 84.4086C259.105 84.5332 257.968 84.5955 256.878 84.5955H255.943C255.632 84.5955 255.32 84.5799 255.009 84.5487C255.445 84.2061 256.006 83.9725 256.691 83.8479C257.407 83.6921 258.155 83.5675 258.934 83.4741C259.712 83.3806 260.476 83.2872 261.223 83.1937C261.971 83.1002 262.609 82.9445 263.139 82.7264L263.419 83.2872C264.51 82.7576 265.273 82.2436 265.709 81.7452C266.176 81.2157 266.41 80.4992 266.41 79.5958C266.41 78.1629 266.005 76.9013 265.195 75.8111C264.416 74.7208 263.357 73.9888 262.018 73.615L261.877 73.8953C263.03 74.3314 264.027 75.0479 264.868 76.0447C265.709 77.0415 266.129 78.2408 266.129 79.6426C266.129 80.3902 265.958 80.982 265.615 81.4181C265.304 81.7919 264.805 82.1346 264.12 82.4461C264.681 82.1969 265.101 81.8854 265.382 81.5116C265.724 81.0755 265.958 80.5927 266.083 80.0631C266.083 78.7548 265.771 77.6489 265.148 76.7456C264.525 75.8422 263.653 75.1258 262.532 74.5962C261.41 74.0355 260.055 73.6461 258.466 73.4281C256.909 73.1789 255.18 73.0543 253.28 73.0543C253.529 74.3937 253.669 75.8578 253.7 77.4465C253.763 79.004 253.872 80.5304 254.027 82.0256L254.355 84.9693ZM249.635 77.8203C249.698 77.758 249.76 77.4932 249.822 77.0259C249.884 76.5587 249.931 76.0603 249.962 75.5307C250.025 74.97 250.071 74.456 250.103 73.9888C250.165 73.4904 250.227 73.1945 250.289 73.101L249.682 73.0543L249.635 77.8203ZM263.887 82.5395L264.12 82.4461L263.887 82.5395ZM293.241 91.7445C292.057 92.1494 291.154 92.3675 290.531 92.3986C289.908 92.4609 289.362 92.5076 288.895 92.5388C287.151 92.5388 285.578 92.2117 284.176 91.5576C282.774 90.9034 281.575 90.0156 280.578 88.8942C279.581 87.7728 278.803 86.4645 278.242 84.9693C277.712 83.4429 277.448 81.8231 277.448 80.1098C277.448 79.113 277.541 78.0851 277.728 77.0259C277.915 75.9357 278.195 74.8766 278.569 73.8486C278.943 72.7895 279.426 71.8083 280.017 70.9049C280.578 70.0016 281.248 69.1916 282.027 68.4752C281.217 69.1293 280.531 69.9081 279.971 70.8115C279.379 71.7148 278.88 72.6961 278.475 73.7552C278.071 74.7831 277.775 75.8578 277.588 76.9792C277.401 78.0695 277.307 79.1286 277.307 80.1565C277.307 81.4649 277.51 82.8666 277.915 84.3618C278.351 85.8259 279.036 87.1965 279.971 88.4737C280.905 89.7197 282.104 90.7632 283.569 91.6043C285.064 92.4453 286.87 92.8659 288.989 92.8659C289.986 92.8659 291.029 92.7257 292.119 92.4453C290.936 93.2241 289.612 93.6135 288.148 93.6135C286.964 93.6135 285.843 93.4266 284.783 93.0528C283.755 92.7101 282.79 92.2117 281.886 91.5576C281.014 90.9345 280.22 90.1869 279.503 89.3147C278.787 88.4425 278.18 87.508 277.681 86.5112L278.102 86.1374C277.572 85.0783 277.183 84.0192 276.934 82.9601C276.715 81.901 276.606 80.8263 276.606 79.736C276.606 78.1474 276.825 76.621 277.261 75.1569C277.728 73.6929 278.335 72.3067 279.083 70.9984L280.204 69.4564C280.391 69.1138 280.656 68.7711 280.999 68.4285C281.372 68.0858 281.777 67.7587 282.214 67.4472C282.65 67.1046 283.101 66.8086 283.569 66.5594C284.067 66.2791 284.534 66.0299 284.97 65.8118C286.092 65.2511 287.213 64.7527 288.335 64.3166C289.456 63.8494 290.764 63.5067 292.259 63.2887L292.073 63.1485C289.207 63.4288 286.777 64.1297 284.783 65.2511C282.79 66.3414 281.17 67.6809 279.924 69.2695C278.678 70.8582 277.775 72.6026 277.214 74.5028C276.653 76.3718 276.373 78.2097 276.373 80.0164C276.373 80.982 276.451 81.9633 276.606 82.9601C276.793 83.9257 277.058 84.8914 277.401 85.857C276.622 83.988 276.233 82.01 276.233 79.9229C276.233 77.867 276.575 75.8267 277.261 73.8019C277.946 71.7771 279.021 69.9081 280.485 68.1948C282.354 66.4816 284.394 65.1733 286.606 64.2699C288.817 63.3354 290.951 62.8681 293.007 62.8681C293.661 62.8681 294.331 62.9772 295.016 63.1952C295.702 63.4133 296.325 63.7559 296.885 64.2232C297.446 64.6593 297.898 65.2356 298.24 65.952C298.614 66.6685 298.801 67.5407 298.801 68.5686C298.801 69.4097 298.599 70.4377 298.194 71.6525C297.789 72.8674 297.181 74.0511 296.371 75.2036C295.593 76.3251 294.611 77.2907 293.428 78.1006C292.244 78.8794 290.873 79.2688 289.316 79.2688H287.774C286.621 79.0196 285.562 78.7392 284.597 78.4277C283.662 78.0851 282.774 77.8203 281.933 77.6334C281.809 78.1318 281.731 78.6146 281.7 79.0819C281.7 79.518 281.7 79.9541 281.7 80.3902C281.7 81.2935 281.793 82.1813 281.98 83.0535C282.198 83.8946 282.525 84.6733 282.961 85.3898C283.397 86.1063 283.942 86.7137 284.597 87.2121C285.282 87.6793 286.107 87.9753 287.073 88.0999C287.665 88.2245 288.179 88.3023 288.615 88.3335C289.051 88.3335 289.409 88.3491 289.69 88.3802C290.001 88.3802 290.219 88.4269 290.344 88.5204C290.499 88.5827 290.577 88.7229 290.577 88.9409C290.266 89.0344 289.939 89.0967 289.596 89.1278C289.285 89.159 288.958 89.1746 288.615 89.1746C287.525 89.1746 286.543 89.0032 285.671 88.6606C284.799 88.2868 284.051 87.8662 283.428 87.399C284.145 88.1154 285.001 88.6294 285.998 88.9409C286.995 89.2213 287.976 89.3615 288.942 89.3615C289.472 89.3615 290.017 89.3147 290.577 89.2213C290.515 89.4082 290.484 89.5172 290.484 89.5484C290.484 89.7353 290.562 89.8599 290.718 89.9222C290.842 89.891 291.06 89.8131 291.372 89.6885C291.683 89.5328 291.995 89.3926 292.306 89.268C292.649 89.1123 292.976 88.9877 293.287 88.8942C293.599 88.7696 293.817 88.7073 293.942 88.7073C294.097 88.7073 294.238 88.7385 294.362 88.8008C294.487 88.8319 294.549 89.0032 294.549 89.3147C294.549 89.6262 294.44 90 294.222 90.4361C294.004 90.8722 293.677 91.3084 293.241 91.7445ZM286.793 73.2412L287.821 73.4281C288.163 73.4904 288.475 73.5215 288.755 73.5215C289.067 73.5215 289.425 73.4281 289.83 73.2412C290.266 73.0231 290.686 72.7272 291.091 72.3534C291.527 71.9796 291.901 71.5123 292.213 70.9516C292.555 70.3909 292.805 69.7523 292.96 69.0359L293.054 68.7555C292.618 68.7555 291.964 68.8646 291.091 69.0826C290.219 69.3007 289.316 69.5966 288.381 69.9704C287.447 70.3131 286.575 70.7336 285.765 71.232C284.955 71.6992 284.394 72.2132 284.083 72.7739C284.55 72.8674 285.001 72.9608 285.438 73.0543C285.905 73.1166 286.356 73.1789 286.793 73.2412ZM284.643 76.6989C284.706 76.6366 284.737 76.5431 284.737 76.4185C284.768 76.2939 284.783 76.2005 284.783 76.1382L282.587 75.3438L282.354 75.998L284.643 76.6989ZM283.335 87.3055C283.117 87.0563 282.899 86.8071 282.681 86.5579C282.494 86.3399 282.338 86.1218 282.214 85.9038C282.494 86.4333 282.868 86.9006 283.335 87.3055ZM320.026 91.7445C318.842 92.1494 317.939 92.3675 317.316 92.3986C316.693 92.4609 316.147 92.5076 315.68 92.5388C313.936 92.5388 312.363 92.2117 310.961 91.5576C309.559 90.9034 308.36 90.0156 307.363 88.8942C306.366 87.7728 305.588 86.4645 305.027 84.9693C304.497 83.4429 304.232 81.8231 304.232 80.1098C304.232 79.113 304.326 78.0851 304.513 77.0259C304.7 75.9357 304.98 74.8766 305.354 73.8486C305.728 72.7895 306.211 71.8083 306.802 70.9049C307.363 70.0016 308.033 69.1916 308.812 68.4752C308.002 69.1293 307.316 69.9081 306.756 70.8115C306.164 71.7148 305.665 72.6961 305.26 73.7552C304.856 74.7831 304.56 75.8578 304.373 76.9792C304.186 78.0695 304.092 79.1286 304.092 80.1565C304.092 81.4649 304.295 82.8666 304.7 84.3618C305.136 85.8259 305.821 87.1965 306.756 88.4737C307.69 89.7197 308.889 90.7632 310.354 91.6043C311.849 92.4453 313.655 92.8659 315.774 92.8659C316.77 92.8659 317.814 92.7257 318.904 92.4453C317.721 93.2241 316.397 93.6135 314.933 93.6135C313.749 93.6135 312.628 93.4266 311.568 93.0528C310.54 92.7101 309.575 92.2117 308.671 91.5576C307.799 90.9345 307.005 90.1869 306.288 89.3147C305.572 88.4425 304.965 87.508 304.466 86.5112L304.887 86.1374C304.357 85.0783 303.968 84.0192 303.719 82.9601C303.5 81.901 303.391 80.8263 303.391 79.736C303.391 78.1474 303.609 76.621 304.046 75.1569C304.513 73.6929 305.12 72.3067 305.868 70.9984L306.989 69.4564C307.176 69.1138 307.441 68.7711 307.784 68.4285C308.157 68.0858 308.562 67.7587 308.998 67.4472C309.435 67.1046 309.886 66.8086 310.354 66.5594C310.852 66.2791 311.319 66.0299 311.755 65.8118C312.877 65.2511 313.998 64.7527 315.12 64.3166C316.241 63.8494 317.549 63.5067 319.044 63.2887L318.858 63.1485C315.992 63.4288 313.562 64.1297 311.568 65.2511C309.575 66.3414 307.955 67.6809 306.709 69.2695C305.463 70.8582 304.56 72.6026 303.999 74.5028C303.438 76.3718 303.158 78.2097 303.158 80.0164C303.158 80.982 303.236 81.9633 303.391 82.9601C303.578 83.9257 303.843 84.8914 304.186 85.857C303.407 83.988 303.018 82.01 303.018 79.9229C303.018 77.867 303.36 75.8267 304.046 73.8019C304.731 71.7771 305.806 69.9081 307.27 68.1948C309.139 66.4816 311.179 65.1733 313.391 64.2699C315.602 63.3354 317.736 62.8681 319.792 62.8681C320.446 62.8681 321.116 62.9772 321.801 63.1952C322.487 63.4133 323.11 63.7559 323.67 64.2232C324.231 64.6593 324.683 65.2356 325.025 65.952C325.399 66.6685 325.586 67.5407 325.586 68.5686C325.586 69.4097 325.384 70.4377 324.979 71.6525C324.574 72.8674 323.966 74.0511 323.156 75.2036C322.378 76.3251 321.396 77.2907 320.213 78.1006C319.029 78.8794 317.658 79.2688 316.101 79.2688H314.559C313.406 79.0196 312.347 78.7392 311.381 78.4277C310.447 78.0851 309.559 77.8203 308.718 77.6334C308.594 78.1318 308.516 78.6146 308.485 79.0819C308.485 79.518 308.485 79.9541 308.485 80.3902C308.485 81.2935 308.578 82.1813 308.765 83.0535C308.983 83.8946 309.31 84.6733 309.746 85.3898C310.182 86.1063 310.727 86.7137 311.381 87.2121C312.067 87.6793 312.892 87.9753 313.858 88.0999C314.45 88.2245 314.964 88.3023 315.4 88.3335C315.836 88.3335 316.194 88.3491 316.475 88.3802C316.786 88.3802 317.004 88.4269 317.129 88.5204C317.284 88.5827 317.362 88.7229 317.362 88.9409C317.051 89.0344 316.724 89.0967 316.381 89.1278C316.07 89.159 315.743 89.1746 315.4 89.1746C314.31 89.1746 313.328 89.0032 312.456 88.6606C311.584 88.2868 310.836 87.8662 310.213 87.399C310.93 88.1154 311.786 88.6294 312.783 88.9409C313.78 89.2213 314.761 89.3615 315.727 89.3615C316.257 89.3615 316.802 89.3147 317.362 89.2213C317.3 89.4082 317.269 89.5172 317.269 89.5484C317.269 89.7353 317.347 89.8599 317.503 89.9222C317.627 89.891 317.845 89.8131 318.157 89.6885C318.468 89.5328 318.78 89.3926 319.091 89.268C319.434 89.1123 319.761 88.9877 320.072 88.8942C320.384 88.7696 320.602 88.7073 320.727 88.7073C320.882 88.7073 321.023 88.7385 321.147 88.8008C321.272 88.8319 321.334 89.0032 321.334 89.3147C321.334 89.6262 321.225 90 321.007 90.4361C320.789 90.8722 320.462 91.3084 320.026 91.7445ZM313.578 73.2412L314.606 73.4281C314.948 73.4904 315.26 73.5215 315.54 73.5215C315.852 73.5215 316.21 73.4281 316.615 73.2412C317.051 73.0231 317.471 72.7272 317.876 72.3534C318.312 71.9796 318.686 71.5123 318.998 70.9516C319.34 70.3909 319.59 69.7523 319.745 69.0359L319.839 68.7555C319.403 68.7555 318.749 68.8646 317.876 69.0826C317.004 69.3007 316.101 69.5966 315.166 69.9704C314.232 70.3131 313.36 70.7336 312.55 71.232C311.74 71.6992 311.179 72.2132 310.868 72.7739C311.335 72.8674 311.786 72.9608 312.223 73.0543C312.69 73.1166 313.141 73.1789 313.578 73.2412ZM311.428 76.6989C311.491 76.6366 311.522 76.5431 311.522 76.4185C311.553 76.2939 311.568 76.2005 311.568 76.1382L309.372 75.3438L309.139 75.998L311.428 76.6989ZM310.12 87.3055C309.902 87.0563 309.684 86.8071 309.466 86.5579C309.279 86.3399 309.123 86.1218 308.998 85.9038C309.279 86.4333 309.653 86.9006 310.12 87.3055ZM354.474 56.7938C354.536 57.6972 354.583 58.585 354.614 59.4572C354.645 60.2982 354.661 61.1704 354.661 62.0738C354.661 63.9428 354.598 65.8274 354.474 67.7276C354.38 69.5966 354.256 71.4968 354.1 73.4281C353.944 75.3594 353.788 77.3374 353.633 79.3622C353.477 81.387 353.337 83.4896 353.212 85.6701C353.212 86.0128 353.196 86.371 353.165 86.7448C353.165 87.0875 353.134 87.4769 353.072 87.913V88.4737C353.072 88.5671 353.041 88.6917 352.978 88.8475C352.916 89.0032 352.854 89.1123 352.792 89.1746C352.387 89.6418 352.013 90 351.67 90.2492C351.359 90.4673 351.063 90.6386 350.782 90.7632C350.502 90.8567 350.237 90.9034 349.988 90.9034C349.739 90.9345 349.49 90.9657 349.24 90.9968H349.521C349.614 90.9968 349.786 90.9813 350.035 90.9501C350.315 90.919 350.611 90.8722 350.923 90.8099C351.265 90.7165 351.577 90.6075 351.857 90.4829C352.169 90.3271 352.387 90.1246 352.511 89.8754L352.932 89.0344C353.119 88.6917 353.228 88.3335 353.259 87.9597C353.321 87.5547 353.352 87.1654 353.352 86.7916C353.383 86.3866 353.399 85.9972 353.399 85.6234C353.399 85.2496 353.43 84.8914 353.492 84.5487C353.586 82.5863 353.71 80.6238 353.866 78.6613C354.053 76.6989 354.224 74.7208 354.38 72.7272C354.536 70.7336 354.676 68.7244 354.801 66.6996C354.925 64.6437 354.988 62.5566 354.988 60.4384C354.988 59.7843 354.972 59.1613 354.941 58.5694C354.941 57.9464 354.925 57.3545 354.894 56.7938C354.988 56.9184 355.081 57.1209 355.175 57.4013C355.299 57.6505 355.393 58.0554 355.455 58.6161C355.611 58.9588 355.704 59.3326 355.735 59.7375C355.766 60.1425 355.813 60.563 355.875 60.9991C355.875 63.1173 355.798 65.1733 355.642 67.1669C355.486 69.1293 355.33 71.0918 355.175 73.0543L354.754 73.1945L354.333 81.1845C354.333 83.4273 354.224 85.2808 354.006 86.7448C353.82 88.1777 353.648 89.1278 353.492 89.5951V89.7353C353.025 90.2025 352.62 90.5607 352.278 90.8099C351.966 91.028 351.67 91.1993 351.39 91.3239C351.109 91.4485 350.845 91.5108 350.595 91.5108C350.377 91.542 350.144 91.5576 349.895 91.5576H346.904C346.063 91.4641 345.16 91.4174 344.194 91.4174C343.228 91.4485 342.216 91.3551 341.157 91.137C340.098 90.919 339.008 90.4673 337.886 89.782C336.796 89.0967 335.69 88.0064 334.569 86.5112C334.569 86.5735 334.553 86.6202 334.522 86.6514C334.491 86.6825 334.46 86.7293 334.428 86.7916C335.456 88.1933 336.687 89.3459 338.12 90.2492C339.584 91.1526 341.157 91.6822 342.839 91.8379H346.764C347.138 91.9002 347.512 91.9314 347.885 91.9314C348.29 91.9625 348.726 91.9781 349.194 91.9781C349.661 91.9781 350.268 91.9158 351.016 91.7912C351.795 91.6666 352.527 91.2616 353.212 90.5763C353.337 90.4206 353.415 90.3115 353.446 90.2492C353.508 90.1558 353.57 90.0312 353.633 89.8754L353.773 89.5951C353.929 89.3147 354.038 89.0344 354.1 88.754C354.193 88.4425 354.271 88.1466 354.333 87.8662C354.333 88.2089 354.302 88.5048 354.24 88.754C354.209 89.0032 354.1 89.377 353.913 89.8754L353.773 90.0156L353.212 90.8567C352.932 91.137 352.62 91.3551 352.278 91.5108C351.935 91.6666 351.608 91.7756 351.296 91.8379C350.985 91.9314 350.689 91.9937 350.409 92.0248C350.159 92.056 349.972 92.0871 349.848 92.1183H348.306C347.901 92.1183 347.558 92.1027 347.278 92.0715C347.029 92.0715 346.826 92.056 346.671 92.0248C346.546 92.0248 346.437 92.0092 346.343 91.9781H344.942C344.661 91.9781 344.381 91.9781 344.101 91.9781C343.82 92.0092 343.524 92.0248 343.213 92.0248C341.749 92.0248 340.316 91.6666 338.914 90.9501C337.543 90.2648 336.266 89.2836 335.083 88.0064C333.93 86.7293 332.902 85.2185 331.999 83.4741C331.095 81.7296 330.41 79.7983 329.943 77.6801C329.943 77.3374 329.912 77.0104 329.849 76.6989C329.818 76.3874 329.803 76.0603 329.803 75.7176C329.803 74.5651 329.974 73.3969 330.317 72.2132C330.69 70.9984 331.345 69.9081 332.279 68.9424C333.214 67.9768 334.475 67.198 336.064 66.6062C337.652 65.9832 339.662 65.6717 342.091 65.6717C343.213 65.6717 344.303 65.7028 345.362 65.7651C346.421 65.7963 347.496 65.843 348.586 65.9053C348.462 65.9987 348.399 66.1078 348.399 66.2324C348.399 66.3881 348.43 66.5283 348.493 66.6529C348.555 66.7463 348.586 66.8554 348.586 66.98C348.586 67.1357 348.462 67.2759 348.212 67.4005C347.994 67.494 347.512 67.5407 346.764 67.5407C346.515 67.5407 346.219 67.5407 345.876 67.5407C345.565 67.5095 345.206 67.4784 344.801 67.4472V67.8678C346.297 68.0858 347.496 68.3817 348.399 68.7555C349.334 69.0982 349.91 69.4097 350.128 69.69L350.222 69.7835L350.409 67.7276C350.502 66.8865 350.549 65.9364 350.549 64.8773C350.549 63.7871 350.518 62.7124 350.455 61.6533C350.393 60.5942 350.362 59.7687 350.362 59.1768C350.362 58.4292 350.409 57.9308 350.502 57.6816C350.595 57.4324 350.72 57.3078 350.876 57.3078C351 57.3078 351.094 57.5726 351.156 58.1021C351.25 58.6317 351.312 59.2391 351.343 59.9244C351.405 60.5786 351.437 61.2327 351.437 61.8869V63.2419C351.437 64.1453 351.421 65.0642 351.39 65.9987C351.359 66.9021 351.312 67.8055 351.25 68.7088C351.343 67.5251 351.421 66.3725 351.483 65.2511C351.546 64.0986 351.577 62.9304 351.577 61.7467C351.577 61.0303 351.561 60.3294 351.53 59.6441C351.499 58.9276 351.452 58.2112 351.39 57.4947C351.577 57.6816 351.717 57.7751 351.81 57.7751C351.935 57.7751 352.028 57.6816 352.091 57.4947C352.06 57.2455 352.028 56.9807 351.997 56.7004C351.966 56.4512 351.95 56.202 351.95 55.9528V55.2519C352.106 54.8781 352.309 54.5977 352.558 54.4108C352.807 54.1928 353.025 54.0838 353.212 54.0838C353.742 54.0838 354.209 54.66 354.614 55.8126L354.474 56.7938ZM346.904 70.8115C345.876 70.8738 344.708 70.9361 343.4 70.9984C342.123 71.0607 340.908 71.232 339.755 71.5123C338.603 71.7615 337.606 72.1509 336.765 72.6805C335.955 73.21 335.503 73.9421 335.41 74.8766C335.41 75.9045 335.628 77.0571 336.064 78.3343C336.5 79.6114 337.076 80.8263 337.793 81.9788C338.509 83.1002 339.319 84.0659 340.222 84.8758C341.157 85.6857 342.123 86.1374 343.119 86.2309H345.783C345.938 86.2309 346.048 86.2464 346.11 86.2776C346.203 86.2776 346.328 86.3087 346.484 86.371H347.605C348.072 86.4645 348.54 86.5112 349.007 86.5112C349.007 83.8946 349.116 81.2157 349.334 78.4744C349.583 75.7021 349.848 72.992 350.128 70.3442C349.723 70.6557 348.649 70.8115 346.904 70.8115ZM350.268 80.4836C350.268 80.8263 350.237 81.1845 350.175 81.5583C350.144 81.901 350.128 82.2903 350.128 82.7264C350.471 80.982 350.673 79.1442 350.736 77.2128C350.798 75.2815 350.876 73.4281 350.969 71.6525C350.813 73.1477 350.689 74.6274 350.595 76.0914C350.533 77.5243 350.424 78.9884 350.268 80.4836ZM354.333 85.53C354.333 85.1873 354.349 84.8447 354.38 84.502C354.411 84.1282 354.458 83.7388 354.52 83.3339C354.489 84.2684 354.474 85.1562 354.474 85.9972C354.474 86.8071 354.427 87.3834 354.333 87.7261C354.333 87.5703 354.333 87.4301 354.333 87.3055C354.365 87.1498 354.38 86.994 354.38 86.8383C354.38 86.5891 354.365 86.3555 354.333 86.1374C354.333 85.9194 354.333 85.7169 354.333 85.53ZM355.034 77.9605C354.972 78.1162 354.925 78.3031 354.894 78.5212C354.863 78.7081 354.816 78.9105 354.754 79.1286L354.941 76.2783L355.034 77.9605ZM354.614 81.605C354.614 81.8854 354.598 82.1657 354.567 82.4461C354.567 82.7264 354.552 82.9912 354.52 83.2404C354.52 82.6174 354.536 81.9944 354.567 81.3714C354.598 80.7173 354.645 80.1254 354.707 79.5958L354.614 81.605ZM349.988 84.502C350.019 84.3774 350.035 84.2528 350.035 84.1282C350.035 84.0036 350.066 83.8634 350.128 83.7077V83.1937C350.097 83.256 350.081 83.3183 350.081 83.3806C350.081 83.4118 350.066 83.4429 350.035 83.4741L349.988 83.5675V84.502ZM349.848 86.7448C349.879 86.4645 349.91 86.1841 349.941 85.9038C349.972 85.5923 349.988 85.2808 349.988 84.9693V84.8291L349.801 86.6514L349.848 86.7448ZM368.641 91.4174C368.329 91.4797 367.987 91.5108 367.613 91.5108H366.258C365.448 91.5108 364.872 91.6043 364.529 91.7912C364.218 91.9781 364.031 92.0715 363.968 92.0715L363.782 91.2305V90.3894L363.548 85.9972C363.486 85.1562 363.314 84.2528 363.034 83.2872C362.754 82.3215 362.535 81.3403 362.38 80.3434C362.286 79.6893 362.208 79.0663 362.146 78.4744L361.959 76.6521C361.897 76.0291 361.819 75.3906 361.726 74.7364C361.663 74.0822 361.554 73.3814 361.399 72.6338C361.399 72.4468 361.399 72.2599 361.399 72.073C361.43 71.8861 361.445 71.6992 361.445 71.5123C361.445 70.5467 361.367 69.5966 361.212 68.6621C361.056 67.7276 360.838 66.8086 360.557 65.9053C360.775 65.8118 360.978 65.734 361.165 65.6717C361.352 65.5782 361.523 65.5315 361.679 65.5315C361.835 65.5315 362.006 65.7184 362.193 66.0922C362.38 66.4348 362.582 67.1669 362.8 68.2883C362.863 68.2883 362.956 68.2727 363.081 68.2416C363.205 68.1793 363.299 68.1481 363.361 68.1481C363.33 67.6186 363.252 67.0579 363.127 66.466C363.003 65.843 362.878 65.2511 362.754 64.6904C362.629 64.1297 362.504 63.6313 362.38 63.1952C362.286 62.728 362.24 62.3542 362.24 62.0738C362.24 62.0115 362.24 61.9336 362.24 61.8402C362.271 61.7467 362.349 61.7 362.473 61.7C362.629 61.7 362.831 61.8713 363.081 62.214C363.33 62.5566 363.595 62.9927 363.875 63.5223C364.155 64.0518 364.42 64.6281 364.669 65.2511C364.95 65.843 365.199 66.4037 365.417 66.9332C366.258 65.3446 367.208 64.1453 368.267 63.3354C369.357 62.4943 370.775 62.0738 372.519 62.0738C373.796 62.0738 374.84 62.2296 375.65 62.5411C376.46 62.8214 377.083 63.1485 377.519 63.5223C377.986 63.8649 378.298 64.192 378.453 64.5035L378.734 64.9708C378.734 65.1577 378.64 65.2823 378.453 65.3446C377.643 64.5658 376.724 63.974 375.696 63.569C374.669 63.1641 373.609 62.9616 372.519 62.9616C371.46 62.9616 370.666 63.1018 370.136 63.3821C369.638 63.6313 369.108 63.9428 368.547 64.3166C369.139 63.9428 369.684 63.6469 370.183 63.4288C370.712 63.2108 371.476 63.1018 372.472 63.1018C373.563 63.1018 374.606 63.3198 375.603 63.7559C376.6 64.1609 377.456 64.6904 378.173 65.3446C378.017 65.4069 377.877 65.4848 377.752 65.5782C377.659 65.6405 377.612 65.7495 377.612 65.9053C377.768 65.9053 377.939 66.0143 378.126 66.2324C378.313 66.4193 378.484 66.6529 378.64 66.9332C378.796 67.2136 378.921 67.5095 379.014 67.821C379.139 68.1014 379.201 68.335 379.201 68.5219C379.201 69.0515 378.998 69.3162 378.593 69.3162C378.282 69.3162 377.908 69.2072 377.472 68.9892C377.379 68.958 377.176 68.7867 376.865 68.4752C376.584 68.1637 376.226 67.8522 375.79 67.5407C375.354 67.198 374.855 66.8865 374.295 66.6062C373.734 66.3258 373.111 66.1856 372.426 66.1856C371.865 66.1856 371.367 66.3102 370.93 66.5594C370.526 66.7775 370.152 67.089 369.809 67.494C369.466 67.8678 369.155 68.3039 368.875 68.8023L368.267 69.9237C368.734 69.0826 369.248 68.3194 369.809 67.6341C370.432 66.8242 371.211 66.4193 372.145 66.4193C372.955 66.4193 373.703 66.6062 374.388 66.98C375.073 67.3226 375.634 67.7587 376.07 68.2883C375.541 68.0702 374.918 67.8522 374.201 67.6341C373.485 67.4161 372.8 67.3071 372.145 67.3071C371.803 67.3071 371.507 67.3849 371.258 67.5407C371.008 67.6964 370.79 67.8989 370.603 68.1481C370.448 68.3662 370.292 68.6154 370.136 68.8957C370.012 69.1761 369.871 69.4408 369.716 69.69L369.108 69.7835C368.579 70.6869 368.143 71.746 367.8 72.9608C367.488 74.1445 367.333 75.3906 367.333 76.6989C367.333 77.4776 367.364 78.1785 367.426 78.8015C367.52 79.4245 367.644 80.0631 367.8 80.7173L368.361 82.1657L368.267 80.8107C368.205 79.7516 368.143 78.8171 368.08 78.0072C368.018 77.1661 367.987 76.2472 367.987 75.2504C368.049 74.347 368.174 73.4904 368.361 72.6805C368.516 71.9952 368.75 71.3566 369.061 70.7647C368.688 71.5123 368.438 72.369 368.314 73.3346C368.158 74.3937 368.08 75.5152 368.08 76.6989C368.08 77.6334 368.127 78.5212 368.22 79.3622C368.314 80.2033 368.423 81.0443 368.547 81.8854C368.703 82.7264 368.859 83.5987 369.015 84.502C369.171 85.3742 369.295 86.3399 369.389 87.399L369.529 88.2868L369.809 90.9501L368.641 91.4174ZM369.202 70.5311L369.061 70.7647L369.202 70.5311ZM406.639 62.4476L406.499 63.2887C406.343 64.815 406.25 66.4504 406.218 68.1948C406.187 69.9081 406.063 71.6369 405.845 73.3814C406.094 71.6681 406.296 69.986 406.452 68.335C406.608 66.6217 406.764 64.9396 406.919 63.2887C407.075 63.7871 407.2 64.3166 407.293 64.8773C407.418 65.438 407.48 66.0299 407.48 66.6529C407.324 68.2104 407.184 69.7056 407.059 71.1385C406.935 72.5715 406.764 74.0667 406.546 75.6242L405.938 75.7644C405.782 77.1973 405.455 78.7548 404.957 80.4369C404.458 82.119 403.726 83.6765 402.761 85.1094C401.826 86.5424 400.611 87.7416 399.116 88.7073C397.621 89.6418 395.83 90.1091 393.743 90.1091C393.057 90.1091 392.325 90.0623 391.547 89.9689C390.799 89.8443 390.067 89.673 389.351 89.4549C388.634 89.2057 387.949 88.8942 387.295 88.5204C386.64 88.1466 386.08 87.6793 385.613 87.1186L385.659 87.2121V87.2588L385.613 87.3055L385.472 87.2588C385.659 87.5392 385.862 87.7884 386.08 88.0064C385.519 87.508 385.005 86.9317 384.538 86.2776C383.759 85.2185 383.136 83.9569 382.669 82.4928C382.388 81.6206 382.17 80.7328 382.015 79.8295C381.859 78.9261 381.75 77.976 381.688 76.9792C381.625 75.9513 381.579 74.8454 381.547 73.6617C381.547 72.478 381.547 71.1697 381.547 69.7368C381.828 68.6154 382.046 67.494 382.202 66.3725C382.357 65.2511 382.466 64.1297 382.529 63.0083C382.622 63.0083 382.731 62.9927 382.856 62.9616C382.98 62.9304 383.105 62.9149 383.23 62.9149C383.448 62.9149 383.634 63.0395 383.79 63.2887C383.977 63.5379 384.071 64.0674 384.071 64.8773V65.2979C384.071 65.4225 384.055 65.5626 384.024 65.7184H384.585C384.834 64.4101 385.13 63.4133 385.472 62.728C385.815 62.0427 386.158 61.7 386.5 61.7C386.749 61.7 386.968 62.0582 387.154 62.7747C387.372 63.46 387.482 64.5503 387.482 66.0455C387.482 67.1357 387.45 68.2416 387.388 69.363C387.326 70.4844 387.295 71.6369 387.295 72.8207C387.295 74.6585 387.372 76.3251 387.528 77.8203C387.715 79.3155 388.058 80.5927 388.556 81.6518C389.055 82.7109 389.755 83.5364 390.659 84.1282C391.593 84.6889 392.793 84.9693 394.257 84.9693C395.472 84.9693 396.484 84.5955 397.294 83.8479C398.104 83.1002 398.789 82.1034 399.35 80.8574C399.91 79.6114 400.378 78.1785 400.752 76.5587C401.157 74.9077 401.53 73.1945 401.873 71.4189C401.935 70.9205 401.982 70.4221 402.013 69.9237C402.044 69.4253 402.06 68.9113 402.06 68.3817V66.9332C402.06 66.0299 402.107 65.2667 402.2 64.6437C402.293 64.0207 402.558 63.6625 402.994 63.569C402.994 65.1577 402.948 66.7308 402.854 68.2883C402.792 69.7835 402.667 71.2787 402.48 72.7739C402.698 71.3099 402.87 69.8458 402.994 68.3817C403.119 66.8554 403.212 65.2979 403.275 63.7092C403.462 63.8338 403.617 63.8961 403.742 63.8961C403.867 63.8961 403.991 63.8338 404.116 63.7092V62.0271C404.272 61.4664 404.427 61.077 404.583 60.8589C404.739 60.6097 404.91 60.4851 405.097 60.4851C405.284 60.4851 405.471 60.5786 405.658 60.7655C405.845 60.9524 406.032 61.186 406.218 61.4664L406.639 62.4476ZM387.341 88.9409C388.089 89.3459 388.852 89.673 389.631 89.9222C390.441 90.1402 391.188 90.296 391.874 90.3894C392.59 90.4829 393.166 90.5296 393.603 90.5296C395.783 90.5296 397.637 90.0468 399.163 89.0811C400.689 88.1154 401.935 86.9162 402.901 85.4832C403.898 84.0192 404.661 82.4617 405.19 80.8107C405.689 79.2532 406.063 77.8203 406.312 76.512C406.094 77.8203 405.751 79.2688 405.284 80.8574C404.754 82.5395 403.991 84.1126 402.994 85.5767C402.029 87.0408 400.798 88.2712 399.303 89.268C397.808 90.2648 396.001 90.7632 393.883 90.7632C392.699 90.7632 391.531 90.6075 390.378 90.296C389.226 89.9845 388.151 89.5016 387.154 88.8475C387.217 88.8786 387.279 88.9098 387.341 88.9409ZM405.237 77.4465C405.331 76.9169 405.409 76.4029 405.471 75.9045C405.533 75.4684 405.595 75.0323 405.658 74.5962C405.471 75.9668 405.159 77.4153 404.723 78.9417C404.287 80.5303 403.68 82.0411 402.901 83.4741C402.122 84.8758 401.141 86.1218 399.957 87.2121C398.836 88.24 397.527 88.9409 396.032 89.3147C397.341 89.0344 398.509 88.4892 399.537 87.6793C400.596 86.8383 401.499 85.857 402.247 84.7356C402.994 83.6142 403.602 82.4149 404.069 81.1378C404.567 79.8606 404.957 78.6302 405.237 77.4465ZM400.611 80.7173C400.269 81.4026 399.879 82.0567 399.443 82.6797C399.038 83.3027 398.571 83.8634 398.041 84.3618C398.602 83.8946 399.085 83.3495 399.49 82.7264C399.926 82.1034 400.3 81.4337 400.611 80.7173ZM387.154 88.8475C386.781 88.5983 386.422 88.3179 386.08 88.0064C386.422 88.3179 386.781 88.5983 387.154 88.8475ZM406.359 76.1849L406.312 76.512L406.359 76.1849ZM405.704 74.3626C405.673 74.456 405.658 74.5339 405.658 74.5962C405.658 74.5339 405.673 74.456 405.704 74.3626ZM412.633 87.913C412.633 87.7572 412.679 87.5703 412.773 87.3523C412.866 87.1342 412.913 86.9006 412.913 86.6514C413.006 85.9038 413.069 85.3742 413.1 85.0627C413.131 84.7201 413.147 84.4241 413.147 84.1749C413.147 82.8666 413.1 81.4649 413.006 79.9696C412.944 78.4433 412.866 76.9792 412.773 75.5775C412.773 75.1414 412.757 74.6274 412.726 74.0355C412.726 73.4437 412.695 72.9764 412.633 72.6338C412.726 71.5435 412.804 70.4688 412.866 69.4097C412.928 68.3506 412.96 67.2759 412.96 66.1856V65.0175C412.96 64.6126 412.944 64.2076 412.913 63.8026C413.006 63.8961 413.1 63.9428 413.193 63.9428C413.318 63.9428 413.442 63.8961 413.567 63.8026C413.723 63.7092 413.863 63.6625 413.988 63.6625C414.206 63.6625 414.377 63.8961 414.502 64.3633C414.657 64.8306 414.735 65.8586 414.735 67.4472H415.156C415.311 65.7028 415.545 64.3166 415.857 63.2887C416.199 62.2607 416.542 61.7467 416.885 61.7467C417.04 61.7467 417.29 62.0894 417.632 62.7747C417.975 63.4288 418.146 64.4724 418.146 65.9053L418.66 65.0642C419.003 64.6593 419.377 64.2387 419.782 63.8026C420.218 63.3665 420.7 62.9772 421.23 62.6345C421.76 62.2919 422.351 62.0115 423.006 61.7935C423.66 61.5442 424.407 61.4196 425.248 61.4196C426.868 61.4196 428.27 61.7934 429.454 62.5411C430.669 63.2575 431.681 64.2076 432.491 65.3913C433.301 66.5439 433.955 67.8678 434.453 69.363C434.983 70.827 435.388 72.3222 435.668 73.8486C435.949 75.3438 436.135 76.7923 436.229 78.1941C436.322 79.5958 436.369 80.7951 436.369 81.7919C436.369 82.6953 436.307 83.2404 436.182 83.4273C436.089 83.5831 435.902 83.6765 435.621 83.7077C435.559 81.3091 435.403 78.8638 435.154 76.3718C434.905 73.8798 434.313 71.4656 433.379 69.1293C434.22 71.5902 434.749 74.0199 434.967 76.4185C435.217 78.7859 435.341 81.1689 435.341 83.5675C435.154 83.4741 434.983 83.4273 434.827 83.4273C434.703 83.4273 434.594 83.4741 434.5 83.5675C434.5 83.8167 434.516 84.0815 434.547 84.3618C434.578 84.611 434.594 84.8602 434.594 85.1094C434.625 85.3586 434.64 85.5923 434.64 85.8103C434.453 86.5268 434.266 87.0408 434.08 87.3523C433.893 87.6638 433.721 87.8195 433.566 87.8195C433.379 87.8195 433.223 87.7416 433.098 87.5859C432.974 87.399 432.849 87.1809 432.725 86.9317C432.631 86.6825 432.522 86.4178 432.397 86.1374C432.304 85.8259 432.164 85.53 431.977 85.2496C432.039 84.7201 432.086 84.2995 432.117 83.988C432.148 83.6454 432.164 83.365 432.164 83.147C432.164 82.3059 432.148 81.2935 432.117 80.1098C432.086 78.9261 431.992 77.6957 431.837 76.4185C431.712 75.1102 431.494 73.8175 431.183 72.5403C430.902 71.232 430.497 70.0794 429.968 69.0826C429.469 68.0547 428.831 67.2292 428.052 66.6062C427.273 65.952 426.339 65.6249 425.248 65.6249C424.501 65.6249 423.831 65.8741 423.239 66.3725C422.679 66.8709 422.18 67.5095 421.744 68.2883C421.339 69.067 420.981 69.9237 420.669 70.8582C420.358 71.7615 420.109 72.6338 419.922 73.4748C420.202 72.6026 420.482 71.7148 420.763 70.8115C421.074 69.9081 421.433 69.0826 421.837 68.335C422.274 67.5874 422.772 66.98 423.333 66.5127C423.893 66.0143 424.548 65.7651 425.295 65.7651C426.261 65.7651 427.086 66.0299 427.772 66.5594C428.488 67.089 429.08 67.7743 429.547 68.6154C430.046 69.4564 430.435 70.4221 430.715 71.5123C431.027 72.5715 431.26 73.6617 431.416 74.7831C431.572 75.8734 431.665 76.9481 431.697 78.0072C431.759 79.0351 431.79 79.9229 431.79 80.6705C431.79 81.2624 431.774 81.8542 431.743 82.4461C431.743 83.0379 431.728 83.6454 431.697 84.2684C431.416 83.0847 431.198 81.8542 431.042 80.5771C430.918 79.2688 430.778 77.9916 430.622 76.7456C430.466 75.4684 430.264 74.2536 430.014 73.101C429.796 71.9173 429.469 70.827 429.033 69.8302L429.36 69.363C429.049 68.6465 428.691 68.1014 428.286 67.7276C427.912 67.3226 427.538 67.0267 427.164 66.8398C426.79 66.6529 426.448 66.5439 426.136 66.5127C425.825 66.4816 425.622 66.466 425.529 66.466C424.75 66.466 424.049 66.7463 423.426 67.3071C422.834 67.8678 422.305 68.6309 421.837 69.5966C421.401 70.5311 421.012 71.6214 420.669 72.8674C420.327 74.1134 420.031 75.4217 419.782 76.7923C419.532 78.1629 419.314 79.5491 419.127 80.9509C418.941 82.3215 418.785 83.6142 418.66 84.8291H419.081C419.236 83.77 419.392 82.6018 419.548 81.3247C419.735 80.0475 419.922 78.7548 420.109 77.4465C420.327 76.107 420.576 74.8143 420.856 73.5683C421.137 72.3222 421.464 71.2008 421.837 70.204C422.242 69.2072 422.71 68.3973 423.239 67.7743C423.738 67.1825 424.345 66.8398 425.062 66.7463C424.376 66.9021 423.8 67.3382 423.333 68.0547C422.834 68.8023 422.398 69.7212 422.024 70.8115C421.651 71.9017 421.308 73.101 420.996 74.4093C420.716 75.6865 420.451 76.9169 420.202 78.1006L419.268 84.9225C419.143 85.3586 419.05 85.748 418.987 86.0907L418.8 87.0719C418.738 87.3834 418.676 87.7261 418.613 88.0999C418.551 88.4425 418.473 88.8475 418.38 89.3147L418.24 89.8754H417.959L413.24 88.2868C413.084 88.2556 412.96 88.2089 412.866 88.1466C412.804 88.0843 412.726 88.0064 412.633 87.913ZM420.763 63.9428C420.14 64.4724 419.641 65.0487 419.268 65.6717C418.925 66.2635 418.598 66.8709 418.286 67.494V67.5407C418.722 66.6373 419.33 65.7184 420.109 64.7839C420.856 63.9117 421.853 63.2575 423.099 62.8214C422.694 62.946 422.305 63.0706 421.931 63.1952C421.495 63.351 421.105 63.6002 420.763 63.9428ZM426.37 62.4009C426.214 62.3697 425.996 62.3542 425.716 62.3542C426.712 62.6034 427.647 62.8837 428.519 63.1952C429.391 63.4756 430.217 64.0518 430.996 64.9241C430.466 64.2076 429.765 63.6469 428.893 63.2419C428.052 62.837 427.211 62.5566 426.37 62.4009ZM427.631 67.7276C427.382 67.5407 427.086 67.4005 426.744 67.3071C426.432 67.1825 426.043 67.0267 425.576 66.8398L425.529 66.7463C426.058 66.7775 426.526 66.9021 426.931 67.1202C427.336 67.3071 427.725 67.6497 428.099 68.1481L427.631 67.7276ZM431.089 65.0175C431.525 65.5471 431.93 66.1545 432.304 66.8398C432.678 67.5251 433.005 68.1325 433.285 68.6621C432.974 67.9456 432.678 67.2915 432.397 66.6996C432.117 66.1078 431.681 65.5471 431.089 65.0175ZM444.928 83.3806C445.426 83.5364 446.018 83.8167 446.703 84.2217C447.42 84.6266 448.214 85.0471 449.086 85.4832C449.958 85.9194 450.908 86.3087 451.936 86.6514C452.995 86.994 454.117 87.1654 455.301 87.1654H455.815C456.001 87.1654 456.22 87.1342 456.469 87.0719L456.983 87.4457C458.198 87.0719 459.194 86.371 459.973 85.3431C460.752 84.284 461.141 82.8666 461.141 81.0911C461.141 79.8139 460.83 78.9417 460.207 78.4744C459.615 77.976 458.509 77.7268 456.889 77.7268C455.892 77.7268 454.849 77.8047 453.759 77.9605C452.7 78.0851 451.578 78.1474 450.394 78.1474C449.865 78.1474 449.32 78.1318 448.759 78.1006C448.198 78.0383 447.622 77.9293 447.03 77.7735V78.0539C448.276 78.3654 449.507 78.5212 450.721 78.5212C451.905 78.5212 453.027 78.4589 454.086 78.3343C455.176 78.1785 456.22 78.1006 457.216 78.1006C458.057 78.1006 458.712 78.1941 459.179 78.381C459.677 78.5367 460.051 78.7548 460.3 79.0351C460.549 79.3155 460.705 79.6581 460.767 80.0631C460.861 80.4369 460.908 80.8574 460.908 81.3247C460.908 82.7887 460.518 84.0348 459.739 85.0627C458.992 86.0284 458.104 86.6358 457.076 86.885C458.229 86.4801 459.132 85.7792 459.786 84.7824C460.472 83.7233 460.814 82.5395 460.814 81.2312C460.814 80.2967 460.565 79.5803 460.067 79.0819C459.599 78.5835 458.774 78.3343 457.59 78.3343C456.624 78.3343 455.534 78.3966 454.319 78.5212C453.104 78.6458 451.812 78.7081 450.441 78.7081C449.6 78.7081 448.619 78.599 447.497 78.381C446.407 78.1629 445.364 77.758 444.367 77.1661C443.37 76.5743 442.529 75.7644 441.844 74.7364C441.158 73.6773 440.816 72.3067 440.816 70.6246C440.816 69.2851 441.08 68.0547 441.61 66.9332C442.171 65.7807 442.903 64.7839 443.806 63.9428C444.709 63.0706 445.737 62.3853 446.89 61.8869C448.074 61.3885 449.289 61.1237 450.535 61.0926C451.718 61.0926 452.84 61.2639 453.899 61.6065C454.989 61.9181 456.017 62.3386 456.983 62.8681C457.948 63.3665 458.867 63.9272 459.739 64.5503C460.612 65.1733 461.422 65.7963 462.169 66.4193L461.235 67.3538C461.017 67.3538 460.69 67.2292 460.253 66.98C459.817 66.6996 459.148 66.2324 458.244 65.5782L457.964 65.9987C459.085 66.9021 459.895 67.7432 460.394 68.5219C460.923 69.3007 461.188 69.9081 461.188 70.3442C461.126 70.5934 460.97 70.718 460.721 70.718C460.472 70.718 459.973 70.5155 459.226 70.1106C458.478 69.7056 457.621 69.2539 456.656 68.7555C455.721 68.2571 454.724 67.8055 453.665 67.4005C452.606 66.9955 451.64 66.7931 450.768 66.7931C450.27 66.7931 449.771 66.8865 449.273 67.0734C448.775 67.2603 448.323 67.5251 447.918 67.8678C447.513 68.1793 447.17 68.5686 446.89 69.0359C446.641 69.5031 446.516 70.0171 446.516 70.5778C446.516 71.4812 446.937 72.0886 447.778 72.4001C448.619 72.7116 449.725 72.8674 451.095 72.8674C451.376 72.8674 451.672 72.8674 451.983 72.8674C452.326 72.8362 452.637 72.7895 452.918 72.7272C453.634 72.7272 454.101 72.7116 454.319 72.6805C454.569 72.6182 454.802 72.587 455.02 72.587C456.36 72.587 457.699 72.6805 459.039 72.8674C460.378 73.0543 461.577 73.4592 462.636 74.0822C463.696 74.7052 464.552 75.593 465.206 76.7456C465.861 77.8982 466.188 79.4401 466.188 81.3714C466.188 82.7109 465.954 84.0503 465.487 85.3898C465.051 86.6981 464.381 87.8818 463.478 88.9409C462.574 89.9689 461.453 90.7944 460.113 91.4174C458.774 92.0715 457.201 92.3986 455.394 92.3986C454.304 92.3986 453.011 92.1806 451.516 91.7445C450.052 91.3395 448.65 90.8567 447.311 90.296C446.002 89.7041 444.881 89.0967 443.946 88.4737C443.043 87.8507 442.591 87.3211 442.591 86.885C442.591 86.7604 442.669 86.667 442.825 86.6047C444.725 88.0064 446.656 89.159 448.619 90.0623C450.55 90.9034 452.528 91.3707 454.553 91.4641C453.556 91.4018 452.559 91.2305 451.563 90.9501C450.535 90.6386 449.507 90.2648 448.479 89.8287C447.482 89.3615 446.516 88.8475 445.582 88.2868C444.678 87.6949 443.806 87.1031 442.965 86.5112L443.666 85.9038C443.572 85.8726 443.401 85.7636 443.152 85.5767C442.903 85.3898 442.654 85.1562 442.404 84.8758C442.186 84.5955 441.984 84.2995 441.797 83.988C441.61 83.6765 441.517 83.3806 441.517 83.1002C441.517 82.7887 441.579 82.5863 441.703 82.4928C441.828 82.3994 441.968 82.3526 442.124 82.3526C442.28 82.3526 442.607 82.4617 443.105 82.6797C443.604 82.8978 444.211 83.1314 444.928 83.3806ZM455.254 88.1466C454.164 88.1466 452.949 87.9285 451.609 87.4924C450.301 87.0252 449.055 86.4333 447.871 85.7169C448.837 86.371 449.912 86.9629 451.095 87.4924C452.279 87.9908 453.65 88.24 455.207 88.24C457.294 88.24 458.945 87.6015 460.16 86.3243C461.406 85.0471 462.029 83.3339 462.029 81.1845V80.7173C461.873 79.7204 461.531 78.9105 461.001 78.2875C460.503 77.6334 459.724 77.2751 458.665 77.2128C459.319 77.3374 459.849 77.5399 460.253 77.8203C460.69 78.1006 461.017 78.4433 461.235 78.8482C461.484 79.222 461.655 79.6426 461.749 80.1098C461.842 80.5771 461.889 81.0599 461.889 81.5583C461.764 83.6142 461.11 85.234 459.926 86.4178C458.743 87.5703 457.185 88.1466 455.254 88.1466ZM461.188 89.9689C461.967 89.4705 462.59 88.8631 463.057 88.1466C463.524 87.4301 463.929 86.6825 464.272 85.9038C463.618 87.2121 462.714 88.3646 461.562 89.3615C460.44 90.3583 459.101 90.9813 457.543 91.2305C458.135 91.137 458.743 91.0124 459.366 90.8567C460.02 90.6698 460.627 90.3738 461.188 89.9689ZM465.627 81.1845C465.627 80.8419 465.565 80.5148 465.44 80.2033C465.347 79.9541 465.269 79.6893 465.206 79.4089L465.253 80.0164C465.284 80.2656 465.3 80.6082 465.3 81.0443C465.3 81.8854 465.206 82.6953 465.019 83.4741C464.833 84.2528 464.599 85.016 464.319 85.7636C464.599 85.0783 464.864 84.3618 465.113 83.6142C465.393 82.8355 465.565 82.0256 465.627 81.1845ZM465.206 79.2688C465.206 79.2999 465.206 79.3466 465.206 79.4089C465.206 79.3466 465.206 79.2999 465.206 79.2688ZM457.029 86.9317C456.998 86.9317 456.967 86.9317 456.936 86.9317C456.967 86.9317 456.998 86.9317 457.029 86.9317Z" fill="white"/>
<path fill-rule="evenodd" clip-rule="evenodd" d="M70.5692 104.525C62.746 98.5918 52.1566 90.5601 19.3511 112.989C1.6549 100.221 -2.62793 78.1913 4.507 66.3732C9.84391 63.5115 14.2499 58.5822 18.6664 53.6412C27.0935 44.2132 35.5588 34.7427 50.6018 39.5123C41.9977 52.1951 70.2756 65.5546 70.2756 33.8039C75.6638 43.7015 82.8422 50.0997 88.7781 55.3905C94.6949 60.6642 99.3772 64.8376 99.8216 70.2796C101.157 86.6317 96.0215 101.257 83.2079 107.529C77.9338 110.111 74.6228 107.6 70.5692 104.525ZM77.4663 114.082C78.9938 114.293 82.0521 114.714 85.6009 112.461C89.5335 109.965 86.5281 120.723 80.5416 121.867C78.0999 122.334 74.5609 113.787 76.9514 114.017C77.0957 114.031 77.2681 114.055 77.4663 114.082ZM82.8571 66.2061C82.8571 70.0175 79.7673 73.1073 75.9559 73.1073C72.1445 73.1073 69.0547 70.0175 69.0547 66.2061C69.0547 62.3947 72.1445 59.3049 75.9559 59.3049C79.7673 59.3049 82.8571 62.3947 82.8571 66.2061ZM71.1381 77.9251C71.1381 81.7365 68.0483 84.8263 64.2369 84.8263C60.4255 84.8263 57.3357 81.7365 57.3357 77.9251C57.3357 74.1137 60.4255 71.0239 64.2369 71.0239C68.0483 71.0239 71.1381 74.1137 71.1381 77.9251ZM75.9559 96.5451C79.7673 96.5451 82.8571 93.4554 82.8571 89.644C82.8571 85.8325 79.7673 82.7428 75.9559 82.7428C72.1445 82.7428 69.0547 85.8325 69.0547 89.644C69.0547 93.4554 72.1445 96.5451 75.9559 96.5451ZM94.5761 77.9251C94.5761 81.7365 91.4864 84.8263 87.6749 84.8263C83.8635 84.8263 80.7737 81.7365 80.7737 77.9251C80.7737 74.1137 83.8635 71.0239 87.6749 71.0239C91.4864 71.0239 94.5761 74.1137 94.5761 77.9251ZM23.2203 71.8054H11.5013V83.7848H23.2203L23.2203 95.5039H34.9393V83.7849L46.6583 83.7848V71.8054L34.9393 71.8054V60.0864H23.2203L23.2203 71.8054Z" fill="white"/>
<path d="M564.224 79.6137C564.224 81.6072 564.007 83.5573 563.574 85.4642C563.14 87.371 562.468 89.1045 561.558 90.6646C560.692 92.1814 559.587 93.4165 558.243 94.3699C556.943 95.28 555.405 95.735 553.628 95.735C551.764 95.735 550.291 95.1717 549.207 94.0449C548.124 92.8748 547.452 91.553 547.192 90.0796H546.867C546.174 91.683 545.112 93.0265 543.682 94.1099C542.252 95.1933 540.453 95.735 538.286 95.735C535.123 95.735 532.696 94.6299 531.006 92.4198C529.316 90.2096 528.471 87.2843 528.471 83.644C528.471 80.7838 528.991 78.2702 530.031 76.1034C531.114 73.8932 532.631 72.1597 534.581 70.9029C536.575 69.6461 538.893 69.0178 541.537 69.0178C543.357 69.0178 545.134 69.1911 546.867 69.5378C548.644 69.8412 550.009 70.1879 550.963 70.5779L550.377 83.774C550.334 84.5541 550.312 85.1175 550.312 85.4642C550.312 85.7675 550.312 85.9842 550.312 86.1142C550.312 88.3677 550.681 89.8629 551.418 90.5996C552.154 91.3363 552.999 91.7047 553.953 91.7047C555.21 91.7047 556.271 91.163 557.138 90.0796C558.005 88.9528 558.655 87.4793 559.088 85.6592C559.565 83.7957 559.803 81.7588 559.803 79.5487C559.803 75.5183 559.045 72.1164 557.528 69.3428C556.011 66.5259 553.931 64.3807 551.288 62.9072C548.644 61.4338 545.632 60.697 542.252 60.697C538.785 60.697 535.708 61.2821 533.021 62.4522C530.377 63.6223 528.146 65.2691 526.325 67.3926C524.549 69.5161 523.183 72.0297 522.23 74.9333C521.32 77.7935 520.865 80.9571 520.865 84.4241C520.865 88.6711 521.558 92.2897 522.945 95.28C524.375 98.2269 526.455 100.48 529.186 102.041C531.959 103.557 535.34 104.316 539.327 104.316C541.753 104.316 544.115 104.012 546.412 103.406C548.752 102.842 550.789 102.214 552.523 101.521V105.941C550.789 106.721 548.817 107.349 546.607 107.826C544.397 108.346 541.97 108.606 539.327 108.606C534.516 108.606 530.377 107.653 526.91 105.746C523.487 103.839 520.865 101.109 519.045 97.5552C517.225 93.9582 516.315 89.6462 516.315 84.6191C516.315 80.5887 516.9 76.8618 518.07 73.4381C519.283 69.9712 520.995 66.9809 523.205 64.4674C525.459 61.9105 528.189 59.9386 531.396 58.5519C534.603 57.1217 538.221 56.4067 542.252 56.4067C545.459 56.4067 548.384 56.9484 551.028 58.0318C553.714 59.0719 556.033 60.6104 557.983 62.6472C559.977 64.6407 561.515 67.0676 562.599 69.9278C563.682 72.7881 564.224 76.0167 564.224 79.6137ZM533.411 83.774C533.411 86.5476 533.909 88.5628 534.906 89.8195C535.946 91.0763 537.333 91.7047 539.066 91.7047C541.32 91.7047 542.945 90.7946 543.942 88.9745C544.982 87.1543 545.567 84.7924 545.697 81.8889L546.087 73.7632C545.524 73.5898 544.852 73.4381 544.072 73.3081C543.292 73.1781 542.468 73.1131 541.602 73.1131C539.608 73.1131 538.005 73.6331 536.791 74.6732C535.578 75.7133 534.711 77.0568 534.191 78.7036C533.671 80.3071 533.411 81.9972 533.411 83.774Z" fill="white"/>
<g clip-path="url(#clip0_6300_2161)">
<path d="M720.857 106.208V104.562H701.657V122.393L703.029 123.491C703.852 122.668 705.607 119.376 711.531 119.376C718.937 119.376 721.131 125.96 721.131 129.252C721.131 132.544 718.663 138.579 711.806 138.579C706.32 138.579 702.937 135.104 701.932 133.367L700.879 133.916C703.118 138.854 708.514 139.951 711.806 139.951C715.097 139.951 722.503 138.579 722.503 129.252C722.503 119.924 715.042 118.004 711.531 118.004C708.021 118.004 704.949 119.65 703.303 121.57V106.208H720.857Z" fill="#F4B223"/>
<path d="M613.876 137.472C625.008 128.219 634.1 120.484 634.1 113.009C634.1 107.363 629.553 105.116 625.425 105.116C620.983 105.116 617.586 107.049 615.81 109.82L614.451 108.827C616.593 105.64 620.566 103.548 625.478 103.548C629.92 103.548 635.773 106.11 635.773 113.009C635.773 121.164 626.68 128.742 616.332 137.367H635.876V138.934H613.876V137.472Z" fill="#F4B223"/>
<path d="M654.744 103.548C663.889 103.548 667.128 113.426 667.128 121.529C667.128 129.578 663.889 139.562 654.744 139.562C645.546 139.562 642.306 129.578 642.306 121.529C642.304 113.428 645.546 103.548 654.744 103.548ZM654.744 105.117C646.696 105.117 644.135 114.108 644.135 121.53C644.135 128.901 646.696 137.996 654.744 137.996C662.739 137.996 665.3 128.901 665.3 121.53C665.3 114.107 662.791 105.117 654.744 105.117Z" fill="#F4B223"/>
<path d="M671.57 137.472C682.702 128.219 691.794 120.484 691.794 113.009C691.794 107.363 687.247 105.116 683.119 105.116C678.677 105.116 675.28 107.049 673.504 109.82L672.145 108.827C674.287 105.64 678.26 103.548 683.172 103.548C687.614 103.548 693.467 106.11 693.467 113.009C693.467 121.164 684.374 128.742 674.026 137.367H693.572V138.934H671.57V137.472Z" fill="#F4B223"/>
<path d="M761.464 123.768H766.853L764.16 116.626L761.464 123.768Z" fill="#F4B223"/>
<path d="M735.241 103.523V139.477H822.915V103.523H735.241ZM768.695 128.978L767.594 126.08H760.723L759.623 128.978H756.637L762.519 114H765.796L771.68 128.978H768.695ZM786.723 123.049C786.723 126.754 784.589 129.246 780.233 129.246C775.9 129.246 773.744 126.754 773.744 123.049V113.998H776.415V122.982C776.415 125.361 777.74 126.913 780.232 126.913C782.723 126.913 784.048 125.363 784.048 122.982V113.998H786.721V123.049H786.723ZM795.724 129.247C792.962 129.247 790.963 128.26 789.616 126.867L791.098 124.823C792.108 125.924 793.746 126.913 795.836 126.913C797.99 126.913 798.821 125.858 798.821 124.847C798.821 121.702 790.11 123.656 790.11 118.154C790.11 115.662 792.264 113.754 795.566 113.754C797.879 113.754 799.787 114.517 801.158 115.864L799.676 117.817C798.485 116.628 796.892 116.088 795.318 116.088C793.792 116.088 792.803 116.853 792.803 117.953C792.803 120.758 801.516 119.031 801.516 124.601C801.517 127.091 799.743 129.247 795.724 129.247Z" fill="#F4B223"/>
<path d="M731.257 87.0739L747.406 70.9204L711.942 15.8691L676.479 70.9204L692.625 87.0739H731.257Z" fill="#F4B223"/>
<path d="M670.537 32.5315L654.633 16.624H613.831V87.0739H637.367V71.6905H670.537V32.5315Z" fill="#F4B223"/>
<path d="M806.273 16.2525L787.328 35.2034L768.379 16.2542L751.744 32.898L770.623 51.8506L751.741 70.8016L768.379 87.442L787.328 68.491L806.273 87.442L822.914 70.7999L803.968 51.8506L822.914 32.8997L806.273 16.2525Z" fill="#F4B223"/>
</g>
<defs>
<clipPath id="clip0_6300_2161">
<rect width="209" height="124" fill="white" transform="translate(613.888 15.9509)"/>
</clipPath>
</defs>
</svg>
