<svg width="1000" height="552" viewBox="0 0 1000 552" fill="none" xmlns="http://www.w3.org/2000/svg">
<path d="M115.709 474.837C113.536 474.837 111.646 474.034 110.039 472.427L81.6905 444.078C80.1786 442.566 79.4226 440.676 79.4226 438.409V322.178C79.4226 320.005 80.1786 318.115 81.6905 316.509L110.039 288.16C111.646 286.648 113.536 285.892 115.709 285.892H173.824C176.092 285.892 177.982 286.648 179.494 288.16L207.843 316.509C209.449 318.115 210.252 320.005 210.252 322.178V438.409C210.252 440.676 209.449 442.566 207.843 444.078L179.494 472.427C177.982 474.034 176.092 474.837 173.824 474.837H115.709ZM144.341 418.139H145.334C149.208 418.139 151.145 415.446 151.145 410.06V350.527C151.145 345.235 149.208 342.59 145.334 342.59H144.341C140.373 342.59 138.388 345.235 138.388 350.527V410.06C138.388 415.446 140.373 418.139 144.341 418.139ZM225.818 474.837C223.455 474.837 222.274 473.656 222.274 471.293V289.436C222.274 287.073 223.455 285.892 225.818 285.892H313.415C315.589 285.892 317.479 286.648 319.085 288.16L347.434 316.509C349.04 318.115 349.844 320.005 349.844 322.178V391.633C349.844 393.901 349.04 395.791 347.434 397.303L319.085 425.652C317.479 427.258 315.589 428.061 313.415 428.061H281.239V471.293C281.239 473.656 280.058 474.837 277.696 474.837H225.818ZM284.783 369.946C288.657 369.946 291.776 368.718 294.138 366.261C296.595 363.804 297.824 360.686 297.824 356.906C297.824 353.126 296.595 350.055 294.138 347.692C291.776 345.235 288.657 344.007 284.783 344.007C281.003 344.007 277.885 345.235 275.428 347.692C273.066 350.055 271.884 353.126 271.884 356.906C271.884 360.686 273.066 363.804 275.428 366.261C277.885 368.718 281.003 369.946 284.783 369.946ZM365.07 474.837C362.708 474.837 361.526 473.656 361.526 471.293V289.436C361.526 287.073 362.708 285.892 365.07 285.892H463.724C466.086 285.892 467.267 287.073 467.267 289.436V339.046C467.267 341.408 466.086 342.59 463.724 342.59H420.492V354.354H463.724C466.086 354.354 467.267 355.536 467.267 357.898V402.831C467.267 405.193 466.086 406.374 463.724 406.374H420.492V418.139H463.724C466.086 418.139 467.267 419.32 467.267 421.683V471.293C467.267 473.656 466.086 474.837 463.724 474.837H365.07ZM482.729 474.837C480.366 474.837 479.185 473.656 479.185 471.293V289.436C479.185 287.073 480.366 285.892 482.729 285.892H572.736C574.909 285.892 576.799 286.648 578.406 288.16L606.754 316.509C608.266 318.115 609.022 320.005 609.022 322.178V471.293C609.022 473.656 607.841 474.837 605.479 474.837H553.6C551.238 474.837 550.057 473.656 550.057 471.293V342.59H538.15V471.293C538.15 473.656 536.969 474.837 534.607 474.837H482.729ZM669.74 474.837C667.377 474.837 666.196 473.656 666.196 471.293L666.054 391.208C666.054 390.168 666.243 389.412 666.621 388.94C667.094 388.373 667.755 387.806 668.606 387.239L705.459 361.442V356.055L668.181 338.054C666.763 337.298 666.054 335.88 666.054 333.801V289.436C666.054 287.073 667.236 285.892 669.598 285.892H716.09C716.94 285.892 717.696 286.034 718.358 286.317C719.019 286.506 719.681 286.837 720.342 287.309L769.953 318.635C770.709 319.107 771.228 319.722 771.512 320.478C771.89 321.139 772.079 321.942 772.079 322.887V374.199C772.079 375.143 771.89 376.041 771.512 376.892C771.134 377.648 770.52 378.309 769.669 378.876L727.146 410.768V418.139H768.535C770.898 418.139 772.079 419.32 772.079 421.683V471.293C772.079 473.656 770.898 474.837 768.535 474.837H669.74ZM819.999 474.837C817.826 474.837 815.936 474.034 814.33 472.427L785.981 444.078C784.469 442.566 783.713 440.676 783.713 438.409V332.384C783.713 330.683 784.422 329.266 785.839 328.132L828.079 287.309C829.118 286.364 830.536 285.892 832.331 285.892H884.351C886.714 285.892 887.895 287.073 887.895 289.436V316.792C887.895 318.493 887.186 319.911 885.769 321.045L845.513 351.236V354.354H881.942C884.115 354.354 886.005 355.158 887.611 356.764L911.283 380.293C912.794 381.9 913.55 383.79 913.55 385.963V438.409C913.55 440.676 912.794 442.566 911.283 444.078L882.934 472.427C881.327 474.034 879.437 474.837 877.264 474.837H819.999ZM849.766 425.652C853.829 425.652 857.136 424.376 859.688 421.824C862.239 419.273 863.515 416.013 863.515 412.044C863.515 407.981 862.239 404.673 859.688 402.122C857.136 399.571 853.829 398.295 849.766 398.295C845.797 398.295 842.537 399.571 839.985 402.122C837.434 404.673 836.158 407.981 836.158 412.044C836.158 416.013 837.434 419.273 839.985 421.824C842.537 424.376 845.797 425.652 849.766 425.652Z" fill="white"/>
<path d="M326.221 164.155L325.71 163.899C323.322 163.274 320.793 162.876 318.122 162.706C315.45 162.535 312.722 162.166 309.937 161.597C312.665 162.166 315.336 162.62 317.951 162.961C320.566 163.246 323.152 163.814 325.71 164.667C324.914 165.178 324.061 165.434 323.152 165.434C322.072 165.32 320.992 165.15 319.912 164.922C318.889 164.695 317.781 164.524 316.587 164.411C316.587 164.07 316.672 163.814 316.843 163.643C315.194 163.643 313.546 163.473 311.898 163.132C310.306 162.791 308.743 162.421 307.208 162.023C305.674 161.569 304.167 161.171 302.69 160.83C301.269 160.432 299.933 160.233 298.682 160.233C298.682 160.404 298.654 160.489 298.597 160.489C300.075 160.773 301.467 161.171 302.775 161.682C304.082 162.194 305.56 162.592 307.208 162.876C308.8 163.274 310.335 163.558 311.812 163.729C313.347 163.899 314.853 164.127 316.331 164.411C313.944 164.183 311.5 163.842 308.999 163.388C306.555 162.933 304.139 162.421 301.752 161.853L297.744 160.83C296.323 164.468 294.874 168.049 293.396 171.573C291.975 175.04 290.583 178.564 289.218 182.145C289.105 181.918 288.906 181.775 288.622 181.719C288.394 181.719 288.138 181.719 287.854 181.719C287.627 181.719 287.4 181.633 287.172 181.463C286.945 181.349 286.831 181.065 286.831 180.61C286.831 180.155 286.945 179.502 287.172 178.649C287.4 177.853 287.826 176.773 288.451 175.409C288.337 175.296 288.138 175.239 287.854 175.239C287.627 175.182 287.456 175.154 287.343 175.154C286.206 177.541 285.098 179.36 284.018 180.61C282.994 181.918 282.17 182.571 281.545 182.571C280.863 182.571 280.522 181.918 280.522 180.61C280.522 179.53 280.721 178.166 281.119 176.518C281.517 174.813 282 172.994 282.568 171.061C283.193 169.129 283.875 167.139 284.614 165.093C285.353 162.99 286.064 160.944 286.746 158.954C286.121 158.556 285.439 158.272 284.7 158.102C284.018 157.931 283.25 157.789 282.398 157.675C282.568 157.448 282.653 157.164 282.653 156.823C282.653 156.482 282.682 156.141 282.739 155.8C282.795 155.458 282.909 155.174 283.08 154.947C283.25 154.72 283.563 154.606 284.018 154.606C284.131 154.606 284.472 154.663 285.041 154.776V154.009C284.131 153.554 283.421 153.014 282.909 152.389C282.454 151.764 282.227 151.139 282.227 150.513C282.227 149.149 283.534 148.467 286.149 148.467C286.888 148.467 287.627 148.524 288.366 148.638C289.162 148.694 289.957 148.78 290.753 148.893L294.675 139.941C295.528 138.009 296.437 136.019 297.403 133.973C298.427 131.927 299.62 129.909 300.984 127.919C302.348 125.93 303.883 124.054 305.588 122.292C307.35 120.473 309.368 118.853 311.642 117.432L312.921 116.921C314.512 117.319 315.791 117.66 316.757 117.944C317.781 118.171 318.605 118.342 319.23 118.456C319.798 118.683 320.253 118.825 320.594 118.882H320.509L320.594 119.138C320.594 119.194 320.566 119.251 320.509 119.308L321.532 121.099C325.227 127.294 328.353 133.717 330.911 140.367C333.468 147.018 335.657 153.554 337.476 159.977C337.93 161.398 338.47 162.933 339.096 164.581C339.778 166.173 340.403 167.708 340.971 169.185C341.597 170.606 342.108 171.914 342.506 173.107C342.904 174.244 343.103 175.068 343.103 175.58C343.103 175.978 343.018 176.234 342.847 176.347C342.677 176.404 342.449 176.432 342.165 176.432C340.687 172.738 339.295 169.1 337.987 165.519C336.68 161.995 335.401 158.443 334.151 154.862C335.287 158.443 336.481 161.995 337.731 165.519C339.039 169.1 340.346 172.738 341.653 176.432H341.057C340.716 176.432 340.488 176.603 340.375 176.944C340.488 177.058 340.63 177.37 340.801 177.882C340.971 178.337 341.142 178.82 341.312 179.331C341.483 179.9 341.625 180.468 341.739 181.037C341.852 181.605 341.909 182.031 341.909 182.315C341.909 183.566 341.54 184.191 340.801 184.191C340.403 184.191 340.09 184.106 339.863 183.935C339.636 183.765 339.38 183.537 339.096 183.253L338.243 182.401C337.902 182.06 337.476 181.719 336.964 181.378L328.779 157.846C329.973 161.54 331.138 165.235 332.275 168.93C333.468 172.624 334.69 176.262 335.941 179.843C335.032 178.763 334.179 177.456 333.383 175.921C332.644 174.386 331.934 172.766 331.252 171.061C330.626 169.356 330.03 167.622 329.461 165.86C328.893 164.041 328.324 162.336 327.756 160.745C327.756 160.858 327.756 160.972 327.756 161.086C327.813 161.142 327.841 161.228 327.841 161.341C327.841 162.251 327.557 162.933 326.989 163.388L326.221 164.155ZM325.71 155.288C325.823 155.288 325.994 155.26 326.221 155.203C326.449 155.089 326.619 155.032 326.733 155.032C324.857 150.314 322.981 145.739 321.106 141.305C319.287 136.872 317.269 132.609 315.052 128.516L314.541 129.028L315.82 131.33C317.809 134.968 319.599 138.719 321.191 142.584C322.782 146.449 324.289 150.428 325.71 154.521C324.061 150.087 322.271 145.682 320.338 141.305C318.463 136.872 316.445 132.865 314.285 129.284L313.944 129.454C312.011 131.444 310.192 133.831 308.487 136.616C306.839 139.401 305.276 142.243 303.798 145.142L301.581 150.513L303.031 150.854C303.883 151.082 304.707 151.338 305.503 151.622C306.356 151.849 307.095 152.105 307.72 152.389C308.97 153.014 310.619 153.497 312.665 153.839C314.711 154.18 316.701 154.521 318.633 154.862C320.623 155.146 322.328 155.487 323.749 155.885C325.227 156.226 325.966 156.737 325.966 157.419L315.564 156.226C316.189 156.339 316.956 156.482 317.866 156.652C318.775 156.766 319.685 156.908 320.594 157.078C321.56 157.249 322.498 157.419 323.408 157.59C324.317 157.704 325.085 157.817 325.71 157.931C325.71 158.102 325.681 158.272 325.624 158.443C325.624 158.556 325.624 158.67 325.624 158.784C325.624 158.897 325.681 158.983 325.795 159.039C325.966 159.039 326.136 159.068 326.307 159.125C326.534 159.125 326.733 159.181 326.903 159.295C327.074 159.352 327.244 159.523 327.415 159.807L325.71 155.288ZM307.208 137.042C307.322 137.042 307.35 137.128 307.294 137.298C307.294 137.412 307.322 137.469 307.379 137.469C307.493 137.469 307.834 137.071 308.402 136.275C308.97 135.479 309.624 134.57 310.363 133.547C311.102 132.523 311.812 131.557 312.494 130.648C313.177 129.738 313.66 129.142 313.944 128.857L313.518 128.26C312.324 129.397 311.216 130.733 310.192 132.268C309.169 133.802 308.175 135.394 307.208 137.042ZM315.82 127.834C317.638 130.904 319.315 134.115 320.85 137.469C322.328 140.765 323.72 144.062 325.028 147.359C323.948 144.062 322.64 140.765 321.106 137.469C319.514 134.115 317.781 130.904 315.905 127.834H315.82ZM328.864 140.623C330.626 145.17 332.36 149.803 334.065 154.521C332.474 149.917 330.797 145.369 329.035 140.879C327.387 136.445 325.482 131.984 323.322 127.493C325.369 131.813 327.216 136.19 328.864 140.623ZM316.331 125.958C317.07 126.129 317.582 126.299 317.866 126.47C318.15 126.641 318.349 126.726 318.463 126.726L318.548 126.47C318.605 126.47 318.491 126.442 318.207 126.385C317.923 126.328 317.695 126.271 317.525 126.214L317.695 125.873L316.672 125.532L316.331 125.958ZM312.153 125.106L312.835 126.896L312.75 125.106C312.637 125.106 312.494 125.077 312.324 125.021C312.21 124.964 312.097 124.935 311.983 124.935L312.153 125.106ZM314.37 127.578L313.773 128.005L314.285 128.687L314.796 128.175L314.37 127.578ZM315.564 127.408H315.649L315.223 126.811V126.896L315.564 127.408ZM394.891 126.129L394.635 127.664C394.351 130.449 394.181 133.433 394.124 136.616C394.067 139.742 393.839 142.897 393.442 146.08C393.896 142.954 394.266 139.884 394.55 136.872C394.834 133.746 395.118 130.676 395.403 127.664C395.687 128.573 395.914 129.539 396.085 130.563C396.312 131.586 396.426 132.666 396.426 133.802C396.142 136.644 395.886 139.373 395.658 141.987C395.431 144.602 395.118 147.33 394.721 150.172L393.612 150.428C393.328 153.043 392.731 155.885 391.822 158.954C390.912 162.023 389.576 164.865 387.814 167.48C386.109 170.095 383.892 172.283 381.164 174.045C378.436 175.75 375.168 176.603 371.359 176.603C370.109 176.603 368.773 176.518 367.352 176.347C365.988 176.12 364.652 175.807 363.345 175.409C362.037 174.955 360.787 174.386 359.593 173.704C358.4 173.022 357.377 172.169 356.524 171.146L356.609 171.317V171.402L356.524 171.487L356.268 171.402C356.609 171.914 356.979 172.368 357.377 172.766C356.353 171.857 355.416 170.805 354.563 169.612C353.142 167.679 352.005 165.377 351.153 162.706C350.641 161.114 350.243 159.494 349.959 157.846C349.675 156.197 349.476 154.464 349.362 152.645C349.248 150.769 349.163 148.751 349.106 146.591C349.106 144.431 349.106 142.044 349.106 139.43C349.618 137.383 350.016 135.337 350.3 133.291C350.584 131.245 350.783 129.198 350.897 127.152C351.067 127.152 351.266 127.124 351.494 127.067C351.721 127.01 351.948 126.982 352.176 126.982C352.574 126.982 352.915 127.209 353.199 127.664C353.54 128.118 353.71 129.085 353.71 130.563V131.33C353.71 131.557 353.682 131.813 353.625 132.097H354.648C355.103 129.71 355.643 127.891 356.268 126.641C356.893 125.39 357.519 124.765 358.144 124.765C358.599 124.765 358.997 125.418 359.338 126.726C359.735 127.976 359.934 129.966 359.934 132.694C359.934 134.683 359.878 136.701 359.764 138.747C359.65 140.794 359.593 142.897 359.593 145.057C359.593 148.41 359.735 151.451 360.02 154.18C360.361 156.908 360.986 159.238 361.895 161.171C362.805 163.103 364.084 164.61 365.732 165.69C367.437 166.713 369.626 167.224 372.297 167.224C374.514 167.224 376.361 166.542 377.839 165.178C379.317 163.814 380.567 161.995 381.59 159.721C382.614 157.448 383.466 154.833 384.148 151.878C384.887 148.865 385.569 145.739 386.194 142.499C386.308 141.589 386.393 140.68 386.45 139.771C386.507 138.861 386.536 137.923 386.536 136.957V134.314C386.536 132.666 386.621 131.273 386.791 130.136C386.962 128.999 387.445 128.346 388.241 128.175C388.241 131.074 388.155 133.944 387.985 136.786C387.871 139.515 387.644 142.243 387.303 144.971C387.701 142.3 388.013 139.628 388.241 136.957C388.468 134.172 388.639 131.33 388.752 128.431C389.093 128.658 389.378 128.772 389.605 128.772C389.832 128.772 390.06 128.658 390.287 128.431V125.362C390.571 124.339 390.855 123.628 391.14 123.23C391.424 122.775 391.736 122.548 392.077 122.548C392.418 122.548 392.76 122.719 393.101 123.06C393.442 123.401 393.783 123.827 394.124 124.339L394.891 126.129ZM359.679 174.471C361.043 175.21 362.435 175.807 363.856 176.262C365.334 176.66 366.698 176.944 367.949 177.115C369.256 177.285 370.308 177.37 371.103 177.37C375.082 177.37 378.464 176.489 381.249 174.727C384.035 172.965 386.308 170.777 388.07 168.162C389.889 165.491 391.282 162.649 392.248 159.636C393.157 156.794 393.839 154.18 394.294 151.792C393.896 154.18 393.271 156.823 392.418 159.721C391.452 162.791 390.06 165.661 388.241 168.333C386.479 171.004 384.234 173.249 381.505 175.068C378.777 176.887 375.48 177.797 371.615 177.797C369.455 177.797 367.324 177.512 365.22 176.944C363.117 176.376 361.156 175.495 359.338 174.301C359.451 174.358 359.565 174.415 359.679 174.471ZM392.333 153.497C392.504 152.531 392.646 151.593 392.76 150.684C392.873 149.888 392.987 149.092 393.101 148.297C392.76 150.798 392.191 153.441 391.395 156.226C390.6 159.125 389.491 161.881 388.07 164.496C386.649 167.054 384.859 169.327 382.699 171.317C380.653 173.193 378.265 174.471 375.537 175.154C377.924 174.642 380.056 173.647 381.931 172.169C383.864 170.635 385.512 168.844 386.877 166.798C388.241 164.752 389.349 162.563 390.202 160.233C391.111 157.903 391.822 155.657 392.333 153.497ZM383.892 159.466C383.267 160.716 382.557 161.91 381.761 163.047C381.022 164.183 380.169 165.207 379.203 166.116C380.226 165.263 381.107 164.269 381.846 163.132C382.642 161.995 383.324 160.773 383.892 159.466ZM359.338 174.301C358.655 173.846 358.002 173.335 357.377 172.766C358.002 173.335 358.655 173.846 359.338 174.301ZM394.379 151.195L394.294 151.792L394.379 151.195ZM393.186 147.87C393.129 148.041 393.101 148.183 393.101 148.297C393.101 148.183 393.129 148.041 393.186 147.87ZM412.052 164.326C412.961 164.61 414.041 165.121 415.292 165.86C416.599 166.599 418.048 167.366 419.64 168.162C421.231 168.958 422.965 169.668 424.841 170.294C426.773 170.919 428.819 171.232 430.979 171.232H431.917C432.258 171.232 432.656 171.175 433.111 171.061L434.049 171.743C436.265 171.061 438.084 169.782 439.505 167.906C440.926 165.974 441.637 163.388 441.637 160.148C441.637 157.817 441.068 156.226 439.932 155.373C438.852 154.464 436.834 154.009 433.878 154.009C432.059 154.009 430.155 154.151 428.166 154.435C426.233 154.663 424.187 154.776 422.027 154.776C421.061 154.776 420.066 154.748 419.043 154.691C418.02 154.577 416.968 154.379 415.888 154.094V154.606C418.162 155.174 420.407 155.458 422.624 155.458C424.784 155.458 426.83 155.345 428.763 155.117C430.752 154.833 432.656 154.691 434.475 154.691C436.01 154.691 437.203 154.862 438.056 155.203C438.965 155.487 439.647 155.885 440.102 156.396C440.557 156.908 440.841 157.533 440.955 158.272C441.125 158.954 441.211 159.721 441.211 160.574C441.211 163.246 440.5 165.519 439.079 167.395C437.715 169.157 436.095 170.265 434.219 170.72C436.322 169.981 437.971 168.702 439.164 166.883C440.415 164.951 441.04 162.791 441.04 160.404C441.04 158.698 440.585 157.391 439.676 156.482C438.823 155.572 437.317 155.117 435.157 155.117C433.395 155.117 431.406 155.231 429.189 155.458C426.972 155.686 424.613 155.8 422.112 155.8C420.578 155.8 418.787 155.601 416.741 155.203C414.752 154.805 412.847 154.066 411.028 152.986C409.21 151.906 407.675 150.428 406.424 148.552C405.174 146.62 404.549 144.119 404.549 141.05C404.549 138.605 405.032 136.36 405.998 134.314C407.021 132.211 408.357 130.392 410.005 128.857C411.654 127.266 413.529 126.015 415.633 125.106C417.792 124.196 420.009 123.713 422.283 123.656C424.443 123.656 426.489 123.969 428.422 124.594C430.411 125.163 432.287 125.93 434.049 126.896C435.811 127.806 437.488 128.829 439.079 129.966C440.671 131.102 442.148 132.239 443.513 133.376L441.807 135.081C441.41 135.081 440.813 134.854 440.017 134.399C439.221 133.888 437.999 133.035 436.351 131.841L435.839 132.609C437.885 134.257 439.363 135.792 440.273 137.213C441.239 138.634 441.722 139.742 441.722 140.538C441.608 140.993 441.324 141.22 440.87 141.22C440.415 141.22 439.505 140.851 438.141 140.112C436.777 139.373 435.214 138.549 433.452 137.639C431.747 136.73 429.928 135.905 427.995 135.167C426.063 134.428 424.301 134.058 422.709 134.058C421.8 134.058 420.89 134.229 419.981 134.57C419.071 134.911 418.247 135.394 417.508 136.019C416.769 136.588 416.144 137.298 415.633 138.151C415.178 139.003 414.95 139.941 414.95 140.964C414.95 142.613 415.718 143.721 417.252 144.289C418.787 144.858 420.805 145.142 423.306 145.142C423.818 145.142 424.357 145.142 424.926 145.142C425.551 145.085 426.12 145 426.631 144.886C427.938 144.886 428.791 144.858 429.189 144.801C429.644 144.687 430.07 144.63 430.468 144.63C432.912 144.63 435.356 144.801 437.8 145.142C440.244 145.483 442.433 146.222 444.365 147.359C446.298 148.496 447.861 150.115 449.055 152.219C450.248 154.322 450.845 157.135 450.845 160.659C450.845 163.103 450.419 165.548 449.566 167.992C448.77 170.379 447.548 172.539 445.9 174.471C444.252 176.347 442.205 177.853 439.761 178.99C437.317 180.184 434.447 180.781 431.15 180.781C429.16 180.781 426.802 180.383 424.073 179.587C421.402 178.848 418.844 177.967 416.4 176.944C414.013 175.864 411.966 174.756 410.261 173.619C408.613 172.482 407.789 171.516 407.789 170.72C407.789 170.493 407.931 170.322 408.215 170.208C411.682 172.766 415.206 174.869 418.787 176.518C422.311 178.052 425.921 178.905 429.615 179.076C427.796 178.962 425.977 178.649 424.159 178.138C422.283 177.569 420.407 176.887 418.531 176.091C416.713 175.239 414.95 174.301 413.245 173.278C411.597 172.198 410.005 171.118 408.471 170.038L409.75 168.93C409.579 168.873 409.266 168.674 408.812 168.333C408.357 167.992 407.902 167.565 407.448 167.054C407.05 166.542 406.68 166.002 406.339 165.434C405.998 164.865 405.828 164.326 405.828 163.814C405.828 163.246 405.941 162.876 406.169 162.706C406.396 162.535 406.652 162.45 406.936 162.45C407.22 162.45 407.817 162.649 408.726 163.047C409.636 163.444 410.744 163.871 412.052 164.326ZM430.894 173.022C428.905 173.022 426.688 172.624 424.244 171.828C421.857 170.976 419.583 169.896 417.423 168.589C419.185 169.782 421.146 170.862 423.306 171.828C425.466 172.738 427.967 173.193 430.809 173.193C434.617 173.193 437.63 172.027 439.846 169.697C442.12 167.366 443.257 164.24 443.257 160.318V159.466C442.973 157.647 442.347 156.169 441.381 155.032C440.472 153.839 439.051 153.185 437.118 153.071C438.312 153.299 439.278 153.668 440.017 154.18C440.813 154.691 441.41 155.316 441.807 156.055C442.262 156.737 442.575 157.505 442.745 158.357C442.916 159.21 443.001 160.091 443.001 161C442.774 164.752 441.58 167.708 439.42 169.867C437.26 171.971 434.418 173.022 430.894 173.022ZM441.722 176.347C443.143 175.438 444.28 174.329 445.133 173.022C445.985 171.715 446.724 170.351 447.349 168.93C446.156 171.317 444.507 173.42 442.404 175.239C440.358 177.058 437.914 178.194 435.072 178.649C436.152 178.479 437.26 178.251 438.397 177.967C439.591 177.626 440.699 177.086 441.722 176.347ZM449.822 160.318C449.822 159.693 449.708 159.096 449.481 158.528C449.31 158.073 449.168 157.59 449.055 157.078L449.14 158.187C449.197 158.642 449.225 159.267 449.225 160.063C449.225 161.597 449.055 163.075 448.713 164.496C448.372 165.917 447.946 167.31 447.435 168.674C447.946 167.423 448.429 166.116 448.884 164.752C449.396 163.331 449.708 161.853 449.822 160.318ZM449.055 156.823C449.055 156.879 449.055 156.965 449.055 157.078C449.055 156.965 449.055 156.879 449.055 156.823ZM434.134 170.805C434.077 170.805 434.02 170.805 433.963 170.805C434.02 170.805 434.077 170.805 434.134 170.805ZM456.351 172.34C456.351 171.999 456.55 171.686 456.948 171.402C457.346 171.118 457.8 170.862 458.312 170.635C458.88 170.407 459.42 170.208 459.932 170.038C460.5 169.867 460.927 169.725 461.211 169.612C463.939 169.953 466.667 170.237 469.396 170.464C472.124 170.692 474.852 170.805 477.581 170.805C478.604 170.805 480.025 170.805 481.844 170.805C483.663 170.748 485.652 170.635 487.812 170.464C489.972 170.294 492.16 170.038 494.377 169.697C496.594 169.299 498.612 168.759 500.43 168.077C502.249 167.395 503.727 166.542 504.864 165.519C506.001 164.496 506.569 163.217 506.569 161.682C506.569 160.432 506.285 159.324 505.717 158.357C505.205 157.334 504.494 156.453 503.585 155.714C502.732 154.918 501.766 154.265 500.686 153.753C500.288 153.526 499.862 153.327 499.407 153.156C499.862 153.384 500.288 153.611 500.686 153.839C501.709 154.407 502.619 155.117 503.415 155.97C504.267 156.766 504.949 157.675 505.461 158.698C505.972 159.665 506.228 160.773 506.228 162.023C506.228 163.388 505.717 164.553 504.693 165.519C503.727 166.429 502.448 167.196 500.857 167.821C499.322 168.446 497.588 168.93 495.656 169.271C493.78 169.612 491.904 169.867 490.029 170.038C488.153 170.208 486.419 170.322 484.828 170.379C483.236 170.379 481.986 170.379 481.076 170.379C478.178 170.379 475.25 170.294 472.295 170.123C469.396 169.896 466.497 169.64 463.598 169.356C464.621 169.072 465.644 168.873 466.667 168.759C467.747 168.589 468.827 168.503 469.907 168.503C471.726 168.503 473.517 168.532 475.279 168.589C477.041 168.589 478.803 168.589 480.565 168.589C482.668 168.589 484.743 168.56 486.789 168.503C488.835 168.39 490.938 168.162 493.098 167.821L493.354 168.844C494.206 168.674 495.286 168.418 496.594 168.077C497.901 167.679 499.152 167.196 500.345 166.628C501.596 166.059 502.647 165.349 503.5 164.496C504.409 163.643 504.864 162.649 504.864 161.512C504.864 159.864 504.267 158.414 503.073 157.164C501.88 155.913 500.345 154.805 498.469 153.839C496.651 152.815 494.576 151.934 492.245 151.195C489.915 150.457 487.613 149.803 485.339 149.234C483.123 148.666 481.02 148.155 479.03 147.7C477.041 147.245 475.449 146.819 474.256 146.421V146.932C475.449 147.387 477.012 147.87 478.945 148.382C480.877 148.837 482.952 149.348 485.169 149.917C487.442 150.485 489.716 151.139 491.99 151.878C494.263 152.56 496.31 153.384 498.128 154.35C500.004 155.316 501.51 156.425 502.647 157.675C503.841 158.926 504.438 160.347 504.438 161.938C504.438 162.848 504.011 163.643 503.159 164.326C502.306 165.008 501.283 165.604 500.089 166.116C498.953 166.571 497.787 166.94 496.594 167.224C495.4 167.509 494.491 167.708 493.865 167.821C494.604 167.651 495.542 167.423 496.679 167.139C497.873 166.798 499.009 166.372 500.089 165.86C501.226 165.349 502.192 164.752 502.988 164.07C503.784 163.331 504.182 162.478 504.182 161.512C504.182 159.92 503.557 158.585 502.306 157.505C501.056 156.425 499.407 155.458 497.361 154.606C495.315 153.753 492.984 152.986 490.37 152.304C487.755 151.622 485.055 150.883 482.27 150.087C479.542 149.291 476.87 148.382 474.256 147.359C471.641 146.336 469.31 145.057 467.264 143.522C465.218 141.987 463.57 140.168 462.319 138.065C461.069 135.962 460.443 133.433 460.443 130.477C460.443 127.578 461.125 125.134 462.49 123.145C463.911 121.099 465.701 119.45 467.861 118.2C470.078 116.892 472.494 115.955 475.108 115.386C477.723 114.818 480.252 114.534 482.696 114.534C486.277 114.534 489.773 115.045 493.183 116.068C496.651 117.091 499.919 118.512 502.988 120.331C502.647 120.445 502.448 120.615 502.391 120.843C502.335 121.013 502.278 121.212 502.221 121.44C502.221 121.667 502.164 121.866 502.05 122.036C501.994 122.207 501.823 122.292 501.539 122.292C501.311 122.292 500.857 122.207 500.175 122.036C499.549 121.809 498.867 121.582 498.128 121.354C497.389 121.07 496.679 120.814 495.997 120.587C495.315 120.36 494.86 120.189 494.633 120.076L494.377 120.843C494.889 121.07 495.542 121.411 496.338 121.866C497.191 122.264 497.986 122.775 498.725 123.401C499.521 123.969 500.175 124.594 500.686 125.276C501.255 125.958 501.539 126.641 501.539 127.323C501.539 128.062 501.198 128.431 500.516 128.431C499.663 128.431 498.64 128.204 497.446 127.749C496.31 127.294 495.031 126.811 493.61 126.299C492.189 125.731 490.654 125.22 489.006 124.765C487.414 124.31 485.794 124.083 484.146 124.083C483.066 124.083 481.787 124.196 480.309 124.424C478.888 124.594 477.495 124.964 476.131 125.532C474.824 126.044 473.716 126.783 472.806 127.749C471.897 128.658 471.442 129.824 471.442 131.245C471.442 132.552 472.039 133.66 473.232 134.57C474.483 135.479 476.103 136.303 478.092 137.042C480.139 137.781 482.441 138.492 484.998 139.174C487.556 139.856 490.171 140.623 492.842 141.476C495.571 142.272 498.214 143.209 500.771 144.289C503.329 145.369 505.603 146.677 507.592 148.211C509.639 149.746 511.258 151.565 512.452 153.668C513.703 155.771 514.328 158.244 514.328 161.086C514.328 163.871 513.759 166.23 512.623 168.162C511.486 170.095 509.98 171.715 508.104 173.022C506.228 174.273 504.097 175.267 501.709 176.006C499.322 176.688 496.849 177.228 494.292 177.626C491.791 177.967 489.29 178.166 486.789 178.223C484.345 178.337 482.128 178.393 480.139 178.393H471.612C471.101 178.393 470.39 178.365 469.481 178.308C468.628 178.308 467.776 178.251 466.923 178.138C466.071 178.081 465.332 177.939 464.706 177.711C464.081 177.484 463.769 177.2 463.769 176.859L463.854 176.432C466.184 176.546 468.486 176.66 470.76 176.773C473.033 176.83 475.336 176.859 477.666 176.859C479.826 176.859 481.986 176.859 484.146 176.859C486.078 176.802 488.011 176.688 489.943 176.518C488.977 176.575 488.011 176.631 487.045 176.688C485.851 176.688 484.686 176.688 483.549 176.688H480.139C474.796 176.688 469.538 176.518 464.365 176.177C464.479 175.722 464.536 175.409 464.536 175.239C464.536 175.011 464.479 174.784 464.365 174.557C464.252 174.557 464.081 174.585 463.854 174.642C463.683 174.642 463.456 174.642 463.172 174.642C462.546 174.642 461.836 174.614 461.04 174.557C460.301 174.5 459.562 174.386 458.823 174.216C458.141 174.045 457.545 173.818 457.033 173.534C456.578 173.193 456.351 172.795 456.351 172.34ZM508.701 170.123C507.734 170.976 506.711 171.686 505.631 172.255C504.665 172.766 503.67 173.249 502.647 173.704C503.67 173.363 504.665 172.965 505.631 172.51C506.711 172.056 507.734 171.26 508.701 170.123ZM528.137 202.778C528.25 199.595 528.336 196.44 528.392 193.314C528.449 190.245 528.478 186.976 528.478 183.509C528.478 182.031 528.449 180.553 528.392 179.076C528.336 177.655 528.25 176.262 528.137 174.898V184.276C528.137 187.403 528.08 190.5 527.966 193.57C527.909 196.696 527.71 199.765 527.369 202.778C527.085 202.266 526.829 201.726 526.602 201.158C526.375 200.646 526.204 200.078 526.09 199.453C526.204 197.918 526.261 196.497 526.261 195.19C526.318 193.939 526.346 192.547 526.346 191.012L527.369 190.5C527.199 189.307 527.085 188.085 527.028 186.834C526.971 185.641 526.943 184.447 526.943 183.253C526.943 181.946 526.943 180.667 526.943 179.417C527 178.223 527.028 176.972 527.028 175.665C527.028 174.074 526.971 172.51 526.858 170.976C526.801 169.384 526.63 167.793 526.346 166.201H526.09C526.204 168.589 526.289 170.947 526.346 173.278C526.46 175.608 526.517 177.939 526.517 180.269C526.517 181.292 526.488 182.315 526.431 183.339L526.346 185.555C526.232 180.099 526.034 174.756 525.749 169.526C525.522 163.956 525.124 158.244 524.556 152.389L524.897 145.313C524.271 145.256 523.618 145.227 522.936 145.227H520.975L520.719 143.266C520.719 142.982 520.918 142.726 521.316 142.499C521.714 142.272 522.509 142.158 523.703 142.158H524.556V141.135C522.68 140.907 521.202 140.51 520.122 139.941C519.099 139.373 518.587 138.776 518.587 138.151C518.587 137.582 519.099 137.099 520.122 136.701C521.145 136.247 522.453 135.905 524.044 135.678C525.692 135.394 527.483 135.195 529.416 135.081C531.348 134.968 533.224 134.911 535.043 134.911C537.032 134.911 539.164 134.968 541.437 135.081C543.768 135.195 546.098 135.479 548.429 135.934C550.759 136.389 553.004 137.099 555.164 138.065C557.381 138.975 559.37 140.282 561.132 141.987C562.894 143.636 564.344 145.739 565.481 148.297C566.674 150.798 567.442 153.867 567.783 157.505C567.783 160.574 567.101 163.103 565.736 165.093C564.429 167.025 562.837 168.589 560.962 169.782C559.086 170.976 557.125 171.828 555.079 172.34C553.089 172.852 551.441 173.193 550.134 173.363C548.826 173.647 547.32 173.988 545.615 174.386C543.91 174.727 542.46 174.898 541.267 174.898C539.959 174.898 539.192 174.756 538.965 174.471C538.737 174.187 538.624 173.818 538.624 173.363C541.181 173.249 543.739 173.05 546.297 172.766C548.855 172.425 551.413 171.857 553.97 171.061C551.413 171.686 548.855 172.169 546.297 172.51C543.739 172.795 541.181 172.994 538.624 173.107C538.624 172.766 538.595 172.425 538.538 172.084C538.482 171.686 538.311 171.487 538.027 171.487C537.458 171.487 537.004 172.397 536.663 174.216C536.378 176.035 536.151 178.194 535.981 180.695C535.867 183.253 535.782 185.868 535.725 188.539C535.725 191.211 535.725 193.428 535.725 195.19C535.725 195.985 535.753 196.81 535.81 197.662C535.924 198.572 535.981 199.339 535.981 199.964C535.981 200.533 535.895 201.016 535.725 201.414C535.554 201.812 535.071 202.01 534.275 202.01V191.268C534.162 193.087 534.076 194.877 534.02 196.639C534.02 198.401 534.02 200.192 534.02 202.01H532.485V202.693C532.485 203.204 532.57 203.574 532.741 203.801C532.115 204.881 531.405 205.421 530.609 205.421C529.984 205.421 529.501 205.25 529.16 204.909C528.876 204.568 528.449 204.114 527.881 203.545L528.137 202.778ZM536.407 167.224H537.6C539.59 167.224 541.863 167.111 544.421 166.883C547.036 166.656 549.48 166.23 551.754 165.604C554.027 164.979 555.931 164.098 557.466 162.961C559.058 161.825 559.853 160.347 559.853 158.528V157.846C559.853 157.277 559.797 156.652 559.683 155.97C559.626 155.288 559.399 154.634 559.001 154.009C559.058 154.293 559.2 154.862 559.427 155.714C559.654 156.567 559.768 157.277 559.768 157.846C559.768 159.608 559.143 161.057 557.892 162.194C556.699 163.274 555.164 164.155 553.288 164.837C551.469 165.462 549.452 165.917 547.235 166.201C545.075 166.429 543 166.542 541.011 166.542H539.306C538.737 166.542 538.169 166.514 537.6 166.457C538.396 165.832 539.419 165.405 540.67 165.178C541.977 164.894 543.341 164.667 544.762 164.496C546.183 164.326 547.576 164.155 548.94 163.984C550.304 163.814 551.469 163.53 552.436 163.132L552.947 164.155C554.937 163.189 556.329 162.251 557.125 161.341C557.978 160.375 558.404 159.068 558.404 157.419C558.404 154.805 557.665 152.503 556.187 150.513C554.766 148.524 552.834 147.188 550.39 146.506L550.134 147.018C552.237 147.813 554.056 149.121 555.59 150.94C557.125 152.759 557.892 154.947 557.892 157.505C557.892 158.869 557.58 159.949 556.955 160.745C556.386 161.427 555.477 162.052 554.226 162.62C555.249 162.166 556.017 161.597 556.528 160.915C557.153 160.119 557.58 159.238 557.807 158.272C557.807 155.885 557.239 153.867 556.102 152.219C554.965 150.57 553.374 149.263 551.327 148.297C549.281 147.273 546.809 146.563 543.91 146.165C541.068 145.71 537.913 145.483 534.446 145.483C534.901 147.927 535.156 150.599 535.213 153.497C535.327 156.339 535.526 159.125 535.81 161.853L536.407 167.224ZM527.796 154.18C527.909 154.066 528.023 153.583 528.137 152.73C528.25 151.878 528.336 150.968 528.392 150.002C528.506 148.979 528.591 148.041 528.648 147.188C528.762 146.279 528.876 145.739 528.989 145.568L527.881 145.483L527.796 154.18ZM553.8 162.791L554.226 162.62L553.8 162.791ZM607.363 179.587C605.203 180.326 603.554 180.724 602.418 180.781C601.281 180.894 600.286 180.98 599.433 181.037C596.25 181.037 593.38 180.44 590.822 179.246C588.264 178.052 586.076 176.432 584.257 174.386C582.438 172.34 581.017 169.953 579.994 167.224C579.028 164.439 578.545 161.484 578.545 158.357C578.545 156.538 578.715 154.663 579.056 152.73C579.397 150.741 579.909 148.808 580.591 146.932C581.273 145 582.154 143.209 583.234 141.561C584.257 139.913 585.479 138.435 586.9 137.128C585.422 138.321 584.172 139.742 583.149 141.391C582.069 143.039 581.159 144.829 580.42 146.762C579.681 148.638 579.142 150.599 578.8 152.645C578.459 154.634 578.289 156.567 578.289 158.443C578.289 160.83 578.658 163.388 579.397 166.116C580.193 168.787 581.444 171.288 583.149 173.619C584.854 175.892 587.042 177.797 589.714 179.331C592.442 180.866 595.739 181.633 599.604 181.633C601.423 181.633 603.327 181.378 605.316 180.866C603.156 182.287 600.741 182.997 598.069 182.997C595.909 182.997 593.863 182.656 591.931 181.974C590.055 181.349 588.293 180.44 586.644 179.246C585.053 178.109 583.603 176.745 582.296 175.154C580.989 173.562 579.88 171.857 578.971 170.038L579.738 169.356C578.772 167.423 578.062 165.491 577.607 163.558C577.209 161.626 577.01 159.665 577.01 157.675C577.01 154.776 577.408 151.991 578.204 149.32C579.056 146.648 580.165 144.119 581.529 141.732L583.575 138.918C583.916 138.293 584.399 137.668 585.024 137.042C585.707 136.417 586.445 135.82 587.241 135.252C588.037 134.627 588.861 134.087 589.714 133.632C590.623 133.12 591.476 132.666 592.272 132.268C594.318 131.245 596.364 130.335 598.41 129.539C600.457 128.687 602.844 128.062 605.572 127.664L605.231 127.408C600.002 127.919 595.568 129.198 591.931 131.245C588.293 133.234 585.337 135.678 583.063 138.577C580.79 141.476 579.142 144.659 578.118 148.126C577.095 151.536 576.584 154.89 576.584 158.187C576.584 159.949 576.726 161.739 577.01 163.558C577.351 165.32 577.834 167.082 578.459 168.844C577.038 165.434 576.328 161.825 576.328 158.016C576.328 154.265 576.953 150.542 578.204 146.847C579.454 143.153 581.415 139.742 584.087 136.616C587.497 133.49 591.22 131.102 595.256 129.454C599.291 127.749 603.185 126.896 606.936 126.896C608.13 126.896 609.352 127.095 610.602 127.493C611.853 127.891 612.99 128.516 614.013 129.369C615.036 130.165 615.86 131.216 616.485 132.523C617.168 133.831 617.509 135.422 617.509 137.298C617.509 138.833 617.139 140.708 616.4 142.925C615.661 145.142 614.553 147.302 613.075 149.405C611.654 151.451 609.864 153.213 607.704 154.691C605.544 156.112 603.043 156.823 600.201 156.823H597.387C595.284 156.368 593.352 155.856 591.589 155.288C589.884 154.663 588.264 154.18 586.73 153.839C586.502 154.748 586.36 155.629 586.303 156.482C586.303 157.277 586.303 158.073 586.303 158.869C586.303 160.517 586.474 162.137 586.815 163.729C587.213 165.263 587.81 166.684 588.605 167.992C589.401 169.299 590.396 170.407 591.589 171.317C592.84 172.169 594.346 172.709 596.108 172.937C597.188 173.164 598.126 173.306 598.922 173.363C599.718 173.363 600.371 173.392 600.883 173.448C601.451 173.448 601.849 173.534 602.076 173.704C602.361 173.818 602.503 174.074 602.503 174.471C601.934 174.642 601.338 174.756 600.712 174.813C600.144 174.869 599.547 174.898 598.922 174.898C596.932 174.898 595.142 174.585 593.55 173.96C591.959 173.278 590.595 172.51 589.458 171.658C590.765 172.965 592.328 173.903 594.147 174.471C595.966 174.983 597.757 175.239 599.519 175.239C600.485 175.239 601.48 175.154 602.503 174.983C602.389 175.324 602.332 175.523 602.332 175.58C602.332 175.921 602.474 176.148 602.759 176.262C602.986 176.205 603.384 176.063 603.952 175.836C604.521 175.551 605.089 175.296 605.657 175.068C606.283 174.784 606.879 174.557 607.448 174.386C608.016 174.159 608.414 174.045 608.642 174.045C608.926 174.045 609.181 174.102 609.409 174.216C609.636 174.273 609.75 174.585 609.75 175.154C609.75 175.722 609.551 176.404 609.153 177.2C608.755 177.996 608.158 178.791 607.363 179.587ZM595.597 145.824L597.472 146.165C598.098 146.279 598.666 146.336 599.178 146.336C599.746 146.336 600.4 146.165 601.139 145.824C601.934 145.426 602.702 144.886 603.441 144.204C604.236 143.522 604.918 142.669 605.487 141.646C606.112 140.623 606.567 139.458 606.851 138.151L607.022 137.639C606.226 137.639 605.032 137.838 603.441 138.236C601.849 138.634 600.201 139.174 598.496 139.856C596.79 140.481 595.199 141.248 593.721 142.158C592.243 143.01 591.22 143.948 590.652 144.971C591.504 145.142 592.328 145.313 593.124 145.483C593.977 145.597 594.801 145.71 595.597 145.824ZM591.675 152.133C591.788 152.02 591.845 151.849 591.845 151.622C591.902 151.394 591.931 151.224 591.931 151.11L587.923 149.661L587.497 150.854L591.675 152.133ZM589.287 171.487C588.89 171.033 588.492 170.578 588.094 170.123C587.753 169.725 587.469 169.327 587.241 168.93C587.753 169.896 588.435 170.748 589.287 171.487ZM656.237 179.587C654.077 180.326 652.429 180.724 651.292 180.781C650.155 180.894 649.161 180.98 648.308 181.037C645.125 181.037 642.255 180.44 639.697 179.246C637.139 178.052 634.951 176.432 633.132 174.386C631.313 172.34 629.892 169.953 628.869 167.224C627.903 164.439 627.419 161.484 627.419 158.357C627.419 156.538 627.59 154.663 627.931 152.73C628.272 150.741 628.784 148.808 629.466 146.932C630.148 145 631.029 143.209 632.109 141.561C633.132 139.913 634.354 138.435 635.775 137.128C634.297 138.321 633.047 139.742 632.023 141.391C630.943 143.039 630.034 144.829 629.295 146.762C628.556 148.638 628.016 150.599 627.675 152.645C627.334 154.634 627.164 156.567 627.164 158.443C627.164 160.83 627.533 163.388 628.272 166.116C629.068 168.787 630.318 171.288 632.023 173.619C633.729 175.892 635.917 177.797 638.588 179.331C641.317 180.866 644.614 181.633 648.479 181.633C650.298 181.633 652.202 181.378 654.191 180.866C652.031 182.287 649.615 182.997 646.944 182.997C644.784 182.997 642.738 182.656 640.805 181.974C638.929 181.349 637.167 180.44 635.519 179.246C633.928 178.109 632.478 176.745 631.171 175.154C629.863 173.562 628.755 171.857 627.846 170.038L628.613 169.356C627.647 167.423 626.936 165.491 626.482 163.558C626.084 161.626 625.885 159.665 625.885 157.675C625.885 154.776 626.283 151.991 627.078 149.32C627.931 146.648 629.039 144.119 630.403 141.732L632.45 138.918C632.791 138.293 633.274 137.668 633.899 137.042C634.581 136.417 635.32 135.82 636.116 135.252C636.912 134.627 637.736 134.087 638.588 133.632C639.498 133.12 640.35 132.666 641.146 132.268C643.193 131.245 645.239 130.335 647.285 129.539C649.331 128.687 651.719 128.062 654.447 127.664L654.106 127.408C648.877 127.919 644.443 129.198 640.805 131.245C637.167 133.234 634.212 135.678 631.938 138.577C629.665 141.476 628.016 144.659 626.993 148.126C625.97 151.536 625.458 154.89 625.458 158.187C625.458 159.949 625.6 161.739 625.885 163.558C626.226 165.32 626.709 167.082 627.334 168.844C625.913 165.434 625.203 161.825 625.203 158.016C625.203 154.265 625.828 150.542 627.078 146.847C628.329 143.153 630.29 139.742 632.961 136.616C636.372 133.49 640.095 131.102 644.13 129.454C648.166 127.749 652.06 126.896 655.811 126.896C657.005 126.896 658.227 127.095 659.477 127.493C660.728 127.891 661.864 128.516 662.888 129.369C663.911 130.165 664.735 131.216 665.36 132.523C666.042 133.831 666.383 135.422 666.383 137.298C666.383 138.833 666.014 140.708 665.275 142.925C664.536 145.142 663.428 147.302 661.95 149.405C660.529 151.451 658.738 153.213 656.578 154.691C654.418 156.112 651.917 156.823 649.075 156.823H646.262C644.159 156.368 642.226 155.856 640.464 155.288C638.759 154.663 637.139 154.18 635.604 153.839C635.377 154.748 635.235 155.629 635.178 156.482C635.178 157.277 635.178 158.073 635.178 158.869C635.178 160.517 635.349 162.137 635.69 163.729C636.087 165.263 636.684 166.684 637.48 167.992C638.276 169.299 639.271 170.407 640.464 171.317C641.715 172.169 643.221 172.709 644.983 172.937C646.063 173.164 647.001 173.306 647.797 173.363C648.592 173.363 649.246 173.392 649.758 173.448C650.326 173.448 650.724 173.534 650.951 173.704C651.235 173.818 651.377 174.074 651.377 174.471C650.809 174.642 650.212 174.756 649.587 174.813C649.019 174.869 648.422 174.898 647.797 174.898C645.807 174.898 644.017 174.585 642.425 173.96C640.834 173.278 639.469 172.51 638.333 171.658C639.64 172.965 641.203 173.903 643.022 174.471C644.841 174.983 646.631 175.239 648.393 175.239C649.36 175.239 650.354 175.154 651.377 174.983C651.264 175.324 651.207 175.523 651.207 175.58C651.207 175.921 651.349 176.148 651.633 176.262C651.861 176.205 652.258 176.063 652.827 175.836C653.395 175.551 653.964 175.296 654.532 175.068C655.157 174.784 655.754 174.557 656.323 174.386C656.891 174.159 657.289 174.045 657.516 174.045C657.8 174.045 658.056 174.102 658.284 174.216C658.511 174.273 658.625 174.585 658.625 175.154C658.625 175.722 658.426 176.404 658.028 177.2C657.63 177.996 657.033 178.791 656.237 179.587ZM644.471 145.824L646.347 146.165C646.972 146.279 647.541 146.336 648.052 146.336C648.621 146.336 649.274 146.165 650.013 145.824C650.809 145.426 651.576 144.886 652.315 144.204C653.111 143.522 653.793 142.669 654.362 141.646C654.987 140.623 655.442 139.458 655.726 138.151L655.896 137.639C655.101 137.639 653.907 137.838 652.315 138.236C650.724 138.634 649.075 139.174 647.37 139.856C645.665 140.481 644.074 141.248 642.596 142.158C641.118 143.01 640.095 143.948 639.526 144.971C640.379 145.142 641.203 145.313 641.999 145.483C642.851 145.597 643.676 145.71 644.471 145.824ZM640.549 152.133C640.663 152.02 640.72 151.849 640.72 151.622C640.777 151.394 640.805 151.224 640.805 151.11L636.798 149.661L636.372 150.854L640.549 152.133ZM638.162 171.487C637.764 171.033 637.366 170.578 636.969 170.123C636.627 169.725 636.343 169.327 636.116 168.93C636.627 169.896 637.31 170.748 638.162 171.487ZM719.095 115.813C719.208 117.461 719.294 119.081 719.35 120.672C719.407 122.207 719.436 123.799 719.436 125.447C719.436 128.857 719.322 132.296 719.095 135.763C718.924 139.174 718.697 142.641 718.413 146.165C718.128 149.689 717.844 153.299 717.56 156.993C717.276 160.688 717.02 164.524 716.793 168.503C716.793 169.129 716.764 169.782 716.707 170.464C716.707 171.089 716.651 171.8 716.537 172.596V173.619C716.537 173.789 716.48 174.017 716.366 174.301C716.253 174.585 716.139 174.784 716.025 174.898C715.286 175.75 714.604 176.404 713.979 176.859C713.411 177.257 712.871 177.569 712.359 177.797C711.848 177.967 711.364 178.052 710.91 178.052C710.455 178.109 710 178.166 709.546 178.223H710.057C710.228 178.223 710.54 178.194 710.995 178.138C711.507 178.081 712.047 177.996 712.615 177.882C713.24 177.711 713.809 177.512 714.32 177.285C714.889 177.001 715.286 176.631 715.514 176.177L716.281 174.642C716.622 174.017 716.821 173.363 716.878 172.681C716.992 171.942 717.048 171.232 717.048 170.55C717.105 169.811 717.134 169.1 717.134 168.418C717.134 167.736 717.191 167.082 717.304 166.457C717.475 162.876 717.702 159.295 717.986 155.714C718.327 152.133 718.64 148.524 718.924 144.886C719.208 141.248 719.464 137.582 719.692 133.888C719.919 130.136 720.033 126.328 720.033 122.463C720.033 121.269 720.004 120.132 719.947 119.052C719.947 117.916 719.919 116.836 719.862 115.813C720.033 116.04 720.203 116.409 720.374 116.921C720.601 117.376 720.771 118.115 720.885 119.138C721.169 119.763 721.34 120.445 721.397 121.184C721.454 121.923 721.539 122.69 721.652 123.486C721.652 127.351 721.51 131.102 721.226 134.74C720.942 138.321 720.658 141.902 720.374 145.483L719.606 145.739L718.839 160.318C718.839 164.411 718.64 167.793 718.242 170.464C717.901 173.079 717.588 174.813 717.304 175.665V175.921C716.452 176.773 715.713 177.427 715.087 177.882C714.519 178.28 713.979 178.592 713.468 178.82C712.956 179.047 712.473 179.161 712.018 179.161C711.62 179.218 711.194 179.246 710.739 179.246H705.283C703.748 179.076 702.1 178.99 700.337 178.99C698.575 179.047 696.728 178.877 694.796 178.479C692.863 178.081 690.874 177.257 688.827 176.006C686.838 174.756 684.82 172.766 682.774 170.038C682.774 170.152 682.745 170.237 682.689 170.294C682.632 170.351 682.575 170.436 682.518 170.55C684.394 173.107 686.639 175.21 689.254 176.859C691.925 178.507 694.796 179.473 697.865 179.758H705.027C705.709 179.871 706.391 179.928 707.073 179.928C707.812 179.985 708.608 180.013 709.46 180.013C710.313 180.013 711.421 179.9 712.785 179.672C714.206 179.445 715.542 178.706 716.793 177.456C717.02 177.171 717.162 176.972 717.219 176.859C717.333 176.688 717.446 176.461 717.56 176.177L717.816 175.665C718.1 175.154 718.299 174.642 718.413 174.13C718.583 173.562 718.725 173.022 718.839 172.51C718.839 173.136 718.782 173.676 718.668 174.13C718.612 174.585 718.413 175.267 718.072 176.177L717.816 176.432L716.793 177.967C716.281 178.479 715.713 178.877 715.087 179.161C714.462 179.445 713.865 179.644 713.297 179.758C712.729 179.928 712.189 180.042 711.677 180.099C711.222 180.155 710.881 180.212 710.654 180.269H707.84C707.101 180.269 706.476 180.241 705.965 180.184C705.51 180.184 705.14 180.155 704.856 180.099C704.629 180.099 704.43 180.07 704.259 180.013H701.702C701.19 180.013 700.678 180.013 700.167 180.013C699.655 180.07 699.115 180.099 698.547 180.099C695.876 180.099 693.261 179.445 690.703 178.138C688.202 176.887 685.872 175.097 683.712 172.766C681.609 170.436 679.733 167.679 678.085 164.496C676.436 161.313 675.186 157.789 674.333 153.924C674.333 153.299 674.276 152.702 674.163 152.133C674.106 151.565 674.077 150.968 674.077 150.343C674.077 148.24 674.39 146.108 675.015 143.948C675.697 141.732 676.891 139.742 678.596 137.98C680.301 136.218 682.603 134.797 685.502 133.717C688.401 132.58 692.067 132.012 696.501 132.012C698.547 132.012 700.536 132.069 702.469 132.182C704.402 132.239 706.363 132.325 708.352 132.438C708.125 132.609 708.011 132.808 708.011 133.035C708.011 133.319 708.068 133.575 708.181 133.802C708.295 133.973 708.352 134.172 708.352 134.399C708.352 134.683 708.125 134.939 707.67 135.167C707.272 135.337 706.391 135.422 705.027 135.422C704.572 135.422 704.032 135.422 703.407 135.422C702.838 135.365 702.185 135.309 701.446 135.252V136.019C704.174 136.417 706.363 136.957 708.011 137.639C709.716 138.264 710.768 138.833 711.165 139.344L711.336 139.515L711.677 135.763C711.848 134.229 711.933 132.495 711.933 130.563C711.933 128.573 711.876 126.612 711.762 124.68C711.649 122.747 711.592 121.241 711.592 120.161C711.592 118.797 711.677 117.887 711.848 117.432C712.018 116.978 712.245 116.75 712.53 116.75C712.757 116.75 712.928 117.234 713.041 118.2C713.212 119.166 713.325 120.274 713.382 121.525C713.496 122.719 713.553 123.912 713.553 125.106V127.578C713.553 129.227 713.524 130.904 713.468 132.609C713.411 134.257 713.325 135.905 713.212 137.554C713.382 135.394 713.524 133.291 713.638 131.245C713.752 129.142 713.809 127.01 713.809 124.85C713.809 123.543 713.78 122.264 713.723 121.013C713.666 119.706 713.581 118.399 713.468 117.091C713.809 117.432 714.064 117.603 714.235 117.603C714.462 117.603 714.633 117.432 714.746 117.091C714.69 116.637 714.633 116.154 714.576 115.642C714.519 115.187 714.491 114.733 714.491 114.278V112.999C714.775 112.317 715.144 111.805 715.599 111.464C716.054 111.066 716.452 110.867 716.793 110.867C717.759 110.867 718.612 111.919 719.35 114.022L719.095 115.813ZM705.283 141.391C703.407 141.504 701.275 141.618 698.888 141.732C696.558 141.845 694.341 142.158 692.238 142.669C690.135 143.124 688.316 143.835 686.781 144.801C685.303 145.767 684.479 147.103 684.309 148.808C684.309 150.684 684.706 152.787 685.502 155.117C686.298 157.448 687.349 159.665 688.657 161.768C689.964 163.814 691.442 165.576 693.09 167.054C694.796 168.532 696.558 169.356 698.376 169.526H703.236C703.521 169.526 703.719 169.555 703.833 169.612C704.004 169.612 704.231 169.668 704.515 169.782H706.561C707.414 169.953 708.267 170.038 709.119 170.038C709.119 165.263 709.318 160.375 709.716 155.373C710.171 150.314 710.654 145.369 711.165 140.538C710.427 141.106 708.466 141.391 705.283 141.391ZM711.421 159.039C711.421 159.665 711.364 160.318 711.251 161C711.194 161.626 711.165 162.336 711.165 163.132C711.791 159.949 712.16 156.595 712.274 153.071C712.388 149.547 712.53 146.165 712.7 142.925C712.416 145.654 712.189 148.353 712.018 151.025C711.904 153.64 711.705 156.311 711.421 159.039ZM718.839 168.247C718.839 167.622 718.867 166.997 718.924 166.372C718.981 165.69 719.066 164.979 719.18 164.24C719.123 165.945 719.095 167.565 719.095 169.1C719.095 170.578 719.009 171.629 718.839 172.255C718.839 171.971 718.839 171.715 718.839 171.487C718.896 171.203 718.924 170.919 718.924 170.635C718.924 170.18 718.896 169.754 718.839 169.356C718.839 168.958 718.839 168.589 718.839 168.247ZM720.118 154.435C720.004 154.72 719.919 155.061 719.862 155.458C719.805 155.8 719.72 156.169 719.606 156.567L719.947 151.366L720.118 154.435ZM719.35 161.086C719.35 161.597 719.322 162.109 719.265 162.62C719.265 163.132 719.237 163.615 719.18 164.07C719.18 162.933 719.208 161.796 719.265 160.659C719.322 159.466 719.407 158.386 719.521 157.419L719.35 161.086ZM710.91 166.372C710.967 166.144 710.995 165.917 710.995 165.69C710.995 165.462 711.052 165.207 711.165 164.922V163.984C711.109 164.098 711.08 164.212 711.08 164.326C711.08 164.382 711.052 164.439 710.995 164.496L710.91 164.667V166.372ZM710.654 170.464C710.711 169.953 710.768 169.441 710.824 168.93C710.881 168.361 710.91 167.793 710.91 167.224V166.969L710.569 170.294L710.654 170.464ZM744.946 178.99C744.377 179.104 743.752 179.161 743.07 179.161H740.598C739.12 179.161 738.068 179.331 737.443 179.672C736.875 180.013 736.533 180.184 736.42 180.184L736.079 178.649V177.115L735.652 169.1C735.539 167.565 735.226 165.917 734.715 164.155C734.203 162.393 733.805 160.602 733.521 158.784C733.35 157.59 733.208 156.453 733.095 155.373L732.754 152.048C732.64 150.911 732.498 149.746 732.327 148.552C732.214 147.359 732.015 146.08 731.73 144.716C731.73 144.375 731.73 144.034 731.73 143.693C731.787 143.352 731.816 143.01 731.816 142.669C731.816 140.907 731.674 139.174 731.389 137.469C731.105 135.763 730.707 134.087 730.196 132.438C730.594 132.268 730.963 132.126 731.304 132.012C731.645 131.841 731.958 131.756 732.242 131.756C732.526 131.756 732.839 132.097 733.18 132.779C733.521 133.405 733.89 134.74 734.288 136.786C734.402 136.786 734.572 136.758 734.8 136.701C735.027 136.588 735.198 136.531 735.311 136.531C735.255 135.564 735.112 134.541 734.885 133.461C734.658 132.325 734.43 131.245 734.203 130.221C733.976 129.198 733.748 128.289 733.521 127.493C733.35 126.641 733.265 125.958 733.265 125.447C733.265 125.333 733.265 125.191 733.265 125.021C733.322 124.85 733.464 124.765 733.691 124.765C733.976 124.765 734.345 125.077 734.8 125.703C735.255 126.328 735.738 127.124 736.249 128.09C736.761 129.056 737.244 130.108 737.699 131.245C738.21 132.325 738.665 133.348 739.063 134.314C740.598 131.415 742.331 129.227 744.264 127.749C746.253 126.214 748.839 125.447 752.022 125.447C754.353 125.447 756.257 125.731 757.735 126.299C759.213 126.811 760.349 127.408 761.145 128.09C761.998 128.715 762.566 129.312 762.85 129.88L763.362 130.733C763.362 131.074 763.191 131.301 762.85 131.415C761.373 129.994 759.696 128.914 757.82 128.175C755.944 127.436 754.012 127.067 752.022 127.067C750.09 127.067 748.64 127.323 747.674 127.834C746.765 128.289 745.798 128.857 744.775 129.539C745.855 128.857 746.85 128.317 747.759 127.919C748.726 127.522 750.118 127.323 751.937 127.323C753.927 127.323 755.831 127.72 757.65 128.516C759.468 129.255 761.032 130.221 762.339 131.415C762.055 131.529 761.799 131.671 761.572 131.841C761.401 131.955 761.316 132.154 761.316 132.438C761.6 132.438 761.913 132.637 762.254 133.035C762.595 133.376 762.907 133.802 763.191 134.314C763.476 134.826 763.703 135.365 763.874 135.934C764.101 136.445 764.215 136.872 764.215 137.213C764.215 138.179 763.845 138.662 763.106 138.662C762.538 138.662 761.856 138.463 761.06 138.065C760.889 138.009 760.52 137.696 759.952 137.128C759.44 136.559 758.786 135.991 757.991 135.422C757.195 134.797 756.285 134.229 755.262 133.717C754.239 133.206 753.102 132.95 751.852 132.95C750.829 132.95 749.919 133.177 749.124 133.632C748.385 134.03 747.703 134.598 747.077 135.337C746.452 136.019 745.884 136.815 745.372 137.724L744.264 139.771C745.116 138.236 746.054 136.843 747.077 135.593C748.214 134.115 749.635 133.376 751.34 133.376C752.818 133.376 754.182 133.717 755.433 134.399C756.683 135.024 757.706 135.82 758.502 136.786C757.536 136.389 756.399 135.991 755.092 135.593C753.784 135.195 752.534 134.996 751.34 134.996C750.715 134.996 750.175 135.138 749.72 135.422C749.266 135.707 748.868 136.076 748.527 136.531C748.243 136.929 747.958 137.383 747.674 137.895C747.447 138.406 747.191 138.89 746.907 139.344L745.798 139.515C744.832 141.163 744.036 143.096 743.411 145.313C742.843 147.472 742.559 149.746 742.559 152.133C742.559 153.554 742.615 154.833 742.729 155.97C742.9 157.107 743.127 158.272 743.411 159.466L744.434 162.109L744.264 159.636C744.15 157.704 744.036 155.998 743.923 154.521C743.809 152.986 743.752 151.309 743.752 149.49C743.866 147.842 744.093 146.279 744.434 144.801C744.718 143.55 745.145 142.385 745.713 141.305C745.031 142.669 744.576 144.233 744.349 145.995C744.065 147.927 743.923 149.973 743.923 152.133C743.923 153.839 744.008 155.458 744.178 156.993C744.349 158.528 744.548 160.063 744.775 161.597C745.059 163.132 745.344 164.723 745.628 166.372C745.912 167.963 746.139 169.725 746.31 171.658L746.566 173.278L747.077 178.138L744.946 178.99ZM745.969 140.879L745.713 141.305L745.969 140.879ZM814.281 126.129L814.025 127.664C813.741 130.449 813.57 133.433 813.514 136.616C813.457 139.742 813.229 142.897 812.832 146.08C813.286 142.954 813.656 139.884 813.94 136.872C814.224 133.746 814.508 130.676 814.793 127.664C815.077 128.573 815.304 129.539 815.475 130.563C815.702 131.586 815.816 132.666 815.816 133.802C815.531 136.644 815.276 139.373 815.048 141.987C814.821 144.602 814.508 147.33 814.11 150.172L813.002 150.428C812.718 153.043 812.121 155.885 811.212 158.954C810.302 162.023 808.966 164.865 807.204 167.48C805.499 170.095 803.282 172.283 800.554 174.045C797.826 175.75 794.557 176.603 790.749 176.603C789.499 176.603 788.163 176.518 786.742 176.347C785.378 176.12 784.042 175.807 782.735 175.409C781.427 174.955 780.177 174.386 778.983 173.704C777.79 173.022 776.766 172.169 775.914 171.146L775.999 171.317V171.402L775.914 171.487L775.658 171.402C775.999 171.914 776.369 172.368 776.766 172.766C775.743 171.857 774.806 170.805 773.953 169.612C772.532 167.679 771.395 165.377 770.542 162.706C770.031 161.114 769.633 159.494 769.349 157.846C769.065 156.197 768.866 154.464 768.752 152.645C768.638 150.769 768.553 148.751 768.496 146.591C768.496 144.431 768.496 142.044 768.496 139.43C769.008 137.383 769.406 135.337 769.69 133.291C769.974 131.245 770.173 129.198 770.287 127.152C770.457 127.152 770.656 127.124 770.884 127.067C771.111 127.01 771.338 126.982 771.566 126.982C771.963 126.982 772.305 127.209 772.589 127.664C772.93 128.118 773.1 129.085 773.1 130.563V131.33C773.1 131.557 773.072 131.813 773.015 132.097H774.038C774.493 129.71 775.033 127.891 775.658 126.641C776.283 125.39 776.909 124.765 777.534 124.765C777.989 124.765 778.386 125.418 778.727 126.726C779.125 127.976 779.324 129.966 779.324 132.694C779.324 134.683 779.267 136.701 779.154 138.747C779.04 140.794 778.983 142.897 778.983 145.057C778.983 148.41 779.125 151.451 779.41 154.18C779.751 156.908 780.376 159.238 781.285 161.171C782.195 163.103 783.474 164.61 785.122 165.69C786.827 166.713 789.016 167.224 791.687 167.224C793.904 167.224 795.751 166.542 797.229 165.178C798.707 163.814 799.957 161.995 800.98 159.721C802.003 157.448 802.856 154.833 803.538 151.878C804.277 148.865 804.959 145.739 805.584 142.499C805.698 141.589 805.783 140.68 805.84 139.771C805.897 138.861 805.925 137.923 805.925 136.957V134.314C805.925 132.666 806.011 131.273 806.181 130.136C806.352 128.999 806.835 128.346 807.631 128.175C807.631 131.074 807.545 133.944 807.375 136.786C807.261 139.515 807.034 142.243 806.693 144.971C807.091 142.3 807.403 139.628 807.631 136.957C807.858 134.172 808.029 131.33 808.142 128.431C808.483 128.658 808.767 128.772 808.995 128.772C809.222 128.772 809.45 128.658 809.677 128.431V125.362C809.961 124.339 810.245 123.628 810.53 123.23C810.814 122.775 811.126 122.548 811.467 122.548C811.808 122.548 812.149 122.719 812.49 123.06C812.832 123.401 813.173 123.827 813.514 124.339L814.281 126.129ZM779.069 174.471C780.433 175.21 781.825 175.807 783.246 176.262C784.724 176.66 786.088 176.944 787.339 177.115C788.646 177.285 789.698 177.37 790.493 177.37C794.472 177.37 797.854 176.489 800.639 174.727C803.424 172.965 805.698 170.777 807.46 168.162C809.279 165.491 810.672 162.649 811.638 159.636C812.547 156.794 813.229 154.18 813.684 151.792C813.286 154.18 812.661 156.823 811.808 159.721C810.842 162.791 809.45 165.661 807.631 168.333C805.869 171.004 803.623 173.249 800.895 175.068C798.167 176.887 794.87 177.797 791.005 177.797C788.845 177.797 786.714 177.512 784.61 176.944C782.507 176.376 780.546 175.495 778.727 174.301C778.841 174.358 778.955 174.415 779.069 174.471ZM811.723 153.497C811.894 152.531 812.036 151.593 812.149 150.684C812.263 149.888 812.377 149.092 812.49 148.297C812.149 150.798 811.581 153.441 810.785 156.226C809.99 159.125 808.881 161.881 807.46 164.496C806.039 167.054 804.249 169.327 802.089 171.317C800.043 173.193 797.655 174.471 794.927 175.154C797.314 174.642 799.446 173.647 801.321 172.169C803.254 170.635 804.902 168.844 806.266 166.798C807.631 164.752 808.739 162.563 809.592 160.233C810.501 157.903 811.212 155.657 811.723 153.497ZM803.282 159.466C802.657 160.716 801.947 161.91 801.151 163.047C800.412 164.183 799.559 165.207 798.593 166.116C799.616 165.263 800.497 164.269 801.236 163.132C802.032 161.995 802.714 160.773 803.282 159.466ZM778.727 174.301C778.045 173.846 777.392 173.335 776.766 172.766C777.392 173.335 778.045 173.846 778.727 174.301ZM813.769 151.195L813.684 151.792L813.769 151.195ZM812.576 147.87C812.519 148.041 812.49 148.183 812.49 148.297C812.49 148.183 812.519 148.041 812.576 147.87ZM825.218 172.596C825.218 172.312 825.303 171.971 825.473 171.573C825.644 171.175 825.729 170.748 825.729 170.294C825.9 168.93 826.013 167.963 826.07 167.395C826.127 166.77 826.155 166.23 826.155 165.775C826.155 163.388 826.07 160.83 825.9 158.102C825.786 155.316 825.644 152.645 825.473 150.087C825.473 149.291 825.445 148.353 825.388 147.273C825.388 146.194 825.331 145.341 825.218 144.716C825.388 142.726 825.53 140.765 825.644 138.833C825.758 136.9 825.814 134.939 825.814 132.95V130.818C825.814 130.079 825.786 129.34 825.729 128.602C825.9 128.772 826.07 128.857 826.241 128.857C826.468 128.857 826.695 128.772 826.923 128.602C827.207 128.431 827.463 128.346 827.69 128.346C828.088 128.346 828.401 128.772 828.628 129.625C828.912 130.477 829.054 132.353 829.054 135.252H829.822C830.106 132.069 830.532 129.539 831.1 127.664C831.726 125.788 832.351 124.85 832.976 124.85C833.26 124.85 833.715 125.475 834.34 126.726C834.966 127.919 835.278 129.824 835.278 132.438L836.216 130.904C836.841 130.165 837.523 129.397 838.262 128.602C839.058 127.806 839.939 127.095 840.905 126.47C841.872 125.845 842.952 125.333 844.145 124.935C845.339 124.481 846.703 124.253 848.238 124.253C851.193 124.253 853.751 124.935 855.911 126.299C858.128 127.607 859.975 129.34 861.453 131.5C862.931 133.603 864.125 136.019 865.034 138.747C866 141.419 866.739 144.147 867.251 146.932C867.762 149.661 868.103 152.304 868.274 154.862C868.444 157.419 868.53 159.608 868.53 161.427C868.53 163.075 868.416 164.07 868.189 164.411C868.018 164.695 867.677 164.865 867.166 164.922C867.052 160.546 866.768 156.084 866.313 151.536C865.858 146.989 864.778 142.584 863.073 138.321C864.608 142.812 865.574 147.245 865.972 151.622C866.427 155.942 866.654 160.29 866.654 164.667C866.313 164.496 866 164.411 865.716 164.411C865.489 164.411 865.29 164.496 865.119 164.667C865.119 165.121 865.148 165.604 865.205 166.116C865.261 166.571 865.29 167.025 865.29 167.48C865.347 167.935 865.375 168.361 865.375 168.759C865.034 170.066 864.693 171.004 864.352 171.573C864.011 172.141 863.698 172.425 863.414 172.425C863.073 172.425 862.789 172.283 862.561 171.999C862.334 171.658 862.107 171.26 861.879 170.805C861.709 170.351 861.51 169.867 861.283 169.356C861.112 168.787 860.856 168.247 860.515 167.736C860.629 166.77 860.714 166.002 860.771 165.434C860.828 164.809 860.856 164.297 860.856 163.899C860.856 162.365 860.828 160.517 860.771 158.357C860.714 156.197 860.544 153.952 860.259 151.622C860.032 149.234 859.634 146.876 859.066 144.545C858.554 142.158 857.815 140.055 856.849 138.236C855.94 136.36 854.774 134.854 853.353 133.717C851.932 132.523 850.227 131.927 848.238 131.927C846.874 131.927 845.652 132.381 844.572 133.291C843.548 134.2 842.639 135.365 841.843 136.786C841.104 138.207 840.451 139.771 839.882 141.476C839.314 143.124 838.859 144.716 838.518 146.25C839.03 144.659 839.541 143.039 840.053 141.391C840.621 139.742 841.275 138.236 842.014 136.872C842.81 135.508 843.719 134.399 844.742 133.547C845.765 132.637 846.959 132.182 848.323 132.182C850.085 132.182 851.591 132.666 852.842 133.632C854.149 134.598 855.229 135.849 856.082 137.383C856.991 138.918 857.702 140.68 858.213 142.669C858.782 144.602 859.208 146.591 859.492 148.638C859.776 150.627 859.947 152.588 860.004 154.521C860.117 156.396 860.174 158.016 860.174 159.38C860.174 160.46 860.146 161.54 860.089 162.62C860.089 163.7 860.061 164.809 860.004 165.945C859.492 163.786 859.094 161.54 858.81 159.21C858.583 156.823 858.327 154.492 858.043 152.219C857.758 149.888 857.389 147.671 856.934 145.568C856.536 143.408 855.94 141.419 855.144 139.6L855.741 138.747C855.172 137.44 854.519 136.445 853.78 135.763C853.098 135.024 852.416 134.484 851.733 134.143C851.051 133.802 850.426 133.603 849.858 133.547C849.289 133.49 848.92 133.461 848.749 133.461C847.328 133.461 846.049 133.973 844.913 134.996C843.833 136.019 842.866 137.412 842.014 139.174C841.218 140.879 840.508 142.868 839.882 145.142C839.257 147.416 838.717 149.803 838.262 152.304C837.808 154.805 837.41 157.334 837.069 159.892C836.728 162.393 836.443 164.752 836.216 166.969H836.983C837.268 165.036 837.552 162.905 837.836 160.574C838.177 158.244 838.518 155.885 838.859 153.497C839.257 151.053 839.712 148.694 840.223 146.421C840.735 144.147 841.332 142.101 842.014 140.282C842.753 138.463 843.605 136.985 844.572 135.849C845.481 134.769 846.589 134.143 847.897 133.973C846.646 134.257 845.595 135.053 844.742 136.36C843.833 137.724 843.037 139.401 842.355 141.391C841.673 143.38 841.048 145.568 840.479 147.956C839.968 150.286 839.484 152.531 839.03 154.691L837.324 167.139C837.097 167.935 836.927 168.645 836.813 169.271L836.472 171.061C836.358 171.629 836.245 172.255 836.131 172.937C836.017 173.562 835.875 174.301 835.705 175.154L835.449 176.177H834.937L826.326 173.278C826.042 173.221 825.814 173.136 825.644 173.022C825.53 172.908 825.388 172.766 825.218 172.596ZM840.053 128.857C838.916 129.824 838.007 130.875 837.324 132.012C836.699 133.092 836.102 134.2 835.534 135.337V135.422C836.33 133.774 837.438 132.097 838.859 130.392C840.223 128.8 842.042 127.607 844.316 126.811C843.577 127.038 842.866 127.266 842.184 127.493C841.389 127.777 840.678 128.232 840.053 128.857ZM850.284 126.044C850 125.987 849.602 125.958 849.09 125.958C850.909 126.413 852.614 126.925 854.206 127.493C855.798 128.005 857.304 129.056 858.725 130.648C857.758 129.34 856.48 128.317 854.888 127.578C853.353 126.839 851.819 126.328 850.284 126.044ZM852.586 135.763C852.131 135.422 851.591 135.167 850.966 134.996C850.398 134.769 849.687 134.484 848.835 134.143L848.749 133.973C849.716 134.03 850.568 134.257 851.307 134.655C852.046 134.996 852.757 135.621 853.439 136.531L852.586 135.763ZM858.895 130.818C859.691 131.785 860.43 132.893 861.112 134.143C861.794 135.394 862.391 136.502 862.903 137.469C862.334 136.161 861.794 134.968 861.283 133.888C860.771 132.808 859.975 131.785 858.895 130.818ZM884.146 164.326C885.056 164.61 886.136 165.121 887.386 165.86C888.693 166.599 890.143 167.366 891.734 168.162C893.326 168.958 895.06 169.668 896.935 170.294C898.868 170.919 900.914 171.232 903.074 171.232H904.012C904.353 171.232 904.751 171.175 905.205 171.061L906.143 171.743C908.36 171.061 910.179 169.782 911.6 167.906C913.021 165.974 913.732 163.388 913.732 160.148C913.732 157.817 913.163 156.226 912.026 155.373C910.946 154.464 908.929 154.009 905.973 154.009C904.154 154.009 902.25 154.151 900.26 154.435C898.328 154.663 896.282 154.776 894.122 154.776C893.155 154.776 892.161 154.748 891.138 154.691C890.114 154.577 889.063 154.379 887.983 154.094V154.606C890.257 155.174 892.502 155.458 894.718 155.458C896.878 155.458 898.925 155.345 900.857 155.117C902.847 154.833 904.751 154.691 906.57 154.691C908.104 154.691 909.298 154.862 910.151 155.203C911.06 155.487 911.742 155.885 912.197 156.396C912.652 156.908 912.936 157.533 913.049 158.272C913.22 158.954 913.305 159.721 913.305 160.574C913.305 163.246 912.595 165.519 911.174 167.395C909.81 169.157 908.19 170.265 906.314 170.72C908.417 169.981 910.065 168.702 911.259 166.883C912.509 164.951 913.135 162.791 913.135 160.404C913.135 158.698 912.68 157.391 911.771 156.482C910.918 155.572 909.412 155.117 907.252 155.117C905.49 155.117 903.5 155.231 901.284 155.458C899.067 155.686 896.708 155.8 894.207 155.8C892.672 155.8 890.882 155.601 888.836 155.203C886.846 154.805 884.942 154.066 883.123 152.986C881.304 151.906 879.77 150.428 878.519 148.552C877.269 146.62 876.643 144.119 876.643 141.05C876.643 138.605 877.126 136.36 878.093 134.314C879.116 132.211 880.452 130.392 882.1 128.857C883.748 127.266 885.624 126.015 887.727 125.106C889.887 124.196 892.104 123.713 894.377 123.656C896.537 123.656 898.584 123.969 900.516 124.594C902.506 125.163 904.381 125.93 906.143 126.896C907.905 127.806 909.582 128.829 911.174 129.966C912.765 131.102 914.243 132.239 915.607 133.376L913.902 135.081C913.504 135.081 912.907 134.854 912.112 134.399C911.316 133.888 910.094 133.035 908.445 131.841L907.934 132.609C909.98 134.257 911.458 135.792 912.367 137.213C913.334 138.634 913.817 139.742 913.817 140.538C913.703 140.993 913.419 141.22 912.964 141.22C912.509 141.22 911.6 140.851 910.236 140.112C908.872 139.373 907.309 138.549 905.547 137.639C903.841 136.73 902.022 135.905 900.09 135.167C898.157 134.428 896.395 134.058 894.804 134.058C893.894 134.058 892.985 134.229 892.075 134.57C891.166 134.911 890.342 135.394 889.603 136.019C888.864 136.588 888.239 137.298 887.727 138.151C887.272 139.003 887.045 139.941 887.045 140.964C887.045 142.613 887.812 143.721 889.347 144.289C890.882 144.858 892.9 145.142 895.401 145.142C895.912 145.142 896.452 145.142 897.021 145.142C897.646 145.085 898.214 145 898.726 144.886C900.033 144.886 900.886 144.858 901.284 144.801C901.738 144.687 902.165 144.63 902.562 144.63C905.007 144.63 907.451 144.801 909.895 145.142C912.339 145.483 914.527 146.222 916.46 147.359C918.392 148.496 919.955 150.115 921.149 152.219C922.343 154.322 922.94 157.135 922.94 160.659C922.94 163.103 922.513 165.548 921.661 167.992C920.865 170.379 919.643 172.539 917.995 174.471C916.346 176.347 914.3 177.853 911.856 178.99C909.412 180.184 906.541 180.781 903.245 180.781C901.255 180.781 898.896 180.383 896.168 179.587C893.496 178.848 890.939 177.967 888.495 176.944C886.107 175.864 884.061 174.756 882.356 173.619C880.707 172.482 879.883 171.516 879.883 170.72C879.883 170.493 880.025 170.322 880.31 170.208C883.777 172.766 887.301 174.869 890.882 176.518C894.406 178.052 898.015 178.905 901.71 179.076C899.891 178.962 898.072 178.649 896.253 178.138C894.377 177.569 892.502 176.887 890.626 176.091C888.807 175.239 887.045 174.301 885.34 173.278C883.692 172.198 882.1 171.118 880.565 170.038L881.844 168.93C881.674 168.873 881.361 168.674 880.906 168.333C880.452 167.992 879.997 167.565 879.542 167.054C879.144 166.542 878.775 166.002 878.434 165.434C878.093 164.865 877.922 164.326 877.922 163.814C877.922 163.246 878.036 162.876 878.263 162.706C878.491 162.535 878.746 162.45 879.031 162.45C879.315 162.45 879.912 162.649 880.821 163.047C881.731 163.444 882.839 163.871 884.146 164.326ZM902.989 173.022C900.999 173.022 898.783 172.624 896.338 171.828C893.951 170.976 891.678 169.896 889.518 168.589C891.28 169.782 893.241 170.862 895.401 171.828C897.56 172.738 900.061 173.193 902.903 173.193C906.712 173.193 909.724 172.027 911.941 169.697C914.215 167.366 915.351 164.24 915.351 160.318V159.466C915.067 157.647 914.442 156.169 913.476 155.032C912.566 153.839 911.145 153.185 909.213 153.071C910.406 153.299 911.373 153.668 912.112 154.18C912.907 154.691 913.504 155.316 913.902 156.055C914.357 156.737 914.669 157.505 914.84 158.357C915.01 159.21 915.096 160.091 915.096 161C914.868 164.752 913.675 167.708 911.515 169.867C909.355 171.971 906.513 173.022 902.989 173.022ZM913.817 176.347C915.238 175.438 916.375 174.329 917.227 173.022C918.08 171.715 918.819 170.351 919.444 168.93C918.25 171.317 916.602 173.42 914.499 175.239C912.453 177.058 910.008 178.194 907.166 178.649C908.246 178.479 909.355 178.251 910.492 177.967C911.685 177.626 912.794 177.086 913.817 176.347ZM921.916 160.318C921.916 159.693 921.803 159.096 921.575 158.528C921.405 158.073 921.263 157.59 921.149 157.078L921.234 158.187C921.291 158.642 921.32 159.267 921.32 160.063C921.32 161.597 921.149 163.075 920.808 164.496C920.467 165.917 920.041 167.31 919.529 168.674C920.041 167.423 920.524 166.116 920.979 164.752C921.49 163.331 921.803 161.853 921.916 160.318ZM921.149 156.823C921.149 156.879 921.149 156.965 921.149 157.078C921.149 156.965 921.149 156.879 921.149 156.823ZM906.229 170.805C906.172 170.805 906.115 170.805 906.058 170.805C906.115 170.805 906.172 170.805 906.229 170.805Z" fill="white"/>
<path fill-rule="evenodd" clip-rule="evenodd" d="M201.053 201.969C186.778 191.142 167.456 176.486 107.595 217.412C75.3048 194.114 67.4899 153.917 80.509 132.352C90.2473 127.13 98.287 118.136 106.346 109.12C121.723 91.9167 137.169 74.6357 164.618 83.339C148.918 106.481 200.517 130.858 200.517 72.9227C210.349 90.9829 223.448 102.658 234.279 112.312C245.075 121.935 253.619 129.55 254.43 139.48C256.866 169.318 247.496 196.005 224.115 207.45C214.491 212.161 208.45 207.579 201.053 201.969ZM213.638 219.407C216.425 219.791 222.006 220.56 228.481 216.449C235.657 211.893 230.173 231.524 219.25 233.613C214.794 234.464 208.337 218.868 212.699 219.288C212.962 219.313 213.277 219.357 213.638 219.407ZM223.474 132.047C223.474 139.002 217.836 144.64 210.882 144.64C203.927 144.64 198.289 139.002 198.289 132.047C198.289 125.093 203.927 119.455 210.882 119.455C217.836 119.455 223.474 125.093 223.474 132.047ZM202.09 153.431C202.09 160.386 196.453 166.024 189.498 166.024C182.543 166.024 176.905 160.386 176.905 153.431C176.905 146.476 182.543 140.838 189.498 140.838C196.453 140.838 202.09 146.476 202.09 153.431ZM210.882 187.407C217.836 187.407 223.474 181.769 223.474 174.814C223.474 167.86 217.836 162.222 210.882 162.222C203.927 162.222 198.289 167.86 198.289 174.814C198.289 181.769 203.927 187.407 210.882 187.407ZM244.858 153.431C244.858 160.386 239.22 166.024 232.265 166.024C225.311 166.024 219.673 160.386 219.673 153.431C219.673 146.476 225.311 140.838 232.265 140.838C239.22 140.838 244.858 146.476 244.858 153.431ZM114.655 142.265H93.2713V164.123H114.655L114.655 185.507H136.039V164.124L157.423 164.123V142.265L136.039 142.264V120.881H114.655L114.655 142.265Z" fill="white"/>
</svg>
