<svg width="209" height="149" viewBox="0 0 209 149" fill="none" xmlns="http://www.w3.org/2000/svg">
<g clip-path="url(#clip0)">
<path d="M52.3999 3.20001C53.9999 3.00001 55.4999 2.80001 57.0999 2.60001C57.4999 2.60001 57.8999 2.80001 57.8999 3.20001C58.1999 5.90001 58.4999 8.50001 58.7999 11.2C58.7999 11.6 58.5999 11.9 58.0999 12C56.3999 12.2 54.7999 12.4 53.0999 12.6C52.7999 12.6 52.3999 12.4 52.2999 12.1C51.1999 9.60001 48.5999 9.50001 46.9999 9.70001C42.7999 10.3 41.1999 13.3 41.6999 16.1C42.1999 19 44.6999 21.6 48.6999 21C51.2999 20.6 52.8999 20 54.3999 17.2C55.1999 15.6 56.2999 16 56.6999 16.1C57.5999 16.5 58.5999 16.8 59.4999 17.2C59.6999 17.3 59.8999 17.5 60.0999 17.6C61.1999 18.3 60.0999 21.7 58.3999 23.6C56.2999 25.8 54.2999 27 49.1999 27.7C41.8999 28.7 35.6999 24.4 34.3999 17.3C32.9999 9.8 38.3999 4.30001 45.7999 3.30001C47.8999 3.00001 50.0999 3.20001 51.6999 4.00001C51.6999 3.90001 51.7999 3.70001 51.7999 3.60001C51.7999 3.40001 52.0999 3.20001 52.3999 3.20001Z" fill="#FFC629"/>
<path d="M87.9001 16.1C85.2001 16.2 82.5001 16.3 79.9001 16.5C79.6001 16.5 79.4001 16.7 79.3001 16.9C79.1001 17.4 79.4001 17.8 79.9001 17.9C80.1001 17.9 80.3001 17.9 80.5001 17.9C80.9001 17.9 81.2001 18.2 81.2001 18.6C81.2001 19.9 81.3001 21.9 81.3001 23.2C81.3001 23.6 81.0001 23.9 80.6001 23.9C77.3001 24.1 74.0001 24.3 70.8001 24.6C70.4001 24.6 70.1001 24.3 70.0001 24C69.9001 22.3 69.7001 20.6 69.6001 19C69.6001 18.6 69.9001 18.3 70.3001 18.2C70.7001 18.2 71.2001 18.1 71.6001 18.1C71.9001 18.1 72.1001 17.9 72.2001 17.7C74.4001 12.2 77.0001 6.20001 79.4001 0.800006C79.5001 0.500006 79.8001 0.400006 80.0001 0.400006C82.1001 0.300006 84.1001 0.200006 86.2001 0.100006C86.5001 0.100006 86.8001 0.200006 86.9001 0.500006C90.0001 5.80001 92.9001 11.2 95.8001 16.6C95.9001 16.8 96.2001 17 96.5001 17C96.9001 17 97.4001 17 97.8001 17C98.2001 17 98.5001 17.3 98.5001 17.7C98.5001 19.4 98.6001 21.1 98.6001 22.8C98.6001 23.2 98.3001 23.5 97.9001 23.5C94.6001 23.6 91.3001 23.7 88.1001 23.8C87.7001 23.8 87.4001 23.5 87.4001 23.1C87.3001 21.8 87.2001 19.9 87.0001 18.5C87.0001 18.1 87.2001 17.8 87.6001 17.7C87.8001 17.7 88.0001 17.6 88.2001 17.6C88.7001 17.5 89.0001 17 88.7001 16.6C88.4001 16.2 88.2001 16.1 87.9001 16.1ZM82.7001 11.5C83.3001 11.5 84.0001 11.4 84.6001 11.4C85.1001 11.4 85.5001 10.8 85.2001 10.4C84.9001 9.8 84.5001 9.20001 84.2001 8.60001C83.9001 8.00001 83.1001 8.00001 82.8001 8.60001C82.5001 9.20001 82.2001 9.90001 82.0001 10.5C81.8001 11 82.2001 11.5 82.7001 11.5Z" fill="#FFC629"/>
<path d="M130.3 18.2C130.5 18.1 130.7 18 130.9 17.9C131.1 17.8 131.3 17.6 131.3 17.3C131.3 17 131.3 16.6 131.4 16.3C131.4 15.6 130.4 15.3 130.1 15.9C128.5 18.5 126.9 21.1 125.4 23.8C124.7 23.8 123.9 23.7 123.2 23.7C122.9 23.7 122.7 23.5 122.6 23.3C121.4 20.7 120.1 18 118.8 15.4C118.5 14.7 117.4 14.9 117.4 15.7C117.4 16 117.4 16.4 117.4 16.7C117.4 17 117.5 17.2 117.8 17.3C118 17.4 118.2 17.5 118.4 17.6C118.6 17.7 118.8 18 118.8 18.2C118.7 19.7 118.7 21.2 118.6 22.7C118.6 23.1 118.3 23.4 117.9 23.4C115 23.3 112.1 23.2 109.1 23.2C108.7 23.2 108.4 22.9 108.4 22.5C108.4 20.8 108.4 19.1 108.4 17.4C108.4 17 108.7 16.7 109.1 16.7C109.4 16.7 109.7 16.7 110 16.7C110.4 16.7 110.7 16.4 110.7 16C110.7 13 110.8 10.1 110.8 7.09999C110.8 6.69999 110.5 6.39999 110.1 6.39999C109.8 6.39999 109.5 6.39999 109.2 6.39999C108.8 6.39999 108.5 6.09999 108.5 5.69999C108.5 3.99999 108.5 2.29999 108.5 0.599994C108.5 0.199994 108.8 -0.100006 109.3 -0.100006C112.4 -0.100006 115.4 -6.10203e-06 118.5 0.0999939C118.8 0.0999939 119 0.299994 119.2 0.499994C120.9 4.09999 122.5 7.79999 124.1 11.5C124.3 12 125.1 12.1 125.4 11.6C127.3 8.09999 129.3 4.59999 131.4 1.19999C131.5 0.999994 131.8 0.799994 132.1 0.799994C135.1 0.999994 138.2 1.19999 141.2 1.49999C141.6 1.49999 141.9 1.89999 141.9 2.29999C141.8 3.99999 141.6 5.69999 141.5 7.39999C141.5 7.79999 141.1 8.09999 140.7 7.99999C140.4 7.99999 140.1 7.89999 139.8 7.89999C139.4 7.89999 139 8.19999 139 8.49999C138.8 11.4 138.5 14.4 138.3 17.3C138.3 17.7 138.6 18 139 18.1C139.3 18.1 139.6 18.1 139.9 18.2C140.3 18.2 140.6 18.6 140.6 19C140.5 20.7 140.3 22.4 140.2 24C140.2 24.4 139.8 24.7 139.4 24.6C136.5 24.3 133.6 24.1 130.6 23.9C130.2 23.9 129.9 23.5 129.9 23.2C130 21.7 130.1 20.2 130.2 18.7C129.9 18.5 130 18.3 130.3 18.2Z" fill="#FFC629"/>
<path d="M160.8 19.8C160.8 19.9 160.8 20 160.8 20C160.7 20.4 161 20.7 161.3 20.8C161.9 20.9 162.4 21.1 163 21.2C163.4 21.3 163.6 21.6 163.5 22C163.3 23.6 163 25.1 162.8 26.7C162.7 27.1 162.4 27.3 162 27.3C158.6 26.8 155.1 26.3 151.7 25.9C151.3 25.9 151 25.5 151.1 25.1C151.3 23.4 151.5 21.8 151.7 20.1C151.7 19.7 152.1 19.4 152.5 19.5C152.8 19.5 153.1 19.6 153.4 19.6C153.8 19.6 154.2 19.4 154.2 19C154.6 16.1 154.9 13.1 155.3 10.2C155.3 9.79999 155.1 9.49999 154.7 9.39999C154.4 9.39999 154.1 9.29999 153.8 9.29999C153.4 9.29999 153.1 8.89999 153.1 8.49999C153.3 6.79999 153.5 5.09999 153.7 3.39999C153.7 2.99999 154.1 2.69999 154.5 2.79999C157.8 3.09999 166.8 4.29999 167.2 4.39999C174.3 5.49999 176.6 9.09999 175.8 13.5C175.2 16.9 171.2 20.3 165.9 19.6C164.5 19.4 163.1 19.2 161.7 19C161.2 19.2 160.9 19.4 160.8 19.8ZM162.1 11.1C162 11.7 161.9 12.2 161.9 12.8C161.8 13.2 162.1 13.5 162.5 13.6C163.6 13.8 164.7 13.9 165.8 14.1C168.4 14.5 169.1 11.4 166.3 10.9C165.9 10.8 164.8 10.7 163 10.5C162.5 10.4 162.1 10.7 162.1 11.1Z" fill="#FFC629"/>
<path d="M24.7002 109.6H10.3002C7.2002 109.6 4.7002 107.1 4.7002 104V44.7C4.7002 41.9 7.0002 36.9 11.4002 36.9H30.3002C52.4002 36.9 62.3002 50.9 62.2002 66.9C62.2002 66.9 62.4002 82.5 50.5002 89.2C41.3002 94.3 35.3002 94.3 32.0002 94.9C30.9002 95.1 29.9002 95.9 29.9002 97.1L29.8002 104.6V104.7C29.7002 107.4 27.4002 109.6 24.7002 109.6ZM31.7002 75.5C35.4002 75.5 37.1002 74.7 39.0002 71.9C40.9002 69.2 41.1002 65.9 40.0002 63.1C39.3002 61.3 37.8002 59.8 36.0002 59.1L34.0002 58.7C33.6002 58.7 29.5002 58.2 29.6002 59.5V72.6C29.6002 73.2 29.5002 75.6 31.2002 75.5H31.7002Z" fill="#FFC629"/>
<path d="M187 38.6L173.4 52.2C171.6 54 168.6 54 166.8 52.2L153.2 38.6C151.4 36.8 148.4 36.8 146.6 38.6L135.5 49.7C133.7 51.5 133.7 54.5 135.5 56.3L148.9 70C150.7 71.8 150.7 74.8 148.9 76.6L135.3 90.2C133.5 92 133.5 95 135.3 96.8L146.4 107.9C148.2 109.7 151.2 109.7 153 107.9L166.6 94.3C168.4 92.5 171.4 92.5 173.2 94.3L187 108C188.8 109.8 191.8 109.8 193.6 108L204.7 96.9C206.5 95.1 206.5 92.1 204.7 90.3L191.1 76.7C189.3 74.9 189.3 71.9 191.1 70.1L204.7 56.5C206.5 54.7 206.5 51.7 204.7 49.9L193.6 38.8C191.8 36.8 188.8 36.8 187 38.6Z" fill="#FFC629"/>
<path d="M93.9003 85.7L106.9 107.7C107.6 108.9 108.8 109.6 110.2 109.6H128.6C131.5 109.6 133.4 106.4 131.9 103.9L94.9003 39.7C94.2003 38.4 92.3003 38.4 91.6003 39.7L54.5003 103.9C53.0003 106.5 54.9003 109.6 57.8003 109.6H76.2003C77.6003 109.6 78.8003 108.9 79.5003 107.7L92.5003 85.7C92.9003 85.2 93.6003 85.2 93.9003 85.7Z" fill="#FFC629"/>
<path d="M157.6 148.5C156 148.5 155.3 147.4 155.3 146.5V143.6C155.3 141.4 156.5 139.9 157.5 139L162.1 134.9C162.7 134.4 163.1 133.9 163.1 132.9C163.1 131.8 162.4 131.1 161.4 131.1C160.5 131.1 159.9 131.7 159.7 132.3L159.6 132.6C159.4 133.2 159.1 134.5 157.5 134.5C156 134.5 155.3 133.4 155.3 132.3V132C155.3 129 157.8 127.2 161.2 127.2C164.8 127.2 167.4 129.3 167.4 133.1C167.4 135.4 166.5 136.5 164.6 138.3L160.8 141.7C160 142.4 159.6 142.9 159.6 143.7V144.4H165.4C167 144.4 167.7 145.5 167.7 146.5C167.7 147.4 167 148.5 165.4 148.5H157.6Z" fill="#FFC629"/>
<path d="M170.7 132.9C170.7 129.7 173.6 126.9 177.1 126.9C180.6 126.9 183.5 129.7 183.5 132.9V142.9C183.5 146.2 180.6 149 177.1 149C173.7 149 170.7 146.2 170.7 142.9V132.9ZM175.1 133.5V142.5C175.1 144 176.1 144.7 177.1 144.7C178.1 144.7 179.1 144.1 179.1 142.5V133.5C179.1 132 178.1 131.3 177.1 131.3C176.1 131.3 175.1 132 175.1 133.5Z" fill="#FFC629"/>
<path d="M189.1 148.5C187.5 148.5 186.8 147.4 186.8 146.5V143.6C186.8 141.4 188 139.9 189 139L193.6 134.9C194.2 134.4 194.6 133.9 194.6 132.9C194.6 131.8 193.9 131.1 192.9 131.1C192 131.1 191.4 131.7 191.2 132.3L191.1 132.6C190.9 133.2 190.6 134.5 189 134.5C187.5 134.5 186.8 133.4 186.8 132.3V132C186.8 129 189.3 127.2 192.7 127.2C196.3 127.2 198.9 129.3 198.9 133.1C198.9 135.4 198 136.5 196.1 138.3L192.3 141.7C191.5 142.4 191.1 142.9 191.1 143.7V144.4H196.9C198.5 144.4 199.2 145.5 199.2 146.5C199.2 147.4 198.5 148.5 196.9 148.5H189.1Z" fill="#FFC629"/>
<path d="M206.6 127.5C208.3 127.5 208.9 128.6 208.9 129.5V146.5C208.9 147.5 208.2 148.7 206.7 148.7C205.2 148.7 204.5 147.5 204.5 146.5V131.5H203.4C201.8 131.5 201.2 130.4 201.2 129.4C201.2 128.5 201.9 127.4 203.4 127.4H206.6V127.5Z" fill="#FFC629"/>
<path d="M12.9 143.7C12.9 141.9 12.9 140.6 13.1 137.9H13C12.8 138.6 12.2 140.2 12 140.9L10.8 144C10.3 145.4 9.3 145.6 8.6 145.6C8 145.6 7 145.5 6.4 144L5.2 140.9C5 140.5 4.3 138.6 4.2 137.9H4.1C4.2 139.4 4.3 141.5 4.4 143.7V146.5C4.4 147.5 3.7 148.7 2.2 148.7C0.7 148.7 0 147.6 0 146.5V129.7C0 128.2 0.8 127.2 2.1 127.2C3 127.2 3.9 127.7 4.5 129L8.6 138.7H8.7L12.8 129C13.4 127.7 14.2 127.2 15.1 127.2C16.4 127.2 17.3 128.2 17.3 129.7V146.5C17.3 147.5 16.6 148.7 15.1 148.7C13.6 148.7 12.9 147.5 12.9 146.5V143.7Z" fill="#FFC629"/>
<path d="M21.1001 129.5C21.1001 128.6 21.8001 127.5 23.4001 127.5H30.3001C31.9001 127.5 32.6001 128.6 32.6001 129.5C32.6001 130.5 31.9001 131.6 30.3001 131.6H25.5001V135.8H29.1001C30.7001 135.8 31.4001 136.9 31.4001 137.8C31.4001 138.8 30.7001 139.9 29.1001 139.9H25.5001V144.4H30.3001C31.9001 144.4 32.6001 145.5 32.6001 146.4C32.6001 147.4 31.9001 148.5 30.3001 148.5H23.4001C21.8001 148.5 21.1001 147.4 21.1001 146.5V129.5Z" fill="#FFC629"/>
<path d="M37.9998 148.5C36.4998 148.5 35.7998 147.6 35.7998 146.5V129.4C35.7998 128.4 36.4998 127.2 37.9998 127.2C39.4998 127.2 40.1998 128.4 40.1998 129.4V144.4H44.5998C46.1998 144.4 46.8998 145.5 46.8998 146.4C46.8998 147.4 46.1998 148.5 44.5998 148.5H37.9998Z" fill="#FFC629"/>
<path d="M52.1999 148.5C50.5999 148.5 49.8999 147.4 49.8999 146.5V129.6C49.8999 128.7 50.5999 127.6 52.1999 127.6H55.6999C59.6999 127.6 62.4999 130 62.4999 133.1V133.3C62.4999 135 61.7999 136.3 60.1999 137.4C61.9999 138.2 62.7999 139.9 62.7999 142V142.2C62.7999 145.8 59.9999 148.5 55.9999 148.5H52.1999ZM55.6999 135.6C56.9999 135.6 58.0999 135 58.0999 133.7V133.5C58.0999 132.2 56.9999 131.6 55.6999 131.6H54.2999V135.6H55.6999ZM55.9999 144.4C57.2999 144.4 58.3999 143.7 58.3999 142.1V141.9C58.3999 140.4 57.1999 139.8 55.9999 139.8H54.2999V144.4H55.9999Z" fill="#FFC629"/>
<path d="M66 132.9C66 129.7 68.9 127.2 72.4 127.2C75.9 127.2 78.8 129.7 78.8 132.9V142.9C78.8 146.2 75.9 148.7 72.4 148.7C68.9 148.7 66 146.3 66 143V132.9ZM70.4 133.5V142.5C70.4 144 71.4 144.7 72.4 144.7C73.4 144.7 74.4 144.1 74.4 142.5V133.5C74.4 132 73.4 131.3 72.4 131.3C71.4 131.3 70.4 132 70.4 133.5Z" fill="#FFC629"/>
<path d="M95.0998 143C95.0998 146.3 92.1998 148.8 88.6998 148.8C85.1998 148.8 82.2998 146.3 82.2998 143V129.4C82.2998 128.4 82.9998 127.2 84.4998 127.2C85.9998 127.2 86.6998 128.4 86.6998 129.4V142.4C86.6998 143.9 87.6998 144.6 88.6998 144.6C89.6998 144.6 90.6998 144 90.6998 142.4V129.4C90.6998 128.4 91.3998 127.2 92.8998 127.2C94.3998 127.2 95.0998 128.4 95.0998 129.4V143Z" fill="#FFC629"/>
<path d="M104.2 140.3H103.2V146.6C103.2 147.6 102.5 148.8 101 148.8C99.4998 148.8 98.7998 147.6 98.7998 146.6V129.6C98.7998 128.7 99.4998 127.6 101.1 127.6H104.1C108.2 127.6 111.1 130.3 111.1 133.9V134.1C111.1 136.2 110.1 138 108.4 139.1L112 145.7C112.7 147.1 111.7 148.8 110.1 148.8C109.2 148.8 108.5 148.3 108.1 147.6L104.2 140.3ZM104.1 136.2C105.4 136.2 106.7 135.5 106.7 134V133.8C106.7 132.3 105.4 131.6 104.1 131.6H103.2V136.2H104.1Z" fill="#FFC629"/>
<path d="M124.2 129.4C124.2 128.4 124.9 127.2 126.4 127.2C127.9 127.2 128.6 128.4 128.6 129.4V146.2C128.6 147.7 127.8 148.7 126.4 148.7C125.4 148.7 124.6 148.2 124 147L119.6 137.9H119.5C119.7 140 119.7 142.1 119.7 143.6V146.5C119.7 147.5 119 148.7 117.5 148.7C116 148.7 115.3 147.5 115.3 146.5V129.7C115.3 128.2 116.1 127.2 117.5 127.2C118.5 127.2 119.3 127.7 119.9 128.9L124.2 137.9H124.3C124.1 135.8 124.2 133.8 124.2 132.3V129.4Z" fill="#FFC629"/>
<path d="M132.4 129.5C132.4 128.6 133.1 127.5 134.7 127.5H141.6C143.2 127.5 143.9 128.6 143.9 129.5C143.9 130.5 143.2 131.6 141.6 131.6H136.8V135.8H140.4C142 135.8 142.7 136.9 142.7 137.8C142.7 138.8 142 139.9 140.4 139.9H136.8V144.4H141.6C143.2 144.4 143.9 145.5 143.9 146.4C143.9 147.4 143.2 148.5 141.6 148.5H134.7C133.1 148.5 132.4 147.4 132.4 146.5V129.5Z" fill="#FFC629"/>
</g>
<defs>
<clipPath id="clip0">
<rect width="208.9" height="149" fill="white"/>
</clipPath>
</defs>
</svg>